<?xml version="1.0" standalone="no"?>
<!DOCTYPE svg PUBLIC "-//W3C//DTD SVG 1.1//EN" "http://www.w3.org/Graphics/SVG/1.1/DTD/svg11.dtd" >
<svg xmlns="http://www.w3.org/2000/svg">
<metadata></metadata>
<defs>
<font id="apple_garamond_lightregular" horiz-adv-x="823" >
<font-face units-per-em="2048" ascent="1638" descent="-410" />
<missing-glyph horiz-adv-x="411" />
<glyph horiz-adv-x="2048" />
<glyph horiz-adv-x="2048" />
<glyph unicode="&#xd;" horiz-adv-x="1024" />
<glyph unicode=" "  horiz-adv-x="411" />
<glyph unicode="&#x09;" horiz-adv-x="411" />
<glyph unicode="&#xa0;" horiz-adv-x="411" />
<glyph unicode="!" horiz-adv-x="454" d="M156 80q0 -47 20.5 -75t50.5 -28q31 0 51.5 27t20.5 78q0 49 -19.5 76.5t-52.5 27.5q-31 0 -51 -27.5t-20 -78.5zM158 1143q0 -4 3 -61.5t13 -168.5l19 -198q8 -74 10 -117t2 -55v-107q0 -49 3 -72.5t19 -23.5t19.5 21.5t3.5 64.5v111q0 18 2 62t10 116l19 198 q10 109 14 169.5t4 70.5q0 53 -19.5 82t-52.5 29q-70 0 -69 -121z" />
<glyph unicode="&#x22;" horiz-adv-x="671" d="M92 1364q0 -10 1 -20.5t3 -20.5l62 -455h30l62 455q2 12 3 22.5t1 20.5q0 96 -82 96q-80 0 -80 -98zM418 1366q0 -10 1 -21.5t3 -21.5l61 -455h31l61 455q2 10 3.5 20.5t1.5 20.5q0 98 -80 98q-82 0 -82 -96z" />
<glyph unicode="#" horiz-adv-x="1574" d="M117 479h332l-170 -479h112l172 479h293l-170 -479h113l170 479h340l37 99h-340l102 294h315l35 99h-315l172 483h-113l-172 -483h-295l172 483h-114l-170 -483h-359l-35 -99h359l-105 -294h-329zM596 578l104 294h295l-104 -294h-295z" />
<glyph unicode="$" d="M106 182q0 -23 3.5 -38t17.5 -30.5t43 -34t80 -44.5l-25 -244h47l25 227q16 -4 28.5 -6t24.5 -2h15q10 0 24 2l-22 -221h47l22 225q57 14 107.5 49t86.5 84.5t56.5 108.5t20.5 125q0 98 -52.5 184t-150.5 146l47 475q41 -27 58.5 -64t24.5 -69.5t11 -56t21 -23.5 q18 0 18 49q0 23 2 48.5t2 53.5q0 20 -6 36t-21.5 28t-41 25.5t-62.5 31.5l18 187h-47l-16 -172q-16 2 -28.5 3t-20.5 1q-10 0 -20.5 -1t-24.5 -3l16 172h-47l-18 -183q-106 -39 -168 -128t-62 -201q0 -92 41 -159t129 -120l-53 -555q-53 47 -73.5 99.5t-26.5 95.5 t-9.5 71.5t-21.5 28.5q-12 0 -15.5 -24.5t-3.5 -71.5v-105zM223 989q0 78 41.5 139.5t100.5 75.5l-39 -397q-102 57 -103 182zM301 66l53 552l90 -45l-51 -518q-8 -2 -24 -2q-35 0 -68 13zM371 782l43 439q12 2 23.5 3t21.5 1q14 0 47 -8l-45 -480zM440 66l47 481 q72 -47 100.5 -101.5t28.5 -126.5q0 -47 -14 -89t-37.5 -75.5t-55.5 -57t-69 -31.5z" />
<glyph unicode="%" horiz-adv-x="1243" d="M88 987q0 -72 22.5 -131t59.5 -102t85 -66.5t101 -23.5q51 0 99.5 24.5t86.5 69.5t60.5 107.5t22.5 138.5q0 68 -21.5 127t-58.5 102t-85.5 68.5t-103.5 25.5q-53 0 -101 -25.5t-85 -70.5t-59.5 -107.5t-22.5 -136.5zM168 -33h61l846 1354h-61zM182 1012q0 123 47 196.5 t123 73.5q37 0 69 -21.5t55.5 -60.5t37.5 -94t14 -123q0 -129 -49 -201.5t-119 -72.5q-72 0 -125 80.5t-53 222.5zM618 285q0 -72 23 -131.5t59.5 -102.5t86 -66.5t102.5 -23.5q51 0 99 25.5t86 70.5t60.5 107.5t22.5 136.5q0 68 -21.5 127t-58.5 103t-85 69t-103 25 q-53 0 -101.5 -26t-86 -71t-60.5 -107.5t-23 -135.5zM715 311q0 123 46 196t122 73q72 0 125 -81t53 -220q0 -125 -49 -199t-119 -74q-35 0 -67.5 21.5t-57.5 60.5t-39 95.5t-14 127.5z" />
<glyph unicode="&#x26;" horiz-adv-x="1189" d="M59 324q0 -80 20.5 -145.5t58.5 -113t91.5 -74t116.5 -26.5q160 0 295 148q47 51 67.5 84.5t34.5 33.5t21 -8l35 -51q16 -23 22 -43t6 -31q0 -25 -16 -33t-36.5 -11t-37 -7t-16.5 -18q0 -29 43 -29q37 0 79 7t89 7t90 -7t78 -7q43 0 43 33q0 20 -17.5 22t-52.5 17 q-47 20 -75.5 57t-61.5 82l-98 139q-12 14 -13 23q0 8 9 24l49 86q55 98 99 156.5t85 81.5q35 18 56.5 21t21.5 26t-23 23q-14 0 -39.5 -4.5t-62.5 -4.5q-66 0 -109 6.5t-61 6.5q-41 0 -41 -29q0 -16 18.5 -21.5t40 -8.5t40 -12t18.5 -36q0 -20 -11.5 -54t-37.5 -81l-58 -98 q-18 -31 -26 -31t-23 20l-219 304q-6 8 -6 18t22 25l58 34q47 29 82.5 54.5t59.5 54.5t36 62.5t12 76.5q0 53 -20.5 100.5t-57.5 81t-90 53t-117 19.5q-59 0 -109 -22.5t-89 -60.5t-60.5 -90t-21.5 -112q0 -66 19.5 -119t60.5 -110l35 -49q6 -8 6 -21q0 -4 -3 -10t-12 -10 l-77 -47q-109 -66 -164.5 -156t-55.5 -196zM184 381q0 51 9.5 88t28 66.5t45 54t61.5 49.5l55 39q10 8 25 8q10 0 20 -12l268 -369q8 -12 9 -24q0 -20 -25 -55.5t-63.5 -70t-89 -60t-101.5 -25.5t-95 22.5t-77 64.5t-51.5 99t-18.5 125zM360 1110q0 84 44.5 132t115.5 48 q80 0 133.5 -63.5t53.5 -161.5q0 -133 -119 -205l-51 -31q-14 -8 -27 -8q-14 0 -29 21l-53 73q-68 92 -68 195z" />
<glyph unicode="'" horiz-adv-x="346" d="M92 1364q0 -10 1 -20.5t3 -20.5l62 -455h30l62 455q2 12 2 23v20q0 96 -80 96t-80 -98z" />
<glyph unicode="(" horiz-adv-x="630" d="M145 428q0 -197 67 -383t189 -338q37 -45 73 -79t67.5 -55.5t55.5 -32.5t34 -11q14 0 14 14q0 10 -13.5 20.5t-37 26t-55 41t-66.5 68.5q-98 119 -153.5 304t-55.5 425t55.5 427t153.5 304q35 43 65.5 67.5t54 40t38 26t14.5 20.5q0 14 -16 14q-10 0 -37 -13.5t-61.5 -39 t-74.5 -64.5t-77 -90q-117 -160 -175.5 -333t-58.5 -359z" />
<glyph unicode=")" horiz-adv-x="630" d="M-16 -457q0 -14 16 -14q10 0 33.5 11t54.5 34t66.5 55.5t72.5 77.5q123 152 190.5 339t67.5 382t-67.5 382t-190.5 339q-72 88 -139.5 133t-87.5 45q-16 0 -16 -14q0 -12 16 -22.5t44 -29t61.5 -48t70.5 -78.5q90 -123 140.5 -303.5t50.5 -403.5q0 -240 -56.5 -425 t-154.5 -304q-35 -41 -66 -66.5t-54.5 -42t-37.5 -26.5t-14 -21z" />
<glyph unicode="*" horiz-adv-x="819" d="M129 780q0 -29 16.5 -52t40.5 -23q31 0 50.5 22.5t41 56t50 70.5t75.5 66q0 -55 -8 -100.5t-18 -80t-18.5 -63.5t-8.5 -51q0 -80 60 -80q59 0 59 90q0 23 -8 49.5t-18.5 58t-18.5 68.5t-8 80q0 8 1 15t1 16q49 -37 78.5 -75t51 -70t39 -52t44.5 -20q25 0 42 21.5t17 53.5 q0 29 -21.5 52.5t-60.5 33.5q-14 4 -33.5 6t-43 8.5t-50 19.5t-55.5 38q37 25 65.5 38t50 19t36 7.5t22.5 3.5q90 18 90 88q0 29 -16.5 51t-40.5 22q-31 0 -50.5 -22.5t-41 -55t-50 -69.5t-75.5 -66v9q0 51 8 93t18.5 76.5t18.5 63.5t8 53q0 78 -59 78t-60 -82 q0 -25 8.5 -52.5t17.5 -59t17 -68.5t8 -82v-25q-49 31 -77.5 67t-50 68.5t-40 54t-47.5 21.5q-25 0 -41 -23.5t-16 -53.5q0 -29 22.5 -52.5t59.5 -33.5q14 -4 33.5 -6.5t43 -8.5t50.5 -19.5t55 -37.5q-47 -35 -94 -48.5t-85 -22.5t-61.5 -25.5t-23.5 -57.5z" />
<glyph unicode="+" horiz-adv-x="1705" d="M254 561h551v-561h98v561h549v98h-549v562h-98v-562h-551v-98z" />
<glyph unicode="," horiz-adv-x="411" d="M117 -338q0 -23 16 -22q12 0 40 28.5t56.5 77.5t50 112.5t21.5 131.5q0 92 -27.5 140t-70.5 48q-31 0 -54.5 -27.5t-23.5 -72.5q0 -66 47 -86q16 -8 28.5 -11.5t21.5 -7.5t13.5 -13t4.5 -30q0 -49 -19.5 -93t-42 -78.5t-42 -59.5t-19.5 -37z" />
<glyph unicode="-" horiz-adv-x="448" d="M41 397q0 -10 12 -10h303q6 0 14.5 7t12.5 20l20 75l5 15q0 10 -15 10h-303q-6 0 -13 -7t-11 -20l-23 -75q-2 -6 -2 -15z" />
<glyph unicode="." horiz-adv-x="411" d="M133 82q0 -51 20.5 -78t51.5 -27t51 27t20 78q0 47 -19 75.5t-52 28.5q-31 0 -51.5 -28.5t-20.5 -75.5z" />
<glyph unicode="/" horiz-adv-x="569" d="M-37 -190h68l631 1517h-68z" />
<glyph unicode="0" d="M57 645q0 -166 29 -294t77 -214t112.5 -131t136.5 -45t136 45t112.5 131t77 214t28.5 294t-28.5 293t-77 214t-112.5 131t-136 44t-136.5 -44t-112.5 -131t-77 -214t-29 -293zM186 645q0 317 53.5 474t172.5 157t172 -156.5t53 -474.5q0 -317 -52.5 -475t-172.5 -158 q-119 0 -172.5 158t-53.5 475z" />
<glyph unicode="1" d="M152 1135q0 -31 26 -31q10 0 34 12t52.5 27.5t57 28t51.5 12.5q18 0 18 -33v-965q0 -59 -11 -86.5t-58 -36.5q-18 -4 -35 -4h-29h-18q-27 0 -41.5 -4t-14.5 -26q0 -31 41 -31q25 0 86.5 6t159.5 6q88 0 138 -5t61 -5q41 0 41 29q0 20 -14.5 25t-36 6t-48.5 1t-51 13 q-31 14 -37 42.5t-6 78.5v1026q0 35 2 55t2 27q0 25 -22 24q-16 0 -60.5 -32.5t-138.5 -75.5q-68 -31 -108.5 -44.5t-40.5 -39.5z" />
<glyph unicode="2" d="M55 12q0 -12 51 -12h375q61 0 107.5 -5t75.5 -5t35 16.5t6 67.5l2 207q0 16 -2.5 27t-12.5 11q-16 0 -20 -30.5t-17 -71.5q-10 -29 -30.5 -41t-67.5 -12h-344q-23 0 -23 8q0 4 11 21l30 51q80 125 163 217t149 170q78 92 121 178t43 190q0 70 -24 130.5t-66 104.5 t-98 68.5t-122 24.5q-137 0 -237 -113q-41 -45 -61.5 -92t-20.5 -63q0 -27 14 -27q23 0 31 27.5t31 62.5q82 129 204 129q92 0 149.5 -70.5t57.5 -195.5q0 -72 -23.5 -143.5t-66.5 -149.5t-102.5 -165t-128.5 -191q-92 -135 -140.5 -213t-48.5 -111z" />
<glyph unicode="3" d="M43 -41q0 -57 45 -96t123 -39q88 0 178 48t164 129t121 188.5t47 226.5q0 86 -22.5 154.5t-61.5 116.5t-91 74.5t-112 26.5h-49q-16 0 -16 7q0 6 30 26l72 49q78 53 114 110.5t36 127.5q0 92 -66 155.5t-182 63.5q-55 0 -104.5 -23.5t-87.5 -57.5t-59.5 -70.5 t-21.5 -63.5q0 -20 15 -20q12 0 29.5 26.5t43 59t64.5 59.5t96 27q63 0 104.5 -44t41.5 -116q0 -88 -54.5 -152.5t-148.5 -138.5t-145.5 -117t-51.5 -69q0 -12 7.5 -20.5t15.5 -8.5q4 0 18.5 15.5t41 34t66.5 33.5t95 15q57 0 105.5 -24.5t83 -70.5t54 -109.5t19.5 -141.5 q0 -109 -35 -194.5t-87 -145t-110.5 -91.5t-105.5 -32q-33 0 -51 22.5t-31.5 50.5t-30 51.5t-45.5 23.5t-45 -20.5t-16 -55.5z" />
<glyph unicode="4" d="M37 446q0 -31 49 -30h377q23 0 29 -8.5t6 -32.5v-205q0 -47 -7.5 -72.5t-35.5 -31.5q-45 -10 -71 -12.5t-26 -28.5q0 -16 9.5 -21.5t27.5 -5.5q8 0 54.5 4t138.5 4q66 0 98.5 -4t38.5 -4q23 0 23 27q0 18 -8.5 24t-20.5 7t-28.5 3t-31.5 11q-23 12 -29.5 36.5t-6.5 65.5 v205q0 20 5 29.5t25 9.5h97q25 0 24 22v31q0 18 -31 18h-88q-33 0 -32 45v433q0 20 -15 20q-41 0 -75.5 -16.5t-34.5 -57.5v-379q0 -45 -29 -45h-369q131 233 273 453l299 461q12 20 20 32.5t8 18.5q0 10 -16 10q-8 0 -19.5 -4t-27.5 -10l-485 -782q-115 -186 -115 -220z " />
<glyph unicode="5" d="M88 -168q0 -18 29 -18q18 0 51 6t76 19.5t93 36t103 52.5q139 84 216 212t77 272q0 158 -86 265t-246 142q-66 14 -111.5 20.5t-74.5 11.5t-42 13t-13 25q0 16 6 41l22 90q6 27 13.5 41t17.5 22.5t26.5 10.5t41.5 6l293 39q20 2 38.5 6t33 19.5t22.5 44t8 79.5 q0 14 -6 16.5t-17 2.5h-12q-8 0 -24 -4l-344 -56q-29 -4 -44.5 -8t-24.5 -14.5t-16.5 -30.5t-15.5 -57l-78 -326q-12 -53 -12 -63t15.5 -15.5t48 -10.5t81 -13.5t115.5 -22.5q135 -31 201.5 -114t66.5 -212q0 -145 -79.5 -262.5t-239.5 -189.5q-51 -23 -90 -33t-65.5 -14 t-40 -9.5t-13.5 -19.5z" />
<glyph unicode="6" d="M63 537q0 -123 30 -228.5t81 -182.5t116.5 -120t139.5 -43q68 0 128 36t105.5 97.5t72 144.5t26.5 179q0 92 -23.5 169t-62.5 133t-91.5 87t-109.5 31q-39 0 -72.5 -15.5t-58.5 -37t-39 -45t-14 -37.5q0 -18 16 -19q10 0 20.5 12.5t26 27.5t40 28.5t61.5 13.5 q39 0 73.5 -26.5t61 -77t42 -123t15.5 -164.5q0 -174 -58.5 -267.5t-150.5 -93.5q-53 0 -100 38t-83 106.5t-56.5 162t-20.5 203.5q0 264 99.5 467t275.5 326q45 31 82 49t63.5 30.5t41 22t14.5 23.5q0 10 -6.5 17t-16.5 7q-8 0 -38.5 -11t-75 -34.5t-99.5 -60.5t-112 -88 q-342 -313 -343 -737z" />
<glyph unicode="7" d="M59 1245q0 -23 2 -54.5t13 -72.5q49 16 104 21.5t121 5.5h238q127 0 127 -29q0 -35 -48 -170l-256 -733q-47 -133 -72.5 -201.5t-25.5 -79.5q0 -16 23 -16q29 0 34 14q4 12 35 108.5t97 283.5l219 622q53 150 87 228.5t34 95.5q0 20 -37 20q-8 0 -57.5 -3t-147.5 -3h-178 q-131 0 -198 4t-77 4q-29 0 -33 -11t-4 -34z" />
<glyph unicode="8" d="M51 311q0 -72 25.5 -135t72 -110.5t110 -76t136.5 -28.5q76 0 143.5 32t118 87t79 129t28.5 156q0 106 -41 184t-119 123l-59 33q-25 14 -25 18q0 6 17 18l49 33q74 51 110.5 105.5t36.5 136.5q0 66 -23.5 121t-64.5 96t-96 64.5t-121 23.5q-74 0 -136.5 -27.5 t-107.5 -77t-70.5 -115t-25.5 -140.5q0 -96 39 -167t106 -106l43 -22q10 -6 11 -19q0 -6 -29 -22l-39 -23q-168 -98 -168 -291zM158 301q0 76 24.5 137.5t58 104.5t71.5 66.5t63 23.5q14 0 40.5 -10.5t57.5 -29t61.5 -43t53.5 -52.5q63 -82 63 -199q0 -66 -19.5 -119 t-54 -92t-80.5 -60.5t-102 -21.5q-102 0 -169.5 80t-67.5 215zM186 1026q0 55 16.5 101.5t45 80t67.5 53t84 19.5q49 0 92.5 -20.5t75 -56.5t50 -86t18.5 -109q0 -63 -21.5 -111.5t-53.5 -82.5t-65.5 -51.5t-58.5 -17.5q-12 0 -34.5 7.5t-49 21.5t-52.5 31.5t-46 40.5 q-68 74 -68 180z" />
<glyph unicode="9" d="M49 881q0 -90 21.5 -162t61.5 -123t95.5 -79t120.5 -28q31 0 61.5 10.5t54 26t39 32.5t15.5 32q0 20 -16 20q-6 0 -32 -20.5t-83 -20.5q-94 0 -155.5 96.5t-61.5 264.5q0 78 17.5 142.5t46 109.5t67.5 69.5t82 24.5q47 0 93 -34t82 -95.5t58.5 -147.5t22.5 -190 q0 -207 -87 -404.5t-249 -357.5q-53 -53 -97 -83t-75 -48t-48 -29.5t-17 -25.5q0 -27 22 -27q12 0 42 12.5t71 37t92 61.5t104 88q367 342 367 755q0 125 -33 225.5t-84 171t-114.5 109.5t-124.5 39q-74 0 -139.5 -33.5t-114 -94t-77 -143.5t-28.5 -181z" />
<glyph unicode=":" horiz-adv-x="448" d="M154 82q0 -51 20.5 -78t50.5 -27q31 0 51.5 27t20.5 78q0 47 -19.5 75.5t-52.5 28.5q-31 0 -51 -28.5t-20 -75.5zM154 662q0 -51 20.5 -78t50.5 -27q31 0 51.5 26.5t20.5 78.5q0 47 -19.5 75.5t-52.5 28.5q-31 0 -51 -28.5t-20 -75.5z" />
<glyph unicode=";" horiz-adv-x="448" d="M133 -338q0 -23 17 -22q10 0 37.5 29.5t56 77.5t51 111.5t22.5 131.5q0 92 -27.5 140t-72.5 48q-31 0 -53.5 -27.5t-22.5 -70.5q0 -31 12.5 -54.5t34.5 -33.5q16 -8 29.5 -10t22 -7.5t12.5 -13.5t4 -29q0 -49 -19.5 -93t-42 -79.5t-42 -60.5t-19.5 -37zM150 662 q0 -51 20 -78t51 -27t51.5 26.5t20.5 78.5q0 49 -19.5 76.5t-52.5 27.5q-31 0 -51 -27.5t-20 -76.5z" />
<glyph unicode="&#x3c;" horiz-adv-x="1705" d="M264 569l1178 -481v109l-1022 413l1022 416v109l-1178 -484v-82z" />
<glyph unicode="=" horiz-adv-x="1705" d="M254 375h1198v98h-1198v-98zM254 748h1198v98h-1198v-98z" />
<glyph unicode="&#x3e;" horiz-adv-x="1705" d="M264 88l1178 481v82l-1178 484v-109l1022 -416l-1022 -413v-109z" />
<glyph unicode="?" horiz-adv-x="542" d="M84 1196q0 -152 41 -152q20 0 33.5 26t29 57.5t38 57t59.5 25.5q55 0 95 -56t40 -146q0 -49 -13.5 -90t-36 -77t-54 -70t-70.5 -69q-49 -47 -76 -74.5t-27 -64.5q0 -20 7 -51l24 -154q6 -31 21 -30q16 0 16 30q0 6 -1 13.5t-1 15.5q0 72 32.5 113t82.5 86 q41 37 73.5 73.5t55 76.5t35 86t12.5 104q0 76 -22.5 138t-60.5 107.5t-89.5 70t-108.5 24.5q-72 0 -103.5 -17.5t-31.5 -52.5zM119 82q0 -51 20.5 -78t50.5 -27q31 0 51.5 27t20.5 78q0 47 -19.5 75.5t-52.5 28.5q-31 0 -51 -28.5t-20 -75.5z" />
<glyph unicode="@" horiz-adv-x="2019" d="M147 537q0 -197 78 -355.5t230 -275.5q242 -184 614 -185q356 0 653 220l-30 34q-137 -104 -294 -156t-323 -52q-352 0 -586 202q-125 106 -179 234.5t-54 302.5q0 207 67.5 376t202.5 296q119 113 270.5 171t329.5 58q160 0 290 -46t222.5 -129t142.5 -198.5t50 -257.5 q0 -147 -52.5 -278t-144.5 -219q-59 -55 -120.5 -83t-102.5 -28q-100 0 -100 111q0 27 5 51t13 53l170 606h-131l-55 -182q-45 199 -221 199q-72 0 -149 -35t-146 -103q-92 -90 -139.5 -196.5t-47.5 -210.5q0 -154 75 -245t196 -91q190 0 311 215q12 -215 205 -215 q133 0 254 111q106 98 164.5 234t58.5 296q0 156 -54.5 282t-153.5 215t-239.5 138t-312.5 49q-367 0 -631 -221q-166 -137 -251 -312.5t-85 -379.5zM739 379q0 90 41 214t119 243q45 66 90.5 99.5t104.5 33.5q74 0 125 -61.5t51 -159.5q0 -86 -32 -194t-93 -206 q-115 -178 -248 -178q-72 0 -115 55.5t-43 153.5z" />
<glyph unicode="A" horiz-adv-x="940" d="M-57 23q0 -27 32 -27q27 0 61 7t75 7q55 0 95 -8t62 -8q37 0 37 24q0 23 -21.5 31t-66.5 14q-29 4 -44 15.5t-15 42.5q0 33 14 84l66 246q4 14 12 21t18 7h310q20 0 26 -24l80 -256q10 -35 13 -60.5t3 -32.5q0 -33 -17 -38t-58 -9q-66 -4 -66 -34q0 -16 10.5 -20.5 t32.5 -4.5q35 0 74 5t86 5q82 0 129 -6t63 -6q41 0 41 27q0 12 -9 17t-21.5 7t-26.5 4t-27 8q-29 16 -48 59.5t-44 121.5l-303 968q-16 53 -23.5 85t-29.5 32q-16 0 -20.5 -13.5t-12.5 -35.5l-301 -1006q-23 -74 -38 -120t-32 -66q-18 -20 -38.5 -25.5t-38 -8.5t-28.5 -7 t-11 -22zM274 559q0 4 5 16l124 429q6 16 13 16q6 -1 12 -19l137 -421q2 -4 2 -15q0 -20 -22 -20h-252q-18 0 -19 14z" />
<glyph unicode="B" horiz-adv-x="1005" d="M39 1229q0 -29 24 -29q16 0 32 5t36 5q31 0 45 -17t14 -63v-937q0 -16 -1 -26.5t-1 -14.5q0 -41 -16 -65t-63 -24q-49 0 -50 -30q0 -33 39 -33q23 0 60 6t94 6q74 0 161 -15t191 -15q80 0 146.5 27.5t112.5 77.5t72 118.5t26 150.5q0 135 -77 229.5t-218 129.5 q229 61 229 262q0 168 -120 241.5t-361 73.5q-375 0 -375 -63zM330 201v432q0 20 5 27.5t23 7.5h144q152 0 228.5 -83t76.5 -231q0 -147 -79 -230t-214 -83q-104 0 -144 38t-40 122zM330 776v363q0 57 23.5 79.5t109.5 22.5q137 0 208.5 -70.5t71.5 -199.5 q0 -123 -85 -188.5t-250 -65.5q-47 0 -62.5 9t-15.5 50z" />
<glyph unicode="C" horiz-adv-x="1032" d="M63 645q0 -147 41 -272t115 -217.5t174.5 -143.5t216.5 -51q61 0 112.5 11.5t92.5 28.5t69.5 37.5t41 39t15.5 75t3 158.5q0 35 -20 35q-16 0 -21.5 -25.5t-21.5 -70.5q-41 -115 -102.5 -172.5t-160.5 -57.5q-82 0 -153.5 46.5t-125.5 129.5t-85 197.5t-31 251.5 q0 147 31 264t84 197t123.5 123t152.5 43q158 0 240 -152q27 -47 33 -79.5t26 -32.5q18 0 19 26q0 94 -6 149.5t-17 67.5q-10 10 -35.5 23.5t-63.5 25t-84 19.5t-97 8q-119 0 -221.5 -51t-179 -142.5t-121 -216.5t-44.5 -272z" />
<glyph unicode="D" horiz-adv-x="1196" d="M45 33q0 -33 43 -33q41 0 83 7t89 7t111.5 -10t148.5 -10q143 0 257 44t193 126t119.5 197.5t40.5 259.5q0 150 -44 276.5t-125.5 218.5t-196.5 144.5t-258 52.5q-63 0 -154.5 -10.5t-201.5 -32.5q-53 -10 -78 -22.5t-25 -37.5q0 -31 23 -30q18 0 36.5 9t40.5 9 q41 0 41 -68v-937v-15q0 -29 -1 -47t-7 -30.5t-19.5 -19.5t-35.5 -13q-14 -4 -29 -5q-14 0 -25.5 -2t-18.5 -8t-7 -20zM322 242v893q0 31 5 52t23.5 36.5t54 22.5t95.5 7q109 0 197.5 -45t153 -126t100.5 -191.5t36 -241.5q0 -287 -127 -446.5t-354 -159.5q-55 0 -91 9 t-56.5 31.5t-28.5 61t-8 97.5z" />
<glyph unicode="E" horiz-adv-x="917" d="M45 33q0 -33 43 -33q16 0 89 6t208 6q174 0 274.5 -10t128.5 -10q35 0 45.5 12t14.5 59l18 193q2 16 3 26l1 11q0 4 -7 10t-13 6q-12 0 -19.5 -12t-13.5 -32.5t-16 -47.5t-31 -53q-45 -59 -104.5 -85t-155.5 -26q-100 0 -140 33t-40 107v440q0 20 5 28.5t23 8.5h113 q117 0 156 -70q20 -35 27.5 -64.5t10.5 -51t7 -34t18 -12.5q20 0 21 37q0 8 -2 55.5t-2 139.5q0 76 4 122t4 62q0 37 -23 37q-14 0 -18 -11.5t-7 -27.5t-10.5 -38.5t-27.5 -43.5q-37 -41 -156 -41h-102q-29 0 -35 4t-6 23v336q0 41 8 67.5t28.5 43t56.5 22.5t91 6 q145 0 219 -98q18 -25 28.5 -49.5t16.5 -45t13.5 -33t19.5 -12.5q23 0 23 51v177q0 27 -3.5 41t-12.5 20t-25.5 7t-44.5 1h-455h-207q-37 0 -37 -28q0 -16 8.5 -21.5t21.5 -7.5t30 -2q18 0 36 -6q33 -10 39 -28.5t6 -66.5v-937q0 -66 -9 -89.5t-56 -35.5q-14 -4 -29 -5 q-14 0 -25.5 -2t-18.5 -8t-7 -20z" />
<glyph unicode="F" horiz-adv-x="868" d="M45 33q0 -33 43 -33q20 0 63.5 5t108.5 5q66 0 114 -5t79 -5q53 0 53 33q0 14 -8.5 20t-21.5 8t-32 2q-16 0 -34 5q-29 6 -44.5 13t-22.5 19.5t-9 33t-2 52.5v447q0 20 4 28.5t22 8.5h113q117 0 156 -70q20 -35 27.5 -64.5t10.5 -51t7 -34t18 -12.5q20 0 21 37 q0 8 -2 56.5t-2 140.5q0 78 5 122t5 60q0 37 -25 37q-14 0 -18 -11.5t-8 -27.5t-12.5 -38.5t-28.5 -43.5q-16 -16 -54.5 -28.5t-97.5 -12.5h-106q-27 0 -32 8t-5 35v320q0 39 7 65.5t26.5 43t54.5 23.5t88 7q76 0 125 -23.5t90 -79.5q20 -27 30.5 -51t17.5 -42.5t13 -30 t19 -11.5q23 0 22 43v185q0 25 -1 39t-9 20t-25.5 8t-50.5 2h-444h-207q-37 0 -37 -28q0 -16 8.5 -21.5t21.5 -7.5t30 -2q18 0 36 -6q33 -10 39 -28.5t6 -66.5v-937q0 -66 -9 -89.5t-56 -35.5q-14 -4 -29 -5q-14 0 -25.5 -2t-18.5 -8t-7 -20z" />
<glyph unicode="G" horiz-adv-x="1185" d="M63 618q0 -143 43.5 -264t120 -208t183 -136t235.5 -49q74 0 142.5 16.5t122 42t86 59.5t32.5 71q0 6 -1 25.5t-1 49.5v246q0 47 6 66.5t41 29.5q16 4 31 4q14 0 25.5 2t17.5 8.5t6 20.5q0 27 -27 27q-18 0 -59 -7.5t-109 -7.5q-72 0 -116.5 7.5t-65.5 7.5q-31 0 -31 -27 q0 -16 8.5 -21.5t21.5 -6.5t30.5 -2t36.5 -7q31 -10 38 -28.5t7 -65.5v-227q0 -49 -6.5 -90t-29 -71t-64.5 -46.5t-113 -16.5q-94 0 -176 44.5t-142.5 126t-95.5 197.5t-35 257q0 135 34 251t94.5 199t141 130t175.5 47q84 0 145.5 -41t93.5 -117q23 -49 30 -83t30 -34 t22 29q0 98 -3 153.5t-15 71.5q-8 10 -34 23.5t-62.5 25t-84 19.5t-100.5 8q-135 0 -249.5 -53t-198.5 -147.5t-132.5 -224.5t-48.5 -284z" />
<glyph unicode="H" horiz-adv-x="1216" d="M45 33q0 -33 43 -33q20 0 63.5 5t108.5 5q66 0 109 -5t63 -5q43 0 43 29q0 16 -8 23t-20.5 9t-28.5 2t-35 7q-20 6 -30.5 14t-15.5 21.5t-6 34t-1 53.5v444q0 20 5 27.5t23 7.5h502q18 0 22.5 -7.5t4.5 -27.5v-444q0 -33 -1 -54.5t-7.5 -35t-19.5 -21.5t-38 -14 q-14 -4 -28 -5q-14 0 -25.5 -2t-19 -8t-7.5 -20q0 -33 45 -33q20 0 63.5 5t108.5 5q66 0 109 -5t63 -5q43 0 44 29q0 16 -8.5 23t-20.5 9t-29 2q-16 0 -35 7q-20 6 -30.5 14t-15.5 21.5t-6 34t-1 53.5v937q0 49 7 69t46 28q18 4 35 5t28 3t17 7t6 20q0 28 -26 28h-2 q-20 0 -66.5 -8t-120.5 -8q-68 0 -109.5 8t-64.5 8q-31 0 -30 -28q0 -16 7 -21.5t20 -7.5t30 -2q18 0 39 -6q31 -10 37 -27.5t6 -67.5v-360q0 -20 -4 -27.5t-23 -7.5h-502q-18 0 -23 7.5t-5 27.5v360q0 49 7 69t46 28q18 4 34.5 5t29 3t18.5 7t6 20q0 28 -29 28h-2 q-20 0 -65 -8t-119 -8q-68 0 -111 8t-65 8q-31 0 -31 -28q0 -16 7 -21.5t20.5 -7.5t29.5 -2q18 0 39 -6q31 -10 38 -27.5t7 -67.5v-937q0 -33 -1 -54.5t-7 -35t-19 -21.5t-38 -14q-14 -4 -29 -5q-14 0 -25.5 -2t-18.5 -8t-7 -20z" />
<glyph unicode="I" horiz-adv-x="520" d="M37 33q0 -33 45 -33q23 0 68 5t110 5q66 0 110 -5t66 -5q45 0 45 29q0 16 -7 22t-18.5 9t-27.5 3q-14 0 -29 5q-27 6 -41 14t-20 21.5t-7 35t-1 54.5v937q0 49 7 69t46 28q18 4 34.5 5t29 3t18.5 7t6 20q0 28 -29 28h-2q-20 0 -65 -8t-119 -8q-68 0 -111 8t-65 8 q-31 0 -31 -28q0 -16 7 -21.5t20.5 -7.5t29.5 -2q18 0 39 -6q31 -10 38 -27.5t7 -67.5v-937q0 -35 -1 -55.5t-8 -35t-21.5 -21.5t-38.5 -13q-16 -4 -31 -5q-14 0 -26.5 -2t-19.5 -8t-7 -20z" />
<glyph unicode="J" horiz-adv-x="530" d="M-158 -268q0 -49 29 -80t80 -31q59 0 127.5 40t132.5 120q84 106 107.5 210.5t23.5 223.5q0 16 -1 77.5t-1 172.5v665q0 51 7 69t46 28q37 8 62.5 7t25.5 28q0 28 -28 28h-2q-20 0 -66.5 -8t-120.5 -8q-70 0 -117 8t-73 8q-35 0 -35 -28q0 -14 8 -19.5t23.5 -7.5t35 -3 t44.5 -7q35 -10 42 -26.5t7 -68.5v-933q0 -113 -4.5 -198t-20.5 -144q-23 -72 -59.5 -109t-63.5 -37q-23 0 -36 17.5t-25.5 38t-28.5 38t-45 17.5t-51.5 -23.5t-22.5 -64.5z" />
<glyph unicode="K" horiz-adv-x="1017" d="M37 33q0 -33 45 -33q23 0 68 5t110 5q66 0 110 -5t66 -5q45 0 45 29q0 16 -7 22t-18.5 9t-27.5 3q-14 0 -29 5q-27 6 -41 14t-20 21.5t-7 35t-1 54.5v342q0 16 3 26t13 23l55 69q6 10 15 11q4 0 14 -15l262 -418q33 -53 48.5 -91t15.5 -54q0 -31 -62 -31q-47 0 -47 -26 q0 -10 12.5 -19.5t34.5 -9.5q18 0 54 5t94 5q63 0 107 -5t69 -5q47 0 47 29q0 14 -6 19t-16.5 6t-23.5 3t-28 9q-29 12 -54.5 40.5t-53.5 75.5l-363 584q-4 8 -4 12q0 12 12 25l242 293q57 70 101 97.5t75 36.5t47.5 11t16.5 21q0 28 -25 28h-2q-20 0 -60 -8t-108 -8 q-61 0 -101 8t-59 8q-29 0 -28 -28q0 -20 16 -24.5t36.5 -7.5t37 -10.5t16.5 -33.5q0 -25 -24 -58l-353 -446q-16 -23 -20 -23q-6 0 -6 21v450q0 49 7 69t46 28q18 4 34.5 5t29 3t18.5 7t6 20q0 28 -29 28h-2q-20 0 -65 -8t-119 -8q-68 0 -111 8t-65 8q-31 0 -31 -28 q0 -16 7 -21.5t20.5 -7.5t29.5 -2q18 0 39 -6q31 -10 38 -27.5t7 -67.5v-937q0 -35 -1 -55.5t-8 -35t-21.5 -21.5t-38.5 -13q-16 -4 -31 -5q-14 0 -26.5 -2t-19.5 -8t-7 -20z" />
<glyph unicode="L" horiz-adv-x="788" d="M45 33q0 -33 43 -33q18 0 79.5 7t170.5 7q129 0 226.5 -9t158.5 -9q33 0 38 11t9 56l18 193q2 16 3 27v10q0 4 -5.5 10t-11.5 6q-10 0 -16 -11t-12.5 -30.5t-14.5 -44t-26 -51.5q-82 -119 -232 -119q-47 0 -74.5 9.5t-43 26.5t-20.5 43t-5 61v937q0 49 7 69t46 28 q18 4 34.5 5t29 3t18.5 7t6 20q0 28 -29 28h-2q-20 0 -65 -8t-119 -8q-68 0 -111 8t-65 8q-31 0 -31 -28q0 -16 7 -21.5t20.5 -7.5t29.5 -2q18 0 39 -6q31 -10 38 -27.5t7 -67.5v-937q0 -66 -9 -89.5t-56 -35.5q-14 -4 -29 -5q-14 0 -25.5 -2t-18.5 -8t-7 -20z" />
<glyph unicode="M" horiz-adv-x="1308" d="M25 33q0 -35 47 -35q25 0 54.5 4t66.5 4q29 0 57.5 -4t56.5 -4q49 0 49 31q0 33 -26 32q-10 0 -19.5 -1t-19.5 -1q-51 0 -62.5 46.5t-11.5 142.5q0 35 1 70.5t3 70.5l31 664q0 29 6 28q10 0 14 -8l332 -1016q6 -16 14 -16t15 16l334 1010q4 14 12 14q4 0 4 -28l21 -813 v-50q0 -53 -5.5 -76.5t-25.5 -33.5q-20 -12 -40 -14.5t-35 -4.5t-25.5 -7t-10.5 -21q0 -33 43 -33q23 0 62 5t100 5q59 0 100 -5t64 -5q41 0 41 29q0 18 -8.5 24t-21.5 8t-31.5 3.5t-36.5 9.5q-16 8 -24.5 16t-11.5 21.5t-4 33t-1 48.5l-27 894v43q0 47 6 64.5t29 28.5 q18 8 36.5 9t32 2t22.5 6t9 22q0 28 -29 28h-2h-206q-16 0 -22.5 -10t-10.5 -27l-297 -915q-6 -18 -15 -19q-8 0 -14 17l-305 934q-4 16 -13.5 18t-23.5 2h-201q-31 0 -30 -28q0 -16 7 -21.5t19.5 -6.5t29.5 -2t36 -7q45 -14 45 -80v-23l-37 -733q-4 -92 -9 -154.5 t-14.5 -101.5t-24.5 -56.5t-40 -17.5q-6 0 -11 1t-14 1q-35 0 -34 -28z" />
<glyph unicode="N" horiz-adv-x="1118" d="M45 33q0 -35 47 -35q23 0 53.5 4t69.5 4q31 0 58.5 -4t54.5 -4q49 0 49 31q0 33 -27 32q-14 0 -24.5 -1t-14.5 -1q-29 0 -43 15.5t-22 51.5t-9 92t-1 136v727q0 35 8 35q10 0 20 -14l656 -1104q10 -16 16 -16q10 0 10 14v965q0 74 2 126t10.5 84.5t24.5 47t45 14.5h23 q20 0 28 5t8 22q0 30 -44 30h-3q-20 0 -51 -3t-71 -3q-37 0 -65 3t-50 3q-47 0 -47 -30q0 -16 11 -21.5t27.5 -6.5t35 -2t30.5 -13q27 -23 31 -99t4 -217v-543q0 -29 -10 -28q-6 0 -21 22l-545 912q-10 18 -20 22t-29 4h-186q-27 0 -27 -28q0 -16 7.5 -21.5t18.5 -6.5 t27.5 -2t34.5 -7q29 -10 35 -28.5t6 -66.5v-776q0 -80 -1 -136t-9 -92t-23.5 -51.5t-41.5 -15.5q-10 0 -19.5 1t-17.5 1q-29 0 -29 -28z" />
<glyph unicode="O" horiz-adv-x="1232" d="M63 645q0 -147 45.5 -272t121 -217.5t176 -143.5t210.5 -51q111 0 211.5 52.5t176 143.5t119.5 216t44 272t-44 272t-119.5 216.5t-176 142.5t-211.5 51t-211 -51t-175.5 -142.5t-121 -216t-45.5 -272.5zM223 645q0 147 31 264t84 198t124.5 123t151.5 42q82 0 155 -42 t126 -123t84 -197.5t31 -264.5q0 -147 -31 -263t-84 -197t-124 -123t-153 -42q-84 0 -155.5 42t-124.5 122t-84 197t-31 264z" />
<glyph unicode="P" horiz-adv-x="858" d="M59 33q0 -33 39 -33q16 0 56.5 5t105.5 5q66 0 106 -5t56 -5q41 0 41 29q0 16 -7 22t-18.5 8t-27 3t-31.5 8q-37 12 -43 36.5t-6 86.5v395q0 39 14 39q10 0 28.5 -9.5t44 -19.5t56.5 -19.5t66 -9.5q53 0 103 27t89 74t62.5 111.5t23.5 140.5q0 174 -87 271t-249 97 q-57 0 -123.5 -3t-144.5 -3h-29q-14 0 -33.5 3t-44.5 3q-37 0 -36 -28q0 -16 7 -21.5t18 -7.5t26 -2q14 0 31 -6q29 -10 33.5 -28.5t4.5 -66.5v-937q0 -33 -2 -57.5t-11 -41t-30.5 -25t-60.5 -8.5q-27 0 -27 -28zM330 766v4v363q0 53 19.5 77.5t99.5 24.5q47 0 89 -22.5 t73.5 -63.5t50 -98.5t18.5 -124.5q0 -61 -17.5 -113.5t-47 -90.5t-69.5 -58.5t-85 -20.5q-49 0 -76 11.5t-39 29.5t-14 39.5t-2 42.5z" />
<glyph unicode="Q" horiz-adv-x="1232" d="M63 645q0 -119 30 -225.5t84 -192.5t130 -148.5t168 -92.5l35 -11q18 -6 18 -45v-49q0 -61 29 -116.5t84 -97.5t133 -66.5t176 -24.5q92 0 154.5 27.5t62.5 60.5q0 23 -24 23q-16 0 -55 -18.5t-99 -18.5q-51 0 -100 16.5t-89 46t-67.5 70.5t-38.5 88l-12 59q0 4 -1 6.5 t-1 4.5q0 25 25 30l43 13q90 25 166.5 84t133 146t88 196.5t31.5 234.5q0 147 -44 272t-119.5 216.5t-176 142.5t-211.5 51t-211 -51t-175.5 -142.5t-121 -216t-45.5 -272.5zM223 645q0 147 31 264t84 198t124.5 123t151.5 42q82 0 155 -42t126 -123t84 -197.5t31 -264.5 q0 -147 -31 -263t-84 -197t-124 -123t-153 -42q-84 0 -155.5 42t-124.5 122t-84 197t-31 264z" />
<glyph unicode="R" horiz-adv-x="942" d="M59 33q0 -33 39 -33q16 0 56.5 5t105.5 5q66 0 106 -5t56 -5q41 0 41 29q0 18 -7 24t-20.5 7t-30 3.5t-34.5 10.5q-29 14 -35 35.5t-6 83.5v407q0 20 5 27.5t23 7.5h25q39 0 62.5 -7t40 -24.5t28.5 -46.5t31 -72l178 -417q16 -37 28.5 -52.5t47.5 -15.5q18 0 42.5 2 t57.5 2q16 0 29.5 -2t23.5 -2q23 0 23 20q0 23 -25.5 28t-60.5 20q-20 8 -41 53t-55 129l-91 215q-31 74 -57.5 124t-79.5 73q133 23 203 103.5t70 211.5q0 166 -98.5 239.5t-295.5 73.5q-53 0 -94 -2t-76 -2q-63 0 -105 2t-63 2q-37 0 -36 -28q0 -16 7 -21.5t18 -7.5t26 -2 q14 0 31 -6q29 -10 33.5 -28.5t4.5 -66.5v-937q0 -16 -1 -26.5t-1 -14.5q0 -41 -16 -65t-63 -24q-49 0 -50 -30zM330 723v410q0 31 4 50t18.5 31.5t44 17.5t82.5 5q102 0 165 -75t63 -208q-1 -266 -308 -266h-41q-18 0 -23 7t-5 28z" />
<glyph unicode="S" d="M74 154q0 -45 6 -71t31 -48q29 -27 96 -50.5t147 -23.5q82 0 155 31t126 86t84 131t31 168q0 74 -19.5 130t-56.5 102t-91.5 85t-123.5 76q-66 35 -114 65.5t-81 64.5t-48 72t-15 87q0 100 58 157.5t163 57.5q72 0 120 -38t79 -116q20 -49 24 -76.5t25 -27.5q23 0 22 41 q0 184 -16 205q-16 18 -85 41.5t-153 23.5q-78 0 -140 -25.5t-107.5 -72.5t-70 -112.5t-24.5 -145.5q0 -68 16.5 -117t50.5 -88t82 -71.5t113 -67.5q68 -37 118 -70t85 -72t52.5 -87t17.5 -115q0 -59 -18.5 -107.5t-51.5 -83.5t-78 -54.5t-100 -19.5q-82 0 -142.5 41 t-88.5 115q-14 37 -18.5 69.5t-6.5 58.5t-6 41t-17 15q-28 0 -28 -64q0 -28 -1 -60t-1 -80z" />
<glyph unicode="T" horiz-adv-x="952" d="M16 1028q0 -31 19 -31q20 0 32.5 36t47.5 89q37 55 90 87t102 32h76q18 0 22.5 -12t4.5 -33v-1003q0 -35 -1 -55.5t-7.5 -35t-20.5 -21.5t-39 -13q-16 -4 -31 -5q-14 0 -26.5 -2t-19.5 -8t-7 -20q0 -33 45 -33q23 0 67 5t109 5q66 0 111 -5t67 -5q45 0 45 29q0 16 -7 22 t-19 9t-29 3q-14 0 -29 5q-49 12 -58 33.5t-9 76.5v1018q0 20 4 32.5t23 12.5h53q53 0 90 -6t61.5 -18.5t41 -32t26.5 -47.5q12 -31 16 -55.5t7.5 -41t9.5 -25.5t18 -9t15.5 8t5.5 24l16 283v6q0 35 -23 35q-10 0 -14 -6t-7 -15.5t-8 -19.5t-14 -18q-14 -14 -133 -15 q-47 0 -108.5 1t-138.5 1h-246q-61 0 -86 6.5t-26 30.5v21q0 22 -16 22h-1q-14 0 -18.5 -10t-8.5 -27l-65 -262q-4 -12 -6.5 -22.5t-2.5 -20.5z" />
<glyph unicode="U" horiz-adv-x="1118" d="M39 1262q0 -16 7 -21.5t19.5 -7.5t28.5 -2q18 0 39 -6q31 -10 38 -27.5t7 -67.5v-724q0 -92 8.5 -164t44.5 -131q92 -150 355 -150q117 0 197.5 40t121.5 114q39 68 46 150.5t7 189.5v479q0 82 1.5 138t9.5 92t24.5 52.5t44.5 16.5q29 0 41.5 5t12.5 24q0 28 -35 28h-2 q-8 0 -39 -3t-84 -3q-47 0 -78 3t-43 3q-31 0 -31 -28q0 -16 11.5 -22.5t27 -7.5t31.5 -3t27 -12q25 -27 29.5 -104t4.5 -212v-446q0 -111 -7 -189t-48 -135q-39 -53 -103.5 -83t-152.5 -30q-86 0 -140 25t-86 74t-43.5 122.5t-11.5 170.5v720q0 49 6.5 69t45.5 28 q18 4 34.5 5t28.5 3t18.5 7t6.5 20q0 28 -29 28h-2q-20 0 -65.5 -8t-118.5 -8q-68 0 -111 8t-65 8q-29 0 -29 -28z" />
<glyph unicode="V" horiz-adv-x="933" d="M-57 1260q0 -14 10 -19.5t25.5 -7.5t33 -5t29.5 -16q27 -23 52.5 -89t60.5 -177l258 -801q29 -88 40 -135t21 -47q12 0 43 96l293 949q23 76 39 123t33 67q14 20 33.5 26.5t35 9.5t26.5 7t11 23q0 26 -33 26h-2q-12 0 -47 -6t-88 -6q-49 0 -78.5 6t-46.5 6q-35 0 -35 -26 q0 -23 17.5 -27t39 -8t40 -16.5t18.5 -49.5q0 -16 -5 -51t-22 -84l-217 -717q-12 -37 -16 -37q-10 0 -23 35l-249 778q-8 25 -13.5 43.5t-5.5 32.5q0 37 14.5 48.5t33 14.5t32.5 7t14 27q0 30 -23 30h-1q-16 0 -46 -8t-73 -8q-59 0 -108.5 8t-86.5 8q-16 0 -25 -10t-9 -20z " />
<glyph unicode="W" horiz-adv-x="1388" d="M-45 1264q0 -18 15.5 -22.5t37 -9.5t44 -22.5t38.5 -64.5l342 -1000q31 -90 44 -136t24 -46q14 0 30 49l168 473q8 25 19 25q10 0 18 -27l115 -338q31 -92 43 -137t25 -45q12 0 28 49l330 1051q18 57 39.5 94t38.5 49q14 12 31.5 17.5t32 9.5t23.5 9t9 20q0 28 -31 28h-2 q-12 0 -41.5 -6t-77.5 -6q-37 0 -61.5 6t-38.5 6q-25 0 -24 -24q0 -20 12 -27.5t25.5 -11.5t25.5 -12.5t12 -28.5q0 -37 -32 -144l-238 -763q-10 -33 -21 -33q-12 0 -22 28l-141 422q-2 4 -2 13q0 23 4 37l8 28l102 289q39 115 78 143q16 12 33.5 17.5t31 9.5t22.5 9t9 20 q0 28 -28 28h-2q-14 0 -42 -6t-69 -6q-43 0 -70.5 6t-40.5 6q-25 0 -24 -24q0 -20 12 -27.5t27.5 -12.5t28 -13.5t12.5 -32.5q0 -4 -7.5 -41t-29.5 -97l-64 -165q-12 -35 -22 -35q-12 0 -25 32l-78 226q-10 27 -13 47t-3 33q0 25 12.5 33t26.5 12t26.5 9t12.5 26 q0 29 -23 28q-10 0 -35.5 -5t-66.5 -5q-49 0 -90 6t-74 6q-37 0 -37 -28q0 -25 19.5 -27t38.5 -12q27 -16 41 -48t30 -81l156 -447q4 -10 4 -37q0 -14 -8 -32l-109 -306q-12 -33 -24 -32q-8 0 -21 34l-291 865q-4 10 -6 20t-2 21q0 25 12.5 33t28 11t27.5 9t12 27 q0 27 -22 26q-16 0 -41 -4t-62 -4q-47 0 -87 6t-75 6h-16q-45 0 -45 -26z" />
<glyph unicode="X" horiz-adv-x="1015" d="M-31 27q0 -25 31 -25q18 0 59 5t107 5q55 0 96 -7t64 -7q41 0 41 27q0 20 -18.5 26t-40 9t-39 11.5t-17.5 34.5q0 14 9 48t32 75l174 316q8 14 18 14q12 0 21 -16l201 -342q14 -23 21 -48.5t7 -41.5q0 -29 -19.5 -37t-43 -11.5t-43 -8.5t-19.5 -27q0 -25 33 -25h16 q14 0 45 7t78 7q53 0 108.5 -9t113.5 -9q20 0 31.5 9t11.5 20q0 8 -8.5 13t-20.5 8t-28.5 8t-33.5 18q-35 25 -62.5 65.5t-57.5 96.5l-261 454q-4 6 -4 23q0 12 7 22l196 338q33 57 71 93t70 48q25 8 46.5 11.5t39 6.5t26.5 9t9 23q0 25 -35 24q-23 0 -63.5 -5t-97.5 -5 q-86 0 -127 6t-49 6q-33 0 -33 -24q0 -20 15.5 -25.5t32.5 -8.5t32.5 -11.5t15.5 -32.5q0 -16 -10 -53t-33 -80l-137 -248q-10 -16 -23 -16q-10 0 -18 18l-158 278q-35 61 -35 91q0 27 19.5 35t42 11t42 8t19.5 28q0 27 -33 26q-16 0 -48.5 -7t-86.5 -7q-72 0 -128 9t-97 9 q-18 0 -30.5 -10t-12.5 -20q0 -12 9 -16.5t22.5 -6.5t30 -4t32.5 -12q25 -16 52.5 -59.5t66.5 -108.5l219 -381q8 -14 8 -29q0 -10 -1 -18.5t-5 -14.5l-229 -395q-35 -59 -62.5 -94t-66.5 -49q-18 -6 -38 -8.5t-35 -4.5t-24.5 -9t-9.5 -23z" />
<glyph unicode="Y" horiz-adv-x="923" d="M-55 1257q0 -10 7 -14t16 -6t22 -2q10 0 20 -4q41 -16 82 -96l305 -574v-368q0 -35 -2 -59.5t-13 -41t-34.5 -24t-66.5 -7.5q-27 0 -27 -28q0 -33 43 -33q23 0 64.5 5t105.5 5q63 0 105 -5t65 -5q45 0 45 29q0 18 -8 24t-20.5 7t-29 2t-34.5 8q-20 6 -30.5 14t-15.5 20.5 t-6 31t-1 44.5v402l301 551q16 31 32.5 54t51.5 34q29 8 49 10t20 31q0 27 -26 26q-10 0 -40 -5t-77 -5q-59 0 -94 6t-52 6q-33 0 -32 -24q0 -23 17.5 -28t39 -8t38.5 -11.5t17 -34.5q0 -8 -13 -46t-44 -96l-201 -364q-8 -14 -14 -14q-10 0 -16 12l-222 411q-16 33 -24 60 t-8 37q0 20 14 28.5t32.5 12.5t33 10t14.5 25q0 27 -25 26q-6 0 -32.5 -3t-75.5 -3q-98 0 -150.5 5t-66.5 5q-39 0 -39 -33z" />
<glyph unicode="Z" horiz-adv-x="915" d="M10 16q0 -20 37 -20q10 0 73.5 7t192.5 7q242 0 370 -6t151 -6q27 0 32.5 6t5.5 23v280q0 45 -18 45q-14 0 -17 -19.5t-7.5 -51t-14.5 -71.5t-39 -79q-23 -29 -50.5 -45t-64 -24.5t-84 -9.5t-108.5 -1h-90q-90 0 -134 4t-44 21q0 2 1 7t5 13l647 1159q4 8 4 15 q0 20 -35 20q-16 0 -90 -6t-209 -6q-147 0 -227 5t-92 22q-8 10 -10 23t-3.5 24.5t-5.5 19.5t-18 8t-16 -11t-7 -28l-53 -247q-6 -29 -8 -43.5t-2 -18.5q0 -18 18 -18q12 0 21.5 16.5t22 42t31 56t50.5 61.5q35 35 95.5 41t152.5 6h64q133 0 133 -20q0 -4 -6 -17l-648 -1165 q-6 -12 -6 -19z" />
<glyph unicode="[" horiz-adv-x="630" d="M268 -375q0 -55 10.5 -74.5t61.5 -19.5h162q33 0 33 25q0 23 -33 22h-109q-29 0 -36 14.5t-7 42.5v1588q0 29 7.5 43t35.5 14h109q33 0 33 25q0 23 -33 22h-162q-51 0 -61.5 -19.5t-10.5 -74.5v-1608z" />
<glyph unicode="\" horiz-adv-x="569" d="M-66 1327l631 -1517h68l-631 1517h-68z" />
<glyph unicode="]" horiz-adv-x="630" d="M96 -444q0 -25 33 -25h162q49 0 60 18.5t11 75.5v1608q0 57 -11 75.5t-60 18.5h-162q-33 0 -33 -22q0 -25 33 -25h109q29 0 36 -14.5t7 -42.5v-1588q0 -29 -7.5 -43t-35.5 -14h-109q-33 0 -33 -22z" />
<glyph unicode="^" horiz-adv-x="2048" d="M412 897h86l524 451l522 -451h88l-526 565h-166z" />
<glyph unicode="_" horiz-adv-x="1024" d="M0 -383v-100h1024v100h-1024z" />
<glyph unicode="`" horiz-adv-x="1024" d="M317 1354q0 -33 37 -70l217 -235h41l-194 307q-16 25 -28.5 38t-29.5 13q-16 0 -29.5 -15.5t-13.5 -37.5z" />
<glyph unicode="a" horiz-adv-x="743" d="M45 653q0 -16 10.5 -25.5t24.5 -9.5q57 0 79.5 44.5t45.5 107.5q18 51 65 88t101 37q63 0 82.5 -41t19.5 -135v-180q-104 -59 -184 -110.5t-134.5 -99.5t-81 -98.5t-26.5 -107.5q0 -74 41 -118t115 -44q66 0 126 39t138 104h8q18 -72 40 -103.5t63 -31.5q20 0 47.5 13.5 t52 34t42 42t17.5 37.5q0 14 -14 15q-12 0 -31.5 -22.5t-42.5 -22.5q-55 0 -55 127v514q0 53 -4 96t-22.5 73.5t-55.5 47t-100 16.5q-80 0 -147.5 -30.5t-117 -76t-76 -94.5t-26.5 -86zM172 178q0 135 209 256l61 35q14 8 21 8q12 0 12 -20v-189q0 -51 -18.5 -91t-48 -67.5 t-63.5 -42t-64 -14.5q-51 0 -80 34t-29 91z" />
<glyph unicode="b" horiz-adv-x="886" d="M8 1319q0 -18 15 -19q10 0 15 1.5t7 1.5q61 0 61 -93v-1060q0 -72 -11 -118t-11 -57q0 -24 17 -24h1q12 0 20.5 12t16.5 26.5t16.5 27t18.5 12.5q8 0 29.5 -10.5t56.5 -23.5t83 -23.5t108 -10.5q80 0 150.5 34t121.5 98.5t81 157.5t30 212q0 109 -26 197t-71 150 t-107.5 96t-135.5 34q-57 0 -98.5 -17.5t-84.5 -54.5q-39 -35 -56 -62.5t-26 -27.5q-8 0 -8 23v571q0 45 -12 45q-10 0 -40 -20.5t-81 -36.5q-35 -10 -57.5 -14.5t-22.5 -26.5zM221 174v457q0 51 19.5 94t52.5 74.5t74 49t82 17.5q113 0 184.5 -109.5t71.5 -316.5 q0 -211 -77 -324.5t-200 -113.5q-43 0 -80 13.5t-65.5 36t-45 54t-16.5 68.5z" />
<glyph unicode="c" horiz-adv-x="741" d="M53 451q0 -111 29 -201t80 -154.5t119.5 -99.5t148.5 -35q61 0 110.5 19.5t84 46t54 54.5t19.5 42q0 12 -14 12q-6 0 -20.5 -16.5t-41 -36t-64.5 -35.5t-89 -16q-129 0 -209 111.5t-80 320.5q0 106 20.5 188t55.5 137.5t81 83t97 27.5q53 0 89 -30.5t71 -92.5 q23 -43 31 -66.5t28 -23.5q31 0 31 127q0 59 -60.5 92t-164.5 33q-78 0 -152 -35t-130 -98.5t-90 -153.5t-34 -200z" />
<glyph unicode="d" horiz-adv-x="921" d="M53 440q0 -111 25.5 -199.5t70 -151t104.5 -95.5t128 -33q72 0 138.5 40t133.5 118h13l8 -94q6 -53 26 -54q12 0 46 21.5t100 50.5q27 10 35 18.5t8 30.5q0 29 -6 29q-8 0 -17.5 -7.5t-18.5 -16.5t-19.5 -16t-18.5 -7q-25 0 -30 28.5t-5 90.5v1179q0 45 -14 45 q-10 0 -39 -19.5t-82 -37.5q-31 -10 -55.5 -16t-24.5 -25q0 -8 6 -13.5t10 -5.5q10 0 14.5 1.5t6.5 1.5q63 0 63 -93v-311q0 -23 -16 -22q-6 0 -19.5 9t-38 21.5t-61.5 21.5t-88 9q-80 0 -150.5 -34t-121.5 -98.5t-81 -156.5t-30 -209zM176 461q0 211 78 324.5t201 113.5 q43 0 79.5 -13.5t64.5 -36t44 -54t16 -68.5v-457q0 -51 -19 -94t-51 -74.5t-72 -50t-83 -18.5q-113 0 -185.5 111.5t-72.5 316.5z" />
<glyph unicode="e" horiz-adv-x="821" d="M53 449q0 -111 28 -201t79 -153.5t121.5 -98.5t154.5 -35q74 0 134.5 24.5t102.5 58.5t64.5 70t22.5 58q0 16 -15 16q-6 0 -22 -20.5t-45 -45t-73 -45t-107 -20.5q-70 0 -128.5 30t-100.5 85t-65.5 135t-23.5 182q0 51 6.5 68.5t32.5 17.5h488q35 0 48 10.5t13 32.5 q0 61 -21.5 120t-61.5 103t-97.5 70.5t-128.5 26.5q-82 0 -156 -34t-129 -97.5t-88 -154.5t-33 -203zM199 643q0 43 20.5 88t54 82t78.5 61.5t94 24.5q39 0 74 -16.5t60.5 -43t40 -59t14.5 -65.5q0 -59 -59.5 -74.5t-186.5 -15.5h-168q-10 0 -16 6t-6 12z" />
<glyph unicode="f" horiz-adv-x="462" d="M29 18q0 -14 8 -17t26 -3q25 0 61 4t81 4q55 0 97 -4t69 -4q33 0 32 20q0 18 -22.5 20.5t-48 6.5t-48 20.5t-22.5 59.5v672q0 20 4 27t23 7h160q16 0 21 8.5t5 26.5q0 20 -3 27.5t-23 7.5h-160q-18 0 -22.5 7t-4.5 28v96q0 319 119 320q27 0 47.5 -19.5t38.5 -42 t35.5 -42t34.5 -19.5q16 0 31.5 35.5t15.5 78.5q0 35 -40 56.5t-110 21.5q-111 0 -203 -112q-51 -63 -61 -128t-14 -137l-6 -100q-2 -18 -8.5 -25.5t-18.5 -15.5l-43 -26q-10 -6 -15.5 -10.5t-5.5 -14.5q0 -20 23 -21h39q18 0 22 -7t4 -27v-672q0 -41 -18 -56.5t-40.5 -21.5 t-41 -9t-18.5 -20z" />
<glyph unicode="g" horiz-adv-x="825" d="M10 -227q0 -100 88 -162t256 -62q94 0 175 28t139.5 75t91.5 108.5t33 130.5q0 246 -344 246q-35 0 -66 -2t-59 -2q-59 0 -87 24.5t-28 41.5q0 23 42 49t150 37q141 12 222.5 98t81.5 225q0 47 -10.5 89t-32.5 87l98 -4h14q18 0 24.5 6.5t6.5 22.5q0 33 -8.5 44t-30.5 11 q-10 0 -16.5 -1t-10.5 -1l-49 -4q-2 0 -9 -1t-17 -1q-29 0 -57.5 12.5t-61.5 27.5t-72 28.5t-88 13.5q-66 0 -122 -25.5t-96 -69.5t-62.5 -103.5t-22.5 -129.5q0 -80 27.5 -136t61.5 -93t62.5 -55.5t28.5 -24.5q0 -8 -18 -16l-123 -64q-45 -23 -45 -35q0 -4 6 -17t22 -30 l76 -88q18 -23 19 -26q0 -14 -30 -35t-64.5 -51.5t-64.5 -70.5t-30 -95zM129 -188q0 47 26.5 95t61.5 75q20 16 73.5 26t135.5 10q127 0 191.5 -50t64.5 -144q0 -102 -81 -166t-222 -64q-119 0 -184.5 63.5t-65.5 154.5zM207 610q0 133 53 210t135 77q84 0 135.5 -77 t51.5 -210q0 -129 -51.5 -205.5t-135.5 -76.5t-136 75.5t-52 206.5z" />
<glyph unicode="h" horiz-adv-x="935" d="M41 18q0 -16 8 -18t27 -2q23 0 54.5 4t74.5 4q53 0 86 -4t47 -4q16 0 23.5 3t7.5 17q0 16 -16.5 19.5t-37 8.5t-37 20.5t-16.5 58.5v375q0 176 50 266t167 90q111 0 154 -80t43 -239v-412q0 -41 -17.5 -56.5t-37 -21.5t-37 -9t-17.5 -20q0 -16 8.5 -18t26.5 -2 q23 0 54.5 4t74.5 4q53 0 86 -4t47 -4q16 0 23.5 3t7.5 17q0 16 -16.5 19.5t-37 8.5t-37 20.5t-16.5 58.5v512q0 135 -71.5 218t-186.5 83q-55 0 -95 -18.5t-83 -55.5q-41 -35 -58.5 -64.5t-25.5 -29.5q-6 0 -6 23v579q0 45 -14 45q-10 0 -38 -19.5t-81 -37.5 q-33 -10 -57.5 -14t-24.5 -27q0 -18 14 -19q10 0 15.5 1.5t7.5 1.5q63 0 63 -93v-1085q0 -41 -16 -56.5t-36.5 -21.5t-37 -9t-16.5 -20z" />
<glyph unicode="i" horiz-adv-x="413" d="M33 18q0 -14 9 -17t26 -3q23 0 58.5 4t82.5 4q59 0 95 -4t48 -4q16 0 23.5 2t7.5 18t-17.5 19.5t-39 8.5t-39 20.5t-17.5 58.5v764q0 23 -2 32t-12 9q-12 0 -41 -26.5t-86 -59.5q-27 -23 -50.5 -31t-23.5 -29q0 -14 10.5 -17t26.5 -3q63 0 64 -76v-563q0 -41 -19.5 -57.5 t-42 -21.5t-42 -8t-19.5 -20zM135 1188q0 -41 21.5 -69.5t50.5 -28.5q31 0 52.5 29.5t21.5 68.5q0 41 -22.5 71.5t-51.5 30.5t-50.5 -30.5t-21.5 -71.5z" />
<glyph unicode="j" horiz-adv-x="393" d="M10 -430q0 -20 17 -21q12 0 45.5 24t74.5 71q68 78 90.5 159.5t22.5 186.5v899q0 23 -2 32t-12 9q-12 0 -40 -26.5t-85 -59.5q-29 -23 -52.5 -31t-23.5 -29q0 -20 29 -20h16q33 0 44 -23.5t11 -74.5v-725q0 -86 -11 -155t-58 -128q-25 -31 -45.5 -50.5t-20.5 -37.5z M127 1188q0 -41 21.5 -69.5t50.5 -28.5q31 0 51 29.5t20 68.5q0 41 -21 71.5t-50 30.5t-50.5 -30.5t-21.5 -71.5z" />
<glyph unicode="k" horiz-adv-x="849" d="M47 1319q0 -18 14 -19q10 0 15.5 1.5t7.5 1.5q63 0 63 -93v-1085q0 -41 -15 -56.5t-32.5 -21.5t-33 -9t-15.5 -20q0 -14 5 -17t22 -3q23 0 54.5 4t72.5 4q53 0 88 -4t51 -4t24.5 2t8.5 18t-18.5 19.5t-40 8.5t-39 20.5t-17.5 58.5v244q0 25 14 39l62 61q6 6 14 6 q4 0 13 -8l184 -291q43 -72 43 -96q0 -16 -13.5 -24.5t-30 -13.5t-29.5 -11t-13 -19q0 -20 26 -20q16 0 53.5 5t96.5 5q49 0 83 -5t54 -5q25 0 25 20q0 14 -8.5 16.5t-24.5 10.5t-45 33.5t-68 89.5l-245 393q-4 8 -4 12q0 12 8 21l209 207q33 33 62.5 45t53 16t36.5 8t13 19 q0 12 -6 15t-16 2q-8 0 -45 -3.5t-107 -3.5q-59 0 -94 4t-51 3q-10 0 -15 -2.5t-5 -14.5q0 -16 14 -20.5t30.5 -6.5t31 -7t14.5 -20q0 -25 -41 -69l-250 -264q-16 -16 -23 -17q-6 0 -6 25v868q0 45 -14 45q-10 0 -38 -19.5t-81 -37.5q-33 -10 -57.5 -14.5t-24.5 -26.5z" />
<glyph unicode="l" horiz-adv-x="405" d="M29 18q0 -14 8 -17t26 -3q25 0 61 4t81 4q51 0 84 -4t49 -4t23.5 3t7.5 17q0 16 -16.5 19.5t-37 8.5t-37 20.5t-16.5 58.5v1247q0 45 -14 45q-10 0 -38 -19.5t-81 -37.5q-33 -10 -57.5 -14t-24.5 -27q0 -18 14 -19q10 0 15.5 1.5t7.5 1.5q63 0 63 -93v-1085 q0 -41 -18 -56.5t-40.5 -21.5t-41 -9t-18.5 -20z" />
<glyph unicode="m" horiz-adv-x="1372" d="M41 18q0 -14 7 -17t24 -3q23 0 56.5 4t76.5 4q59 0 92 -4t41 -4q16 0 23.5 3t7.5 17q0 16 -16.5 19.5t-37 8.5t-37 20.5t-16.5 58.5v438q0 143 56.5 218t136.5 75q96 0 135 -80t39 -239v-412q0 -41 -15.5 -56.5t-34 -21.5t-34 -9t-15.5 -20q0 -14 6.5 -17t22.5 -3 q10 0 43 4t88 4q49 0 80 -4t45 -4q16 0 22.5 3t6.5 17q0 16 -15.5 19.5t-35 9.5t-35 21.5t-15.5 56.5l5 438q2 150 56 221.5t134 71.5q98 0 136 -80t38 -239v-412q0 -41 -15.5 -56.5t-35 -21.5t-34.5 -9t-15 -20q0 -14 7 -17t23 -3q20 0 52 4t77 4q51 0 82 -4t43 -4 q16 0 22.5 3t6.5 17q0 16 -15.5 19.5t-34 8.5t-33.5 20.5t-15 58.5v375q0 53 -1 84.5t-1 42.5q0 143 -65.5 227t-172.5 84q-72 0 -131 -46t-119 -142h-8q-33 96 -86 142t-137 46q-47 0 -86 -18.5t-80 -55.5q-39 -35 -53.5 -64.5t-22.5 -29.5t-8 23v96q0 23 -1 36t-11 13 t-35 -32t-78 -68q-23 -16 -44 -23.5t-21 -26.5q0 -14 12 -14t27.5 -2t28.5 -14.5t13 -48.5v-584q0 -41 -16 -56.5t-36.5 -21.5t-37 -9t-16.5 -20z" />
<glyph unicode="n" horiz-adv-x="921" d="M41 18q0 -14 7 -17t24 -3q29 0 61.5 4t71.5 4q53 0 86 -4t47 -4q16 0 23.5 3t7.5 17q0 16 -16.5 19.5t-37 8.5t-37 20.5t-16.5 58.5v375q0 178 49 267t160 89q106 0 147 -80t41 -239v-412q0 -41 -16 -56.5t-36.5 -21.5t-37 -9t-16.5 -20q0 -16 8 -18t27 -2q23 0 54.5 4 t74.5 4q53 0 86 -4t47 -4q16 0 23.5 3t7.5 17q0 16 -16.5 19.5t-37 8.5t-37 20.5t-16.5 58.5v502q0 143 -69.5 227t-184.5 84q-49 0 -91 -18.5t-83 -55.5q-39 -35 -56.5 -64.5t-25.5 -29.5t-8 23v96q0 23 -1 36t-11 13t-35 -32t-78 -68q-23 -16 -44 -23.5t-21 -26.5 q0 -12 12 -14t27.5 -4t28.5 -11t13 -40v-594q0 -41 -16 -56.5t-36.5 -21.5t-37 -9t-16.5 -20z" />
<glyph unicode="o" horiz-adv-x="917" d="M53 451q0 -109 29 -199t80 -154.5t122.5 -100.5t159.5 -36q98 0 176 35t132.5 99.5t83 155.5t28.5 202q0 109 -27.5 198.5t-79.5 153t-129 98.5t-173 35q-86 0 -160 -35t-128 -98.5t-84 -153.5t-30 -200zM180 463q0 215 75 326.5t204 111.5q125 0 199.5 -123t74.5 -348 q0 -211 -73.5 -320.5t-204.5 -109.5q-59 0 -109.5 31.5t-87.5 92t-57.5 145.5t-20.5 194z" />
<glyph unicode="p" horiz-adv-x="933" d="M41 -432q0 -20 29 -21q20 0 58 4.5t95 4.5q53 0 88 -4.5t54 -4.5q31 0 30 21q0 18 -20.5 21t-46 7.5t-46 19.5t-20.5 58v353h10q53 -35 103.5 -50.5t109.5 -15.5q82 0 152 35t121 99.5t80.5 157.5t29.5 210q0 109 -25.5 197t-69.5 150t-104.5 96t-129.5 34 q-63 0 -110.5 -24.5t-81.5 -54.5t-54.5 -54.5t-26.5 -24.5q-10 0 -10 19v88q0 23 -1 36t-11 13t-35 -32t-78 -68q-23 -16 -44 -23.5t-21 -26.5q0 -14 12 -14t27.5 -2t28.5 -14.5t13 -48.5v-1035q0 -41 -16 -56t-36.5 -21.5t-37 -9.5t-16.5 -19zM262 174v457q0 51 19.5 94 t51.5 74.5t72.5 49t81.5 17.5q113 0 185.5 -109.5t72.5 -316.5q0 -211 -77.5 -324.5t-200.5 -113.5q-43 0 -80 13.5t-64.5 36t-44 54t-16.5 68.5z" />
<glyph unicode="q" horiz-adv-x="886" d="M53 438q0 -111 25.5 -198.5t71 -149t104.5 -95.5t127 -34q143 0 272 162h13v-395q0 -55 -10.5 -85t-41.5 -40q-23 -8 -38 -10.5t-25 -3.5t-15.5 -5t-5.5 -16q0 -23 37 -23q20 0 59.5 7.5t96.5 7.5q51 0 83 -6.5t48 -6.5t24.5 3.5t8.5 17.5t-16.5 19t-37 13.5t-37 27 t-16.5 59.5v1022q0 113 11.5 163t11.5 58q0 20 -15 20q-12 0 -18 -12t-12 -26.5t-15.5 -27t-27.5 -12.5q-16 0 -43 10.5t-62 24t-79 23.5t-95 10q-80 0 -150.5 -34t-121.5 -98.5t-81 -157.5t-30 -212zM176 461q0 211 78 324.5t201 113.5q90 0 147 -49t57 -123v-457 q0 -51 -19 -94t-51 -74.5t-72 -49t-83 -17.5q-113 0 -185.5 110.5t-72.5 315.5z" />
<glyph unicode="r" horiz-adv-x="595" d="M41 18q0 -14 7 -17t24 -3q25 0 58.5 4t74.5 4q63 0 109 -5t73 -5q33 0 33 22q0 14 -7 17.5t-21.5 4.5t-35 3t-47.5 12q-31 12 -39 35t-8 76v338q0 86 12.5 147.5t33 101.5t44 58t45.5 18q25 0 41.5 -12t31.5 -27.5t30.5 -27.5t36.5 -12q27 0 48 25.5t21 66.5t-28.5 68.5 t-79.5 27.5q-96 0 -183 -117l-36 -53q-8 -10 -15 -10q-8 0 -8 14v117q0 23 -1 36t-11 13q-12 0 -37 -32t-72 -64q-27 -18 -48 -27.5t-21 -26.5q0 -14 12 -14t27.5 -2t28.5 -14.5t13 -48.5v-543q0 -53 -7 -79t-34 -36q-35 -12 -51 -12q-14 0 -14 -21z" />
<glyph unicode="s" horiz-adv-x="655" d="M49 72q0 -25 20.5 -44.5t52.5 -35t71.5 -23.5t80.5 -8q145 0 225.5 84t80.5 229q0 63 -17.5 105.5t-48.5 73t-74 55t-96 51.5q-82 41 -123 81t-41 112q0 68 41 109.5t101 41.5q43 0 81.5 -22.5t65.5 -67.5t29 -70.5t20 -25.5t19 41v84q0 20 -4.5 37.5t-21.5 31 t-53.5 20.5t-99.5 7q-133 0 -206.5 -73.5t-73.5 -190.5q0 -90 54 -145.5t167 -108.5q92 -43 137 -89t45 -128q0 -92 -52 -148.5t-138 -56.5q-76 0 -112 38t-56 111q-18 72 -23.5 104t-23.5 32q-23 0 -23 -35q0 -72 -2 -116t-2 -60z" />
<glyph unicode="t" horiz-adv-x="524" d="M51 850q0 -18 31 -19h31q18 0 23 -7t5 -27l-6 -490v-96q0 -123 44 -186.5t124 -63.5q39 0 75 18.5t63.5 42t43 47t15.5 33.5q0 16 -8 17q-6 0 -18.5 -12.5t-30 -25.5t-40 -25.5t-49.5 -12.5q-98 0 -98 156v598q0 20 5 27t24 7h153q16 0 21.5 8.5t5.5 26.5v8q0 16 -4 21.5 t-23 5.5h-151q-18 0 -23.5 7t-5.5 28v104v33q0 25 -8 25q-14 0 -29.5 -39t-60.5 -92.5t-77 -77t-32 -39.5z" />
<glyph unicode="u" horiz-adv-x="921" d="M41 881q0 -16 16.5 -18.5t37 -8.5t36.5 -22.5t16 -57.5v-442q0 -66 6.5 -125.5t34.5 -114.5q29 -61 85.5 -96t125.5 -35q51 0 93.5 19.5t82.5 56.5q41 35 57.5 64.5t24.5 29.5q6 0 7 -25v-96q0 -23 3 -36t15 -13q16 0 38.5 19.5t59.5 39.5q31 16 53.5 25.5t22.5 26.5 q0 14 -14 14q-12 0 -27.5 2t-28 16.5t-12.5 57.5v674q0 43 -4 54t-27 10q-10 0 -34.5 -1.5t-59.5 -1.5q-31 0 -49 2t-27 1q-10 0 -15 -2.5t-5 -16.5q0 -16 16.5 -18.5t37 -8.5t36.5 -22.5t16 -57.5v-373q0 -178 -49 -267t-159 -89q-106 0 -147.5 80t-41.5 240v471 q0 45 -5 55t-28 9q-16 0 -33.5 -1.5t-39.5 -1.5q-43 0 -66.5 2t-28.5 1q-10 0 -15 -2.5t-5 -16.5z" />
<glyph unicode="v" horiz-adv-x="737" d="M-14 883q0 -18 11 -20.5t26.5 -6.5t32 -15.5t28.5 -47.5l246 -779q4 -16 8 -24t16 -8q10 0 15.5 10t11.5 28l252 693q23 66 41 94.5t47 40.5t42 13t13 22q0 14 -4 16t-16 1q-4 0 -31 -2.5t-82 -2.5q-66 0 -97.5 3t-37.5 2q-10 0 -15.5 -2.5t-5.5 -14.5q0 -16 17.5 -20.5 t37 -7.5t37 -12t17.5 -36q0 -29 -6 -55.5t-17 -55.5l-165 -475q-6 -18 -13 -18q-6 0 -12 14l-143 490q-10 35 -16.5 60.5t-6.5 47.5q0 20 15.5 27.5t33 12.5t32.5 9t15 19q0 12 -6 15t-16 2q-8 0 -43 -2.5t-101 -2.5q-57 0 -93 3t-46 2h-8q-10 0 -12 -2.5t-2 -14.5z" />
<glyph unicode="w" horiz-adv-x="1159" d="M-3 862.5q11 -2.5 27.5 -6.5t34 -16.5t27.5 -44.5l252 -772q6 -18 9 -29.5t18 -11.5q16 0 28 38l172 519q8 25 15 24q4 0 14 -24l184 -519q6 -18 10.5 -28t18.5 -10q16 0 29 38l202 693q20 74 45 102.5t46.5 36.5t35 9t13.5 22q0 20 -21 19q-6 0 -32.5 -3.5t-77.5 -3.5 q-53 0 -83 4t-38 3q-25 0 -25 -19q0 -16 17.5 -20.5t37 -7.5t37 -12t17.5 -36q0 -25 -6.5 -51.5t-16.5 -59.5l-137 -465q-6 -20 -12 -20q-4 0 -15 22l-170 474q-12 35 -18 66.5t-6 43.5q0 18 15 25.5t33.5 11.5t34 9t15.5 20q0 20 -29 19q-10 0 -82.5 -4.5t-220.5 -4.5 q-193 0 -282.5 5t-100.5 4q-26 0 -26 -23q0 -14 11 -16.5zM209 815q0 27 31.5 34t97.5 7q63 0 98 -7t56 -36q8 -14 18 -35.5t17.5 -45t12.5 -45t5 -34.5q0 -14 -4.5 -38.5t-14.5 -57.5l-106 -328q-10 -24 -18 -24h-1q-6 0 -14 26l-156 476q-12 41 -17 68.5t-5 39.5z" />
<glyph unicode="x" horiz-adv-x="751" d="M-45 18q0 -12 5 -15t15 -3q8 0 40 3t91 3q47 0 80 -3t52 -3q12 0 15 3t3 15q0 14 -13.5 19.5t-28.5 9.5t-28.5 11.5t-13.5 29.5q0 10 9 40t32 65l111 180q14 25 16 24q6 0 18 -20l140 -236q26 -43 26 -60t-18.5 -23.5t-40 -10.5t-39.5 -9t-18 -20q0 -20 24 -20q10 0 41 5 t84 5q86 0 130 -5t52 -5q14 0 18.5 3t4.5 17q0 12 -4 16.5t-12.5 6.5t-20.5 6t-31 16q-25 16 -49 52.5t-55 89.5l-164 280q-4 10 -8 15.5t-4 9.5q0 6 10 22l113 181q49 76 88 105.5t66.5 37.5t41.5 8q16 0 17 19q0 20 -29 20t-64.5 -5t-83.5 -5q-43 0 -70.5 5t-41.5 5 q-16 0 -21.5 -3t-5.5 -17q0 -16 13.5 -20.5t29 -8.5t28.5 -12t13 -31q0 -12 -9 -40t-32 -62l-76 -125q-14 -20 -18 -21q-10 0 -23 23l-94 174q-27 49 -26 61q0 16 15 23.5t32.5 10.5t33 8t15.5 20q0 14 -8.5 17t-24.5 3q-8 0 -52 -4t-124 -4q-53 0 -83 4t-40 4q-16 0 -20 -3 t-4 -17q0 -12 4 -16.5t13 -6.5t23.5 -6t34.5 -16q31 -18 55.5 -55.5t57.5 -90.5l133 -217q10 -20 10 -24q0 -14 -8 -25l-149 -238q-33 -53 -60.5 -87.5t-62.5 -47t-56 -12.5q-20 0 -20 -23z" />
<glyph unicode="y" horiz-adv-x="737" d="M-14 883q0 -16 11 -19.5t27.5 -7.5t33 -16.5t28.5 -46.5l231 -732q14 -43 15 -59q0 -18 -11.5 -76.5t-41.5 -146.5q-14 -39 -22.5 -59.5t-25.5 -22.5q-29 -4 -51 -4q-20 0 -35.5 -6t-23.5 -20.5t-8 -47.5q0 -35 15 -52.5t52 -17.5q35 0 53.5 5.5t27.5 19.5t14.5 36.5 t15.5 57.5q4 16 40 153.5t130 403.5l172 488q20 59 38.5 90t41.5 41q35 16 49 16t14 23q0 20 -22 20q-6 0 -35 -4t-78 -4q-53 0 -84 4t-39 4q-16 0 -23.5 -3t-7.5 -17q0 -16 17.5 -20.5t37 -7.5t37 -12t17.5 -36q0 -33 -7 -59.5t-16 -51.5l-155 -481q-10 -29 -19 -29 q-6 0 -14 27l-145 494q-10 35 -16.5 60.5t-6.5 47.5q0 18 15.5 26.5t33 12.5t32.5 9t15 20q0 20 -26 20q-16 0 -55 -4t-105 -4q-51 0 -79 4t-38 4q-14 0 -19 -3t-5 -17z" />
<glyph unicode="z" horiz-adv-x="704" d="M14 12q0 -16 29 -16q12 0 40 2t69 2h356q35 0 62.5 -3t50.5 -3t29.5 7t6.5 24q0 8 -1 15t-1 17q0 68 3.5 110t3.5 58q0 23 -17 23q-10 0 -14 -9.5t-7 -26.5t-10.5 -41t-23.5 -52q-27 -47 -76 -61.5t-137 -14.5h-184q-20 0 -21 12q0 2 6 13l453 763q20 33 20 52 q0 10 -9 15t-19 5q-14 0 -74 -4t-168 -4q-113 0 -170 4t-66 25q-8 18 -5 39.5t-17 21.5q-18 0 -22.5 -23.5t-16.5 -68.5q-18 -61 -31.5 -100t-13.5 -58q0 -18 16 -18q10 0 18.5 10t16.5 24.5t19.5 32t29.5 31.5q33 27 75 34t101 7h37l123 -4q14 0 19.5 -1t5.5 -11 q0 -4 -4 -13l-455 -759l-19.5 -32.5t-7.5 -23.5z" />
<glyph unicode="{" horiz-adv-x="1024" d="M176 608q84 -6 139.5 -23.5t87 -51t45 -86t13.5 -128.5v-217q0 -98 17.5 -163.5t60.5 -106.5t114.5 -58.5t182.5 -17.5h10v49q-78 0 -128 13.5t-78 44.5t-38 81t-10 124v145q0 98 -10.5 170t-42 122t-90 80.5t-154.5 49.5q96 18 154.5 49t90 81t42 121.5t10.5 170.5v145 q0 74 10 124t38 81t78 45t128 14v50h-10q-111 0 -182.5 -17.5t-114.5 -58.5t-60.5 -106.5t-17.5 -164.5v-217q0 -78 -12.5 -129t-45 -83.5t-87 -50t-140.5 -25.5v-56z" />
<glyph unicode="|" horiz-adv-x="1024" d="M459 -483h108v2048h-108v-2048z" />
<glyph unicode="}" horiz-adv-x="1024" d="M178 -195v-49h10q111 0 183.5 17.5t115.5 58.5t60.5 106.5t17.5 163.5v217q0 76 12.5 128.5t44 86t87 51t139.5 23.5v56q-86 8 -140.5 25.5t-86 50t-44 83.5t-12.5 129v217q0 98 -17.5 164t-60.5 107t-115.5 58.5t-183.5 17.5h-10v-50q78 0 127 -14t78 -45t40 -81 t11 -124v-145q0 -98 10.5 -170t41 -122t89 -81t154.5 -49q-96 -18 -154.5 -49t-89 -81t-41 -122t-10.5 -170v-145q0 -74 -10 -124t-39 -81t-79 -44.5t-128 -13.5z" />
<glyph unicode="~" horiz-adv-x="1705" d="M178 471q111 78 203 119t184 41q78 0 147.5 -21.5t141.5 -48.5q66 -23 135.5 -45t153.5 -22q186 0 387 143v113q-109 -78 -202 -119t-185 -41q-76 0 -145.5 22.5t-143.5 49.5q-68 25 -136.5 46t-152.5 21q-176 0 -387 -145v-113z" />
<glyph unicode="&#xa1;" horiz-adv-x="454" d="M156 1161q0 -51 19.5 -79.5t51.5 -28.5q31 0 51.5 28.5t20.5 77.5q0 51 -20.5 77t-51.5 26t-51 -27t-20 -74zM158 96q0 -119 69 -119q33 0 52.5 29t19.5 82q0 10 -4 70.5t-14 169.5l-19 196q-8 72 -10 116t-2 60v97q0 53 -3 77.5t-20 24.5q-16 0 -19 -22.5t-3 -69.5v-102 q0 -18 -2 -63.5t-10 -117.5l-19 -196q-10 -111 -13 -169.5t-3 -62.5z" />
<glyph unicode="&#xa2;" d="M133 666q0 -152 74 -253.5t196 -117.5v-295h39v293q43 2 80 16.5t63.5 33.5t42 39.5t15.5 33.5q0 10 -10 10q-4 0 -14.5 -13.5t-30 -29.5t-49 -29.5t-74.5 -13.5q-6 0 -11 1t-12 1v670q43 -2 70 -28t44 -56.5t28.5 -56t25.5 -25.5q23 0 23 98q0 47 -45 69.5t-146 26.5 v250h-39v-254q-127 -31 -198.5 -128t-71.5 -242zM236 676q-1 275 167 332v-656q-78 25 -122.5 107t-44.5 217z" />
<glyph unicode="&#xa3;" d="M0 156q0 -74 44 -120t116 -46q109 0 225 129q53 -63 95 -95t98 -32q33 0 71.5 25.5t71.5 68.5t54.5 98.5t21.5 114.5q0 66 -29 102.5t-66 36.5q-29 0 -45 -19.5t-16 -53.5q0 -53 49 -70q27 -10 42.5 -21.5t15.5 -46.5q0 -45 -31 -85t-78 -40q-37 0 -81 30t-109 83 q31 70 47 128t16 108q0 72 -31 139h174q6 18 7 22q0 20 -3 29h-198l-31 53q-55 100 -97 181t-42 172q0 49 13 91t37 72.5t53.5 48t60.5 17.5q37 0 62.5 -24.5t45 -54.5t33.5 -54.5t31 -24.5q8 0 16 11.5t15.5 28t12.5 36.5t5 37q0 18 -15.5 34.5t-41 30t-58.5 20.5t-65 7 q-59 0 -114.5 -29.5t-96.5 -80t-65.5 -117t-24.5 -140.5q0 -78 27.5 -157.5t84.5 -157.5h-178q-4 -10 -6 -18.5t-2 -16.5l4 -16h211q92 -139 92 -256q0 -27 -6 -49.5t-16 -46.5q-139 98 -222 98q-80 0 -132 -51.5t-52 -128.5zM113 170q0 55 23.5 87t58.5 32q41 0 75.5 -33.5 t81.5 -101.5q-31 -57 -68.5 -86t-74.5 -29q-39 0 -67.5 35t-28.5 96z" />
<glyph unicode="&#xa4;" horiz-adv-x="1241" d="M90 420l66 -66l204 207q117 -90 261 -90q147 0 262 90l204 -207l66 66l-207 207q90 119 90 258q0 141 -90 260l207 205l-66 65l-204 -207q-115 92 -262 92q-143 0 -261 -92l-204 207l-66 -65l207 -205q-90 -119 -90 -260q0 -139 90 -258zM301 887q0 66 25.5 124t68.5 102 t101.5 69.5t126.5 25.5t127 -25.5t102 -68.5t68.5 -101.5t25.5 -125.5q0 -66 -25.5 -125.5t-68.5 -103.5t-102.5 -69.5t-126.5 -25.5q-68 0 -126.5 25.5t-101.5 69.5t-68.5 102.5t-25.5 126.5z" />
<glyph unicode="&#xa5;" horiz-adv-x="1038" d="M6 1260q0 -25 22.5 -23t43.5 -6q39 -16 80 -96l155 -291h-276v-51h305l86 -160h-391v-51h420l8 -19v-370q0 -35 -2 -61t-13.5 -41t-35 -22.5t-66.5 -7.5q-27 0 -27 -28q0 -33 43 -33q27 0 66 5t92 5q57 0 97 -5t65 -5q45 0 45 29q0 18 -8 24t-20.5 7t-29 2t-34.5 8 q-35 12 -43 30.5t-8 57.5v424h428v51h-402l86 160h316v51h-285l156 289q16 31 32.5 54t51.5 34q29 8 49 10t20 31q0 27 -26 26q-10 0 -38 -5t-73 -5q-55 0 -91 6t-52 6q-31 0 -31 -24q0 -23 17.5 -28t39 -8t39 -11.5t17.5 -34.5q0 -6 -12.5 -44t-45.5 -98l-205 -370 q-8 -14 -16 -15q-10 0 -14 11l-228 419q-16 31 -23 57.5t-7 37.5q0 23 14 30t31.5 11t32 10t14.5 27q0 27 -23 26q-6 0 -32.5 -3t-73.5 -3q-86 0 -136.5 5t-66.5 5t-26.5 -9t-10.5 -21z" />
<glyph unicode="&#xa6;" horiz-adv-x="1024" d="M459 -350h108v758h-108v-758zM459 674h108v758h-108v-758z" />
<glyph unicode="&#xa7;" horiz-adv-x="819" d="M137 553q0 -80 35 -153.5t104 -149.5l142 -154q55 -59 90 -113.5t35 -123.5q0 -86 -41 -132t-119 -46q-53 0 -93 23.5t-40 51.5q0 12 8 24.5t17.5 27t17.5 33t8 42.5q0 72 -59 72q-72 0 -72 -96q0 -86 59.5 -146.5t155.5 -60.5q100 0 163.5 68.5t63.5 173.5 q0 72 -38.5 148.5t-118.5 147.5q6 0 12 -1t12 -1q90 0 146.5 69t56.5 179q0 74 -34 143.5t-103 145.5l-139 149q-61 66 -97.5 120.5t-36.5 127.5q0 80 43 128t109 48q49 0 83 -25.5t34 -51.5q0 -12 -9.5 -25.5t-19.5 -28t-19.5 -32t-9.5 -37.5q0 -33 18.5 -53.5t47.5 -20.5 q33 0 52.5 26.5t19.5 75.5q0 86 -57.5 143.5t-141.5 57.5q-98 0 -157.5 -68.5t-59.5 -175.5q0 -78 39 -150.5t116 -150.5q-16 2 -25 3t-13 1q-37 0 -70 -17t-58.5 -48t-41 -74t-15.5 -94zM188 590q0 74 41.5 121t102.5 47q43 0 81 -31t89 -90q59 -72 92 -130t33 -118 q0 -74 -39 -121t-101 -47q-57 0 -103 42t-110 124q-41 53 -63.5 101.5t-22.5 101.5z" />
<glyph unicode="&#xa8;" horiz-adv-x="1024" d="M229 1204q0 -39 26 -63.5t62 -24.5q37 0 63 24.5t26 63.5q0 35 -27 61.5t-62 26.5t-61.5 -26.5t-26.5 -61.5zM618 1204q0 -39 26 -63.5t63 -24.5t62.5 24.5t25.5 63.5q0 35 -27 61.5t-61 26.5q-35 0 -62 -26.5t-27 -61.5z" />
<glyph unicode="&#xa9;" horiz-adv-x="1683" d="M145 678q0 -141 52.5 -267t152.5 -225q102 -100 226 -152t266 -52q141 0 267 53t224 151q100 102 152.5 228.5t52.5 263.5q0 139 -53 269t-152 227q-98 98 -225 150t-264 52q-141 0 -269.5 -53t-226.5 -152q-100 -100 -151.5 -227t-51.5 -266zM227 678q0 125 46 235.5 t135 202.5q86 88 199.5 136t236.5 48q121 0 233.5 -47t198.5 -133t134 -201.5t48 -240.5q0 -123 -47 -234.5t-135 -203.5q-86 -90 -197.5 -136.5t-236.5 -46.5q-250 0 -432 183q-88 88 -135.5 199.5t-47.5 238.5zM428 664q0 -86 32 -163t86 -133.5t125.5 -89t153.5 -32.5 q227 0 342 207l-32 22q-111 -174 -285 -174q-272 0 -272 383q0 375 253 375q217 0 283 -275h37v310h-31q-10 -61 -65 -62q-14 0 -34 10.5t-47.5 23.5t-64.5 23.5t-84 10.5q-82 0 -154.5 -33t-125.5 -91t-85 -138t-32 -174z" />
<glyph unicode="&#xaa;" horiz-adv-x="557" d="M35 743q0 -53 30.5 -82.5t86.5 -29.5q51 0 96 26.5t102 73.5h6q14 -51 30.5 -72.5t47.5 -21.5q14 0 34.5 9t39 23.5t32 29t13.5 26.5q0 10 -10 10t-24.5 -16.5t-31.5 -16.5q-41 0 -41 91v358q0 37 -3 67.5t-17 52t-41 33t-76 11.5q-61 0 -111.5 -21.5t-86 -52.5 t-56 -65.5t-20.5 -61.5q0 -10 7 -17t17 -7q43 0 60.5 30.5t34.5 75.5q14 35 49 61.5t76 26.5q47 0 61 -28.5t14 -94.5v-127q-78 -43 -138 -77.5t-100 -68.5t-60.5 -69t-20.5 -76zM129 782q0 94 158 179l45 24q12 6 16 6q8 0 8 -14v-131q0 -37 -14 -64.5t-35.5 -47t-47.5 -30 t-48 -10.5q-39 0 -60.5 23.5t-21.5 64.5z" />
<glyph unicode="&#xab;" horiz-adv-x="616" d="M53 451q0 -16 49.5 -59.5t133.5 -145.5q39 -47 56 -76t38 -29q12 0 12 21q0 25 -45 98l-115 191l115 190q45 74 45 96q0 23 -12 23q-23 0 -39.5 -29t-54.5 -76q-84 -102 -133.5 -145t-49.5 -59zM307 451q0 -16 56.5 -65.5t144.5 -162.5q27 -35 40 -58.5t34 -23.5 q14 0 14 21q0 25 -45 98l-115 191l115 190q45 74 45 96q0 23 -14 23q-23 0 -38.5 -30t-54.5 -77q-82 -100 -132 -143t-50 -59z" />
<glyph unicode="&#xac;" horiz-adv-x="1705" d="M254 758h1102v-402h96v502h-1198v-100z" />
<glyph unicode="&#xad;" horiz-adv-x="448" d="M41 397q0 -10 12 -10h303q6 0 14.5 7t12.5 20l20 75l5 15q0 10 -15 10h-303q-6 0 -13 -7t-11 -20l-23 -75q-2 -6 -2 -15z" />
<glyph unicode="&#xae;" horiz-adv-x="1683" d="M145 678q0 -141 52.5 -267t152.5 -225q100 -100 225 -152t263 -52q143 0 269 52t224 150q102 102 154.5 229.5t52.5 264.5q0 141 -53 269t-150 224q-98 98 -226 151.5t-265 53.5q-141 0 -269.5 -53t-226.5 -152q-100 -100 -151.5 -227t-51.5 -266zM227 678 q0 123 46 235.5t135 202.5q86 88 199.5 136t236.5 48q121 0 233.5 -47t198.5 -133t134 -202.5t48 -239.5t-47 -234.5t-135 -203.5q-86 -90 -197.5 -136.5t-236.5 -46.5q-250 0 -432 183q-88 88 -135.5 199.5t-47.5 238.5zM469 291h385v41q-72 2 -101.5 23.5t-29.5 78.5v246 q10 0 18.5 1t18.5 1q88 0 140 -30.5t75 -98.5q6 -23 7 -48.5t1 -53.5q0 -27 3 -54.5t15 -54.5q14 -33 47 -51.5t80 -18.5q156 0 156 177v12h-41q0 -131 -72 -131q-23 0 -34 12t-16 31.5t-9 47.5t-12 58q-23 86 -70 134.5t-141 78.5q147 29 218 75t71 124q0 90 -82 144.5 t-234 54.5h-393v-41q74 -2 102.5 -22.5t28.5 -78.5v-514q0 -57 -28.5 -78.5t-102.5 -23.5v-41zM723 717v264q0 74 108 74q100 0 153.5 -45t53.5 -117q0 -84 -62.5 -130t-184.5 -46h-68z" />
<glyph unicode="&#xaf;" horiz-adv-x="1024" d="M307 1151h410v109h-410v-109z" />
<glyph unicode="&#xb0;" horiz-adv-x="673" d="M59 1174q0 -59 21.5 -109.5t58.5 -88.5t87 -59.5t110 -21.5q57 0 108.5 22.5t89 60.5t59 88t21.5 108q0 57 -21.5 108t-59 89t-88 59.5t-107.5 21.5t-108.5 -21.5t-89.5 -59.5t-59.5 -89t-21.5 -108zM129 1174q0 43 16.5 80.5t45 66.5t66.5 45t81 16t81 -16t65.5 -45 t44 -66.5t16.5 -80.5t-16.5 -81t-44 -66t-65.5 -44t-81 -16t-81 16t-66.5 44t-45 65.5t-16.5 81.5z" />
<glyph unicode="&#xb1;" horiz-adv-x="1705" d="M254 51h1198v99h-1198v-99zM254 723h551v-348h98v348h549v98h-549v348h-98v-348h-551v-98z" />
<glyph unicode="&#xb2;" horiz-adv-x="542" d="M37 524q0 -8 33 -8h247q41 0 71 -3t50 -3q18 0 22.5 10t4.5 41l2 123q0 25 -10 25t-13.5 -18.5t-11.5 -43.5q-6 -18 -19.5 -25.5t-43.5 -7.5h-228q-16 0 -16 4t2 6.5t6 6.5l21 31q53 76 107 131t97 102q51 55 80 107.5t29 113.5q0 86 -58.5 141.5t-146.5 55.5 q-90 0 -158 -68q-27 -29 -40 -56.5t-13 -37.5q0 -16 10 -16q14 0 19.5 16t21.5 39q53 78 136 78q59 0 97 -43t38 -117q0 -86 -59.5 -176t-151.5 -215q-59 -80 -92 -127t-33 -66z" />
<glyph unicode="&#xb3;" horiz-adv-x="542" d="M29 492q0 -35 28.5 -58.5t81.5 -23.5q57 0 116.5 28.5t109 77.5t80 113.5t30.5 136.5q0 102 -55 162.5t-133 60.5h-33q-10 0 -10 4q0 2 20 17l47 28q98 63 99 144q0 53 -43 92t-121 39q-37 0 -70 -14.5t-57.5 -34t-38.5 -42t-14 -38.5q0 -12 10 -13q8 0 19 16.5t28.5 35 t43.5 35t62 16.5q41 0 69 -25.5t28 -70.5q0 -53 -36 -91t-97 -83q-63 -45 -97.5 -70t-34.5 -41q0 -18 17 -19q2 0 11 9.5t26.5 20.5t44 20.5t63.5 9.5q76 0 124 -57.5t48 -149.5q0 -66 -23.5 -117t-57 -87t-72.5 -55t-70 -19q-23 0 -34 13t-20 30.5t-19.5 31t-28.5 13.5 q-41 0 -41 -45z" />
<glyph unicode="&#xb4;" horiz-adv-x="1024" d="M412 1049h41l217 235q37 37 37 70q0 23 -13.5 38t-29.5 15t-28.5 -13.5t-29.5 -37.5z" />
<glyph unicode="&#xb6;" horiz-adv-x="1024" d="M84 1130q0 -150 99.5 -244.5t277.5 -103.5v-782h82v1409h188v-1409h82v1409h127v70h-463q-90 0 -162.5 -26t-124 -72t-79 -110.5t-27.5 -140.5z" />
<glyph unicode="&#xb7;" horiz-adv-x="411" d="M129 645q0 -41 23.5 -68.5t52.5 -27.5t52.5 27.5t23.5 68.5q0 43 -23.5 68.5t-52.5 25.5t-52.5 -25.5t-23.5 -68.5z" />
<glyph unicode="&#xb8;" horiz-adv-x="819" d="M227 -373q68 -35 124.5 -51t97.5 -16q76 0 120.5 45t44.5 116q0 74 -36.5 118t-96.5 44q-18 0 -51 -6v123h-43v-188q27 6 49 6q43 0 67.5 -25.5t24.5 -66.5q0 -102 -102 -103q-20 0 -67.5 15.5t-108.5 54.5z" />
<glyph unicode="&#xb9;" horiz-adv-x="542" d="M100 1196q0 -18 19 -18q6 0 22.5 7t35 16t36.5 17.5t33 8.5q12 0 12 -21v-577q0 -35 -7 -52.5t-38 -21.5q-12 -4 -23 -4h-18h-12q-18 0 -27.5 -2t-9.5 -17q0 -18 27 -18q16 0 56 4t105 4q59 0 92 -3t39 -3q27 0 27 16q0 12 -9 16.5t-24 4.5q-14 0 -31.5 1t-33.5 7 q-20 8 -24.5 25.5t-4.5 46.5v616q0 20 2 32.5t2 16.5q0 14 -16 15q-10 0 -39 -19.5t-92 -46.5q-45 -18 -72 -26.5t-27 -24.5z" />
<glyph unicode="&#xba;" horiz-adv-x="688" d="M41 973q0 -76 20.5 -139.5t59.5 -108.5t93 -69.5t120 -24.5q147 0 231 94t84 250q0 154 -81 247t-226 93q-66 0 -121 -24.5t-95 -68.5t-62.5 -107.5t-22.5 -141.5zM135 981q0 150 56.5 228.5t152.5 78.5q94 0 150.5 -86t56.5 -244q0 -147 -55.5 -224t-153.5 -77 q-92 0 -149.5 86t-57.5 238z" />
<glyph unicode="&#xbb;" horiz-adv-x="616" d="M20 162q0 -20 13 -21q23 0 39 29t55 76q82 100 132 144t50 61q0 16 -49 59t-133 143q-39 47 -55.5 77t-38.5 30q-12 0 -13 -21q0 -16 12.5 -39.5t35.5 -58.5l112 -190l-112 -191q-23 -35 -35.5 -58.5t-12.5 -39.5zM274 162q0 -20 13 -21q23 0 36 24.5t39 57.5 q90 113 145.5 162t55.5 66q0 16 -57 65t-144 160q-27 35 -41 59.5t-34 24.5q-12 0 -13 -23q0 -23 45 -96l115 -190l-115 -191q-45 -74 -45 -98z" />
<glyph unicode="&#xbc;" horiz-adv-x="1378" d="M96 1202q0 -16 17 -16q6 0 21.5 7t32.5 15.5t35.5 15.5t33.5 7q10 0 10 -19v-540q0 -33 -7.5 -49.5t-35.5 -20.5q-12 -2 -23 -2h-18h-10q-16 0 -25.5 -2t-9.5 -14q0 -18 24 -19q16 0 55.5 4t100.5 4q55 0 87 -3t38 -3q27 0 27 17q0 12 -9.5 15t-23.5 3h-31q-16 0 -31 6 q-20 8 -24 23.5t-4 44.5v575q0 18 2 29.5t2 15.5q0 14 -15 15q-10 0 -37.5 -18.5t-87.5 -43.5q-43 -16 -68.5 -23t-25.5 -24zM176 -39h68l956 1366h-67zM883 250q0 -16 30 -17h238q16 0 19.5 -5t3.5 -19v-115q0 -27 -5.5 -40t-21.5 -17q-29 -4 -45.5 -6t-16.5 -17 q0 -16 25 -16q4 0 32.5 3t88.5 3q41 0 61.5 -3t24.5 -3q14 0 14 16q0 10 -5 13.5t-13 4.5t-18.5 2t-18.5 5q-16 8 -19.5 21.5t-3.5 35.5v115q0 10 3.5 16t15.5 6h61q14 0 15 13v16q0 10 -19 10h-55q-20 0 -21 27v242q0 10 -10 10q-27 0 -48 -9.5t-21 -31.5v-211 q0 -27 -19 -27h-231q41 66 84 129.5t88 124.5l188 258q16 23 16 29t-10 6q-4 0 -11 -2t-17 -6l-306 -438q-74 -104 -73 -123z" />
<glyph unicode="&#xbd;" horiz-adv-x="1378" d="M96 1202q0 -16 17 -16q6 0 21.5 7t32.5 15.5t35.5 15.5t33.5 7q10 0 10 -19v-540q0 -33 -7.5 -49.5t-35.5 -20.5q-12 -2 -23 -2h-18h-10q-16 0 -25.5 -2t-9.5 -14q0 -18 24 -19q16 0 55.5 4t100.5 4q55 0 87 -3t38 -3q27 0 27 17q0 12 -9.5 15t-23.5 3h-31q-16 0 -31 6 q-20 8 -24 23.5t-4 44.5v575q0 18 2 29.5t2 15.5q0 14 -15 15q-10 0 -37.5 -18.5t-87.5 -43.5q-43 -16 -68.5 -23t-25.5 -24zM176 -39h68l956 1366h-67zM895 6q0 -6 33 -6h235q39 0 68 -3t47 -3t22.5 9t4.5 38v117q0 20 -9 20q-10 0 -12 -17.5t-10 -39.5q-6 -16 -19.5 -22.5 t-44.5 -6.5h-215q-14 0 -14 4q0 2 6 13l19 28q51 70 103 121t93 94q47 53 75 101.5t28 105.5q0 80 -55.5 132t-139.5 52q-86 0 -149 -63q-25 -25 -38.5 -51.5t-13.5 -34.5q0 -16 9 -16q14 0 19 15t19 36q53 72 129 71q57 0 94.5 -38.5t37.5 -110.5q0 -80 -57.5 -164 t-145.5 -199q-57 -76 -88 -119.5t-31 -62.5z" />
<glyph unicode="&#xbe;" horiz-adv-x="1380" d="M27 545q0 -33 28.5 -54.5t77.5 -21.5q55 0 112.5 26.5t103.5 72.5t76 105.5t30 127.5q0 96 -53.5 152.5t-127.5 56.5h-32q-10 0 -11 2q0 2 21 16l45 27q94 59 94 133q0 51 -42 87t-113 36q-35 0 -67 -13.5t-55.5 -32t-37 -40t-13.5 -35.5q0 -12 9 -12q8 0 18 15 t27.5 33.5t41 34t60.5 15.5q41 0 66.5 -24.5t25.5 -65.5q0 -49 -34.5 -86t-94 -78t-91.5 -64.5t-32 -39.5q0 -14 15 -15q2 0 11 8.5t25.5 18.5t42 18t60.5 8q72 0 119 -53t47 -139q0 -61 -22.5 -109.5t-55.5 -82t-69.5 -51t-65.5 -17.5q-20 0 -31.5 13t-21 28.5t-19.5 29 t-28 13.5q-39 0 -39 -43zM176 -39h68l956 1366h-67zM883 250q0 -16 30 -17h238q16 0 19.5 -5t3.5 -19v-115q0 -27 -5.5 -40t-21.5 -17q-29 -4 -45.5 -6t-16.5 -17q0 -16 25 -16q4 0 32.5 3t88.5 3q41 0 61.5 -3t24.5 -3q14 0 14 16q0 10 -5 13.5t-13 4.5t-18.5 2t-18.5 5 q-16 8 -19.5 21.5t-3.5 35.5v115q0 10 3.5 16t15.5 6h61q14 0 15 13v16q0 10 -19 10h-55q-20 0 -21 27v242q0 10 -10 10q-27 0 -48 -9.5t-21 -31.5v-211q0 -27 -19 -27h-231q41 66 84 129.5t88 124.5l188 258q16 23 16 29t-10 6q-4 0 -11 -2t-17 -6l-306 -438 q-74 -104 -73 -123z" />
<glyph unicode="&#xbf;" horiz-adv-x="542" d="M49 315q0 -76 21.5 -139t59.5 -108t89 -70t109 -25q74 0 105.5 17.5t31.5 52.5q0 152 -41 152q-18 0 -32.5 -26t-30 -56.5t-38 -56t-59.5 -25.5q-55 0 -94 55t-39 145q0 49 12.5 90t36 78t55 71t72.5 71q51 45 75 71.5t24 69.5q0 10 -7 47l-24 152q-6 33 -21 32 q-14 0 -14 -32v-27q0 -37 -8 -64.5t-22.5 -49t-35 -41t-43.5 -40.5q-41 -39 -74.5 -75.5t-57 -76.5t-37 -87t-13.5 -105zM287 1159q0 -47 19.5 -76.5t51.5 -29.5q29 0 50.5 29.5t21.5 76.5q0 51 -21.5 77t-50.5 26q-31 0 -51 -26t-20 -77z" />
<glyph unicode="&#xc0;" horiz-adv-x="940" d="M-57 23q0 -27 32 -27q27 0 61 7t75 7q55 0 95 -8t62 -8q37 0 37 24q0 23 -21.5 31t-66.5 14q-29 4 -44 15.5t-15 42.5q0 33 14 84l66 246q4 14 12 21t18 7h310q20 0 26 -24l80 -256q10 -35 13 -60.5t3 -32.5q0 -33 -17 -38t-58 -9q-66 -4 -66 -34q0 -16 10.5 -20.5 t32.5 -4.5q35 0 74 5t86 5q82 0 129 -6t63 -6q41 0 41 27q0 12 -9 17t-21.5 7t-26.5 4t-27 8q-29 16 -48 59.5t-44 121.5l-303 968q-16 53 -23.5 85t-29.5 32q-16 0 -20.5 -13.5t-12.5 -35.5l-301 -1006q-23 -74 -38 -120t-32 -66q-18 -20 -38.5 -25.5t-38 -8.5t-28.5 -7 t-11 -22zM274 559q0 4 5 16l124 429q6 16 13 16q6 -1 12 -19l137 -421q2 -4 2 -15q0 -20 -22 -20h-252q-18 0 -19 14zM278 1743q0 -33 37 -70l217 -235h41l-194 307q-16 25 -28.5 38t-29.5 13q-16 0 -29.5 -15.5t-13.5 -37.5z" />
<glyph unicode="&#xc1;" horiz-adv-x="940" d="M-57 23q0 -27 32 -27q27 0 61 7t75 7q55 0 95 -8t62 -8q37 0 37 24q0 23 -21.5 31t-66.5 14q-29 4 -44 15.5t-15 42.5q0 33 14 84l66 246q4 14 12 21t18 7h310q20 0 26 -24l80 -256q10 -35 13 -60.5t3 -32.5q0 -33 -17 -38t-58 -9q-66 -4 -66 -34q0 -16 10.5 -20.5 t32.5 -4.5q35 0 74 5t86 5q82 0 129 -6t63 -6q41 0 41 27q0 12 -9 17t-21.5 7t-26.5 4t-27 8q-29 16 -48 59.5t-44 121.5l-303 968q-16 53 -23.5 85t-29.5 32q-16 0 -20.5 -13.5t-12.5 -35.5l-301 -1006q-23 -74 -38 -120t-32 -66q-18 -20 -38.5 -25.5t-38 -8.5t-28.5 -7 t-11 -22zM274 559q0 4 5 16l124 429q6 16 13 16q6 -1 12 -19l137 -421q2 -4 2 -15q0 -20 -22 -20h-252q-18 0 -19 14zM373 1438h41l217 235q37 37 37 70q0 23 -13.5 38t-29.5 15t-28.5 -13.5t-29.5 -37.5z" />
<glyph unicode="&#xc2;" horiz-adv-x="940" d="M-57 23q0 -27 32 -27q27 0 61 7t75 7q55 0 95 -8t62 -8q37 0 37 24q0 23 -21.5 31t-66.5 14q-29 4 -44 15.5t-15 42.5q0 33 14 84l66 246q4 14 12 21t18 7h310q20 0 26 -24l80 -256q10 -35 13 -60.5t3 -32.5q0 -33 -17 -38t-58 -9q-66 -4 -66 -34q0 -16 10.5 -20.5 t32.5 -4.5q35 0 74 5t86 5q82 0 129 -6t63 -6q41 0 41 27q0 12 -9 17t-21.5 7t-26.5 4t-27 8q-29 16 -48 59.5t-44 121.5l-303 968q-16 53 -23.5 85t-29.5 32q-16 0 -20.5 -13.5t-12.5 -35.5l-301 -1006q-23 -74 -38 -120t-32 -66q-18 -20 -38.5 -25.5t-38 -8.5t-28.5 -7 t-11 -22zM256 1438h39l178 233l178 -233h39l-178 350h-78zM274 559q0 4 5 16l124 429q6 16 13 16q6 -1 12 -19l137 -421q2 -4 2 -15q0 -20 -22 -20h-252q-18 0 -19 14z" />
<glyph unicode="&#xc3;" horiz-adv-x="940" d="M-57 23q0 -27 32 -27q27 0 61 7t75 7q55 0 95 -8t62 -8q37 0 37 24q0 23 -21.5 31t-66.5 14q-29 4 -44 15.5t-15 42.5q0 33 14 84l66 246q4 14 12 21t18 7h310q20 0 26 -24l80 -256q10 -35 13 -60.5t3 -32.5q0 -33 -17 -38t-58 -9q-66 -4 -66 -34q0 -16 10.5 -20.5 t32.5 -4.5q35 0 74 5t86 5q82 0 129 -6t63 -6q41 0 41 27q0 12 -9 17t-21.5 7t-26.5 4t-27 8q-29 16 -48 59.5t-44 121.5l-303 968q-16 53 -23.5 85t-29.5 32q-16 0 -20.5 -13.5t-12.5 -35.5l-301 -1006q-23 -74 -38 -120t-32 -66q-18 -20 -38.5 -25.5t-38 -8.5t-28.5 -7 t-11 -22zM246 1495h32q10 49 27.5 69.5t52.5 20.5q4 0 16.5 -2t30.5 -10l95 -35q18 -6 32.5 -10t28.5 -4q109 0 139 182h-34q-14 -88 -74 -88q-14 0 -45 10l-92 35q-45 16 -74 16q-49 0 -85 -46t-50 -138zM274 559q0 4 5 16l124 429q6 16 13 16q6 -1 12 -19l137 -421 q2 -4 2 -15q0 -20 -22 -20h-252q-18 0 -19 14z" />
<glyph unicode="&#xc4;" horiz-adv-x="940" d="M-57 23q0 -27 32 -27q27 0 61 7t75 7q55 0 95 -8t62 -8q37 0 37 24q0 23 -21.5 31t-66.5 14q-29 4 -44 15.5t-15 42.5q0 33 14 84l66 246q4 14 12 21t18 7h310q20 0 26 -24l80 -256q10 -35 13 -60.5t3 -32.5q0 -33 -17 -38t-58 -9q-66 -4 -66 -34q0 -16 10.5 -20.5 t32.5 -4.5q35 0 74 5t86 5q82 0 129 -6t63 -6q41 0 41 27q0 12 -9 17t-21.5 7t-26.5 4t-27 8q-29 16 -48 59.5t-44 121.5l-303 968q-16 53 -23.5 85t-29.5 32q-16 0 -20.5 -13.5t-12.5 -35.5l-301 -1006q-23 -74 -38 -120t-32 -66q-18 -20 -38.5 -25.5t-38 -8.5t-28.5 -7 t-11 -22zM190 1593q0 -39 26 -63.5t62 -24.5q37 0 63 24.5t26 63.5q0 35 -27 61.5t-62 26.5t-61.5 -26.5t-26.5 -61.5zM274 559q0 4 5 16l124 429q6 16 13 16q6 -1 12 -19l137 -421q2 -4 2 -15q0 -20 -22 -20h-252q-18 0 -19 14zM579 1593q0 -39 26 -63.5t63 -24.5 t62.5 24.5t25.5 63.5q0 35 -27 61.5t-61 26.5q-35 0 -62 -26.5t-27 -61.5z" />
<glyph unicode="&#xc5;" horiz-adv-x="940" d="M-57 23q0 -27 32 -27q27 0 61 7t75 7q55 0 95 -8t62 -8q37 0 37 24q0 23 -21.5 31t-66.5 14q-29 4 -44 15.5t-15 42.5q0 33 14 84l66 246q4 14 12 21t18 7h310q20 0 26 -24l80 -256q10 -35 13 -60.5t3 -32.5q0 -33 -17 -38t-58 -9q-66 -4 -66 -34q0 -16 10.5 -20.5 t32.5 -4.5q35 0 74 5t86 5q82 0 129 -6t63 -6q41 0 41 27q0 12 -9 17t-21.5 7t-26.5 4t-27 8q-29 16 -48 59.5t-44 121.5l-303 968q-16 53 -23.5 85t-29.5 32q-16 0 -20.5 -13.5t-12.5 -35.5l-301 -1006q-23 -74 -38 -120t-32 -66q-18 -20 -38.5 -25.5t-38 -8.5t-28.5 -7 t-11 -22zM223 1626q0 -49 18.5 -91t49.5 -73.5t73 -50t91 -18.5t91 18.5t73.5 50t50 73.5t18.5 91t-18.5 91t-50 74t-73.5 50.5t-91 18.5t-91 -18.5t-73 -49.5t-49.5 -74t-18.5 -92zM274 559q0 4 5 16l124 429q6 16 13 16q6 -1 12 -19l137 -421q2 -4 2 -15q0 -20 -22 -20 h-252q-18 0 -19 14zM303 1626q0 63 45.5 107.5t108.5 44.5t107 -44t44 -108q0 -66 -43 -108.5t-108 -42.5q-66 0 -110 43t-44 108z" />
<glyph unicode="&#xc6;" horiz-adv-x="1419" d="M-96 29q0 -29 41 -29q12 0 47 3t90 3q41 0 74.5 -3t56.5 -3q53 0 53 33q0 20 -20.5 24t-46 6.5t-46 8.5t-20.5 32q0 10 8.5 43t30.5 76l207 412q8 16 16 25.5t25 9.5h276q18 0 22.5 -8.5t4.5 -28.5v-440q0 -61 -9 -89t-57 -36q-45 -6 -75 -7q-29 0 -29 -28q0 -33 51 -33 q29 0 105.5 6t203.5 6q166 0 263.5 -10t121.5 -10q33 0 42.5 12t13.5 59l16 193q2 16 3 25.5t1 11.5q0 4 -6 10t-12 6q-12 0 -18.5 -12t-12.5 -32.5t-16.5 -47.5t-28.5 -53q-41 -59 -98.5 -85t-149.5 -26q-96 0 -134 33t-38 107v440q0 20 5 28.5t22 8.5h108q55 0 93 -18.5 t55 -49.5q18 -39 25.5 -68.5t10.5 -51t7 -33t16 -11.5q20 0 21 35q0 8 -2 52t-2 130q0 84 5 133.5t5 65.5q0 37 -23 37q-12 0 -17 -11.5t-8 -28.5t-10.5 -38.5t-25.5 -42.5q-37 -41 -148 -41h-98q-29 0 -34 4t-5 23v336q0 39 7 66.5t26.5 43t53.5 22.5t89 7q137 0 209 -98 q18 -25 27.5 -50.5t15.5 -45t13.5 -32t19.5 -12.5q18 0 18 51v177q0 27 -2 41t-10 20t-24.5 7t-42.5 1q-16 0 -56.5 -3t-103.5 -3h-447q-29 0 -47 3t-26 3q-29 0 -29 -28q0 -29 39 -29q35 0 35 -21q0 -10 -4.5 -18t-10.5 -18l-547 -1004q-33 -59 -61.5 -79.5t-50 -27 t-34.5 -10.5t-13 -26zM440 739q0 4 6 17l224 413q25 45 39 45q18 0 18 -47q0 -4 1 -13.5t1 -23.5v-368q0 -20 -5 -27.5t-24 -7.5h-241q-18 0 -19 12z" />
<glyph unicode="&#xc7;" horiz-adv-x="1032" d="M63 645q0 -147 41 -272t115 -217.5t174.5 -143.5t216.5 -51q61 0 112.5 11.5t92.5 28.5t69.5 37.5t41 39t15.5 75t3 158.5q0 35 -20 35q-16 0 -21.5 -25.5t-21.5 -70.5q-41 -115 -102.5 -172.5t-160.5 -57.5q-82 0 -153.5 46.5t-125.5 129.5t-85 197.5t-31 251.5 q0 147 31 264t84 197t123.5 123t152.5 43q158 0 240 -152q27 -47 33 -79.5t26 -32.5q18 0 19 26q0 94 -6 149.5t-17 67.5q-10 10 -35.5 23.5t-63.5 25t-84 19.5t-97 8q-119 0 -221.5 -51t-179 -142.5t-121 -216.5t-44.5 -272zM395 -373q68 -35 124.5 -51t97.5 -16 q76 0 120.5 45t44.5 116q0 74 -36.5 118t-96.5 44q-18 0 -51 -6v123h-43v-188q27 6 49 6q43 0 67.5 -25.5t24.5 -66.5q0 -102 -102 -103q-20 0 -67.5 15.5t-108.5 54.5z" />
<glyph unicode="&#xc8;" horiz-adv-x="917" d="M45 33q0 -33 43 -33q16 0 89 6t208 6q174 0 274.5 -10t128.5 -10q35 0 45.5 12t14.5 59l18 193q2 16 3 26l1 11q0 4 -7 10t-13 6q-12 0 -19.5 -12t-13.5 -32.5t-16 -47.5t-31 -53q-45 -59 -104.5 -85t-155.5 -26q-100 0 -140 33t-40 107v440q0 20 5 28.5t23 8.5h113 q117 0 156 -70q20 -35 27.5 -64.5t10.5 -51t7 -34t18 -12.5q20 0 21 37q0 8 -2 55.5t-2 139.5q0 76 4 122t4 62q0 37 -23 37q-14 0 -18 -11.5t-7 -27.5t-10.5 -38.5t-27.5 -43.5q-37 -41 -156 -41h-102q-29 0 -35 4t-6 23v336q0 41 8 67.5t28.5 43t56.5 22.5t91 6 q145 0 219 -98q18 -25 28.5 -49.5t16.5 -45t13.5 -33t19.5 -12.5q23 0 23 51v177q0 27 -3.5 41t-12.5 20t-25.5 7t-44.5 1h-455h-207q-37 0 -37 -28q0 -16 8.5 -21.5t21.5 -7.5t30 -2q18 0 36 -6q33 -10 39 -28.5t6 -66.5v-937q0 -66 -9 -89.5t-56 -35.5q-14 -4 -29 -5 q-14 0 -25.5 -2t-18.5 -8t-7 -20zM266 1743q0 -33 37 -70l217 -235h41l-194 307q-16 25 -28.5 38t-29.5 13q-16 0 -29.5 -15.5t-13.5 -37.5z" />
<glyph unicode="&#xc9;" horiz-adv-x="917" d="M45 33q0 -33 43 -33q16 0 89 6t208 6q174 0 274.5 -10t128.5 -10q35 0 45.5 12t14.5 59l18 193q2 16 3 26l1 11q0 4 -7 10t-13 6q-12 0 -19.5 -12t-13.5 -32.5t-16 -47.5t-31 -53q-45 -59 -104.5 -85t-155.5 -26q-100 0 -140 33t-40 107v440q0 20 5 28.5t23 8.5h113 q117 0 156 -70q20 -35 27.5 -64.5t10.5 -51t7 -34t18 -12.5q20 0 21 37q0 8 -2 55.5t-2 139.5q0 76 4 122t4 62q0 37 -23 37q-14 0 -18 -11.5t-7 -27.5t-10.5 -38.5t-27.5 -43.5q-37 -41 -156 -41h-102q-29 0 -35 4t-6 23v336q0 41 8 67.5t28.5 43t56.5 22.5t91 6 q145 0 219 -98q18 -25 28.5 -49.5t16.5 -45t13.5 -33t19.5 -12.5q23 0 23 51v177q0 27 -3.5 41t-12.5 20t-25.5 7t-44.5 1h-455h-207q-37 0 -37 -28q0 -16 8.5 -21.5t21.5 -7.5t30 -2q18 0 36 -6q33 -10 39 -28.5t6 -66.5v-937q0 -66 -9 -89.5t-56 -35.5q-14 -4 -29 -5 q-14 0 -25.5 -2t-18.5 -8t-7 -20zM361 1438h41l217 235q37 37 37 70q0 23 -13.5 38t-29.5 15t-28.5 -13.5t-29.5 -37.5z" />
<glyph unicode="&#xca;" horiz-adv-x="917" d="M45 33q0 -33 43 -33q16 0 89 6t208 6q174 0 274.5 -10t128.5 -10q35 0 45.5 12t14.5 59l18 193q2 16 3 26l1 11q0 4 -7 10t-13 6q-12 0 -19.5 -12t-13.5 -32.5t-16 -47.5t-31 -53q-45 -59 -104.5 -85t-155.5 -26q-100 0 -140 33t-40 107v440q0 20 5 28.5t23 8.5h113 q117 0 156 -70q20 -35 27.5 -64.5t10.5 -51t7 -34t18 -12.5q20 0 21 37q0 8 -2 55.5t-2 139.5q0 76 4 122t4 62q0 37 -23 37q-14 0 -18 -11.5t-7 -27.5t-10.5 -38.5t-27.5 -43.5q-37 -41 -156 -41h-102q-29 0 -35 4t-6 23v336q0 41 8 67.5t28.5 43t56.5 22.5t91 6 q145 0 219 -98q18 -25 28.5 -49.5t16.5 -45t13.5 -33t19.5 -12.5q23 0 23 51v177q0 27 -3.5 41t-12.5 20t-25.5 7t-44.5 1h-455h-207q-37 0 -37 -28q0 -16 8.5 -21.5t21.5 -7.5t30 -2q18 0 36 -6q33 -10 39 -28.5t6 -66.5v-937q0 -66 -9 -89.5t-56 -35.5q-14 -4 -29 -5 q-14 0 -25.5 -2t-18.5 -8t-7 -20zM244 1438h39l178 233l178 -233h39l-178 350h-78z" />
<glyph unicode="&#xcb;" horiz-adv-x="917" d="M45 33q0 -33 43 -33q16 0 89 6t208 6q174 0 274.5 -10t128.5 -10q35 0 45.5 12t14.5 59l18 193q2 16 3 26l1 11q0 4 -7 10t-13 6q-12 0 -19.5 -12t-13.5 -32.5t-16 -47.5t-31 -53q-45 -59 -104.5 -85t-155.5 -26q-100 0 -140 33t-40 107v440q0 20 5 28.5t23 8.5h113 q117 0 156 -70q20 -35 27.5 -64.5t10.5 -51t7 -34t18 -12.5q20 0 21 37q0 8 -2 55.5t-2 139.5q0 76 4 122t4 62q0 37 -23 37q-14 0 -18 -11.5t-7 -27.5t-10.5 -38.5t-27.5 -43.5q-37 -41 -156 -41h-102q-29 0 -35 4t-6 23v336q0 41 8 67.5t28.5 43t56.5 22.5t91 6 q145 0 219 -98q18 -25 28.5 -49.5t16.5 -45t13.5 -33t19.5 -12.5q23 0 23 51v177q0 27 -3.5 41t-12.5 20t-25.5 7t-44.5 1h-455h-207q-37 0 -37 -28q0 -16 8.5 -21.5t21.5 -7.5t30 -2q18 0 36 -6q33 -10 39 -28.5t6 -66.5v-937q0 -66 -9 -89.5t-56 -35.5q-14 -4 -29 -5 q-14 0 -25.5 -2t-18.5 -8t-7 -20zM178 1593q0 -39 26 -63.5t62 -24.5q37 0 63 24.5t26 63.5q0 35 -27 61.5t-62 26.5t-61.5 -26.5t-26.5 -61.5zM567 1593q0 -39 26 -63.5t63 -24.5t62.5 24.5t25.5 63.5q0 35 -27 61.5t-61 26.5q-35 0 -62 -26.5t-27 -61.5z" />
<glyph unicode="&#xcc;" horiz-adv-x="520" d="M37 33q0 -33 45 -33q23 0 68 5t110 5q66 0 110 -5t66 -5q45 0 45 29q0 16 -7 22t-18.5 9t-27.5 3q-14 0 -29 5q-27 6 -41 14t-20 21.5t-7 35t-1 54.5v937q0 49 7 69t46 28q18 4 34.5 5t29 3t18.5 7t6 20q0 29 -31 28q-20 0 -65 -8t-119 -8q-68 0 -111 8t-65 8 q-31 0 -31 -28q0 -16 7 -21.5t20.5 -7.5t29.5 -2q18 0 39 -6q31 -10 38 -27.5t7 -67.5v-937q0 -35 -1 -55.5t-8 -35t-21.5 -21.5t-38.5 -13q-16 -4 -31 -5q-14 0 -26.5 -2t-19.5 -8t-7 -20zM67 1743q0 -33 37 -70l217 -235h41l-194 307q-16 25 -28.5 38t-29.5 13 q-16 0 -29.5 -15.5t-13.5 -37.5z" />
<glyph unicode="&#xcd;" horiz-adv-x="520" d="M37 33q0 -33 45 -33q23 0 68 5t110 5q66 0 110 -5t66 -5q45 0 45 29q0 16 -7 22t-18.5 9t-27.5 3q-14 0 -29 5q-27 6 -41 14t-20 21.5t-7 35t-1 54.5v937q0 49 7 69t46 28q18 4 34.5 5t29 3t18.5 7t6 20q0 29 -31 28q-20 0 -65 -8t-119 -8q-68 0 -111 8t-65 8 q-31 0 -31 -28q0 -16 7 -21.5t20.5 -7.5t29.5 -2q18 0 39 -6q31 -10 38 -27.5t7 -67.5v-937q0 -35 -1 -55.5t-8 -35t-21.5 -21.5t-38.5 -13q-16 -4 -31 -5q-14 0 -26.5 -2t-19.5 -8t-7 -20zM162 1438h41l217 235q37 37 37 70q0 23 -13.5 38t-29.5 15t-28.5 -13.5 t-29.5 -37.5z" />
<glyph unicode="&#xce;" horiz-adv-x="520" d="M37 33q0 -33 45 -33q23 0 68 5t110 5q66 0 110 -5t66 -5q45 0 45 29q0 16 -7 22t-18.5 9t-27.5 3q-14 0 -29 5q-27 6 -41 14t-20 21.5t-7 35t-1 54.5v937q0 49 7 69t46 28q18 4 34.5 5t29 3t18.5 7t6 20q0 29 -31 28q-20 0 -65 -8t-119 -8q-68 0 -111 8t-65 8 q-31 0 -31 -28q0 -16 7 -21.5t20.5 -7.5t29.5 -2q18 0 39 -6q31 -10 38 -27.5t7 -67.5v-937q0 -35 -1 -55.5t-8 -35t-21.5 -21.5t-38.5 -13q-16 -4 -31 -5q-14 0 -26.5 -2t-19.5 -8t-7 -20zM45 1438h39l178 233l178 -233h39l-178 350h-78z" />
<glyph unicode="&#xcf;" horiz-adv-x="520" d="M-21 1593q0 -39 26 -63.5t62 -24.5q37 0 63 24.5t26 63.5q0 35 -27 61.5t-62 26.5t-61.5 -26.5t-26.5 -61.5zM37 33q0 -33 45 -33q23 0 68 5t110 5q66 0 110 -5t66 -5q45 0 45 29q0 16 -7 22t-18.5 9t-27.5 3q-14 0 -29 5q-27 6 -41 14t-20 21.5t-7 35t-1 54.5v937 q0 49 7 69t46 28q18 4 34.5 5t29 3t18.5 7t6 20q0 29 -31 28q-20 0 -65 -8t-119 -8q-68 0 -111 8t-65 8q-31 0 -31 -28q0 -16 7 -21.5t20.5 -7.5t29.5 -2q18 0 39 -6q31 -10 38 -27.5t7 -67.5v-937q0 -35 -1 -55.5t-8 -35t-21.5 -21.5t-38.5 -13q-16 -4 -31 -5 q-14 0 -26.5 -2t-19.5 -8t-7 -20zM368 1593q0 -39 26 -63.5t63 -24.5t62.5 24.5t25.5 63.5q0 35 -27 61.5t-61 26.5q-35 0 -62 -26.5t-27 -61.5z" />
<glyph unicode="&#xd0;" horiz-adv-x="1204" d="M8 672h189v-479q0 -33 -1 -54.5t-7.5 -35t-19.5 -21.5t-38 -14q-14 -4 -29 -5q-14 0 -25 -2t-18.5 -8t-7.5 -20q0 -33 45 -33q41 0 83 7t89 7t111.5 -10t148.5 -10q143 0 257 44t193 126t120 197.5t41 259.5q0 150 -44 276.5t-126 218.5t-198 144.5t-259 52.5 q-63 0 -153.5 -10.5t-200.5 -32.5q-53 -10 -79 -22.5t-26 -37.5q0 -31 23 -30q18 0 36.5 9t41.5 9q43 0 43 -68v-397h-189v-61zM330 242v430h284v61h-284v402q0 31 5 52t23.5 36.5t54.5 22.5t95 7q109 0 198 -45t153.5 -126t100 -191.5t35.5 -241.5q0 -141 -32.5 -253.5 t-94 -190.5t-150.5 -119t-202 -41q-55 0 -91 7t-57.5 28.5t-29.5 61t-8 100.5z" />
<glyph unicode="&#xd1;" horiz-adv-x="1118" d="M45 33q0 -35 47 -35q23 0 53.5 4t69.5 4q31 0 58.5 -4t54.5 -4q49 0 49 31q0 33 -27 32q-14 0 -24.5 -1t-14.5 -1q-29 0 -43 15.5t-22 51.5t-9 92t-1 136v727q0 35 8 35q10 0 20 -14l656 -1104q10 -16 16 -16q10 0 10 14v965q0 74 2 126t10.5 84.5t24.5 47t45 14.5h23 q20 0 28 5t8 22q0 31 -47 30q-20 0 -51 -3t-71 -3q-37 0 -65 3t-50 3q-47 0 -47 -30q0 -16 11 -21.5t27.5 -6.5t35 -2t30.5 -13q27 -23 31 -99t4 -217v-543q0 -29 -10 -28q-6 0 -21 22l-545 912q-10 18 -20 22t-29 4h-186q-27 0 -27 -28q0 -16 7.5 -21.5t18.5 -6.5t27.5 -2 t34.5 -7q29 -10 35 -28.5t6 -66.5v-776q0 -80 -1 -136t-9 -92t-23.5 -51.5t-41.5 -15.5q-10 0 -19.5 1t-17.5 1q-29 0 -29 -28zM332 1495h32q10 49 27.5 69.5t52.5 20.5q4 0 16.5 -2t30.5 -10l95 -35q18 -6 32.5 -10t28.5 -4q109 0 139 182h-34q-14 -88 -74 -88 q-14 0 -45 10l-92 35q-45 16 -74 16q-49 0 -85 -46t-50 -138z" />
<glyph unicode="&#xd2;" horiz-adv-x="1232" d="M63 645q0 -147 45.5 -272t121 -217.5t176 -143.5t210.5 -51q111 0 211.5 52.5t176 143.5t119.5 216t44 272t-44 272t-119.5 216.5t-176 142.5t-211.5 51t-211 -51t-175.5 -142.5t-121 -216t-45.5 -272.5zM223 645q0 147 31 264t84 198t124.5 123t151.5 42q82 0 155 -42 t126 -123t84 -197.5t31 -264.5q0 -147 -31 -263t-84 -197t-124 -123t-153 -42q-84 0 -155.5 42t-124.5 122t-84 197t-31 264zM421 1743q0 -33 37 -70l217 -235h41l-194 307q-16 25 -28.5 38t-29.5 13q-16 0 -29.5 -15.5t-13.5 -37.5z" />
<glyph unicode="&#xd3;" horiz-adv-x="1232" d="M63 645q0 -147 45.5 -272t121 -217.5t176 -143.5t210.5 -51q111 0 211.5 52.5t176 143.5t119.5 216t44 272t-44 272t-119.5 216.5t-176 142.5t-211.5 51t-211 -51t-175.5 -142.5t-121 -216t-45.5 -272.5zM223 645q0 147 31 264t84 198t124.5 123t151.5 42q82 0 155 -42 t126 -123t84 -197.5t31 -264.5q0 -147 -31 -263t-84 -197t-124 -123t-153 -42q-84 0 -155.5 42t-124.5 122t-84 197t-31 264zM516 1438h41l217 235q37 37 37 70q0 23 -13.5 38t-29.5 15t-28.5 -13.5t-29.5 -37.5z" />
<glyph unicode="&#xd4;" horiz-adv-x="1232" d="M63 645q0 -147 45.5 -272t121 -217.5t176 -143.5t210.5 -51q111 0 211.5 52.5t176 143.5t119.5 216t44 272t-44 272t-119.5 216.5t-176 142.5t-211.5 51t-211 -51t-175.5 -142.5t-121 -216t-45.5 -272.5zM223 645q0 147 31 264t84 198t124.5 123t151.5 42q82 0 155 -42 t126 -123t84 -197.5t31 -264.5q0 -147 -31 -263t-84 -197t-124 -123t-153 -42q-84 0 -155.5 42t-124.5 122t-84 197t-31 264zM399 1438h39l178 233l178 -233h39l-178 350h-78z" />
<glyph unicode="&#xd5;" horiz-adv-x="1232" d="M63 645q0 -147 45.5 -272t121 -217.5t176 -143.5t210.5 -51q111 0 211.5 52.5t176 143.5t119.5 216t44 272t-44 272t-119.5 216.5t-176 142.5t-211.5 51t-211 -51t-175.5 -142.5t-121 -216t-45.5 -272.5zM223 645q0 147 31 264t84 198t124.5 123t151.5 42q82 0 155 -42 t126 -123t84 -197.5t31 -264.5q0 -147 -31 -263t-84 -197t-124 -123t-153 -42q-84 0 -155.5 42t-124.5 122t-84 197t-31 264zM389 1495h32q10 49 27.5 69.5t52.5 20.5q4 0 16.5 -2t30.5 -10l95 -35q18 -6 32.5 -10t28.5 -4q109 0 139 182h-34q-14 -88 -74 -88q-14 0 -45 10 l-92 35q-45 16 -74 16q-49 0 -85 -46t-50 -138z" />
<glyph unicode="&#xd6;" horiz-adv-x="1232" d="M63 645q0 -147 45.5 -272t121 -217.5t176 -143.5t210.5 -51q111 0 211.5 52.5t176 143.5t119.5 216t44 272t-44 272t-119.5 216.5t-176 142.5t-211.5 51t-211 -51t-175.5 -142.5t-121 -216t-45.5 -272.5zM223 645q0 147 31 264t84 198t124.5 123t151.5 42q82 0 155 -42 t126 -123t84 -197.5t31 -264.5q0 -147 -31 -263t-84 -197t-124 -123t-153 -42q-84 0 -155.5 42t-124.5 122t-84 197t-31 264zM333 1593q0 -39 26 -63.5t62 -24.5q37 0 63 24.5t26 63.5q0 35 -27 61.5t-62 26.5t-61.5 -26.5t-26.5 -61.5zM722 1593q0 -39 26 -63.5t63 -24.5 t62.5 24.5t25.5 63.5q0 35 -27 61.5t-61 26.5q-35 0 -62 -26.5t-27 -61.5z" />
<glyph unicode="&#xd7;" horiz-adv-x="1705" d="M305 129l70 -68l481 482l481 -482l70 68l-481 481l481 484l-70 67l-481 -481l-481 481l-70 -67l481 -484z" />
<glyph unicode="&#xd8;" horiz-adv-x="1232" d="M63 645q0 -166 59.5 -309t170.5 -246l-137 -260h67l117 221q61 -45 133 -67.5t143 -22.5q111 0 211.5 51t175 142.5t119.5 217.5t45 273q0 170 -58 312.5t-165 236.5l131 248h-65l-111 -209q-72 47 -141.5 70.5t-147.5 23.5q-109 0 -207 -51t-173.5 -141.5t-121 -216 t-45.5 -273.5zM223 627q0 156 30 275.5t83 201.5t124.5 125t157.5 43q125 0 242 -117l-520 -975q-66 96 -91.5 204t-25.5 243zM381 129l516 975q51 -72 82 -189.5t31 -269.5q0 -147 -31 -264t-84 -198t-125 -123t-154 -42q-61 0 -121.5 28t-113.5 83z" />
<glyph unicode="&#xd9;" horiz-adv-x="1118" d="M39 1262q0 -16 7 -21.5t19.5 -7.5t28.5 -2q18 0 39 -6q31 -10 38 -27.5t7 -67.5v-724q0 -92 8.5 -164t44.5 -131q92 -150 355 -150q117 0 197.5 40t121.5 114q39 68 46 150.5t7 189.5v479q0 82 1.5 138t9.5 92t24.5 52.5t44.5 16.5q29 0 41.5 5t12.5 24q0 29 -37 28 q-8 0 -39 -3t-84 -3q-47 0 -78 3t-43 3q-31 0 -31 -28q0 -16 11.5 -22.5t27 -7.5t31.5 -3t27 -12q25 -27 29.5 -104t4.5 -212v-446q0 -111 -7 -189t-48 -135q-39 -53 -103.5 -83t-152.5 -30q-86 0 -140 25t-86 74t-43.5 122.5t-11.5 170.5v720q0 49 6.5 69t45.5 28 q18 4 34.5 5t28.5 3t18.5 7t6.5 20q0 29 -31 28q-20 0 -65.5 -8t-118.5 -8q-68 0 -111 8t-65 8q-29 0 -29 -28zM387 1743q0 -33 37 -70l217 -235h41l-194 307q-16 25 -28.5 38t-29.5 13q-16 0 -29.5 -15.5t-13.5 -37.5z" />
<glyph unicode="&#xda;" horiz-adv-x="1118" d="M39 1262q0 -16 7 -21.5t19.5 -7.5t28.5 -2q18 0 39 -6q31 -10 38 -27.5t7 -67.5v-724q0 -92 8.5 -164t44.5 -131q92 -150 355 -150q117 0 197.5 40t121.5 114q39 68 46 150.5t7 189.5v479q0 82 1.5 138t9.5 92t24.5 52.5t44.5 16.5q29 0 41.5 5t12.5 24q0 29 -37 28 q-8 0 -39 -3t-84 -3q-47 0 -78 3t-43 3q-31 0 -31 -28q0 -16 11.5 -22.5t27 -7.5t31.5 -3t27 -12q25 -27 29.5 -104t4.5 -212v-446q0 -111 -7 -189t-48 -135q-39 -53 -103.5 -83t-152.5 -30q-86 0 -140 25t-86 74t-43.5 122.5t-11.5 170.5v720q0 49 6.5 69t45.5 28 q18 4 34.5 5t28.5 3t18.5 7t6.5 20q0 29 -31 28q-20 0 -65.5 -8t-118.5 -8q-68 0 -111 8t-65 8q-29 0 -29 -28zM482 1438h41l217 235q37 37 37 70q0 23 -13.5 38t-29.5 15t-28.5 -13.5t-29.5 -37.5z" />
<glyph unicode="&#xdb;" horiz-adv-x="1118" d="M39 1262q0 -16 7 -21.5t19.5 -7.5t28.5 -2q18 0 39 -6q31 -10 38 -27.5t7 -67.5v-724q0 -92 8.5 -164t44.5 -131q92 -150 355 -150q117 0 197.5 40t121.5 114q39 68 46 150.5t7 189.5v479q0 82 1.5 138t9.5 92t24.5 52.5t44.5 16.5q29 0 41.5 5t12.5 24q0 29 -37 28 q-8 0 -39 -3t-84 -3q-47 0 -78 3t-43 3q-31 0 -31 -28q0 -16 11.5 -22.5t27 -7.5t31.5 -3t27 -12q25 -27 29.5 -104t4.5 -212v-446q0 -111 -7 -189t-48 -135q-39 -53 -103.5 -83t-152.5 -30q-86 0 -140 25t-86 74t-43.5 122.5t-11.5 170.5v720q0 49 6.5 69t45.5 28 q18 4 34.5 5t28.5 3t18.5 7t6.5 20q0 29 -31 28q-20 0 -65.5 -8t-118.5 -8q-68 0 -111 8t-65 8q-29 0 -29 -28zM365 1438h39l178 233l178 -233h39l-178 350h-78z" />
<glyph unicode="&#xdc;" horiz-adv-x="1118" d="M39 1262q0 -16 7 -21.5t19.5 -7.5t28.5 -2q18 0 39 -6q31 -10 38 -27.5t7 -67.5v-724q0 -92 8.5 -164t44.5 -131q92 -150 355 -150q117 0 197.5 40t121.5 114q39 68 46 150.5t7 189.5v479q0 82 1.5 138t9.5 92t24.5 52.5t44.5 16.5q29 0 41.5 5t12.5 24q0 29 -37 28 q-8 0 -39 -3t-84 -3q-47 0 -78 3t-43 3q-31 0 -31 -28q0 -16 11.5 -22.5t27 -7.5t31.5 -3t27 -12q25 -27 29.5 -104t4.5 -212v-446q0 -111 -7 -189t-48 -135q-39 -53 -103.5 -83t-152.5 -30q-86 0 -140 25t-86 74t-43.5 122.5t-11.5 170.5v720q0 49 6.5 69t45.5 28 q18 4 34.5 5t28.5 3t18.5 7t6.5 20q0 29 -31 28q-20 0 -65.5 -8t-118.5 -8q-68 0 -111 8t-65 8q-29 0 -29 -28zM299 1593q0 -39 26 -63.5t62 -24.5q37 0 63 24.5t26 63.5q0 35 -27 61.5t-62 26.5t-61.5 -26.5t-26.5 -61.5zM688 1593q0 -39 26 -63.5t63 -24.5t62.5 24.5 t25.5 63.5q0 35 -27 61.5t-61 26.5q-35 0 -62 -26.5t-27 -61.5z" />
<glyph unicode="&#xdd;" horiz-adv-x="923" d="M-55 1257q0 -10 7 -14t16 -6t22 -2q10 0 20 -4q41 -16 82 -96l305 -574v-368q0 -35 -2 -59.5t-13 -41t-34.5 -24t-66.5 -7.5q-27 0 -27 -28q0 -33 43 -33q23 0 64.5 5t105.5 5q63 0 105 -5t65 -5q45 0 45 29q0 18 -8 24t-20.5 7t-29 2t-34.5 8q-20 6 -30.5 14t-15.5 20.5 t-6 31t-1 44.5v402l301 551q16 31 32.5 54t51.5 34q29 8 49 10t20 31q0 27 -26 26q-10 0 -40 -5t-77 -5q-59 0 -94 6t-52 6q-33 0 -32 -24q0 -23 17.5 -28t39 -8t38.5 -11.5t17 -34.5q0 -8 -13 -46t-44 -96l-201 -364q-8 -14 -14 -14q-10 0 -16 12l-222 411q-16 33 -24 60 t-8 37q0 20 14 28.5t32.5 12.5t33 10t14.5 25q0 27 -25 26q-6 0 -32.5 -3t-75.5 -3q-98 0 -150.5 5t-66.5 5q-39 0 -39 -33zM365 1438h41l217 235q37 37 37 70q0 23 -13.5 38t-29.5 15t-28.5 -13.5t-29.5 -37.5z" />
<glyph unicode="&#xde;" horiz-adv-x="858" d="M59 29q0 -29 39 -29q16 0 56.5 5t105.5 5q66 0 106 -5t56 -5q41 0 41 29q0 16 -7 22t-18.5 8t-27 3t-31.5 8q-37 12 -43 36.5t-6 86.5v110q0 39 14 39q10 0 28.5 -9t44 -19.5t56.5 -19.5t66 -9q55 0 105 26.5t88 73.5t61.5 111.5t23.5 140.5q0 176 -91 274.5t-257 98.5 q-45 0 -72.5 -11.5t-44.5 -11.5q-16 0 -19 6t-3 19v86v14q0 53 8 76.5t49 34.5q14 4 29 4q14 0 24.5 3t16.5 9t6 23q0 29 -41 28q-16 0 -53 -5t-97 -5q-57 0 -99 5t-67 5q-37 0 -36 -28q0 -16 7 -21.5t18 -7.5t26 -2q14 0 31 -6q29 -10 33.5 -28.5t4.5 -66.5v-956 q0 -45 -5 -66.5t-33 -35.5q-14 -6 -31 -7.5t-30 -3.5t-22.5 -8t-9.5 -24zM330 481v4v363q0 53 19.5 76.5t99.5 23.5q47 0 89 -22.5t73.5 -63.5t50 -98t18.5 -125q0 -61 -17.5 -113.5t-47 -89.5t-69.5 -57.5t-85 -20.5q-49 0 -76 11.5t-39 30t-14 40t-2 41.5z" />
<glyph unicode="&#xdf;" horiz-adv-x="937" d="M29 18q0 -12 5 -15t19 -3h148q35 0 48 5t13 28v915q0 217 51.5 325.5t178.5 108.5q92 0 144 -64.5t52 -182.5q0 -86 -29.5 -135.5t-95.5 -75.5q-31 -12 -60.5 -22.5t-53 -29t-37 -48t-13.5 -81.5q0 -84 51.5 -143t141.5 -123q37 -27 69.5 -49t56 -49t37 -62.5t13.5 -87.5 q0 -102 -46 -161.5t-118 -59.5q-115 0 -151 156q-16 66 -19.5 97.5t-21.5 31.5q-16 0 -19.5 -22.5t-3.5 -69.5v-88q0 -35 4 -52.5t23 -29.5q84 -57 176 -58q131 0 204.5 90.5t73.5 233.5q0 102 -48 166.5t-140 128.5q-45 31 -79 53.5t-57.5 44t-35.5 43t-12 49.5 q0 53 34.5 79t104.5 40q88 18 129 65.5t41 147.5q0 66 -23.5 122t-64.5 97t-96.5 64.5t-118.5 23.5q-152 0 -241 -115.5t-107 -349.5l-4 -65q-2 -23 -9.5 -32t-25.5 -19l-47 -23q-12 -6 -18.5 -11t-6.5 -15q0 -20 27 -21h49q18 0 22 -7t4 -28v-610q0 -41 -18 -56.5 t-40.5 -21.5t-41 -9t-18.5 -20z" />
<glyph unicode="&#xe0;" horiz-adv-x="743" d="M45 653q0 -16 10.5 -25.5t24.5 -9.5q57 0 79.5 44.5t45.5 107.5q18 51 65 88t101 37q63 0 82.5 -41t19.5 -135v-180q-104 -59 -184 -110.5t-134.5 -99.5t-81 -98.5t-26.5 -107.5q0 -74 41 -118t115 -44q66 0 126 39t138 104h8q18 -72 40 -103.5t63 -31.5q20 0 47.5 13.5 t52 34t42 42t17.5 37.5q0 14 -14 15q-12 0 -31.5 -22.5t-42.5 -22.5q-55 0 -55 127v514q0 53 -4 96t-22.5 73.5t-55.5 47t-100 16.5q-80 0 -147.5 -30.5t-117 -76t-76 -94.5t-26.5 -86zM172 178q0 135 209 256l61 35q14 8 21 8q12 0 12 -20v-189q0 -51 -18.5 -91t-48 -67.5 t-63.5 -42t-64 -14.5q-51 0 -80 34t-29 91zM180 1354q0 -33 37 -70l217 -235h41l-194 307q-16 25 -28.5 38t-29.5 13q-16 0 -29.5 -15.5t-13.5 -37.5z" />
<glyph unicode="&#xe1;" horiz-adv-x="743" d="M45 653q0 -16 10.5 -25.5t24.5 -9.5q57 0 79.5 44.5t45.5 107.5q18 51 65 88t101 37q63 0 82.5 -41t19.5 -135v-180q-104 -59 -184 -110.5t-134.5 -99.5t-81 -98.5t-26.5 -107.5q0 -74 41 -118t115 -44q66 0 126 39t138 104h8q18 -72 40 -103.5t63 -31.5q20 0 47.5 13.5 t52 34t42 42t17.5 37.5q0 14 -14 15q-12 0 -31.5 -22.5t-42.5 -22.5q-55 0 -55 127v514q0 53 -4 96t-22.5 73.5t-55.5 47t-100 16.5q-80 0 -147.5 -30.5t-117 -76t-76 -94.5t-26.5 -86zM172 178q0 135 209 256l61 35q14 8 21 8q12 0 12 -20v-189q0 -51 -18.5 -91t-48 -67.5 t-63.5 -42t-64 -14.5q-51 0 -80 34t-29 91zM275 1049h41l217 235q37 37 37 70q0 23 -13.5 38t-29.5 15t-28.5 -13.5t-29.5 -37.5z" />
<glyph unicode="&#xe2;" horiz-adv-x="743" d="M45 653q0 -16 10.5 -25.5t24.5 -9.5q57 0 79.5 44.5t45.5 107.5q18 51 65 88t101 37q63 0 82.5 -41t19.5 -135v-180q-104 -59 -184 -110.5t-134.5 -99.5t-81 -98.5t-26.5 -107.5q0 -74 41 -118t115 -44q66 0 126 39t138 104h8q18 -72 40 -103.5t63 -31.5q20 0 47.5 13.5 t52 34t42 42t17.5 37.5q0 14 -14 15q-12 0 -31.5 -22.5t-42.5 -22.5q-55 0 -55 127v514q0 53 -4 96t-22.5 73.5t-55.5 47t-100 16.5q-80 0 -147.5 -30.5t-117 -76t-76 -94.5t-26.5 -86zM158 1049h39l178 233l178 -233h39l-178 350h-78zM172 178q0 135 209 256l61 35 q14 8 21 8q12 0 12 -20v-189q0 -51 -18.5 -91t-48 -67.5t-63.5 -42t-64 -14.5q-51 0 -80 34t-29 91z" />
<glyph unicode="&#xe3;" horiz-adv-x="743" d="M45 653q0 -16 10.5 -25.5t24.5 -9.5q57 0 79.5 44.5t45.5 107.5q18 51 65 88t101 37q63 0 82.5 -41t19.5 -135v-180q-104 -59 -184 -110.5t-134.5 -99.5t-81 -98.5t-26.5 -107.5q0 -74 41 -118t115 -44q66 0 126 39t138 104h8q18 -72 40 -103.5t63 -31.5q20 0 47.5 13.5 t52 34t42 42t17.5 37.5q0 14 -14 15q-12 0 -31.5 -22.5t-42.5 -22.5q-55 0 -55 127v514q0 53 -4 96t-22.5 73.5t-55.5 47t-100 16.5q-80 0 -147.5 -30.5t-117 -76t-76 -94.5t-26.5 -86zM148 1106h32q10 49 27.5 69.5t52.5 20.5q4 0 16.5 -2t30.5 -10l95 -35q18 -6 32.5 -10 t28.5 -4q109 0 139 182h-34q-14 -88 -74 -88q-14 0 -45 10l-92 35q-45 16 -74 16q-49 0 -85 -46t-50 -138zM172 178q0 135 209 256l61 35q14 8 21 8q12 0 12 -20v-189q0 -51 -18.5 -91t-48 -67.5t-63.5 -42t-64 -14.5q-51 0 -80 34t-29 91z" />
<glyph unicode="&#xe4;" horiz-adv-x="743" d="M45 653q0 -16 10.5 -25.5t24.5 -9.5q57 0 79.5 44.5t45.5 107.5q18 51 65 88t101 37q63 0 82.5 -41t19.5 -135v-180q-104 -59 -184 -110.5t-134.5 -99.5t-81 -98.5t-26.5 -107.5q0 -74 41 -118t115 -44q66 0 126 39t138 104h8q18 -72 40 -103.5t63 -31.5q20 0 47.5 13.5 t52 34t42 42t17.5 37.5q0 14 -14 15q-12 0 -31.5 -22.5t-42.5 -22.5q-55 0 -55 127v514q0 53 -4 96t-22.5 73.5t-55.5 47t-100 16.5q-80 0 -147.5 -30.5t-117 -76t-76 -94.5t-26.5 -86zM92 1204q0 -39 26 -63.5t62 -24.5q37 0 63 24.5t26 63.5q0 35 -27 61.5t-62 26.5 t-61.5 -26.5t-26.5 -61.5zM172 178q0 135 209 256l61 35q14 8 21 8q12 0 12 -20v-189q0 -51 -18.5 -91t-48 -67.5t-63.5 -42t-64 -14.5q-51 0 -80 34t-29 91zM481 1204q0 -39 26 -63.5t63 -24.5t62.5 24.5t25.5 63.5q0 35 -27 61.5t-61 26.5q-35 0 -62 -26.5t-27 -61.5z" />
<glyph unicode="&#xe5;" horiz-adv-x="743" d="M45 653q0 -16 10.5 -25.5t24.5 -9.5q57 0 79.5 44.5t45.5 107.5q18 51 65 88t101 37q63 0 82.5 -41t19.5 -135v-180q-104 -59 -184 -110.5t-134.5 -99.5t-81 -98.5t-26.5 -107.5q0 -74 41 -118t115 -44q66 0 126 39t138 104h8q18 -72 40 -103.5t63 -31.5q20 0 47.5 13.5 t52 34t42 42t17.5 37.5q0 14 -14 15q-12 0 -31.5 -22.5t-42.5 -22.5q-55 0 -55 127v514q0 53 -4 96t-22.5 73.5t-55.5 47t-100 16.5q-80 0 -147.5 -30.5t-117 -76t-76 -94.5t-26.5 -86zM131 1239q0 -49 18.5 -92t50 -74t73.5 -49t92 -18q49 0 92 18t73.5 50t49 74t18.5 91 t-18.5 91t-50 74t-73.5 50.5t-91 18.5t-92.5 -18.5t-74 -49.5t-49 -74t-18.5 -92zM172 178q0 135 209 256l61 35q14 8 21 8q12 0 12 -20v-189q0 -51 -18.5 -91t-48 -67.5t-63.5 -42t-64 -14.5q-51 0 -80 34t-29 91zM213 1239q0 63 44.5 107.5t107.5 44.5t107 -44t44 -108 q0 -66 -43 -109t-108 -43q-63 0 -107.5 43.5t-44.5 108.5z" />
<glyph unicode="&#xe6;" horiz-adv-x="1150" d="M25 653q0 -16 10 -25.5t24 -9.5q49 0 73 34t42 87q53 152 168 152q72 0 97.5 -70.5t25.5 -212.5v-106q-215 -96 -320.5 -189.5t-105.5 -197.5q0 -72 43 -113t121 -41q92 0 170 40t149 118h19q109 -158 280 -158q63 0 116.5 24.5t91.5 58.5t58.5 70t20.5 58q0 16 -14 16 q-6 0 -19.5 -20.5t-39 -45t-65.5 -45t-100 -20.5q-117 0 -195.5 109.5t-78.5 314.5q0 59 9 80t38 21h416q35 0 46 10t11 39q0 66 -20.5 122t-57.5 97t-89 64.5t-115 23.5q-84 0 -153 -37t-132 -115q-23 74 -71 113t-113 39q-72 0 -134.5 -33t-108.5 -78t-71.5 -94t-25.5 -80 zM166 168q0 76 60.5 141.5t166.5 108.5l45 16q14 6 19 6q8 1 8 -26v-156q0 -113 -42 -169t-149 -56q-39 0 -73.5 35.5t-34.5 99.5zM616 645q0 51 15.5 97t43 81t65.5 55.5t83 20.5q66 0 116 -53t50 -139q0 -53 -50 -68.5t-163 -15.5h-137q-23 0 -23 22z" />
<glyph unicode="&#xe7;" horiz-adv-x="741" d="M53 451q0 -111 29 -201t80 -154.5t119.5 -99.5t148.5 -35q61 0 110.5 19.5t84 46t54 54.5t19.5 42q0 12 -14 12q-6 0 -20.5 -16.5t-41 -36t-64.5 -35.5t-89 -16q-129 0 -209 111.5t-80 320.5q0 106 20.5 188t55.5 137.5t81 83t97 27.5q53 0 89 -30.5t71 -92.5 q23 -43 31 -66.5t28 -23.5q31 0 31 127q0 59 -60.5 92t-164.5 33q-78 0 -152 -35t-130 -98.5t-90 -153.5t-34 -200zM221 -373q68 -35 124.5 -51t97.5 -16q76 0 120.5 45t44.5 116q0 74 -36.5 118t-96.5 44q-18 0 -51 -6v123h-43v-188q27 6 49 6q43 0 67.5 -25.5t24.5 -66.5 q0 -102 -102 -103q-20 0 -67.5 15.5t-108.5 54.5z" />
<glyph unicode="&#xe8;" horiz-adv-x="821" d="M53 449q0 -111 28 -201t79 -153.5t121.5 -98.5t154.5 -35q74 0 134.5 24.5t102.5 58.5t64.5 70t22.5 58q0 16 -15 16q-6 0 -22 -20.5t-45 -45t-73 -45t-107 -20.5q-70 0 -128.5 30t-100.5 85t-65.5 135t-23.5 182q0 51 6.5 68.5t32.5 17.5h488q35 0 48 10.5t13 32.5 q0 61 -21.5 120t-61.5 103t-97.5 70.5t-128.5 26.5q-82 0 -156 -34t-129 -97.5t-88 -154.5t-33 -203zM199 643q0 43 20.5 88t54 82t78.5 61.5t94 24.5q39 0 74 -16.5t60.5 -43t40 -59t14.5 -65.5q0 -59 -59.5 -74.5t-186.5 -15.5h-168q-10 0 -16 6t-6 12zM219 1354 q0 -33 37 -70l217 -235h41l-194 307q-16 25 -28.5 38t-29.5 13q-16 0 -29.5 -15.5t-13.5 -37.5z" />
<glyph unicode="&#xe9;" horiz-adv-x="821" d="M53 449q0 -111 28 -201t79 -153.5t121.5 -98.5t154.5 -35q74 0 134.5 24.5t102.5 58.5t64.5 70t22.5 58q0 16 -15 16q-6 0 -22 -20.5t-45 -45t-73 -45t-107 -20.5q-70 0 -128.5 30t-100.5 85t-65.5 135t-23.5 182q0 51 6.5 68.5t32.5 17.5h488q35 0 48 10.5t13 32.5 q0 61 -21.5 120t-61.5 103t-97.5 70.5t-128.5 26.5q-82 0 -156 -34t-129 -97.5t-88 -154.5t-33 -203zM199 643q0 43 20.5 88t54 82t78.5 61.5t94 24.5q39 0 74 -16.5t60.5 -43t40 -59t14.5 -65.5q0 -59 -59.5 -74.5t-186.5 -15.5h-168q-10 0 -16 6t-6 12zM314 1049h41 l217 235q37 37 37 70q0 23 -13.5 38t-29.5 15t-28.5 -13.5t-29.5 -37.5z" />
<glyph unicode="&#xea;" horiz-adv-x="821" d="M53 449q0 -111 28 -201t79 -153.5t121.5 -98.5t154.5 -35q74 0 134.5 24.5t102.5 58.5t64.5 70t22.5 58q0 16 -15 16q-6 0 -22 -20.5t-45 -45t-73 -45t-107 -20.5q-70 0 -128.5 30t-100.5 85t-65.5 135t-23.5 182q0 51 6.5 68.5t32.5 17.5h488q35 0 48 10.5t13 32.5 q0 61 -21.5 120t-61.5 103t-97.5 70.5t-128.5 26.5q-82 0 -156 -34t-129 -97.5t-88 -154.5t-33 -203zM197 1049h39l178 233l178 -233h39l-178 350h-78zM199 643q0 43 20.5 88t54 82t78.5 61.5t94 24.5q39 0 74 -16.5t60.5 -43t40 -59t14.5 -65.5q0 -59 -59.5 -74.5 t-186.5 -15.5h-168q-10 0 -16 6t-6 12z" />
<glyph unicode="&#xeb;" horiz-adv-x="821" d="M53 449q0 -111 28 -201t79 -153.5t121.5 -98.5t154.5 -35q74 0 134.5 24.5t102.5 58.5t64.5 70t22.5 58q0 16 -15 16q-6 0 -22 -20.5t-45 -45t-73 -45t-107 -20.5q-70 0 -128.5 30t-100.5 85t-65.5 135t-23.5 182q0 51 6.5 68.5t32.5 17.5h488q35 0 48 10.5t13 32.5 q0 61 -21.5 120t-61.5 103t-97.5 70.5t-128.5 26.5q-82 0 -156 -34t-129 -97.5t-88 -154.5t-33 -203zM131 1204q0 -39 26 -63.5t62 -24.5q37 0 63 24.5t26 63.5q0 35 -27 61.5t-62 26.5t-61.5 -26.5t-26.5 -61.5zM199 643q0 43 20.5 88t54 82t78.5 61.5t94 24.5 q39 0 74 -16.5t60.5 -43t40 -59t14.5 -65.5q0 -59 -59.5 -74.5t-186.5 -15.5h-168q-10 0 -16 6t-6 12zM520 1204q0 -39 26 -63.5t63 -24.5t62.5 24.5t25.5 63.5q0 35 -27 61.5t-61 26.5q-35 0 -62 -26.5t-27 -61.5z" />
<glyph unicode="&#xec;" horiz-adv-x="413" d="M14 1354q0 -33 37 -70l217 -235h41l-194 307q-16 25 -28.5 38t-29.5 13q-16 0 -29.5 -15.5t-13.5 -37.5zM33 18q0 -14 9 -17t26 -3q23 0 58.5 4t82.5 4q59 0 95 -4t48 -4q16 0 23.5 2t7.5 18t-17.5 19.5t-39 8.5t-39 20.5t-17.5 58.5v764q0 23 -2 32t-12 9 q-12 0 -41 -26.5t-86 -59.5q-27 -23 -50.5 -31t-23.5 -29q0 -14 10.5 -17t26.5 -3q35 0 45 -19.5t10 -56.5v-563q0 -41 -18 -57.5t-39.5 -21.5t-39 -8t-17.5 -20z" />
<glyph unicode="&#xed;" horiz-adv-x="413" d="M33 18q0 -14 9 -17t26 -3q23 0 58.5 4t82.5 4q59 0 95 -4t48 -4q16 0 23.5 2t7.5 18t-17.5 19.5t-39 8.5t-39 20.5t-17.5 58.5v764q0 23 -2 32t-12 9q-12 0 -41 -26.5t-86 -59.5q-27 -23 -50.5 -31t-23.5 -29q0 -14 10.5 -17t26.5 -3q35 0 45 -19.5t10 -56.5v-563 q0 -41 -18 -57.5t-39.5 -21.5t-39 -8t-17.5 -20zM109 1049h41l217 235q37 37 37 70q0 23 -13.5 38t-29.5 15t-28.5 -13.5t-29.5 -37.5z" />
<glyph unicode="&#xee;" horiz-adv-x="413" d="M-8 1049h39l178 233l178 -233h39l-178 350h-78zM33 18q0 -14 9 -17t26 -3q23 0 58.5 4t82.5 4q59 0 95 -4t48 -4q16 0 23.5 2t7.5 18t-17.5 19.5t-39 8.5t-39 20.5t-17.5 58.5v764q0 23 -2 32t-12 9q-12 0 -41 -26.5t-86 -59.5q-27 -23 -50.5 -31t-23.5 -29 q0 -14 10.5 -17t26.5 -3q35 0 45 -19.5t10 -56.5v-563q0 -41 -18 -57.5t-39.5 -21.5t-39 -8t-17.5 -20z" />
<glyph unicode="&#xef;" horiz-adv-x="413" d="M-74 1204q0 -39 26 -63.5t62 -24.5q37 0 63 24.5t26 63.5q0 35 -27 61.5t-62 26.5t-61.5 -26.5t-26.5 -61.5zM33 18q0 -14 9 -17t26 -3q23 0 58.5 4t82.5 4q59 0 95 -4t48 -4q16 0 23.5 2t7.5 18t-17.5 19.5t-39 8.5t-39 20.5t-17.5 58.5v764q0 23 -2 32t-12 9 q-12 0 -41 -26.5t-86 -59.5q-27 -23 -50.5 -31t-23.5 -29q0 -14 10.5 -17t26.5 -3q35 0 45 -19.5t10 -56.5v-563q0 -41 -18 -57.5t-39.5 -21.5t-39 -8t-17.5 -20zM315 1204q0 -39 26 -63.5t63 -24.5t62.5 24.5t25.5 63.5q0 35 -27 61.5t-61 26.5q-35 0 -62 -26.5t-27 -61.5z " />
<glyph unicode="&#xf0;" horiz-adv-x="917" d="M53 451q0 -109 29 -199t80 -154.5t122.5 -100.5t159.5 -36q199 0 310.5 136t111.5 380q0 199 -91 385.5t-271 347.5l246 176l-23 48l-264 -183q-135 105 -264 189l-25 -37q117 -100 211 -205l-250 -178l25 -49l264 182q49 -53 96 -112.5t92 -131.5q-66 29 -141 29 q-96 0 -173 -35t-131 -98.5t-84 -153.5t-30 -200zM180 463q0 215 75 326.5t204 111.5q61 0 113.5 -32.5t89 -94t58 -150.5t21.5 -202q0 -201 -79.5 -311.5t-206.5 -110.5q-59 0 -109.5 31.5t-87.5 92t-57.5 145.5t-20.5 194z" />
<glyph unicode="&#xf1;" horiz-adv-x="921" d="M41 18q0 -14 7 -17t24 -3q29 0 61.5 4t71.5 4q53 0 86 -4t47 -4q16 0 23.5 3t7.5 17q0 16 -16.5 19.5t-37 8.5t-37 20.5t-16.5 58.5v375q0 178 49 267t160 89q106 0 147 -80t41 -239v-412q0 -41 -16 -56.5t-36.5 -21.5t-37 -9t-16.5 -20q0 -16 8 -18t27 -2q23 0 54.5 4 t74.5 4q53 0 86 -4t47 -4q16 0 23.5 3t7.5 17q0 16 -16.5 19.5t-37 8.5t-37 20.5t-16.5 58.5v502q0 143 -69.5 227t-184.5 84q-49 0 -91 -18.5t-83 -55.5q-39 -35 -56.5 -64.5t-25.5 -29.5t-8 23v96q0 23 -1 36t-11 13t-35 -32t-78 -68q-23 -16 -44 -23.5t-21 -26.5 q0 -12 12 -14t27.5 -4t28.5 -11t13 -40v-594q0 -41 -16 -56.5t-36.5 -21.5t-37 -9t-16.5 -20zM236 1106h32q10 49 27.5 69.5t52.5 20.5q4 0 16.5 -2t30.5 -10l95 -35q18 -6 32.5 -10t28.5 -4q109 0 139 182h-34q-14 -88 -74 -88q-14 0 -45 10l-92 35q-45 16 -74 16 q-49 0 -85 -46t-50 -138z" />
<glyph unicode="&#xf2;" horiz-adv-x="917" d="M53 451q0 -109 29 -199t80 -154.5t122.5 -100.5t159.5 -36q98 0 176 35t132.5 99.5t83 155.5t28.5 202q0 109 -27.5 198.5t-79.5 153t-129 98.5t-173 35q-86 0 -160 -35t-128 -98.5t-84 -153.5t-30 -200zM180 463q0 215 75 326.5t204 111.5q125 0 199.5 -123t74.5 -348 q0 -211 -73.5 -320.5t-204.5 -109.5q-59 0 -109.5 31.5t-87.5 92t-57.5 145.5t-20.5 194zM266 1354q0 -33 37 -70l217 -235h41l-194 307q-16 25 -28.5 38t-29.5 13q-16 0 -29.5 -15.5t-13.5 -37.5z" />
<glyph unicode="&#xf3;" horiz-adv-x="917" d="M53 451q0 -109 29 -199t80 -154.5t122.5 -100.5t159.5 -36q98 0 176 35t132.5 99.5t83 155.5t28.5 202q0 109 -27.5 198.5t-79.5 153t-129 98.5t-173 35q-86 0 -160 -35t-128 -98.5t-84 -153.5t-30 -200zM180 463q0 215 75 326.5t204 111.5q125 0 199.5 -123t74.5 -348 q0 -211 -73.5 -320.5t-204.5 -109.5q-59 0 -109.5 31.5t-87.5 92t-57.5 145.5t-20.5 194zM361 1049h41l217 235q37 37 37 70q0 23 -13.5 38t-29.5 15t-28.5 -13.5t-29.5 -37.5z" />
<glyph unicode="&#xf4;" horiz-adv-x="917" d="M53 451q0 -109 29 -199t80 -154.5t122.5 -100.5t159.5 -36q98 0 176 35t132.5 99.5t83 155.5t28.5 202q0 109 -27.5 198.5t-79.5 153t-129 98.5t-173 35q-86 0 -160 -35t-128 -98.5t-84 -153.5t-30 -200zM180 463q0 215 75 326.5t204 111.5q125 0 199.5 -123t74.5 -348 q0 -211 -73.5 -320.5t-204.5 -109.5q-59 0 -109.5 31.5t-87.5 92t-57.5 145.5t-20.5 194zM244 1049h39l178 233l178 -233h39l-178 350h-78z" />
<glyph unicode="&#xf5;" horiz-adv-x="917" d="M53 451q0 -109 29 -199t80 -154.5t122.5 -100.5t159.5 -36q98 0 176 35t132.5 99.5t83 155.5t28.5 202q0 109 -27.5 198.5t-79.5 153t-129 98.5t-173 35q-86 0 -160 -35t-128 -98.5t-84 -153.5t-30 -200zM180 463q0 215 75 326.5t204 111.5q125 0 199.5 -123t74.5 -348 q0 -211 -73.5 -320.5t-204.5 -109.5q-59 0 -109.5 31.5t-87.5 92t-57.5 145.5t-20.5 194zM234 1106h32q10 49 27.5 69.5t52.5 20.5q4 0 16.5 -2t30.5 -10l95 -35q18 -6 32.5 -10t28.5 -4q109 0 139 182h-34q-14 -88 -74 -88q-14 0 -45 10l-92 35q-45 16 -74 16 q-49 0 -85 -46t-50 -138z" />
<glyph unicode="&#xf6;" horiz-adv-x="917" d="M53 451q0 -109 29 -199t80 -154.5t122.5 -100.5t159.5 -36q98 0 176 35t132.5 99.5t83 155.5t28.5 202q0 109 -27.5 198.5t-79.5 153t-129 98.5t-173 35q-86 0 -160 -35t-128 -98.5t-84 -153.5t-30 -200zM178 1204q0 -39 26 -63.5t62 -24.5q37 0 63 24.5t26 63.5 q0 35 -27 61.5t-62 26.5t-61.5 -26.5t-26.5 -61.5zM180 463q0 215 75 326.5t204 111.5q125 0 199.5 -123t74.5 -348q0 -211 -73.5 -320.5t-204.5 -109.5q-59 0 -109.5 31.5t-87.5 92t-57.5 145.5t-20.5 194zM567 1204q0 -39 26 -63.5t63 -24.5t62.5 24.5t25.5 63.5 q0 35 -27 61.5t-61 26.5q-35 0 -62 -26.5t-27 -61.5z" />
<glyph unicode="&#xf7;" horiz-adv-x="1705" d="M254 561h1198v98h-1198v-98zM748 258q0 -45 30.5 -75.5t75.5 -30.5q47 0 77 31.5t30 74.5q0 45 -31 76t-76 31q-43 0 -74.5 -31t-31.5 -76zM748 963q0 -45 29.5 -76t76.5 -31t77 32t30 75q0 45 -31 76.5t-76 31.5q-43 0 -74.5 -31.5t-31.5 -76.5z" />
<glyph unicode="&#xf8;" horiz-adv-x="917" d="M53 444q0 -125 38 -224t122 -181l-121 -234h51l109 207q43 -29 91 -40t103 -11q197 0 307.5 135t110.5 371q0 123 -45 228.5t-125 172.5l117 222h-51l-105 -199q-41 27 -92 38t-112 11q-84 0 -157 -34t-126 -98.5t-84 -156.5t-31 -207zM180 467q0 211 75 322.5t204 111.5 q53 0 93 -20.5t69 -55.5l-363 -698q-45 70 -61.5 152.5t-16.5 187.5zM289 84l364 702q80 -131 80 -354q0 -213 -73.5 -322.5t-202.5 -109.5q-102 0 -168 84z" />
<glyph unicode="&#xf9;" horiz-adv-x="921" d="M41 881q0 -16 16.5 -18.5t37 -8.5t36.5 -22.5t16 -57.5v-442q0 -66 6.5 -125.5t34.5 -114.5q29 -61 85.5 -96t125.5 -35q51 0 93.5 19.5t82.5 56.5q41 35 57.5 64.5t24.5 29.5q6 0 7 -25v-96q0 -23 3 -36t15 -13q16 0 38.5 19.5t59.5 39.5q31 16 53.5 25.5t22.5 26.5 q0 14 -14 14q-12 0 -27.5 2t-28 16.5t-12.5 57.5v674q0 43 -4 54t-27 11q-10 0 -34.5 -2t-59.5 -2q-31 0 -49 2t-27 2q-10 0 -15 -3t-5 -17q0 -16 16.5 -18.5t37 -8.5t36.5 -22.5t16 -57.5v-373q0 -178 -49 -267t-159 -89q-106 0 -147.5 80t-41.5 240v471q0 45 -5 55t-28 10 q-16 0 -33.5 -2t-39.5 -2q-43 0 -66.5 2t-28.5 2q-10 0 -15 -3t-5 -17zM268 1354q0 -33 37 -70l217 -235h41l-194 307q-16 25 -28.5 38t-29.5 13q-16 0 -29.5 -15.5t-13.5 -37.5z" />
<glyph unicode="&#xfa;" horiz-adv-x="921" d="M41 881q0 -16 16.5 -18.5t37 -8.5t36.5 -22.5t16 -57.5v-442q0 -66 6.5 -125.5t34.5 -114.5q29 -61 85.5 -96t125.5 -35q51 0 93.5 19.5t82.5 56.5q41 35 57.5 64.5t24.5 29.5q6 0 7 -25v-96q0 -23 3 -36t15 -13q16 0 38.5 19.5t59.5 39.5q31 16 53.5 25.5t22.5 26.5 q0 14 -14 14q-12 0 -27.5 2t-28 16.5t-12.5 57.5v674q0 43 -4 54t-27 11q-10 0 -34.5 -2t-59.5 -2q-31 0 -49 2t-27 2q-10 0 -15 -3t-5 -17q0 -16 16.5 -18.5t37 -8.5t36.5 -22.5t16 -57.5v-373q0 -178 -49 -267t-159 -89q-106 0 -147.5 80t-41.5 240v471q0 45 -5 55t-28 10 q-16 0 -33.5 -2t-39.5 -2q-43 0 -66.5 2t-28.5 2q-10 0 -15 -3t-5 -17zM363 1049h41l217 235q37 37 37 70q0 23 -13.5 38t-29.5 15t-28.5 -13.5t-29.5 -37.5z" />
<glyph unicode="&#xfb;" horiz-adv-x="921" d="M41 881q0 -16 16.5 -18.5t37 -8.5t36.5 -22.5t16 -57.5v-442q0 -66 6.5 -125.5t34.5 -114.5q29 -61 85.5 -96t125.5 -35q51 0 93.5 19.5t82.5 56.5q41 35 57.5 64.5t24.5 29.5q6 0 7 -25v-96q0 -23 3 -36t15 -13q16 0 38.5 19.5t59.5 39.5q31 16 53.5 25.5t22.5 26.5 q0 14 -14 14q-12 0 -27.5 2t-28 16.5t-12.5 57.5v674q0 43 -4 54t-27 11q-10 0 -34.5 -2t-59.5 -2q-31 0 -49 2t-27 2q-10 0 -15 -3t-5 -17q0 -16 16.5 -18.5t37 -8.5t36.5 -22.5t16 -57.5v-373q0 -178 -49 -267t-159 -89q-106 0 -147.5 80t-41.5 240v471q0 45 -5 55t-28 10 q-16 0 -33.5 -2t-39.5 -2q-43 0 -66.5 2t-28.5 2q-10 0 -15 -3t-5 -17zM246 1049h39l178 233l178 -233h39l-178 350h-78z" />
<glyph unicode="&#xfc;" horiz-adv-x="921" d="M41 881q0 -16 16.5 -18.5t37 -8.5t36.5 -22.5t16 -57.5v-442q0 -66 6.5 -125.5t34.5 -114.5q29 -61 85.5 -96t125.5 -35q51 0 93.5 19.5t82.5 56.5q41 35 57.5 64.5t24.5 29.5q6 0 7 -25v-96q0 -23 3 -36t15 -13q16 0 38.5 19.5t59.5 39.5q31 16 53.5 25.5t22.5 26.5 q0 14 -14 14q-12 0 -27.5 2t-28 16.5t-12.5 57.5v674q0 43 -4 54t-27 11q-10 0 -34.5 -2t-59.5 -2q-31 0 -49 2t-27 2q-10 0 -15 -3t-5 -17q0 -16 16.5 -18.5t37 -8.5t36.5 -22.5t16 -57.5v-373q0 -178 -49 -267t-159 -89q-106 0 -147.5 80t-41.5 240v471q0 45 -5 55t-28 10 q-16 0 -33.5 -2t-39.5 -2q-43 0 -66.5 2t-28.5 2q-10 0 -15 -3t-5 -17zM180 1204q0 -39 26 -63.5t62 -24.5q37 0 63 24.5t26 63.5q0 35 -27 61.5t-62 26.5t-61.5 -26.5t-26.5 -61.5zM569 1204q0 -39 26 -63.5t63 -24.5t62.5 24.5t25.5 63.5q0 35 -27 61.5t-61 26.5 q-35 0 -62 -26.5t-27 -61.5z" />
<glyph unicode="&#xfd;" horiz-adv-x="737" d="M-14 883q0 -16 11 -19.5t27.5 -7.5t33 -16.5t28.5 -46.5l231 -732q14 -43 15 -59q0 -18 -11.5 -76.5t-41.5 -146.5q-14 -39 -22.5 -59.5t-25.5 -22.5q-29 -4 -51 -4q-20 0 -35.5 -6t-23.5 -20.5t-8 -47.5q0 -35 15 -52.5t52 -17.5q35 0 53.5 5.5t27.5 19.5t14.5 36.5 t15.5 57.5q4 16 40 153.5t130 403.5l172 488q20 59 38.5 90t41.5 41q35 16 49 16t14 23q0 20 -22 20q-6 0 -35 -4t-78 -4q-53 0 -84 4t-39 4q-16 0 -23.5 -3t-7.5 -17q0 -16 17.5 -20.5t37 -7.5t37 -12t17.5 -36q0 -33 -7 -59.5t-16 -51.5l-155 -481q-10 -29 -19 -29 q-6 0 -14 27l-145 494q-10 35 -16.5 60.5t-6.5 47.5q0 18 15.5 26.5t33 12.5t32.5 9t15 20q0 20 -26 20q-16 0 -55 -4t-105 -4q-51 0 -79 4t-38 4q-14 0 -19 -3t-5 -17zM271 1049h41l217 235q37 37 37 70q0 23 -13.5 38t-29.5 15t-28.5 -13.5t-29.5 -37.5z" />
<glyph unicode="&#xfe;" horiz-adv-x="933" d="M41 -432q0 -20 29 -21q20 0 58 4.5t95 4.5q53 0 88 -4.5t54 -4.5q31 0 30 21q0 18 -20.5 21t-46 7.5t-46 19.5t-20.5 58v353h10q53 -35 103.5 -50.5t109.5 -15.5q82 0 152 35t121 99.5t80.5 157.5t29.5 210q0 109 -25.5 197t-69.5 150t-104.5 96t-129.5 34 q-63 0 -110.5 -24.5t-81.5 -54.5t-54.5 -54.5t-26.5 -24.5q-10 0 -10 19v571q0 45 -12 45q-8 0 -39 -18.5t-84 -40.5q-29 -10 -51.5 -14.5t-22.5 -24.5q0 -18 14 -19q10 0 15.5 1.5t7.5 1.5q63 0 63 -93v-1536q0 -41 -16 -56t-36.5 -21.5t-37 -9.5t-16.5 -19zM262 174v457 q0 51 19.5 94t51.5 74.5t72.5 49t81.5 17.5q113 0 185.5 -109.5t72.5 -316.5q0 -211 -77.5 -324.5t-200.5 -113.5q-43 0 -80 13.5t-64.5 36t-44 54t-16.5 68.5z" />
<glyph unicode="&#xff;" horiz-adv-x="737" d="M-14 883q0 -16 11 -19.5t27.5 -7.5t33 -16.5t28.5 -46.5l231 -732q14 -43 15 -59q0 -18 -11.5 -76.5t-41.5 -146.5q-14 -39 -22.5 -59.5t-25.5 -22.5q-29 -4 -51 -4q-20 0 -35.5 -6t-23.5 -20.5t-8 -47.5q0 -35 15 -52.5t52 -17.5q35 0 53.5 5.5t27.5 19.5t14.5 36.5 t15.5 57.5q4 16 40 153.5t130 403.5l172 488q20 59 38.5 90t41.5 41q35 16 49 16t14 23q0 20 -22 20q-6 0 -35 -4t-78 -4q-53 0 -84 4t-39 4q-16 0 -23.5 -3t-7.5 -17q0 -16 17.5 -20.5t37 -7.5t37 -12t17.5 -36q0 -33 -7 -59.5t-16 -51.5l-155 -481q-10 -29 -19 -29 q-6 0 -14 27l-145 494q-10 35 -16.5 60.5t-6.5 47.5q0 18 15.5 26.5t33 12.5t32.5 9t15 20q0 20 -26 20q-16 0 -55 -4t-105 -4q-51 0 -79 4t-38 4q-14 0 -19 -3t-5 -17zM88 1204q0 -39 26 -63.5t62 -24.5q37 0 63 24.5t26 63.5q0 35 -27 61.5t-62 26.5t-61.5 -26.5 t-26.5 -61.5zM477 1204q0 -39 26 -63.5t63 -24.5t62.5 24.5t25.5 63.5q0 35 -27 61.5t-61 26.5q-35 0 -62 -26.5t-27 -61.5z" />
<glyph unicode="&#x152;" horiz-adv-x="1622" d="M61 645q0 -141 42 -265t116 -217t174.5 -147.5t218.5 -54.5q25 0 67 8t102.5 17.5t139 17.5t179.5 8q166 0 265 -10t130 -10q29 0 39 12t14 59l19 193q2 16 2 25v12q0 4 -6.5 10t-12.5 6q-12 0 -18 -12t-12.5 -32.5t-15.5 -47.5t-29 -53q-43 -59 -102.5 -85t-151.5 -26 q-98 0 -136 33t-38 107v440q0 20 4 28.5t22 8.5h111q57 0 96 -18.5t55 -51.5q18 -37 25.5 -66.5t10.5 -51t7 -33t17 -11.5q20 0 20 37q0 8 -2 54t-2 137q0 72 4 118.5t4 69.5q0 37 -20 37q-14 0 -19.5 -11.5t-8.5 -27.5t-10 -38.5t-26 -43.5q-37 -41 -151 -41h-99 q-29 0 -33.5 4t-4.5 23v336q0 39 7 66.5t27.5 43t54 22.5t89.5 7q72 0 123 -22.5t90 -75.5q18 -25 27.5 -50.5t16.5 -45t13 -32t18 -12.5q23 0 23 51v177q0 27 -2 41t-11.5 20t-25.5 7t-45 1q-12 0 -92 -3t-234 -3q-201 0 -327.5 21.5t-180.5 21.5q-117 0 -218 -53 t-175.5 -145.5t-119 -216.5t-44.5 -267zM219 645q0 145 28.5 261t84 198t134.5 125t179 43q80 0 132 -17.5t83 -51.5t44.5 -83t13.5 -112v-709q0 -61 -7.5 -112.5t-36 -88.5t-84 -57.5t-149.5 -20.5q-98 0 -176 43t-132 124t-84 197t-30 261z" />
<glyph unicode="&#x153;" horiz-adv-x="1366" d="M47 451q0 -111 25.5 -201t74 -154.5t115 -99.5t146.5 -35q221 0 333 209q100 -209 293 -209q66 0 119 24.5t91 58.5t58.5 70t20.5 58q0 16 -14 16q-6 0 -19.5 -20.5t-39 -45t-65.5 -45t-100 -20.5q-59 0 -109 30t-87 84t-58.5 132t-21.5 174q0 59 10 82t39 23h416 q35 0 46 10t11 39q0 66 -20.5 122t-57 97t-89 64.5t-115.5 23.5q-92 0 -165 -49.5t-134 -151.5q-121 201 -320 201q-86 0 -156.5 -35t-121 -98.5t-78 -153.5t-27.5 -200zM174 463q0 215 69.5 326.5t186.5 111.5q55 0 101.5 -30.5t80 -89t52 -141.5t18.5 -187 q0 -227 -65.5 -340t-190.5 -113q-55 0 -101 31.5t-80 91t-52.5 145.5t-18.5 195zM831 647q0 51 15.5 96t43.5 80t65.5 55.5t82.5 20.5q66 0 116 -54t50 -140q0 -53 -50 -67.5t-163 -14.5h-137q-23 0 -23 24z" />
<glyph unicode="&#x178;" horiz-adv-x="923" d="M-55 1257q0 -10 7 -14t16 -6t22 -2q10 0 20 -4q41 -16 82 -96l305 -574v-368q0 -35 -2 -59.5t-13 -41t-34.5 -24t-66.5 -7.5q-27 0 -27 -28q0 -33 43 -33q23 0 64.5 5t105.5 5q63 0 105 -5t65 -5q45 0 45 29q0 18 -8 24t-20.5 7t-29 2t-34.5 8q-20 6 -30.5 14t-15.5 20.5 t-6 31t-1 44.5v402l301 551q16 31 32.5 54t51.5 34q29 8 49 10t20 31q0 27 -26 26q-10 0 -40 -5t-77 -5q-59 0 -94 6t-52 6q-33 0 -32 -24q0 -23 17.5 -28t39 -8t38.5 -11.5t17 -34.5q0 -8 -13 -46t-44 -96l-201 -364q-8 -14 -14 -14q-10 0 -16 12l-222 411q-16 33 -24 60 t-8 37q0 20 14 28.5t32.5 12.5t33 10t14.5 25q0 27 -25 26q-6 0 -32.5 -3t-75.5 -3q-98 0 -150.5 5t-66.5 5q-39 0 -39 -33zM182 1593q0 -39 26 -63.5t62 -24.5q37 0 63 24.5t26 63.5q0 35 -27 61.5t-62 26.5t-61.5 -26.5t-26.5 -61.5zM571 1593q0 -39 26 -63.5t63 -24.5 t62.5 24.5t25.5 63.5q0 35 -27 61.5t-61 26.5q-35 0 -62 -26.5t-27 -61.5z" />
<glyph unicode="&#x2c6;" horiz-adv-x="1024" d="M295 1049h39l178 233l178 -233h39l-178 350h-78z" />
<glyph unicode="&#x2dc;" horiz-adv-x="1024" d="M285 1106h32q10 49 27.5 69.5t52.5 20.5q4 0 16.5 -2t30.5 -10l95 -35q18 -6 32.5 -10t28.5 -4q109 0 139 182h-34q-14 -88 -74 -88q-14 0 -45 10l-92 35q-45 16 -74 16q-49 0 -85 -46t-50 -138z" />
<glyph unicode="&#x2000;" horiz-adv-x="930" />
<glyph unicode="&#x2001;" horiz-adv-x="1860" />
<glyph unicode="&#x2002;" horiz-adv-x="930" />
<glyph unicode="&#x2003;" horiz-adv-x="1860" />
<glyph unicode="&#x2004;" horiz-adv-x="620" />
<glyph unicode="&#x2005;" horiz-adv-x="465" />
<glyph unicode="&#x2006;" horiz-adv-x="310" />
<glyph unicode="&#x2007;" horiz-adv-x="310" />
<glyph unicode="&#x2008;" horiz-adv-x="232" />
<glyph unicode="&#x2009;" horiz-adv-x="372" />
<glyph unicode="&#x200a;" horiz-adv-x="103" />
<glyph unicode="&#x2010;" horiz-adv-x="448" d="M41 397q0 -10 12 -10h303q6 0 14.5 7t12.5 20l20 75l5 15q0 10 -15 10h-303q-6 0 -13 -7t-11 -20l-23 -75q-2 -6 -2 -15z" />
<glyph unicode="&#x2011;" horiz-adv-x="448" d="M41 397q0 -10 12 -10h303q6 0 14.5 7t12.5 20l20 75l5 15q0 10 -15 10h-303q-6 0 -13 -7t-11 -20l-23 -75q-2 -6 -2 -15z" />
<glyph unicode="&#x2012;" horiz-adv-x="448" d="M41 397q0 -10 12 -10h303q6 0 14.5 7t12.5 20l20 75l5 15q0 10 -15 10h-303q-6 0 -13 -7t-11 -20l-23 -75q-2 -6 -2 -15z" />
<glyph unicode="&#x2013;" horiz-adv-x="1024" d="M-12 414q0 -10 16 -11h981q23 0 33 25l14 45l4 12q0 13 -16 13h-981q-23 0 -33 -27l-16 -43q-2 -6 -2 -14z" />
<glyph unicode="&#x2014;" horiz-adv-x="1327" d="M-35 414q1 -11 17 -11h1329q23 0 32 25l17 45q2 6 2 12q0 12 -16 13h-1330q-10 0 -19 -8.5t-13 -18.5l-17 -43q-2 -6 -2 -14z" />
<glyph unicode="&#x2018;" horiz-adv-x="411" d="M123 1036q0 -78 27.5 -123t68.5 -45q35 0 55.5 22.5t20.5 61.5q0 29 -13.5 49.5t-35.5 26.5q-16 6 -29.5 7t-22 5t-12.5 12.5t-4 28.5q0 43 15.5 80t35 66.5t35 51t15.5 34.5q-1 14 -15 14q-12 0 -35.5 -25.5t-47 -66.5t-41 -93t-17.5 -106z" />
<glyph unicode="&#x2019;" horiz-adv-x="411" d="M123 1245q0 -63 63 -80q29 -6 41.5 -11t12.5 -40q0 -41 -15.5 -78t-35 -66.5t-35 -51t-15.5 -33.5q0 -16 17 -17q10 0 32.5 25t46 66.5t42 95t18.5 108.5q0 76 -27.5 121t-68.5 45q-35 0 -55.5 -22.5t-20.5 -61.5z" />
<glyph unicode="&#x201a;" horiz-adv-x="411" d="M123 98q0 -66 63 -82q29 -6 41.5 -10t12.5 -39q0 -41 -15.5 -77.5t-35 -67.5t-35 -52.5t-15.5 -33.5q0 -14 15 -15q12 0 35.5 26t47 68t41 94t17.5 107q0 76 -27.5 120t-68.5 44q-35 0 -55.5 -21.5t-20.5 -60.5z" />
<glyph unicode="&#x201c;" horiz-adv-x="628" d="M72 1022q0 -68 27.5 -111t68.5 -43q35 0 54.5 21.5t19.5 60.5q0 66 -62 82q-29 6 -41 10.5t-12 38.5q0 41 15.5 78t35 67.5t34.5 52t15 34.5q0 14 -16 14q-8 0 -30.5 -24.5t-47 -65.5t-43 -97.5t-18.5 -117.5zM379 1022q0 -68 27.5 -111t68.5 -43q35 0 54.5 21.5 t19.5 60.5q0 66 -62 82q-29 6 -41 10.5t-12 38.5q0 41 15.5 78t35 67.5t35 52t15.5 34.5q-1 14 -17 14q-8 0 -30.5 -24.5t-47 -65.5t-43 -97.5t-18.5 -117.5z" />
<glyph unicode="&#x201d;" horiz-adv-x="628" d="M82 1245q0 -66 61 -80q29 -6 42.5 -11t13.5 -40q0 -41 -15.5 -78t-35 -66.5t-35 -51t-15.5 -33.5q0 -16 15 -17q10 0 32.5 25t46 66.5t42 95t18.5 108.5q0 76 -27.5 121t-68.5 45q-35 0 -54.5 -22.5t-19.5 -61.5zM389 1245q0 -66 62 -80q29 -6 42 -11t13 -40 q0 -41 -15.5 -78t-35 -66.5t-34.5 -51t-15 -33.5q0 -16 14 -17q10 0 32.5 25t46 66.5t42 95t18.5 108.5q0 76 -27.5 121t-68.5 45q-35 0 -54.5 -22.5t-19.5 -61.5z" />
<glyph unicode="&#x201e;" horiz-adv-x="628" d="M66 98q0 -29 13 -49t36 -29q14 -6 27.5 -7t21.5 -4t13 -12t5 -30q0 -43 -16 -80t-34.5 -66.5t-35 -51t-16.5 -33.5q0 -6 6 -10.5t10 -4.5q12 0 36 26t47.5 68t41 93t17.5 104q0 78 -28 123t-69 45q-35 0 -55 -21.5t-20 -60.5zM373 98q0 -29 13 -49t36 -29q14 -6 27.5 -7 t21.5 -4t13 -12t5 -30q0 -43 -16 -80t-34.5 -66.5t-35 -51t-16.5 -33.5q0 -6 6 -10.5t10 -4.5q12 0 36 26t47.5 67t41 93t17.5 105q0 78 -28 123t-68 45q-35 0 -55.5 -21.5t-20.5 -60.5z" />
<glyph unicode="&#x2022;" horiz-adv-x="1208" d="M307 762q0 -61 22.5 -115.5t62.5 -94.5t94.5 -63.5t115.5 -23.5t115.5 23.5t94.5 64.5t63.5 94t23.5 115q0 61 -23.5 114.5t-63.5 93.5t-93 63.5t-115 23.5q-61 0 -115.5 -23.5t-94.5 -63.5t-63.5 -93.5t-23.5 -114.5z" />
<glyph unicode="&#x2026;" horiz-adv-x="2048" d="M268 82q0 -51 20.5 -78t51.5 -27t51.5 27t20.5 78q0 47 -19.5 75.5t-52.5 28.5q-31 0 -51.5 -28.5t-20.5 -75.5zM950 82q0 -51 20.5 -78t51.5 -27t51.5 27t20.5 78q0 47 -19.5 75.5t-52.5 28.5q-31 0 -51.5 -28.5t-20.5 -75.5zM1634 82q0 -51 20.5 -78t51.5 -27t51.5 27 t20.5 78q0 47 -19.5 75.5t-52.5 28.5q-31 0 -51.5 -28.5t-20.5 -75.5z" />
<glyph unicode="&#x202f;" horiz-adv-x="372" />
<glyph unicode="&#x2039;" horiz-adv-x="376" d="M53 451q0 -16 49.5 -59.5t133.5 -145.5q39 -47 56 -76t38 -29q12 0 12 21q0 25 -45 98l-115 191l115 190q45 74 45 96q0 23 -12 23q-23 0 -39.5 -29t-54.5 -76q-84 -102 -133.5 -145t-49.5 -59z" />
<glyph unicode="&#x203a;" horiz-adv-x="376" d="M35 162q0 -20 12 -21q23 0 39 29t55 76q84 102 134.5 145t50.5 60q0 14 -49.5 58t-135.5 146q-39 47 -55 76t-39 29q-12 0 -12 -23q0 -14 12 -37.5t35 -58.5l113 -190l-113 -191q-23 -35 -35 -59.5t-12 -38.5z" />
<glyph unicode="&#x205f;" horiz-adv-x="465" />
<glyph unicode="&#x2122;" horiz-adv-x="1683" d="M250 1260h24q12 152 138 151h22v-426q0 -25 -12 -40t-33 -15l-33 -2v-25h246v25l-33 2q-23 0 -35 15.5t-12 39.5v426h23q125 0 139 -151h25l-11 174h-438zM795 903h198v25l-32 2q-23 0 -35.5 15.5t-12.5 39.5v399l174 -485h13l182 485v-399q0 -25 -12.5 -40t-34.5 -15 l-33 -2v-25h234v25l-31 2q-23 0 -35 15.5t-12 39.5v369q0 25 12 40t35 15l31 2v23h-168l-154 -406l-143 406h-176v-23l30 -2q23 0 36 -15.5t13 -39.5v-371q0 -25 -12 -40t-35 -15h-32v-25z" />
<glyph unicode="&#xe000;" horiz-adv-x="901" d="M0 0v901h901v-901h-901z" />
<glyph unicode="&#xfb01;" horiz-adv-x="915" d="M29 18q0 -14 8 -17t26 -3q27 0 62 4t80 4q51 0 84 -4t49 -4t23.5 3t7.5 17q0 18 -16.5 20.5t-37 7.5t-37 20.5t-16.5 58.5v672q0 20 4 27t23 7h299q33 0 45 -16t12 -53v-637q0 -41 -18.5 -56.5t-40 -21.5t-39 -9t-17.5 -20q0 -14 9.5 -17t25.5 -3q27 0 62 4t80 4 q57 0 92 -4t49 -4q16 0 25.5 2t9.5 18q0 18 -18.5 21.5t-40 7.5t-39 19.5t-17.5 58.5v764q0 47 -16 47q-4 0 -11.5 -5t-21.5 -12.5t-37 -12.5t-59 -5h-334q-18 0 -22.5 7t-4.5 28v96q0 172 58.5 258t156.5 86q51 0 83 -25.5t54.5 -55t40 -55.5t35.5 -26q23 0 40.5 34 t17.5 77q0 47 -63.5 73.5t-180.5 26.5q-174 0 -255 -94t-93 -287l-6 -100q-2 -18 -8.5 -25.5t-18.5 -15.5l-43 -26q-10 -6 -15.5 -10.5t-5.5 -14.5q0 -20 23 -21h39q18 0 22 -7t4 -27v-672q0 -41 -18 -56.5t-40.5 -21.5t-41 -9t-18.5 -20z" />
<glyph unicode="&#xfb02;" horiz-adv-x="915" d="M29 18q0 -14 8 -17t26 -3q25 0 61 4t81 4q53 0 87 -4t48 -4q16 0 24.5 2t8.5 18q0 18 -17.5 20.5t-38 7.5t-38 20.5t-17.5 58.5v672q0 20 4 27t23 7h233q16 0 21.5 8.5t5.5 26.5v8q0 16 -4 21.5t-23 5.5h-233q-18 0 -22.5 7t-4.5 28v96q0 176 60.5 262t154.5 86 q78 0 127 -60t49 -163v-1032q0 -41 -18.5 -57.5t-41 -21.5t-40.5 -8t-18 -20q0 -14 8 -17t26 -3q27 0 62 4t80 4q53 0 85.5 -4t47.5 -4q16 0 23 3t7 17q0 16 -16 19.5t-36.5 9.5t-37 21.5t-16.5 56.5v1274q0 23 -10 22q-6 0 -26.5 -11t-61.5 -21q-72 35 -150 34 q-174 0 -260 -93t-102 -286l-8 -100q-2 -18 -8.5 -25.5t-18.5 -15.5l-43 -26q-10 -6 -15.5 -10.5t-5.5 -14.5q0 -20 23 -21h39q18 0 22 -7t4 -27v-672q0 -41 -18 -56.5t-40.5 -21.5t-41 -9t-18.5 -20z" />
</font>
</defs>
</svg>
