<?xml version="1.0" standalone="no"?>
<!DOCTYPE svg PUBLIC "-//W3C//DTD SVG 1.1//EN" "http://www.w3.org/Graphics/SVG/1.1/DTD/svg11.dtd" >
<svg>
<metadata>
Created by FontForge 20090914 at Sat Aug 24 10:51:11 2013
 By www-data
Copr. Martin Majoor, 1995. Published by FontShop International. FontFont release 1
</metadata>
<defs>
<font id="Scala" horiz-adv-x="550" >
  <font-face 
    font-family="Scala"
    font-weight="550"
    font-stretch="normal"
    units-per-em="1000"
    panose-1="2 0 6 4 6 0 0 2 0 3"
    ascent="800"
    descent="-200"
    x-height="453"
    cap-height="660"
    bbox="-63.999 -256.003 1200 870"
    underline-thickness="20"
    underline-position="-150"
    unicode-range="U+0020-U+FB02"
  />
<missing-glyph horiz-adv-x="500" 
 />
    <glyph glyph-name="fi" unicode="fi" horiz-adv-x="583" 
d="M561 0l-226 -0.000976562v37h75v360h-226v-360h76v-37h-227v37h76v360h-87v27l87 22v81c0 68 19.167 120.333 57.5 157s92.833 55 163.5 55c10.667 0 21 -0.333008 31 -1s20.167 -2 30.5 -4s21.166 -4.83301 32.499 -8.5s24.333 -8.16699 39 -13.5l32 -12l-57 -82
l-28 25.5c-8 7 -15.833 13.5 -23.5 19.5s-16.167 11.833 -25.5 17.5l-33 20.5c-27.333 -1.33301 -48.166 -4.5 -62.499 -9.5s-27.833 -14.167 -40.5 -27.5c-8.66699 -9.33301 -15.667 -18.166 -21 -26.499s-9.5 -18 -12.5 -29s-5 -24.333 -6 -40s-1.5 -35.5 -1.5 -59.5v-66
h206l77 20h19v-426h75v-37z" />
    <glyph glyph-name="fl" unicode="fl" horiz-adv-x="582" 
d="M410 443v203.001c-9.33301 8 -17.333 14.5 -24 19.5s-13.5 9.5 -20.5 13.5s-14.333 7.66699 -22 11s-17.167 7 -28.5 11c-24.667 -2.66699 -45.334 -7.83398 -62.001 -15.501s-30.167 -19 -40.5 -34s-17.666 -34 -21.999 -57s-6.5 -50.833 -6.5 -83.5v-68h226z
M562 0.000976562l-226.997 0.000976562v37h75v360h-226v-360h76v-37h-227v37h76v360h-87v27l87 25v79c0 31.333 5 60 15 86s24 48.167 42 66.5s39.667 32.666 65 42.999s53.666 15.5 84.999 15.5c15.333 0 29.666 -1.33301 42.999 -4s30.666 -7.66699 51.999 -15l56 17h19
v-700h76v-37z" />
    <glyph glyph-name=".notdef" horiz-adv-x="500" 
 />
    <glyph glyph-name="space" unicode=" " horiz-adv-x="250" 
 />
    <glyph glyph-name="exclam" unicode="!" horiz-adv-x="265" 
d="M189 46c0 -15.333 -5.66699 -28.666 -17 -39.999s-24.666 -17 -39.999 -17s-28.666 5.66699 -39.999 17s-17 24.666 -17 39.999s5.66699 28.666 17 39.999s24.666 17 39.999 17s28.666 -5.66699 39.999 -17s17 -24.666 17 -39.999zM152 192h-40l-38 545h116z" />
    <glyph glyph-name="quotedbl" unicode="&#x22;" horiz-adv-x="409" 
d="M256 658h58v-226h-58v226zM95 658h59v-226h-59v226z" />
    <glyph glyph-name="numbersign" unicode="#" 
d="M361 401h-143l-26 -130h143zM511 271l-10 -57h-115l-41 -214h-62l41 214h-143l-43 -214h-61l43 214h-115l10 57h116l27 130h-117l10 57h117l40 200h60l-39 -200h143l39 200h62l-40 -200h112l-10 -57h-112l-25 -130h113z" />
    <glyph glyph-name="dollar" unicode="$" horiz-adv-x="543" 
d="M166 525c0 -11.333 1.33301 -21.5 4 -30.5s7.16699 -17.667 13.5 -26s15.333 -17 27 -26s26.5 -19.167 44.5 -30.5v213c-28.667 -5.33301 -50.667 -16.5 -66 -33.5s-23 -39.167 -23 -66.5zM301 41c36 14.667 61.334 29.999 76.001 45.999s22 36.667 22 62
c0 12 -1.66699 23.167 -5 33.5s-8.83301 20.333 -16.5 30s-17.834 19.334 -30.501 29.001s-28 20.167 -46 31.5v-232zM255.001 -13.001c-22 1.33301 -41.0049 3 -57.0049 5s-30.667 4.83301 -44 8.5s-26.166 8.5 -38.499 14.5s-25.5 13.333 -39.5 22l57 66
c8 -9.33301 15 -17 21 -23s11.833 -11.5 17.5 -16.5s12 -10 19 -15s15.833 -10.833 26.5 -17.5l38 3v264l-18 10c-30.667 16.667 -56.167 32.334 -76.5 47.001s-36.666 29.334 -48.999 44.001s-21 30 -26 46s-7.5 33.667 -7.5 53c0 24 4.33301 46.167 13 66.5
s20.834 38.166 36.501 53.499s34.334 28 56.001 38s45.5 16 71.5 18v58h46v-57c15.333 -0.666992 29.333 -1.83398 42 -3.50098s25.167 -4.33398 37.5 -8.00098s25 -8.5 38 -14.5s28.167 -13.667 45.5 -23l-60 -64l-21 22c-6 6 -11.833 11.5 -17.5 16.5
s-11.834 9.83301 -18.501 14.5l-25 17l-21 -2v-246c36.667 -20.667 66.834 -39.334 90.501 -56.001s42.5 -32.667 56.5 -48s23.833 -31.166 29.5 -47.499s8.5 -34.5 8.5 -54.5c0 -38 -9.5 -72.333 -28.5 -103s-44.833 -53.334 -77.5 -68.001
c-12.667 -5.33301 -24.167 -9.16602 -34.5 -11.499s-25.166 -4.16602 -44.499 -5.49902v-58h-46v55z" />
    <glyph glyph-name="percent" unicode="%" horiz-adv-x="850" 
d="M526 162c0 -16 3 -30.833 9 -44.5s14.167 -25.667 24.5 -36s22.5 -18.5 36.5 -24.5s29 -9 45 -9s30.833 3 44.5 9s25.667 14.167 36 24.5s18.5 22.333 24.5 36s9 28.5 9 44.5s-3 31 -9 45s-14.167 26.167 -24.5 36.5s-22.333 18.5 -36 24.5s-28.5 9 -44.5 9
s-31 -3 -45 -9s-26.167 -14.167 -36.5 -24.5s-18.5 -22.5 -24.5 -36.5s-9 -29 -9 -45zM95 495c0 -16 3 -31 9 -45s14.167 -26.167 24.5 -36.5s22.333 -18.5 36 -24.5s28.5 -9 44.5 -9s31 3 45 9s26.167 14.167 36.5 24.5s18.5 22.5 24.5 36.5s9 29 9 45s-3 30.833 -9 44.5
s-14.167 25.834 -24.5 36.501s-22.5 19 -36.5 25s-29 9 -45 9s-30.833 -3 -44.5 -9s-25.667 -14.333 -36 -25s-18.5 -22.834 -24.5 -36.501s-9 -28.5 -9 -44.5zM816 162c0 -24 -4.66699 -46.667 -14 -68s-21.833 -39.833 -37.5 -55.5s-34.167 -28.167 -55.5 -37.5
s-44 -14 -68 -14s-46.667 4.66699 -68 14s-40 21.833 -56 37.5s-28.5 34.167 -37.5 55.5s-13.5 44 -13.5 68s4.5 46.667 13.5 68s21.5 40 37.5 56s34.667 28.5 56 37.5s44 13.5 68 13.5s46.667 -4.5 68 -13.5s39.833 -21.5 55.5 -37.5s28.167 -34.667 37.5 -56
s14 -44 14 -68zM384 495c0 -24 -4.5 -46.667 -13.5 -68s-21.5 -40 -37.5 -56s-34.667 -28.5 -56 -37.5s-44 -13.5 -68 -13.5s-46.667 4.5 -68 13.5s-39.833 21.5 -55.5 37.5s-28.167 34.667 -37.5 56s-14 44 -14 68s4.66699 46.667 14 68s21.833 40 37.5 56
s34.167 28.667 55.5 38s44 14 68 14s46.667 -4.66699 68 -14s40 -22 56 -38s28.5 -34.667 37.5 -56s13.5 -44 13.5 -68zM115 -46l559 733h69l-575 -733h-53z" />
    <glyph glyph-name="ampersand" unicode="&#x26;" horiz-adv-x="703" 
d="M244 35c22.667 0 46.834 6.83203 72.501 20.499s50.167 32.834 73.5 57.501l-177 248c-34.667 -30 -59 -57.833 -73 -83.5s-21 -54.167 -21 -85.5c0 -20.667 3.5 -40.5 10.5 -59.5s16.167 -35.667 27.5 -50s24.666 -25.833 39.999 -34.5s31 -13 47 -13zM703 99.999
c-16 -24 -29.6729 -43.335 -41.0059 -58.002s-22.166 -26 -32.499 -34s-20.833 -13.5 -31.5 -16.5s-23.334 -4.5 -38.001 -4.5s-28.167 1.5 -40.5 4.5s-24.166 8 -35.499 15s-22.666 16.167 -33.999 27.5s-23 25 -35 41c-32 -31.333 -62.667 -53.833 -92 -67.5
s-61.666 -20.5 -96.999 -20.5c-28 0 -53.667 4.66699 -77 14s-43.666 22.166 -60.999 38.499s-30.833 35.833 -40.5 58.5s-14.5 47 -14.5 73s5.33301 51.5 16 76.5s25.667 47.833 45 68.5l17 17c5.33301 5.33301 11.333 11 18 17s14.667 12.667 24 20l35 28
c-14.667 18.667 -27 35.334 -37 50.001s-18 28.667 -24 42s-10.333 26.333 -13 39s-4 26.334 -4 41.001c0 24.667 4.66699 47.334 14 68.001s22.5 38.5 39.5 53.5s37.333 26.667 61 35s49.5 12.5 77.5 12.5c23.333 0 45 -3.33301 65 -10s37.167 -16 51.5 -28
s25.5 -26.167 33.5 -42.5s12 -34.5 12 -54.5c0 -22 -5.5 -43.333 -16.5 -64s-27.167 -39 -48.5 -55l-69 -53l-25 33c16 12.667 29.333 24.167 40 34.5s19.167 20.5 25.5 30.5s10.666 20.5 12.999 31.5s3.5 23.167 3.5 36.5c0 68.667 -31 103 -93 103
c-31.333 0 -56.833 -10 -76.5 -30s-29.5 -46 -29.5 -78c0 -20.667 4.83301 -43.167 14.5 -67.5s22.834 -48.166 39.501 -71.499l200 -277l22 38c6 10.667 11.5 21.167 16.5 31.5s10 21.333 15 33l18.5 43.5h-82v37h226v-37h-97c-7.33301 -20 -14 -37.167 -20 -51.5
s-12.167 -28 -18.5 -41s-13.5 -26.5 -21.5 -40.5l-30 -51c22.667 -31.333 42 -52.833 58 -64.5s33.333 -17.5 52 -17.5c16.667 0 31.334 4.66699 44.001 14s28.334 26.666 47.001 51.999z" />
    <glyph glyph-name="quotesingle" unicode="'" horiz-adv-x="250" 
d="M96 658h58v-226h-58v226z" />
    <glyph glyph-name="parenleft" unicode="(" horiz-adv-x="309" 
d="M231 -256c-9.33301 12 -17 22.6611 -23 31.9941s-11.833 19 -17.5 29s-11.167 20.833 -16.5 32.5l-19 42.5c-24 56.667 -41.5 110.334 -52.5 161.001s-16.5 104.334 -16.5 161.001s5.5 110.334 16.5 161.001s28.5 104.334 52.5 161.001l19 43
c5.33301 12 10.833 22.833 16.5 32.5l17.5 28.5c6 9.33301 13.667 20 23 32h43c-15.333 -29.333 -29.166 -62.5 -41.499 -99.5s-23 -75.667 -32 -116s-16 -81.166 -21 -122.499s-7.5 -81.333 -7.5 -120s2.5 -78.667 7.5 -120s12 -82.166 21 -122.499s19.667 -79 32 -116
s26.166 -70.167 41.499 -99.5h-43z" />
    <glyph glyph-name="parenright" unicode=")" horiz-adv-x="309" 
d="M153 -120l-19 -42.4941c-5.33301 -11.667 -10.666 -22.5 -15.999 -32.5s-11.166 -19.667 -17.499 -29l-22.5 -32h-43c14.667 29.333 28.334 62.5 41.001 99.5s23.5 75.667 32.5 116s16 81.166 21 122.499s7.5 81.333 7.5 120s-2.5 78.667 -7.5 120
s-12 82.166 -21 122.499s-19.833 79 -32.5 116s-26.334 70.167 -41.001 99.5h43l22.5 -32c6.33301 -9.33301 12.166 -18.833 17.499 -28.5s10.666 -20.5 15.999 -32.5l19 -43c24 -56.667 41.5 -110.334 52.5 -161.001s16.5 -104.334 16.5 -161.001
s-5.5 -110.334 -16.5 -161.001s-28.5 -104.334 -52.5 -161.001z" />
    <glyph glyph-name="asterisk" unicode="*" horiz-adv-x="500" 
d="M26 495l23 71l165 -72l-12 -38zM149 257l-60 44l119 135l32 -24zM412 302l-60 -44l-92 155l32 24zM451 566l23 -71l-176 -39l-12 38zM214 685h74l-17 -179h-40z" />
    <glyph glyph-name="plus" unicode="+" 
d="M38 208v57h209v209h56v-209h209v-57h-209v-208h-56v208h-209z" />
    <glyph glyph-name="comma" unicode="," horiz-adv-x="250" 
d="M190 49c0 -28 -9.5 -57.666 -28.5 -88.999s-46.167 -62 -81.5 -92l-24 31c24 19.333 40.667 35.5 50 48.5s14 27.167 14 42.5s-3.83301 27.166 -11.5 35.499s-21.167 15.5 -40.5 21.5c8 22 16.667 37 26 45s22.333 12 39 12c16 0 29.5 -5.33301 40.5 -16
s16.5 -23.667 16.5 -39z" />
    <glyph glyph-name="hyphen" unicode="-" horiz-adv-x="275" 
d="M233 190h-191v76h191v-76z" />
    <glyph glyph-name="hyphen" unicode="&#xad;" horiz-adv-x="275" 
d="M233 190h-191v76h191v-76z" />
    <glyph glyph-name="period" unicode="." horiz-adv-x="250" 
d="M184 48c0 -16.667 -5.83301 -30.667 -17.5 -42s-25.5 -17 -41.5 -17s-29.833 5.66699 -41.5 17s-17.5 25.333 -17.5 42c0 16 5.83301 29.667 17.5 41s25.5 17 41.5 17s29.833 -5.66699 41.5 -17s17.5 -25 17.5 -41z" />
    <glyph glyph-name="slash" unicode="/" horiz-adv-x="409" 
d="M50 -243l251 903h59l-252 -903h-58z" />
    <glyph glyph-name="zero" unicode="0" horiz-adv-x="603" 
d="M125 230c0 -24 4.66699 -46.667 14 -68s22 -40 38 -56s34.667 -28.667 56 -38s44.333 -14 69 -14c24 0 46.833 4.66699 68.5 14s40.5 22 56.5 38s28.667 34.667 38 56s14 44 14 68c0 24.667 -4.66699 47.667 -14 69s-22 40 -38 56s-34.833 28.667 -56.5 38
s-44.5 14 -68.5 14c-24.667 0 -47.667 -4.66699 -69 -14s-40 -22 -56 -38s-28.667 -34.667 -38 -56s-14 -44.333 -14 -69zM545 230c0 -33.333 -6.33301 -64.833 -19 -94.5s-30 -55.5 -52 -77.5s-47.833 -39.333 -77.5 -52s-61.167 -19 -94.5 -19
c-34 0 -65.667 6.33301 -95 19s-55 30 -77 52s-39.333 47.833 -52 77.5s-19 61.167 -19 94.5c0 34 6.33301 65.833 19 95.5s30 55.5 52 77.5s47.667 39.333 77 52s61 19 95 19c33.333 0 64.833 -6.33301 94.5 -19s55.5 -30 77.5 -52s39.333 -47.833 52 -77.5
s19 -61.5 19 -95.5z" />
    <glyph glyph-name="one" unicode="1" horiz-adv-x="387" 
d="M329 0h-270v37h97v387h-97v37h270v-37h-98v-387h98v-37z" />
    <glyph glyph-name="two" unicode="2" horiz-adv-x="528" 
d="M465 0l-418.998 0.000976562v35l165 128c24 18 43.833 34.333 59.5 49s28.167 28.5 37.5 41.5s15.833 25.833 19.5 38.5s5.5 26.667 5.5 42c0 27.333 -8.33301 48.833 -25 64.5s-39 23.5 -67 23.5c-26 0 -49.667 -5.83301 -71 -17.5s-45 -32.167 -71 -61.5l-31 30
c18 19.333 34.667 35.5 50 48.5s30.166 23.333 44.499 31s29 13.167 44 16.5s31.5 5 49.5 5c23.333 0 44.666 -3.33301 63.999 -10s36 -15.834 50 -27.501s25 -25.5 33 -41.5s12 -33.667 12 -53c0 -28 -8.5 -55.667 -25.5 -83s-42.167 -53 -75.5 -77l-157 -115h263v96l45 1
v-164z" />
    <glyph glyph-name="three" unicode="3" horiz-adv-x="431" 
d="M139 -239c-7.33301 -2.66699 -14.5029 -4.83301 -21.5029 -6.5s-14.5 -3.16699 -22.5 -4.5s-17 -2.5 -27 -3.5s-21.667 -1.83301 -35 -2.5v43c42 4 76.5 11.167 103.5 21.5s52.167 25.166 75.5 44.499s41.333 41.666 54 66.999s19 51 19 77c0 20 -3.5 38.333 -10.5 55
s-16.5 31.334 -28.5 44.001s-26.167 22.5 -42.5 29.5s-34.166 10.5 -53.499 10.5h-44v33c24.667 14.667 45.667 28.667 63 42s31.333 27 42 41s18.5 28.333 23.5 43s7.5 30.667 7.5 48c0 23.333 -6.5 42.5 -19.5 57.5s-29.833 22.5 -50.5 22.5c-16 0 -30.667 -4.5 -44 -13.5
s-31 -25.833 -53 -50.5l-32 30c25.333 30 50.333 51.667 75 65s52.334 20 83.001 20c18 0 34.833 -3.16699 50.5 -9.5s29.167 -15.166 40.5 -26.499s20.333 -24.5 27 -39.5s10 -31.5 10 -49.5c0 -15.333 -2 -29.5 -6 -42.5s-10.5 -25.5 -19.5 -37.5s-20.667 -24 -35 -36
s-31.833 -24.333 -52.5 -37c45.333 -3.33301 81.333 -20.5 108 -51.5s40 -71.5 40 -121.5c0 -40 -8.66699 -76 -26 -108s-44.666 -62.333 -81.999 -91c-39.333 -30 -78.333 -51 -117 -63z" />
    <glyph glyph-name="four" unicode="4" horiz-adv-x="549" 
d="M318 58v274l-215 -274h215zM499 0h-106v-243h-75v243h-310v18l360 456h25v-416h70v47h36v-105z" />
    <glyph glyph-name="five" unicode="5" horiz-adv-x="432" 
d="M244 -190c-14.667 -11.333 -28.498 -20.667 -41.498 -28s-26.833 -13.5 -41.5 -18.5s-30.834 -9 -48.501 -12s-38.5 -5.5 -62.5 -7.5v43c17.333 2 32.5 4.16699 45.5 6.5s24.667 5.33301 35 9s20.166 8 29.499 13s19 11.167 29 18.5c58.667 40.667 88 97 88 169
c0 54 -15.167 96 -45.5 126s-77.5 49.333 -141.5 58v274h224v41h40v-117h-220v-133c74 -10 131 -34.5 171 -73.5s60 -89.833 60 -152.5c0 -40 -10.667 -79 -32 -117s-51 -71 -89 -99z" />
    <glyph glyph-name="six" unicode="6" horiz-adv-x="610" 
d="M514 698c-18 -0.666992 -33.8311 -1.66309 -47.498 -2.99609s-26.167 -3.33301 -37.5 -6s-22.333 -5.83398 -33 -9.50098s-22 -8.5 -34 -14.5c-22 -10.667 -42.667 -23.334 -62 -38.001s-36.666 -31 -51.999 -49c-30 -36 -53.333 -79.833 -70 -131.5
s-25 -104.834 -25 -159.501c0 -36 4.16699 -69.833 12.5 -101.5s19.5 -59.334 33.5 -83.001s30.667 -42.334 50 -56.001s40 -20.5 62 -20.5c23.333 0 46.666 8.66699 69.999 26s41.666 39.666 54.999 66.999c14 26.667 21 55 21 85c0 31.333 -8.16699 61.166 -24.5 89.499
s-37.166 48.833 -62.499 61.5c-22.667 10.667 -50.334 16 -83.001 16h-48l9 40c17.333 4 31 6.66699 41 8s21 2 33 2c31.333 0 60.5 -5.16699 87.5 -15.5s50.333 -24.666 70 -42.999s35.167 -40.166 46.5 -65.499s17 -52.666 17 -81.999
c0 -31.333 -6.33301 -60.833 -19 -88.5s-29.834 -51.834 -51.501 -72.501s-47.167 -37 -76.5 -49s-60.333 -18 -93 -18c-35.333 0 -67.5 7 -96.5 21s-53.833 34 -74.5 60s-36.667 57.167 -48 93.5s-17 76.5 -17 120.5c0 48.667 6.66699 95.5 20 140.5s32 86.333 56 124
s52.833 70.834 86.5 99.501s71.167 50.667 112.5 66c14.667 5.33301 28 9.83301 40 13.5s24.333 6.5 37 8.5s26.667 3.33301 42 4s33.333 1 54 1z" />
    <glyph glyph-name="seven" unicode="7" horiz-adv-x="489" 
d="M162 -181c-10 -17.333 -27.001 -42.334 -51.001 -75.001l-69 56l36 33.5c10 9.66699 19.5 19.5 28.5 29.5s17.833 20.833 26.5 32.5l31 42.5c32.667 44.667 56.334 83.334 71.001 116.001l155 340h-315v-92h-50v188h50v-29h380v-38l-184 -404
c-5.33301 -12.667 -12.333 -27.334 -21 -44.001l-30 -57c-11.333 -21.333 -22 -40.166 -32 -56.499z" />
    <glyph glyph-name="eight" unicode="8" 
d="M289 437l41 37.999c16 14.667 28.5 32.167 37.5 52.5s13.5 41.833 13.5 64.5c0 33.333 -9.66699 59.833 -29 79.5s-45.333 29.5 -78 29.5c-32 0 -57.833 -9.33301 -77.5 -28s-29.5 -43.667 -29.5 -75c0 -20 4.5 -39.167 13.5 -57.5s21.833 -34.166 38.5 -47.499z
M255 357.999l-67.999 -60c-39.333 -34.667 -59 -79.334 -59 -134.001c0 -42.667 12.5 -76.5 37.5 -101.5s59.167 -37.5 102.5 -37.5c44 0 79.5 12.5 106.5 37.5s40.5 58.167 40.5 99.5c0 12 -1 22.667 -3 32s-5.5 18.333 -10.5 27s-11.833 17.334 -20.5 26.001
s-19.334 18.667 -32.001 30zM220.001 387.999l-72.0039 61.999c-21.333 18 -37.666 38.333 -48.999 61s-17 45.667 -17 69c0 22 5 42.667 15 62s23.667 36.166 41 50.499s37.666 25.666 60.999 33.999s48.333 12.5 75 12.5c24.667 0 47.834 -4 69.501 -12
s40.5 -18.667 56.5 -32s28.667 -29.166 38 -47.499s14 -37.833 14 -58.5c0 -21.333 -6.66699 -43.833 -20 -67.5s-31.333 -45.167 -54 -64.5l-55 -47l89 -77c16 -13.333 29.333 -25.833 40 -37.5s19.167 -23 25.5 -34s11 -22.167 14 -33.5s4.5 -23.333 4.5 -36
c0 -29.333 -5.83301 -56.5 -17.5 -81.5s-27.667 -46.667 -48 -65s-44.666 -32.666 -72.999 -42.999s-59.166 -15.5 -92.499 -15.5c-42 0 -76.167 5.33301 -102.5 16s-49.166 28.334 -68.499 53.001c-26.667 32.667 -40 68.667 -40 108c0 56 30.667 110 92 162z" />
    <glyph glyph-name="nine" unicode="9" horiz-adv-x="610" 
d="M96 -215c18 1.33301 33.832 2.82812 47.499 4.49512s26.167 3.83398 37.5 6.50098s22.166 5.83398 32.499 9.50098s21.833 8.5 34.5 14.5c47.333 22.667 85.333 51.334 114 86.001c14 16.667 26.833 35.834 38.5 57.501s21.667 45 30 70s14.833 50.667 19.5 77
s7 52.5 7 78.5c0 35.333 -3.83301 68 -11.5 98s-18.5 56 -32.5 78s-30.5 39.333 -49.5 52s-39.5 19 -61.5 19c-20 0 -39.167 -4.83301 -57.5 -14.5s-34.166 -22.834 -47.499 -39.501s-24 -36.167 -32 -58.5s-12 -45.833 -12 -70.5c0 -50 15.167 -89.667 45.5 -119
s71.5 -44 123.5 -44h49l-10 -40c-18.667 -4 -33.167 -6.66699 -43.5 -8s-21.166 -2 -32.499 -2c-30.667 0 -59.167 5.33301 -85.5 16s-49.333 25.5 -69 44.5s-35.167 41 -46.5 66s-17 52.167 -17 81.5c0 30.667 6.33301 59.667 19 87s29.667 51.333 51 72s46.5 37 75.5 49
s59.5 18 91.5 18c34 0 65.667 -7.33301 95 -22s54.5 -35 75.5 -61s37.5 -56.667 49.5 -92s18 -73.666 18 -114.999c0 -44 -7 -87.667 -21 -131s-33.167 -83.666 -57.5 -120.999s-53 -70.333 -86 -99s-68.5 -50 -106.5 -64c-13.333 -5.33301 -25.833 -9.5 -37.5 -12.5
s-24 -5.33301 -37 -7s-27.5 -3 -43.5 -4s-35.333 -1.5 -58 -1.5z" />
    <glyph glyph-name="colon" unicode=":" horiz-adv-x="250" 
d="M182 48c0.666992 -16 -4.66699 -29.832 -16 -41.499s-25.333 -17.5 -42 -17.5c-15.333 0 -28.5 5.66699 -39.5 17s-16.5 24.666 -16.5 39.999c0 16 5.5 29.667 16.5 41s24.167 17 39.5 17c16 0 29.667 -5.5 41 -16.5s17 -24.167 17 -39.5zM181.999 409.001
c0.666992 -16 -4.66699 -29.667 -16 -41s-25.333 -17 -42 -17c-15.333 0 -28.5 5.5 -39.5 16.5s-16.5 24.5 -16.5 40.5s5.5 29.5 16.5 40.5s24.167 16.5 39.5 16.5c16 0 29.667 -5.5 41 -16.5s17 -24.167 17 -39.5z" />
    <glyph glyph-name="semicolon" unicode=";" horiz-adv-x="250" 
d="M186 409c0.666992 -16 -4.83301 -29.667 -16.5 -41s-25.5 -17 -41.5 -17s-29.5 5.5 -40.5 16.5s-16.5 24.5 -16.5 40.5s5.5 29.5 16.5 40.5s24.5 16.5 40.5 16.5c15.333 0 28.833 -5.5 40.5 -16.5s17.5 -24.167 17.5 -39.5zM186 49c0 -28 -9.5 -57.666 -28.5 -88.999
s-46.167 -62 -81.5 -92l-25 31c24 19.333 40.667 35.5 50 48.5s14 27.167 14 42.5s-3.66699 27.166 -11 35.499s-20.666 15.5 -39.999 21.5c8 22 16.5 37 25.5 45s22.167 12 39.5 12c15.333 0 28.666 -5.33301 39.999 -16s17 -23.667 17 -39z" />
    <glyph glyph-name="semicolon" unicode="&#x37e;" horiz-adv-x="250" 
d="M186 409c0.666992 -16 -4.83301 -29.667 -16.5 -41s-25.5 -17 -41.5 -17s-29.5 5.5 -40.5 16.5s-16.5 24.5 -16.5 40.5s5.5 29.5 16.5 40.5s24.5 16.5 40.5 16.5c15.333 0 28.833 -5.5 40.5 -16.5s17.5 -24.167 17.5 -39.5zM186 49c0 -28 -9.5 -57.666 -28.5 -88.999
s-46.167 -62 -81.5 -92l-25 31c24 19.333 40.667 35.5 50 48.5s14 27.167 14 42.5s-3.66699 27.166 -11 35.499s-20.666 15.5 -39.999 21.5c8 22 16.5 37 25.5 45s22.167 12 39.5 12c15.333 0 28.666 -5.33301 39.999 -16s17 -23.667 17 -39z" />
    <glyph glyph-name="less" unicode="&#x3c;" 
d="M511 0l-472 210v54l472 210v-63l-396 -174l396 -174v-63z" />
    <glyph glyph-name="equal" unicode="=" 
d="M525 134h-500v57h500v-57zM525 273h-500v56h500v-56z" />
    <glyph glyph-name="greater" unicode="&#x3e;" 
d="M39 0v63l396 174l-396 174v63l472 -210v-54z" />
    <glyph glyph-name="question" unicode="?" horiz-adv-x="409" 
d="M198 48c0.666992 -16 -4.66699 -29.832 -16 -41.499s-25 -17.5 -41 -17.5s-29.5 5.66699 -40.5 17s-16.5 24.666 -16.5 39.999c0 16 5.5 29.667 16.5 41s24.167 17 39.5 17c16 0 29.667 -5.5 41 -16.5s17 -24.167 17 -39.5zM145.999 192.001l-25.001 -0.00195312v177h165
c6.66699 11.333 10.834 20.833 12.501 28.5s2.5 19.167 2.5 34.5c0 31.333 -7 60.333 -21 87s-33.333 48 -58 64c-10 6.66699 -19.167 12.334 -27.5 17.001s-17.333 8.83398 -27 12.501s-20.834 7.16699 -33.501 10.5s-28.667 7.33301 -48 12l35 101
c35.333 -10 67.333 -24.333 96 -43s53 -40.834 73 -66.501s35.5 -54.167 46.5 -85.5s16.5 -64.666 16.5 -99.999c0 -44 -10.667 -78.667 -32 -104s-50.666 -38 -87.999 -38h-61z" />
    <glyph glyph-name="at" unicode="@" horiz-adv-x="1000" 
d="M520 185c10.667 15.333 20.001 30.333 28.001 45s15 30.167 21 46.5s11.333 33.833 16 52.5s9 39.334 13 62.001c-13.333 17.333 -25.666 29.5 -36.999 36.5s-24.333 10.5 -39 10.5c-20 0 -39.333 -7.5 -58 -22.5s-35.167 -35 -49.5 -60s-25.833 -53.833 -34.5 -86.5
s-13 -66.667 -13 -102c0 -56 13.333 -84 40 -84c13.333 0 30.166 9.16699 50.499 27.5s41.166 43.166 62.499 74.499zM569.001 185c-11.333 -18.667 -21.8291 -34.8379 -31.4961 -48.5049s-19.167 -26 -28.5 -37s-18.833 -21.167 -28.5 -30.5s-20.167 -18.333 -31.5 -27
c-16.667 -12.667 -34.334 -23.167 -53.001 -31.5s-34.667 -12.5 -48 -12.5c-8.66699 0 -16.667 3.66699 -24 11s-13.666 17.5 -18.999 30.5s-9.5 28.5 -12.5 46.5s-4.5 37.667 -4.5 59c0 47.333 6.16699 91.333 18.5 132s29.166 76 50.499 106s46.5 53.5 75.5 70.5
s60.5 25.5 94.5 25.5c8.66699 0 16.167 -0.333008 22.5 -1s12.666 -1.83398 18.999 -3.50098s12.666 -4.16699 18.999 -7.5s13.833 -7.66602 22.5 -12.999l30 25h39l-57 -355c-1.33301 -9.33301 -2.33301 -17.5 -3 -24.5s-1 -12.833 -1 -17.5
c0 -13.333 5.33301 -23.666 16 -30.999s25.334 -11 44.001 -11c14.667 0 29.334 2.16699 44.001 6.5s28.5 10.333 41.5 18s25 16.834 36 27.501s19.833 22.334 26.5 35.001c20 36 30 84.333 30 145c0 44.667 -6.5 83.5 -19.5 116.5s-34.167 65.833 -63.5 98.5
c-16.667 18.667 -33.834 34.667 -51.501 48s-36.5 24.166 -56.5 32.499s-41.333 14.333 -64 18s-47.667 5.5 -75 5.5c-57.333 0 -109.166 -8.66699 -155.499 -26s-86 -41.833 -119 -73.5s-58.5 -70 -76.5 -115s-27 -95.167 -27 -150.5c0 -63.333 9.5 -116.5 28.5 -159.5
s50.167 -81.5 93.5 -115.5c16 -12.667 31.833 -23.334 47.5 -32.001s32.167 -15.667 49.5 -21s36 -9.16602 56 -11.499s42 -3.5 66 -3.5c18 0 34 0.5 48 1.5s27.167 2.83301 39.5 5.5s24.666 6.33398 36.999 11.001s25.5 10.334 39.5 17.001l20 -44
c-15.333 -7.33301 -30 -13.5 -44 -18.5s-28 -9 -42 -12s-28.5 -5.16699 -43.5 -6.5s-31.5 -2 -49.5 -2c-28 0 -53.833 1.5 -77.5 4.5s-45.667 8 -66 15s-40 16 -59 27s-37.833 24.167 -56.5 39.5c-47.333 38 -81.833 81 -103.5 129s-32.5 104 -32.5 168
c0 62 10.333 118.667 31 170s49.667 95.666 87 132.999s81.833 66.333 133.5 87s108.5 31 170.5 31c60.667 0 113.5 -9 158.5 -27s86.5 -47 124.5 -87c34.667 -36.667 59.834 -75.167 75.501 -115.5s23.5 -87.5 23.5 -141.5c0 -28 -1.66699 -53.167 -5 -75.5
s-8.83301 -42.5 -16.5 -60.5s-17.334 -34.5 -29.001 -49.5s-25.834 -29.167 -42.501 -42.5c-42.667 -32.667 -93.334 -49 -152.001 -49c-37.333 0 -64.5 7.5 -81.5 22.5s-25.5 39.5 -25.5 73.5c0 8.66699 0.666992 17.834 2 27.501s3 18.834 5 27.501z" />
    <glyph glyph-name="A" unicode="A" horiz-adv-x="691" 
d="M428 265l-107 281l-113 -281h220zM663 0h-228v37h80l-70 180l-256 1l-73 -180h83v-38h-191v38h52l260 643h36l250 -643h57v-38z" />
    <glyph glyph-name="B" unicode="B" horiz-adv-x="635" 
d="M230 365h101.999c32.667 0 59.334 11.833 80.001 35.5s31 54.167 31 91.5c0 35.333 -9.5 64.5 -28.5 87.5s-43.5 34.5 -73.5 34.5h-111v-249zM229.999 45l112 -0.000976562c42 0 75 11.667 99 35s36 55.666 36 96.999c0 20.667 -3.33301 39.834 -10 57.501
s-16 32.834 -28 45.501s-26.333 22.5 -43 29.5s-34.667 10.5 -54 10.5h-112v-275zM66.999 -0.000976562v37.002h75v586h-75v37h304c22.667 0 44 -4.33301 64 -13s37.5 -20.334 52.5 -35.001s26.833 -32 35.5 -52s13 -41.333 13 -64c0 -18.667 -3.83301 -36.5 -11.5 -53.5
s-18.167 -32.333 -31.5 -46s-29 -24.667 -47 -33s-37 -13.5 -57 -15.5c20.667 -2.66699 36.167 -5.33398 46.5 -8.00098s21.833 -7 34.5 -13c31.333 -14.667 55.5 -35.667 72.5 -63s25.5 -58 25.5 -92c0 -24.667 -4.5 -47.5 -13.5 -68.5s-21.5 -39.167 -37.5 -54.5
s-34.833 -27.333 -56.5 -36s-45.167 -13 -70.5 -13h-323z" />
    <glyph glyph-name="C" unicode="C" horiz-adv-x="667" 
d="M617 29c-21.333 -8 -40.8311 -14.6709 -58.498 -20.0039s-34.834 -9.66602 -51.501 -12.999s-33 -5.66602 -49 -6.99902s-33 -2 -51 -2c-51.333 0 -98.833 8.5 -142.5 25.5s-81.334 40.667 -113.001 71s-56.5 66.333 -74.5 108s-27 87.167 -27 136.5
c0 48.667 8.83301 93.834 26.5 135.501s42 78 73 109s67.667 55.333 110 73s87.833 26.5 136.5 26.5c32.667 0 62.667 -2.83301 90 -8.5s55 -15.167 83 -28.5v45h47v-170h-47v49c-30.667 22.667 -58.667 38.667 -84 48s-54 14 -86 14c-37.333 0 -71.333 -7 -102 -21
s-57 -33.667 -79 -59s-39 -55.666 -51 -90.999s-18 -74 -18 -116c0 -41.333 6.83301 -80 20.5 -116s32.334 -67.333 56.001 -94s51.667 -47.5 84 -62.5s67.166 -22.5 104.499 -22.5c25.333 0 49.5 3.66699 72.5 11s50.5 20.333 82.5 39v73h48v-133z" />
    <glyph glyph-name="D" unicode="D" horiz-adv-x="740" 
d="M230 50l120 -0.000976562c34 0 65.667 7.16699 95 21.5s54.833 34 76.5 59s38.5 54.5 50.5 88.5s18 71 18 111c0 38.667 -6.16699 74.834 -18.5 108.501s-29.333 63.167 -51 88.5s-47 45.333 -76 60s-59.833 22 -92.5 22h-122v-559zM67 -0.000976562l0.000976562 37h75
v586h-75v37h295c44.667 0 87 -8.66699 127 -26s74.667 -40.833 104 -70.5s52.666 -64.5 69.999 -104.5s26 -82.667 26 -128c0 -46 -8.5 -89.167 -25.5 -129.5s-40.167 -75.5 -69.5 -105.5s-64 -53.5 -104 -70.5s-83 -25.5 -129 -25.5h-294z" />
    <glyph glyph-name="E" unicode="E" horiz-adv-x="581" 
d="M522 0h-455v37h75v586h-75v37h399v28h46v-159h-45v85h-237v-256h189v75l46 1v-197l-46 -1v77h-189v-268h246v88h46v-133z" />
    <glyph glyph-name="F" unicode="F" horiz-adv-x="571" 
d="M305 0h-238v37h75v586h-75v37h399v28h46v-159h-45v85h-237v-256h189v75l46 1v-197l-46 -1v77h-189v-276h75v-37z" />
    <glyph glyph-name="G" unicode="G" horiz-adv-x="745" 
d="M619 25c-22 -7.33301 -41.999 -13.333 -59.999 -18s-35 -8.5 -51 -11.5s-31.667 -5.16699 -47 -6.5s-31.666 -2 -48.999 -2c-52 0 -97.667 6.83301 -137 20.5s-75.666 35.167 -108.999 64.5c-37.333 33.333 -66 72.333 -86 117s-30 92 -30 142
c0 49.333 9 94.833 27 136.5s42.667 77.667 74 108s68.666 54 111.999 71s90.666 25.5 141.999 25.5c14.667 0 28.834 -0.5 42.501 -1.5s27 -2.83301 40 -5.5s26.333 -5.83398 40 -9.50098s28.167 -8.5 43.5 -14.5v39h46v-170h-46v65c-33.333 16 -63.333 27.5 -90 34.5
s-54 10.5 -82 10.5c-34.667 0 -67.167 -7.5 -97.5 -22.5s-56.833 -35.667 -79.5 -62s-40.5 -57 -53.5 -92s-19.5 -72.5 -19.5 -112.5c0 -41.333 7.5 -79.666 22.5 -114.999s35.667 -66.333 62 -93s57.166 -47.5 92.499 -62.5s73.333 -22.5 114 -22.5
c14.667 0 28.167 1 40.5 3s29.166 5.66699 50.499 11v175h-85v37h248v-37h-75v-202z" />
    <glyph glyph-name="H" unicode="H" horiz-adv-x="838" 
d="M768 0h-238v37h75v275h-375v-275h75v-37h-238v37h75v586h-75v37h238v-37h-75v-266h375v266h-75v37h238v-37h-76v-586h76v-37z" />
    <glyph glyph-name="I" unicode="I" horiz-adv-x="372" 
d="M305 0h-238v37h75v586h-75v37h238v-37h-75v-586h75v-37z" />
    <glyph glyph-name="J" unicode="J" horiz-adv-x="364" 
d="M221 -18c-13.333 -27.333 -24.998 -49.999 -34.998 -67.999s-20.167 -34.5 -30.5 -49.5s-22 -29.833 -35 -44.5s-29.167 -31.667 -48.5 -51l-34 32c12 11.333 22 21.666 30 30.999s14.833 18.5 20.5 27.5s10.667 18.833 15 29.5s8.5 23 12.5 37
c4 12.667 7.16699 24.5 9.5 35.5s4.16602 22.5 5.49902 34.5s2.16602 25.833 2.49902 41.5s0.5 34.5 0.5 56.5v529h-75v37h238v-37h-76v-641z" />
    <glyph glyph-name="K" unicode="K" horiz-adv-x="653" 
d="M305 0h-238v38h75v584l-75 1v37h238v-37h-75v-586h75v-37zM656 0h-135l-282 333l246 290h-74v37h207v-37h-65l-221 -264l271 -322h53v-37z" />
    <glyph glyph-name="L" unicode="L" horiz-adv-x="531" 
d="M522 0h-455v37h75v586h-75v37h238v-37h-75v-578h246v88h46v-133z" />
    <glyph glyph-name="M" unicode="M" horiz-adv-x="901" 
d="M834 0h-238v37h75v492l-245 -539l-246 550v-503h76v-37h-202v37h76v586h-76v37h161l228 -510l235 510h156v-37h-75v-586h75v-37z" />
    <glyph glyph-name="N" unicode="N" horiz-adv-x="737" 
d="M611 -11h-31l-384 528v-480h76v-37h-202v37h76v548l-27 38h-69v37h145l366 -502v465h-76v37h201v-37h-75v-634z" />
    <glyph glyph-name="O" unicode="O" horiz-adv-x="743" 
d="M374 620c-32.667 0 -62.832 -7.16895 -90.499 -21.502s-51.5 -34.333 -71.5 -60s-35.5 -56.167 -46.5 -91.5s-16.5 -74.333 -16.5 -117c0 -42 5.5 -80.833 16.5 -116.5s26.5 -66.5 46.5 -92.5s43.667 -46.167 71 -60.5s57.333 -21.5 90 -21.5c32 0 61.5 7.33301 88.5 22
s50.333 34.834 70 60.501s35 56.334 46 92.001s16.5 74.5 16.5 116.5s-5.5 80.667 -16.5 116s-26.333 66 -46 92s-42.834 46.167 -69.501 60.5s-56 21.5 -88 21.5zM373.002 -13.002c-44 0 -85.499 9.16406 -124.499 27.4971s-73.333 43 -103 74s-53 67.167 -70 108.5
s-25.5 85.333 -25.5 132s8.5 90.834 25.5 132.501s40.167 78.167 69.5 109.5s63.666 56 102.999 74s81 27 125 27c43.333 0 84.5 -9.16699 123.5 -27.5s73 -43 102 -74s52 -67.167 69 -108.5s25.5 -85.333 25.5 -132s-8.5 -90.667 -25.5 -132s-40 -77.666 -69 -108.999
s-63 -56.166 -102 -74.499s-80.167 -27.5 -123.5 -27.5z" />
    <glyph glyph-name="P" unicode="P" horiz-adv-x="600" 
d="M314 0l-247.002 -0.00292969v37h75v586h-75v37h286c28.667 0 55.167 -4.66699 79.5 -14s45 -22.333 62 -39s30.333 -36.667 40 -60s14.5 -49 14.5 -77s-5.66699 -54.167 -17 -78.5s-26.666 -45.333 -45.999 -63s-42.5 -31.667 -69.5 -42s-55.833 -15.5 -86.5 -15.5
c-9.33301 0 -17.666 0.333008 -24.999 1s-17.666 2.33398 -30.999 5.00098v35c6.66699 -1.33301 11.667 -2.16602 15 -2.49902s7.33301 -0.5 12 -0.5c21.333 0 41.5 4.16699 60.5 12.5s35.667 19.833 50 34.5s25.666 31.834 33.999 51.501s12.5 40.5 12.5 62.5
c0 20 -3.16699 38.667 -9.5 56s-14.833 32.5 -25.5 45.5s-23.167 23.333 -37.5 31s-29.833 11.5 -46.5 11.5h-109v-577h85z" />
    <glyph glyph-name="Q" unicode="Q" horiz-adv-x="759" 
d="M374 620c-32.667 0 -62.832 -7.16895 -90.499 -21.502s-51.5 -34.333 -71.5 -60s-35.5 -56.167 -46.5 -91.5s-16.5 -74.333 -16.5 -117c0 -42 5.5 -80.833 16.5 -116.5s26.5 -66.5 46.5 -92.5s43.667 -46.167 71 -60.5s57.333 -21.5 90 -21.5c32 0 61.5 7.33301 88.5 22
s50.333 34.834 70 60.501s35 56.334 46 92.001s16.5 74.5 16.5 116.5s-5.5 80.667 -16.5 116s-26.333 66 -46 92s-42.834 46.167 -69.501 60.5s-56 21.5 -88 21.5zM709.002 -135.002l-106.992 -95.9961v1c-18 8.66699 -33.333 16.5 -46 23.5s-24.167 13.667 -34.5 20
s-19.833 12.5 -28.5 18.5s-17.667 13 -27 21c-10 8 -19.5 16.167 -28.5 24.5s-18.167 17.666 -27.5 27.999s-19.5 22.333 -30.5 36l-37.5 48.5c-44.667 6 -82.834 17.167 -114.501 33.5s-61.167 40.166 -88.5 71.499c-28 31.333 -49.833 67.666 -65.5 108.999
s-23.5 83 -23.5 125c0 46.667 8.5 90.834 25.5 132.501s40.333 78.167 70 109.5s64 56 103 74s80.5 27 124.5 27c43.333 0 84.5 -9.16699 123.5 -27.5s73 -43 102 -74s52 -67.167 69 -108.5s25.5 -85.333 25.5 -132c0 -30 -3.83301 -59.667 -11.5 -89
s-18.834 -57 -33.501 -83s-32.167 -50 -52.5 -72s-42.833 -40.333 -67.5 -55c-6.66699 -4 -12.834 -7.5 -18.501 -10.5s-11.667 -5.83301 -18 -8.5s-13.5 -5.33398 -21.5 -8.00098s-17.333 -5.33398 -28 -8.00098c17.333 -20.667 34.666 -39.5 51.999 -56.5
s33.666 -31.5 48.999 -43.5s29.666 -21.333 42.999 -28s24.666 -10 33.999 -10c7.33301 0 15.666 2.5 24.999 7.5s23 14.167 41 27.5z" />
    <glyph glyph-name="R" unicode="R" horiz-adv-x="654" 
d="M230 342h96.001c18.667 0 36 3.33301 52 10s29.667 16 41 28s20.166 26.5 26.499 43.5s9.5 35.833 9.5 56.5c0 43.333 -11.333 76.5 -34 99.5s-55 34.5 -97 34.5h-94v-272zM645.001 0l-85 0.000976562c-14.667 0 -26.834 0.666992 -36.501 2s-18 4 -25 8
s-13.667 9.83301 -20 17.5s-13.5 18.167 -21.5 31.5l-149 237h-78v-259h75v-37h-238v37h75v586h-75v37h278c48.667 0 87.334 -7 116.001 -21s50.667 -36.667 66 -68c13.333 -28 20 -57.667 20 -89c0 -48.667 -13 -87.834 -39 -117.501s-63 -48.167 -111 -55.5l144 -222
c12 -18.667 22.667 -31.5 32 -38.5s20.333 -10.5 33 -10.5h39v-38z" />
    <glyph glyph-name="S" unicode="S" horiz-adv-x="562" 
d="M134 -9l-46.998 -0.000976562v180h47v-79c15.333 -10 28.666 -18.333 39.999 -25s22 -12 32 -16s19.667 -6.66699 29 -8s19.666 -2 30.999 -2c40 0 72.333 9.5 97 28.5s37 44.5 37 76.5c0 14 -2.66699 27.333 -8 40s-13.666 25.167 -24.999 37.5s-26.5 24.833 -45.5 37.5
s-41.833 26 -68.5 40c-31.333 16.667 -57.833 32.5 -79.5 47.5s-39.167 30.167 -52.5 45.5s-22.833 31.5 -28.5 48.5s-8.5 35.833 -8.5 56.5c0 24.667 5 47.5 15 68.5s23.667 39.333 41 55s38.166 27.834 62.499 36.501s50.5 13 78.5 13c25.333 0 47.5 -2.33301 66.5 -7
s36.5 -11.667 52.5 -21v36h46v-171h-46v71c-25.333 17.333 -46 29 -62 35s-34 9 -54 9c-34 0 -61.167 -9.33301 -81.5 -28s-30.5 -43.667 -30.5 -75c0 -12.667 2.16699 -24.334 6.5 -35.001s12.166 -21.667 23.499 -33s27 -23.666 47 -36.999s45.667 -29 77 -47
s57.333 -34.667 78 -50s37.167 -30.5 49.5 -45.5s21 -30.667 26 -47s7.5 -34.833 7.5 -55.5c0 -26 -5 -50.167 -15 -72.5s-24 -41.833 -42 -58.5s-39.167 -29.667 -63.5 -39s-50.5 -14 -78.5 -14c-31.333 0 -58.666 3.5 -81.999 10.5s-47.333 18.5 -72 34.5v-41z" />
    <glyph glyph-name="T" unicode="T" horiz-adv-x="600" 
d="M444 0h-288v37h100v573h-200v-80h-48v158h48v-28h488v28h48v-158h-48v80h-200v-573h100v-37z" />
    <glyph glyph-name="U" unicode="U" horiz-adv-x="780" 
d="M729 623l-75.002 -0.000976562v-381c0 -54 -9.66699 -98.667 -29 -134s-50 -64.333 -92 -87c-43.333 -22.667 -89.666 -34 -138.999 -34c-36 0 -69.5 5.66699 -100.5 17s-57.667 27.166 -80 47.499s-39.833 44.333 -52.5 72s-19 57.834 -19 90.501v409h-75v37h238v-37
h-75v-378c0 -30 4.33301 -57.333 13 -82s20.834 -45.834 36.501 -63.501s34.667 -31.167 57 -40.5s47.5 -14 75.5 -14c28.667 0 54.667 4.83301 78 14.5s43.333 23.334 60 41.001s29.667 38.834 39 63.501s14 52 14 82v377h-75v37h201v-37z" />
    <glyph glyph-name="V" unicode="V" horiz-adv-x="661" 
d="M353 -17h-34l-252 640h-59v37h248v-37h-94l194 -491l192 491h-66v37h171v-37h-50z" />
    <glyph glyph-name="W" unicode="W" horiz-adv-x="942" 
d="M494 488l55 135h-109zM636 -17h-31l-128 324l-125 -324h-33l-253 640h-58v37h210v-37h-59l196 -493l96 244l-99 249h-59v37h359v-37h-52l-79 -204l117 -294l195 498h-69v37h170v-37h-48z" />
    <glyph glyph-name="X" unicode="X" horiz-adv-x="660" 
d="M652 0h-257v37h94l-171 242l-187 -242h95v-37h-218v37h56l223 287l-211 299h-57v37h254v-37h-94l161 -229l177 229h-92v37h218v-37h-59l-212 -275l220 -311h60v-37z" />
    <glyph glyph-name="Y" unicode="Y" horiz-adv-x="612" 
d="M436 0h-238v37h75v267l-207 319h-58v37h247v-37h-91l172 -262l159 262h-91v37h200v-37h-52l-192 -313v-273h76v-37z" />
    <glyph glyph-name="Z" unicode="Z" horiz-adv-x="668" 
d="M609 0h-550v30l410 579h-363v-80h-47v159h47v-28h483v-31l-408 -579h381v104h47v-154z" />
    <glyph glyph-name="bracketleft" unicode="[" horiz-adv-x="250" 
d="M221 -243h-152v903h152v-46h-93v-812h93v-45z" />
    <glyph glyph-name="backslash" unicode="\" horiz-adv-x="409" 
d="M360 -243h-59l-251 903h58z" />
    <glyph glyph-name="bracketright" unicode="]" horiz-adv-x="250" 
d="M29 -243v45h93v812h-93v46h152v-903h-152z" />
    <glyph glyph-name="asciicircum" unicode="^" horiz-adv-x="338" 
d="M258 529l-85 88l-86 -88h-48l112 165h43l108 -165h-44z" />
    <glyph glyph-name="underscore" unicode="_" horiz-adv-x="500" 
d="M500 -57h-500v57h500v-57z" />
    <glyph glyph-name="grave" unicode="`" horiz-adv-x="258" 
d="M180 529l-159 161h93l119 -161h-53z" />
    <glyph glyph-name="a" unicode="a" horiz-adv-x="457" 
d="M285 205l-170.999 -40.001v-50c0 -21.333 6.16699 -38.166 18.5 -50.499s29.166 -18.5 50.499 -18.5c16 0 31.5 4 46.5 12s33.5 21.667 55.5 41v106zM437.001 18.999l-67 -20.998c-6.66699 -2 -13.167 -3.66699 -19.5 -5s-11.5 -2 -15.5 -2
c-15.333 0 -27.333 5.16699 -36 15.5s-13 24.833 -13 43.5v10c-21.333 -26 -42.166 -44.667 -62.499 -56s-43.833 -17 -70.5 -17c-34.667 0 -63.334 10.667 -86.001 32s-34 49 -34 83c0 25.333 7.5 47.666 22.5 66.999s34.5 31.666 58.5 36.999l171 39v113
c0 20 -6.66699 36.5 -20 49.5s-30 19.5 -50 19.5c-10 0 -19.167 -1 -27.5 -3s-19.833 -6.66699 -34.5 -14v-48l-89 -26c-3.33301 6 -5.5 10.833 -6.5 14.5s-1.5 8.16699 -1.5 13.5c0 14.667 4 28.167 12 40.5s19 23 33 32s30.667 16 50 21s40.333 7.5 63 7.5
c44 0 79.333 -10 106 -30s40 -46.667 40 -80v-308h77v-28z" />
    <glyph glyph-name="b" unicode="b" horiz-adv-x="526" 
d="M233 -13c-22 0 -43.501 1.66504 -64.501 4.99805s-46.167 8.66602 -75.5 15.999v663h-87v27l144 39h18v-691c16.667 -6.66699 29.667 -11.167 39 -13.5s20.333 -3.5 33 -3.5c24.667 0 47.167 5 67.5 15s37.833 24.167 52.5 42.5s26.167 40 34.5 65s12.5 52.5 12.5 82.5
c0 54.667 -11.5 97.834 -34.5 129.501s-54.5 47.5 -94.5 47.5h-73v33c25.333 8.66699 45.333 14.334 60 17.001s28.667 4 42 4c27.333 0 52.333 -5.5 75 -16.5s42.334 -26.5 59.001 -46.5s29.5 -43.667 38.5 -71s13.5 -57.333 13.5 -90c0 -38 -6.16699 -72.667 -18.5 -104
s-29.833 -58.166 -52.5 -80.499s-50 -39.5 -82 -51.5s-67.667 -18 -107 -18z" />
    <glyph glyph-name="c" unicode="c" horiz-adv-x="430" 
d="M417 35c-16.667 -10 -31.168 -17.998 -43.501 -23.998s-24.166 -10.833 -35.499 -14.5s-23 -6.16699 -35 -7.5s-26 -2 -42 -2c-35.333 0 -67 5.5 -95 16.5s-52 26.5 -72 46.5s-35.333 44.167 -46 72.5s-16 60.166 -16 95.499c0 36 6 69.167 18 99.5
s28.833 56.5 50.5 78.5s47.334 39 77.001 51s62.5 18 98.5 18c12.667 0 24.334 -0.666992 35.001 -2s21.167 -3.83301 31.5 -7.5s20.666 -8.5 30.999 -14.5s22.166 -13.333 35.499 -22l-54 -60l-22.5 22c-6.33301 6 -12.5 11.333 -18.5 16s-12.333 9.33398 -19 14.001
s-15 10 -25 16c-14 -1.33301 -26 -3 -36 -5s-19 -5 -27 -9s-15.667 -9.16699 -23 -15.5s-15 -14.5 -23 -24.5c-30.667 -38 -46 -82 -46 -132c0 -28 4.5 -54.333 13.5 -79s21.167 -46.334 36.5 -65.001s33.333 -33.334 54 -44.001s42.667 -16 66 -16
c16 0 31.833 2.5 47.5 7.5s37.167 14.5 64.5 28.5z" />
    <glyph glyph-name="d" unicode="d" horiz-adv-x="532" 
d="M331 85l29 23.0029v232c0 31.333 -5.66699 53 -17 65s-32 18 -62 18c-24 0 -46 -4.66699 -66 -14s-37.167 -22.333 -51.5 -39s-25.333 -36.834 -33 -60.501s-11.5 -49.834 -11.5 -78.501c0 -56.667 11.5 -100.667 34.5 -132s55.167 -47 96.5 -47
c15.333 0 28.333 2.16699 39 6.5s24.667 13.166 42 26.499zM523 28.0029l-144 -38h-19v70c-27.333 -27.333 -51.333 -46.333 -72 -57s-43.667 -16 -69 -16c-26 0 -50.333 6 -73 18s-42.334 28.167 -59.001 48.5s-29.834 44.5 -39.501 72.5s-14.5 58 -14.5 90
c0 34.667 6.16699 67 18.5 97s29.333 56.333 51 79s46.834 40.5 75.501 53.5s59.334 19.5 92.001 19.5c17.333 0 31.833 -1.66699 43.5 -5s27.167 -10 46.5 -20v231h-87v27l144 39h19v-681h87v-28z" />
    <glyph glyph-name="e" unicode="e" horiz-adv-x="461" 
d="M348 296l0.000976562 24c0 30 -9.16699 54.667 -27.5 74s-42.166 29 -71.499 29c-36.667 0 -66.834 -11.333 -90.501 -34s-37.834 -53.667 -42.501 -93h232zM418.001 42c-18.667 -10.667 -35.168 -19.5029 -49.501 -26.5029s-27.833 -12.667 -40.5 -17
s-25.167 -7.33301 -37.5 -9s-25.833 -2.5 -40.5 -2.5c-32 0 -61.167 5.83301 -87.5 17.5s-49.166 28 -68.499 49s-34.333 45.833 -45 74.5s-16 60.334 -16 95.001s5.33301 66.834 16 96.501s25.667 55.334 45 77.001s42 38.5 68 50.5s54.667 18 86 18
c26.667 0 51.167 -4.5 73.5 -13.5s41.5 -21.5 57.5 -37.5s28.5 -35.167 37.5 -57.5s13.5 -46.833 13.5 -73.5v-27h-315v-11c0 -31.333 4 -60 12 -86s19 -48.333 33 -67s30.833 -33.167 50.5 -43.5s41.5 -15.5 65.5 -15.5c20 0 38.5 3.16699 55.5 9.5s39.5 18.5 67.5 36.5z
" />
    <glyph glyph-name="f" unicode="f" horiz-adv-x="323" 
d="M280 0l-247 0.000976562v37h76v360h-87v27l87 22v82c0 31.333 4.83301 60 14.5 86s23.5 48.167 41.5 66.5s39.5 32.666 64.5 42.999s52.5 15.5 82.5 15.5c48 0 94.333 -12.667 139 -38l-55 -68l-26 22c-7.33301 6 -14.5 11.5 -21.5 16.5s-14.333 9.66699 -22 14
s-17.5 9.5 -29.5 15.5c-40 -7.33301 -68.833 -26 -86.5 -56s-26.5 -75.333 -26.5 -136v-66h115v-46h-115v-360h96v-37z" />
    <glyph glyph-name="g" unicode="g" horiz-adv-x="507" 
d="M148 -32c-13.333 -18.667 -22.1689 -33.833 -26.502 -45.5s-6.5 -24.167 -6.5 -37.5c0 -30 12.667 -54.333 38 -73s58 -28 98 -28c22 0 42.833 3.5 62.5 10.5s36.834 16.5 51.501 28.5s26.334 26 35.001 42s13 33 13 51c0 16 -3.5 28.667 -10.5 38s-16.167 14 -27.5 14
h-227zM134.997 295.001c0 -40.667 9.66699 -73 29 -97s46 -36 80 -36c33.333 0 59.833 12 79.5 36s29.5 56.333 29.5 97s-9.83301 72.834 -29.5 96.501s-46.167 35.5 -79.5 35.5c-34 0 -60.667 -11.833 -80 -35.5s-29 -55.834 -29 -96.501zM486.997 389.001
l-86.999 0.000976562c12 -14 20.333 -27.833 25 -41.5s7 -30.834 7 -51.501c0 -53.333 -17 -95.5 -51 -126.5s-80.667 -46.5 -140 -46.5c-7.33301 0 -13.833 0.166992 -19.5 0.5s-11 1 -16 2s-10.333 2.16699 -16 3.5s-12.167 3.33301 -19.5 6
c-15.333 -15.333 -26.166 -28.166 -32.499 -38.499s-9.5 -20.166 -9.5 -29.499c0 -17.333 9.66699 -26 29 -26h250c24 0 42.667 -8 56 -24s20 -38.667 20 -68c0 -28 -6.66699 -54.5 -20 -79.5s-31.5 -46.833 -54.5 -65.5s-50 -33.334 -81 -44.001s-64.167 -16 -99.5 -16
c-21.333 0 -41 1.83301 -59 5.5s-34.667 9.5 -50 17.5s-30 18.5 -44 31.5s-28 28.5 -42 46.5c5.33301 13.333 10.166 24.666 14.499 33.999s9.16602 18.5 14.499 27.5s11.833 18.5 19.5 28.5l29.5 38c-14.667 2.66699 -27 7.33398 -37 14.001s-22.667 18.667 -38 36l23 38
c6.66699 10.667 13.667 20.5 21 29.5s15.833 17.833 25.5 26.5l35.5 31c-57.333 33.333 -86 80.666 -86 141.999c0 54 17 96.667 51 128s79.667 47 137 47c10 0 18.833 -0.333008 26.5 -1s15.334 -2 23.001 -4s16.167 -5 25.5 -9s20.666 -9.33301 33.999 -16h64l71 17v-63z
" />
    <glyph glyph-name="h" unicode="h" horiz-adv-x="568" 
d="M548 0l-227 0.000976562v37h76v293c0 26.667 -6.33301 47.667 -19 63s-30 23 -52 23c-11.333 0 -21.666 -1.5 -30.999 -4.5s-19.5 -8.83301 -30.5 -17.5s-23.833 -20.834 -38.5 -36.501l-55 -60.5v-260h75v-37h-226v37h76v634h-88v27l144 39h19v-386
c18.667 22 35.667 40.167 51 54.5s30 26 44 35s27.833 15.333 41.5 19s28.5 5.5 44.5 5.5c37.333 0 66.666 -11.167 87.999 -33.5s32 -52.833 32 -91.5v-303h76v-37z" />
    <glyph glyph-name="i" unicode="i" horiz-adv-x="282" 
d="M90 635c0 14.667 5 27 15 37s22.333 15 37 15c15.333 0 28 -5 38 -15s15 -22.333 15 -37c0 -15.333 -5 -28 -15 -38s-22.667 -15 -38 -15c-14.667 0 -27 5 -37 15s-15 22.667 -15 38zM260 0h-227v37h76v360h-87v27l144 39h18v-426h76v-37z" />
    <glyph glyph-name="j" unicode="j" horiz-adv-x="274" 
d="M86 635c0 14.667 5.16699 27 15.5 37s22.833 15 37.5 15s27.167 -5 37.5 -15s15.5 -22.333 15.5 -37c0 -15.333 -5.16699 -28 -15.5 -38s-22.833 -15 -37.5 -15s-27.167 5 -37.5 15s-15.5 22.667 -15.5 38zM181 -73c-9.33301 -22 -17.502 -40.499 -24.502 -55.499
s-14.667 -29 -23 -42s-17.666 -26 -27.999 -39s-23.5 -28.5 -39.5 -46.5l-24 19c14 24 25.333 44.167 34 60.5s15.334 31.666 20.001 45.999s7.66699 28.833 9 43.5s2 32.667 2 54v430h-89v27l144 39h19v-536z" />
    <glyph glyph-name="k" unicode="k" horiz-adv-x="508" 
d="M246 0h-226v37h76v634h-88v27l144 39h19v-700h75v-37zM508 0h-124l-205 246l179 170h-65v37h199v-37h-77l-155 -148l191 -231h57v-37z" />
    <glyph glyph-name="l" unicode="l" horiz-adv-x="267" 
d="M246 0h-226v37h76v634h-88v27l144 39h19v-700h75v-37z" />
    <glyph glyph-name="m" unicode="m" horiz-adv-x="883" 
d="M862 0l-226 0.000976562v37h76v293c0 27.333 -6.33301 48.333 -19 63s-30 22 -52 22c-16.667 0 -32.5 -4.33301 -47.5 -13s-33.167 -24.667 -54.5 -48l-53 -57v-260h75v-37h-226v37h75v293c0 26.667 -6.33301 47.667 -19 63s-30 23 -52 23
c-10.667 0 -20.667 -1.5 -30 -4.5s-19.666 -8.83301 -30.999 -17.5s-24.333 -20.834 -39 -36.501l-55 -60.5v-260h76v-37h-227v37h76v360h-87v27l144 39h18v-112c18.667 22 35.667 40.167 51 54.5s30 26 44 35s28 15.333 42 19s29 5.5 45 5.5c70 0 110 -38 120 -114
c18.667 22 35.667 40.167 51 54.5s30 26 44 35s27.833 15.333 41.5 19s28.5 5.5 44.5 5.5c37.333 0 66.666 -11.167 87.999 -33.5s32 -52.5 32 -90.5v-304h75v-37z" />
    <glyph glyph-name="n" unicode="n" horiz-adv-x="581" 
d="M561 0l-226 0.000976562v37h75v293c0 26.667 -6.33301 47.667 -19 63s-30 23 -52 23c-10.667 0 -20.667 -1.5 -30 -4.5s-19.666 -8.83301 -30.999 -17.5s-24.333 -20.834 -39 -36.501l-55 -60.5v-260h76v-37h-227v37h76v360h-87v27l144 39h18v-112
c18.667 22 35.667 40.167 51 54.5s30 26 44 35s28 15.333 42 19s29 5.5 45 5.5c37.333 0 66.666 -11.167 87.999 -33.5s32 -52.833 32 -91.5v-303h75v-37z" />
    <glyph glyph-name="o" unicode="o" horiz-adv-x="505" 
d="M252 423c-18.667 0 -36.167 -5 -52.5 -15s-30.5 -23.833 -42.5 -41.5s-21.333 -38.5 -28 -62.5s-10 -50 -10 -78c0 -27.333 3.33301 -53 10 -77s16 -44.833 28 -62.5s26.167 -31.667 42.5 -42s33.833 -15.5 52.5 -15.5s36.167 5 52.5 15s30.5 23.833 42.5 41.5
s21.5 38.5 28.5 62.5s10.5 50 10.5 78s-3.5 54 -10.5 78s-16.5 44.833 -28.5 62.5s-26.167 31.5 -42.5 41.5s-33.833 15 -52.5 15zM252 -13c-30 0 -58.333 6.33301 -85 19s-50 29.667 -70 51s-35.667 46.5 -47 75.5s-17 60.167 -17 93.5c0 32.667 5.66699 63.667 17 93
s27 54.666 47 75.999s43.333 38.333 70 51s55 19 85 19s58.333 -6.33301 85 -19s50 -29.667 70 -51s35.667 -46.666 47 -75.999s17 -60.333 17 -93c0 -33.333 -5.66699 -64.5 -17 -93.5s-27 -54.167 -47 -75.5s-43.333 -38.333 -70 -51s-55 -19 -85 -19z" />
    <glyph glyph-name="p" unicode="p" horiz-adv-x="538" 
d="M292 402c-19.333 0 -37.001 -4 -53.001 -12s-35.333 -23.333 -58 -46v-230c0 -31.333 5.83301 -53.333 17.5 -66s31.834 -19 60.501 -19c24 0 45.833 4.66699 65.5 14s36.5 22.666 50.5 39.999s24.833 38 32.5 62s11.5 50.667 11.5 80
c0 54.667 -11.333 97.834 -34 129.501s-53.667 47.5 -93 47.5zM271.999 -243l-242.006 0.000976562v37h76v603h-88v28l144 38h19v-69c25.333 26 48.833 44.167 70.5 54.5s46.834 15.5 75.501 15.5c26.667 0 50.834 -5.33301 72.501 -16s40.334 -25.5 56.001 -44.5
s27.834 -41.833 36.501 -68.5s13 -56.334 13 -89.001c0 -37.333 -5.83301 -71.833 -17.5 -103.5s-28 -59 -49 -82s-45.833 -41 -74.5 -54s-60 -19.5 -94 -19.5c-9.33301 0 -17.666 0.333008 -24.999 1s-14.166 2 -20.499 4s-13 4.5 -20 7.5s-14.833 6.83301 -23.5 11.5v-217
h91v-37z" />
    <glyph glyph-name="q" unicode="q" horiz-adv-x="521" 
d="M294 466c12.667 0 24.5029 -0.332031 35.5029 -0.999023s22 -1.83398 33 -3.50098s22.333 -4 34 -7l39.5 -10.5v-652l75 1v-36h-246v37h95v613c-14 7.33301 -25.167 11.833 -33.5 13.5s-19.5 2.5 -33.5 2.5c-54 0 -96.5 -17.167 -127.5 -51.5s-46.5 -81.5 -46.5 -141.5
c0 -26.667 3.33301 -51.5 10 -74.5s15.667 -42.833 27 -59.5s25 -29.834 41 -39.501s33 -14.5 51 -14.5h74v-34c-27.333 -8 -48.166 -13.5 -62.499 -16.5s-27.833 -4.5 -40.5 -4.5c-26 0 -50.333 6 -73 18s-42.334 28.167 -59.001 48.5s-29.834 44.5 -39.501 72.5
s-14.5 58 -14.5 90c0 24.667 3.33301 48.667 10 72s16 45 28 65s26.333 37.833 43 53.5s35 27.834 55 36.501c17.333 7.33301 36.166 13 56.499 17s43.166 6 68.499 6z" />
    <glyph glyph-name="r" unicode="r" horiz-adv-x="377" 
d="M280 0h-246.998v37h76v360h-87v27l144 39h18v-112l46 56.5c12.667 15 24 26.667 34 35s19.167 14.166 27.5 17.499s17.166 5 26.499 5c12.667 0 22 -3 28 -9l31 -27l-58 -70c-19.333 18.667 -34 28 -44 28c-4.66699 0 -9.33398 -1.16699 -14.001 -3.5
s-10.5 -6.66602 -17.5 -12.999s-15.167 -15 -24.5 -26l-35 -41.5v-266h96v-37z" />
    <glyph glyph-name="s" unicode="s" horiz-adv-x="421" 
d="M93 -9l-39.998 -0.000976562v142h46v-27c0 -10.667 3.16699 -20.834 9.5 -30.501s15 -18.334 26 -26.001s23.667 -13.667 38 -18s29.166 -6.5 44.499 -6.5c28 0 51 6.5 69 19.5s27 29.5 27 49.5c0 10 -2 19 -6 27s-11 16 -21 24s-23.667 16.167 -41 24.5
s-39 17.5 -65 27.5c-48 18.667 -81.667 38.334 -101 59.001s-29 46.667 -29 78c0 19.333 3.83301 37 11.5 53s18.167 29.833 31.5 41.5s29.5 20.667 48.5 27s40.167 9.5 63.5 9.5c43.333 0 78.666 -11.333 105.999 -34l6 36h43l-24 -144h-43c2 5.33301 3.5 11 4.5 17
s1.5 11.333 1.5 16c0 10 -2.66699 19.167 -8 27.5s-12.5 15.833 -21.5 22.5s-19.5 11.834 -31.5 15.501s-24.667 5.5 -38 5.5c-26 0 -46.833 -6.5 -62.5 -19.5s-23.5 -30.167 -23.5 -51.5c0 -10.667 1 -19.5 3 -26.5s7.16699 -13.667 15.5 -20s21.166 -13.333 38.499 -21
s41 -17.5 71 -29.5c24.667 -10 45.167 -19.667 61.5 -29s29.5 -19.166 39.5 -29.499s17.167 -21.833 21.5 -34.5s6.5 -27 6.5 -43c0 -20 -3.66699 -38.333 -11 -55s-17.666 -31 -30.999 -43s-29.333 -21.333 -48 -28s-39 -10 -61 -10c-56 0 -98.333 13.333 -127 40v-36z" />
    <glyph glyph-name="t" unicode="t" horiz-adv-x="299" 
d="M299 42c-13.333 -10.667 -24.835 -19.332 -34.502 -25.999s-18.5 -11.834 -26.5 -15.501s-15.833 -6.16699 -23.5 -7.5s-16.167 -2 -25.5 -2c-29.333 0 -52.166 8.5 -68.499 25.5s-24.5 40.833 -24.5 71.5v309h-87v27l87 22v138h72v-141h124v-46h-124v-300
c0 -19.333 3.5 -32.833 10.5 -40.5s18.833 -11.5 35.5 -11.5c10.667 0 20.334 1.5 29.001 4.5s21.667 9.5 39 19.5z" />
    <glyph glyph-name="u" unicode="u" horiz-adv-x="570" 
d="M560 28l-144 -36.001h-18v113c-18 -22 -34.667 -40.5 -50 -55.5s-30.166 -27.167 -44.499 -36.5s-28.5 -16 -42.5 -20s-28.667 -6 -44 -6c-38 0 -67.667 11.5 -89 34.5s-32 54.5 -32 94.5v281h-87v27l144 39h19v-335c0 -60.667 24.333 -91 73 -91
c18.667 0 35.5 4.83301 50.5 14.5s33.833 27.834 56.5 54.501c5.33301 5.33301 11.666 12.333 18.999 21s16.333 18.667 27 30v240h-76v31l132 35h19v-407h87v-28z" />
    <glyph glyph-name="v" unicode="v" horiz-adv-x="442" 
d="M442 416h-42l-163 -429h-20l-175 428l-42 1v37h194v-37h-70l119 -295l112 295h-67v37h154v-37z" />
    <glyph glyph-name="w" unicode="w" horiz-adv-x="706" 
d="M706 416h-42l-162 -429h-20l-127 311l-120 -311h-20l-173 429h-42v37h193v-37h-69l117 -295l90 234l-25 61h-57v37h209v-37h-70l120 -295l112 295h-67v37h153v-37z" />
    <glyph glyph-name="x" unicode="x" horiz-adv-x="437" 
d="M437 0h-189v37h57l-97 147l-112 -147h59v-37h-155v37h42l142 183l-132 196h-42v37h193v-37h-62l90 -138l103 138h-48v37h144v-37h-42l-134 -171l141 -208h42v-37z" />
    <glyph glyph-name="y" unicode="y" horiz-adv-x="443" 
d="M443 416l-42.0039 0.000976562l-169 -439c-11.333 -30 -25.5 -61.333 -42.5 -94s-33.833 -61 -50.5 -85c-4.66699 -6 -10.167 -13.5 -16.5 -22.5s-14.166 -19.5 -23.499 -31.5l-65 67l35.5 21c9.66699 6 18.334 12.167 26.001 18.5s14.834 13.166 21.501 20.499
s14 16 22 26l18.5 26c5.66699 8 10.834 16.667 15.501 26l14.5 30.5c5 11 10.5 24.167 16.5 39.5l-162 397h-42v37h194v-37h-71l121 -295l112 295h-67v37h154v-37z" />
    <glyph glyph-name="z" unicode="z" horiz-adv-x="469" 
d="M430 0h-392v37l291 370h-233l-13 -84h-43l21 150h43l-3 -20h331v-30l-293 -377h248v77l43 -1v-122z" />
    <glyph glyph-name="braceleft" unicode="{" horiz-adv-x="409" 
d="M52 264h38c24 0 42.667 10 56 30s20 49 20 87v230c0 88.667 43.667 133 131 133h57v-33h-40c-48 0 -72 -32.333 -72 -97v-236c0 -22 -1.5 -40.667 -4.5 -56s-8.16699 -28 -15.5 -38s-17 -17.667 -29 -23s-27 -9 -45 -11c18 -2.66699 33 -6.66699 45 -12
s21.667 -12.833 29 -22.5s12.5 -22.167 15.5 -37.5s4.5 -34 4.5 -56v-241c0 -64.667 24 -97 72 -97h40v-40h-57c-87.333 0 -131 44.667 -131 134v241c0 38 -6.66699 67 -20 87s-32 30 -56 30h-38v28z" />
    <glyph glyph-name="bar" unicode="|" horiz-adv-x="250" 
d="M154 -256h-58v1000h58v-1000z" />
    <glyph glyph-name="braceright" unicode="}" horiz-adv-x="409" 
d="M357 264v-28h-37c-24.667 0 -43.667 -10 -57 -30s-20 -49 -20 -87v-241c0 -89.333 -43.333 -134 -130 -134h-57v40h39c48.667 0 73 32.333 73 97v241c0 22 1.5 40.667 4.5 56s8 27.833 15 37.5s16.5 17.167 28.5 22.5s27 9.33301 45 12c-18 2 -33 5.66699 -45 11
s-21.5 13 -28.5 23s-12 22.667 -15 38s-4.5 34 -4.5 56v236c0 64.667 -24.333 97 -73 97h-39v33h57c86.667 0 130 -44.333 130 -133v-230c0 -38 6.66699 -67 20 -87s32.333 -30 57 -30h37z" />
    <glyph glyph-name="asciitilde" unicode="~" horiz-adv-x="454" 
d="M133 572c-13.333 0 -25.834 -2.83105 -37.501 -8.49805s-24.5 -15.5 -38.5 -29.5l-25 17c21.333 28 41.5 47.833 60.5 59.5s39.5 17.5 61.5 17.5c9.33301 0 18.333 -0.833008 27 -2.5s15.334 -4.16699 20.001 -7.5l38 -23c18.667 -12 39 -18 61 -18
c8 0 14.833 0.333008 20.5 1s11.167 2.33398 16.5 5.00098s10.833 6.5 16.5 11.5s12.834 11.833 21.501 20.5l24 -16c-12 -14.667 -23 -26.834 -33 -36.501s-19.833 -17.334 -29.5 -23.001s-19.834 -9.66699 -30.501 -12s-22.667 -3.5 -36 -3.5
c-16 0 -29.833 1.66699 -41.5 5s-24.167 9.66602 -37.5 18.999c-8.66699 6 -15.667 10.5 -21 13.5s-10 5.33301 -14 7s-7.66699 2.66699 -11 3s-7.33301 0.5 -12 0.5z" />
    <glyph glyph-name="nonbreakingspace" unicode="&#xa0;" horiz-adv-x="333" 
 />
    <glyph glyph-name="exclamdown" unicode="&#xa1;" horiz-adv-x="263" 
d="M75 448c0 15.333 5.66699 28.666 17 39.999s24.666 17 39.999 17s28.666 -5.66699 39.999 -17s17 -24.666 17 -39.999c0 -16 -5.66699 -29.5 -17 -40.5s-24.666 -16.5 -39.999 -16.5s-28.666 5.5 -39.999 16.5s-17 24.5 -17 40.5zM152 301l38 -544h-116l38 544h40z" />
    <glyph glyph-name="cent" unicode="&#xa2;" horiz-adv-x="443" 
d="M117 241c0 -36 7.49902 -69.333 22.499 -100s37.167 -56.667 66.5 -78l70 365c-22.667 -0.666992 -43.667 -6 -63 -16s-36.166 -23.333 -50.499 -40s-25.5 -36.167 -33.5 -58.5s-12 -46.5 -12 -72.5zM420.999 35c-16 -9.33301 -30.335 -17.168 -43.002 -23.501
s-24.5 -11.333 -35.5 -15s-22 -6.16699 -33 -7.5s-23.167 -2 -36.5 -2c-4 0 -9 0.333008 -15 1s-13 1 -21 1h-8l-14 -75h-37l16 83c-50.667 12 -90.167 37 -118.5 75s-42.5 84.667 -42.5 140c0 37.333 5.83301 71.5 17.5 102.5s28.167 57.667 49.5 80
s46.666 39.666 75.999 51.999s61.666 18.5 96.999 18.5h10l14 75h37l-14 -78c8.66699 -1.33301 16.667 -3 24 -5s14.5 -4.5 21.5 -7.5s14.333 -7 22 -12l27.5 -18.5l-54 -59c-5.33301 6.66699 -9.66602 12.334 -12.999 17.001s-6.66602 9 -9.99902 13s-7.16602 8 -11.499 12
l-15.5 15l-71 -371c10 -3.33301 18 -5.66602 24 -6.99902s12.333 -2 19 -2c8.66699 0 16.834 0.5 24.501 1.5s16 3 25 6s18.833 7 29.5 12l38 18.5z" />
    <glyph glyph-name="sterling" unicode="&#xa3;" horiz-adv-x="576" 
d="M70 101l14.002 36.001l128 22l115 412c13.333 49.333 37.166 88.5 71.499 117.5s73.833 43.5 118.5 43.5c14 0 27.5 -2 40.5 -6s24.333 -9.16699 34 -15.5s17.334 -13.833 23.001 -22.5s8.5 -17.667 8.5 -27c0 -8 -2.16699 -15.5 -6.5 -22.5s-10.5 -12.5 -18.5 -16.5
c-8 -3.33301 -14.333 -5 -19 -5c-7.33301 0 -14.666 2.33301 -21.999 7s-12 10.667 -14 18l-8 26c-5.33301 16 -15.666 24 -30.999 24c-21.333 0 -41.833 -13 -61.5 -39s-35.5 -61 -47.5 -105l-106 -389h191l-21 -58h-187l-42 -155l-6 -23
c-2 -7.33301 -4.5 -14.333 -7.5 -21s-9.16699 -17.667 -18.5 -33c14 -2 25.833 -3.83301 35.5 -5.5s19.167 -4.33398 28.5 -8.00098s19.833 -8.33398 31.5 -14.001s26.167 -13.167 43.5 -22.5c22.667 -12.667 41.167 -21.667 55.5 -27s26.166 -8 35.499 -8
c7.33301 0 14.666 1.83301 21.999 5.5s13.666 8.5 18.999 14.5c4 6 6 12.333 6 19c0 14 -9.66699 31.333 -29 52l72 44c9.33301 -13.333 15.333 -23.833 18 -31.5s4 -17.167 4 -28.5c0 -34.667 -14 -62.5 -42 -83.5s-65.333 -31.5 -112 -31.5
c-39.333 0 -74.666 9.33301 -105.999 28l-45 28c-10.667 6.66699 -20.334 11.334 -29.001 14.001s-21.334 4.66699 -38.001 6c-44.667 -50.667 -91.667 -76 -141 -76c-10 0 -18.167 2.66699 -24.5 8s-9.5 12 -9.5 20c0 8.66699 3.5 17.667 10.5 27s16.333 18.333 28 27
s25.5 16.5 41.5 23.5s33 12.833 51 17.5c15.333 25.333 29.333 63.333 42 114l30 120h-126z" />
    <glyph glyph-name="currency" unicode="&#xa4;" horiz-adv-x="631" 
d="M414 443l0.000976562 58.9941c0 12.667 0.166992 23.334 0.5 32.001s1 16.834 2 24.501s2.5 15.334 4.5 23.001s4.66699 16.834 8 27.501c-12 10 -22.5 18 -31.5 24s-17.833 11.333 -26.5 16s-18.334 8.83398 -29.001 12.501l-40 13.5
c-39.333 -7.33301 -68 -26.166 -86 -56.499s-27 -74.5 -27 -132.5v-43h225zM585.001 -0.00585938l-233.998 -0.00195312v37h63v360h-225v-360h62v-37h-213v37h75v360h-86v24l86 21v61c0 32 4.83301 61 14.5 87s23.667 48.167 42 66.5s40.333 32.5 66 42.5s54.5 15 86.5 15
c27.333 0 53.166 -3.33301 77.499 -10s48.166 -16.667 71.499 -30c20 20.667 41.333 35.5 64 44.5s50.667 13.5 84 13.5c25.333 0 48.333 -2.66699 69 -8s43.667 -14.666 69 -27.999l-55 -68l-25.5 22c-7 6 -14 11.333 -21 16s-14.5 9 -22.5 13l-30 15
c-40 -7.33301 -69 -25.666 -87 -54.999s-27 -74.333 -27 -135v-61h116v-46h-115v-360h95v-37z" />
    <glyph glyph-name="yen" unicode="&#xa5;" horiz-adv-x="615" 
d="M438 0h-238v37h75v132h-165v42h165v94h-165v39h140l-182 279h-59l-1 37h249v-37h-91l171 -261l161 261h-91v37h200v-37h-51l-175 -279h146v-39h-165v-94h165v-42h-165v-132h76v-37z" />
    <glyph glyph-name="section" unicode="&#xa7;" horiz-adv-x="396" 
d="M152 561c0 16.667 1.99609 30.502 5.99609 41.502s11.667 25.167 23 42.5l16 -6c-1.33301 -8.66699 -2.16602 -14.834 -2.49902 -18.501s-0.5 -7.83398 -0.5 -12.501c0 -17.333 3.33301 -41.333 10 -72s15.334 -62.334 26.001 -95.001l64 -196
c16.667 -50 29.334 -98.833 38.001 -146.5s13 -90.5 13 -128.5c0 -20.667 -1 -39 -3 -55s-5.33301 -30.833 -10 -44.5s-10.834 -26.167 -18.501 -37.5s-16.834 -22.666 -27.501 -33.999c-36.667 -36.667 -77.667 -55 -123 -55c-24 0 -44.667 4.5 -62 13.5
s-37.666 25.5 -60.999 49.5l65 42c19.333 -34 46.333 -51 81 -51c36 0 63.833 13.167 83.5 39.5s29.5 63.166 29.5 110.499c0 18.667 -1.16699 38.5 -3.5 59.5s-6.16602 43.667 -11.499 68s-12.166 51.333 -20.499 81s-18.5 63.167 -30.5 100.5l-39.5 123.5
c-10.333 33.667 -18.5 62.167 -24.5 85.5s-10.333 42.333 -13 57s-4 27.334 -4 38.001zM250.996 -78.998c0 -16.667 -1.99512 -30.668 -5.99512 -42.001s-11.333 -25.333 -22 -42l-16 6c1.33301 8 2.16602 13.833 2.49902 17.5s0.5 8.16699 0.5 13.5
c0 17.333 -3.33301 41.333 -10 72s-15.334 62 -26.001 94l-64 197c-16 50 -28.5 98.667 -37.5 146s-13.5 90.333 -13.5 129c0 34 4.33301 64.833 13 92.5s21 51.5 37 71.5s35.167 35.333 57.5 46s47.166 16 74.499 16c23.333 0 43.833 -4.66699 61.5 -14
s38.167 -25.666 61.5 -48.999l-65 -43c-19.333 34.667 -46.333 52 -81 52c-36 0 -63.833 -13.167 -83.5 -39.5s-29.5 -63.5 -29.5 -111.5c0 -19.333 1.16699 -39.166 3.5 -59.499s6.16602 -42.833 11.499 -67.5s12.166 -51.834 20.499 -81.501s18.5 -63.167 30.5 -100.5
c16 -48 29.167 -88.833 39.5 -122.5s18.5 -62 24.5 -85s10.167 -42 12.5 -57s3.5 -27.833 3.5 -38.5z" />
    <glyph glyph-name="dieresis" unicode="&#xa8;" horiz-adv-x="406" 
d="M166 572c0 -13.333 -5 -25 -15 -35s-22 -15 -36 -15c-13.333 0 -25 5 -35 15s-15 21.667 -15 35c0 14 5 26 15 36s21.667 15 35 15c14 0 26 -5 36 -15s15 -22 15 -36zM341 572c0 -13.333 -5 -25 -15 -35s-22 -15 -36 -15c-13.333 0 -25 5 -35 15s-15 21.667 -15 35
c0 14 5 26 15 36s21.667 15 35 15c14 0 26 -5 36 -15s15 -22 15 -36z" />
    <glyph glyph-name="copyright" unicode="&#xa9;" horiz-adv-x="1000" 
d="M669 135l0.00195312 -107c-18 -8 -34 -14.667 -48 -20s-26.667 -9.5 -38 -12.5s-22.5 -5.16699 -33.5 -6.5s-22.5 -2 -34.5 -2c-37.333 0 -71.5 6.16699 -102.5 18.5s-57.667 29.666 -80 51.999s-39.833 48.833 -52.5 79.5s-19 64.334 -19 101.001
c0 32.667 6.83301 64 20.5 94s32 56.333 55 79s49.5 40.667 79.5 54s61.667 20 95 20c17.333 0 35.666 -2.5 54.999 -7.5s36.666 -11.5 51.999 -19.5v28h49v-144h-50v69c-22 12 -39.5 20.167 -52.5 24.5s-27.5 6.5 -43.5 6.5c-24 0 -46.5 -5.16699 -67.5 -15.5
s-39 -24.5 -54 -42.5s-26.833 -39.333 -35.5 -64s-13 -51.334 -13 -80.001c0 -30 4.5 -57.833 13.5 -83.5s21.5 -47.667 37.5 -66s35.167 -32.666 57.5 -42.999s46.5 -15.5 72.5 -15.5c15.333 0 29 2.16699 41 6.5s27.333 12.833 46 25.5v71h50zM154.002 243
c0 -48 9 -93 27 -135s42.667 -78.833 74 -110.5s68 -56.5 110 -74.5s87 -27 135 -27s93 9 135 27s78.667 42.833 110 74.5s56 68.5 74 110.5s27 87 27 135s-9 93 -27 135s-42.667 78.667 -74 110s-68 56 -110 74s-87 27 -135 27s-93 -9 -135 -27s-78.667 -42.667 -110 -74
s-56 -68 -74 -110s-27 -87 -27 -135zM910.002 243c0 -56.667 -10.667 -110 -32 -160s-50.5 -93.5 -87.5 -130.5s-80.5 -66.333 -130.5 -88s-103.333 -32.5 -160 -32.5s-110 10.833 -160 32.5s-93.5 51 -130.5 88s-66.167 80.5 -87.5 130.5s-32 103.333 -32 160
s10.667 109.834 32 159.501s50.5 93 87.5 130s80.5 66.333 130.5 88s103.333 32.5 160 32.5s110 -10.833 160 -32.5s93.5 -51 130.5 -88s66.167 -80.333 87.5 -130s32 -102.834 32 -159.501z" />
    <glyph glyph-name="ordfeminine" unicode="&#xaa;" horiz-adv-x="889" 
d="M427 605l-33.5 27.001c-9 7.33301 -17.833 13.666 -26.5 18.999s-18 10.5 -28 15.5s-22.333 10.833 -37 17.5c-40 -7.33301 -68.667 -26 -86 -56s-26 -75.333 -26 -136v-49h225v84c0 8.66699 0.166992 16 0.5 22s1 11.833 2 17.5s2.16699 11.5 3.5 17.5s3.33301 13 6 21z
M801 700.001l-55.998 -82l-29 25.5c-8 7 -15.833 13.5 -23.5 19.5s-16.167 11.833 -25.5 17.5l-33 20.5c-27.333 -1.33301 -48.166 -4.5 -62.499 -9.5s-27.833 -14.167 -40.5 -27.5c-8.66699 -9.33301 -15.5 -18.166 -20.5 -26.499s-9 -18 -12 -29s-5 -24.333 -6 -40
s-1.5 -35.5 -1.5 -59.5v-66h206l76 20h19v-426h76v-37h-227v37h76v360h-226v-360h75v-37h-226v37h75v360h-225v-360h75v-37h-226v37h75v360h-87v27l87 22v65c0 32 4.83301 61 14.5 87s23.167 48.167 40.5 66.5s38.5 32.5 63.5 42.5s53.167 15 84.5 15
c12 0 23.333 -0.666992 34 -2s21.5 -3.5 32.5 -6.5s22.833 -7 35.5 -12s27 -11.5 43 -19.5c16 10.667 30.833 19.667 44.5 27s27.167 13.166 40.5 17.499s27.166 7.5 41.499 9.5s30.166 3 47.499 3c11.333 0 21.833 -0.333008 31.5 -1s19.667 -2 30 -4
s21.166 -4.83301 32.499 -8.5s24.333 -8.16699 39 -13.5z" />
    <glyph glyph-name="guillemotleft" unicode="&#xab;" horiz-adv-x="492" 
d="M339 224l119 -151v-42l-232 193l232 192v-41zM139 224l118 -151v-42l-232 193l232 192v-41z" />
    <glyph glyph-name="registered" unicode="&#xae;" horiz-adv-x="1000" 
d="M437 247h61c28 0 50.5 8 67.5 24s25.5 37.333 25.5 64c0 60 -34.667 90 -104 90h-50v-178zM437 206v-169h69v-37h-209v37h70v392h-70v37h198c114.667 0 172 -41.333 172 -124c0 -64 -36.333 -106 -109 -126l93 -159c8 -13.333 19 -20 33 -20h33v-37h-116l-117 206h-47z
M154 229c0 -48 9 -93 27 -135s42.667 -78.667 74 -110s68 -56 110 -74s87 -27 135 -27s93 9 135 27s78.667 42.667 110 74s56 68 74 110s27 87 27 135s-9 93 -27 135s-42.667 78.833 -74 110.5s-68 56.5 -110 74.5s-87 27 -135 27s-93 -9 -135 -27
s-78.667 -42.833 -110 -74.5s-56 -68.5 -74 -110.5s-27 -87 -27 -135zM910 229c0 -56.667 -10.667 -109.834 -32 -159.501s-50.5 -93 -87.5 -130s-80.5 -66.333 -130.5 -88s-103.333 -32.5 -160 -32.5s-110 10.833 -160 32.5s-93.5 51 -130.5 88s-66.167 80.333 -87.5 130
s-32 102.834 -32 159.501s10.667 110 32 160s50.5 93.5 87.5 130.5s80.5 66.333 130.5 88s103.333 32.5 160 32.5s110 -10.833 160 -32.5s93.5 -51 130.5 -88s66.167 -80.5 87.5 -130.5s32 -103.333 32 -160z" />
    <glyph glyph-name="degree" unicode="&#xb0;" horiz-adv-x="333" 
d="M93 547c0 -19.333 7 -36 21 -50s30.667 -21 50 -21c20 0 37 7 51 21s21 30.667 21 50c0 20 -7 37 -21 51s-31 21 -51 21c-19.333 0 -36 -7 -50 -21s-21 -31 -21 -51zM286 547c0 -16.667 -3.16699 -32.334 -9.5 -47.001s-15 -27.5 -26 -38.5s-24 -19.667 -39 -26
s-30.833 -9.5 -47.5 -9.5s-32.334 3.16699 -47.001 9.5s-27.5 15 -38.5 26s-19.667 23.833 -26 38.5s-9.5 30.334 -9.5 47.001s3.16699 32.5 9.5 47.5s15 28 26 39s23.833 19.667 38.5 26s30.334 9.5 47.001 9.5s32.5 -3.16699 47.5 -9.5s28 -15 39 -26s19.667 -24 26 -39
s9.5 -30.833 9.5 -47.5z" />
    <glyph glyph-name="plusminus" unicode="&#xb1;" 
d="M512 0h-474v57h474v-57zM38 249v56h209v169h56v-169h209v-56h-209v-169h-56v169h-209z" />
    <glyph glyph-name="acute" unicode="&#xb4;" horiz-adv-x="333" 
d="M123 529h-54l119 161h93z" />
    <glyph glyph-name="mu" unicode="&#xb5;" horiz-adv-x="620" 
d="M543 478v-503l-479 251z" />
    <glyph glyph-name="mu" unicode="&#x3bc;" horiz-adv-x="620" 
d="M543 478v-503l-479 251z" />
    <glyph glyph-name="paragraph" unicode="&#xb6;" horiz-adv-x="644" 
d="M492 -256l-37 0.000976562v955h-78v-955h-38v501h-50c-31.333 0 -61 6.5 -89 19.5s-52.667 30.667 -74 53s-38.333 48.166 -51 77.499s-19 60.333 -19 93c0 36 6.33301 69.167 19 99.5s30 56.5 52 78.5s48 39.333 78 52s62.667 19 98 19h283l1 -39h-95v-954z" />
    <glyph glyph-name="periodcentered" unicode="&#xb7;" horiz-adv-x="474" 
d="M296 240c0 -16.667 -5.83301 -30.667 -17.5 -42s-25.5 -17 -41.5 -17c-16.667 0 -30.667 5.66699 -42 17s-17 25.333 -17 42c0 16 5.66699 29.833 17 41.5s25.333 17.5 42 17.5c16 0 29.833 -5.83301 41.5 -17.5s17.5 -25.5 17.5 -41.5z" />
    <glyph glyph-name="periodcentered" unicode="&#x2219;" horiz-adv-x="474" 
d="M296 240c0 -16.667 -5.83301 -30.667 -17.5 -42s-25.5 -17 -41.5 -17c-16.667 0 -30.667 5.66699 -42 17s-17 25.333 -17 42c0 16 5.66699 29.833 17 41.5s25.333 17.5 42 17.5c16 0 29.833 -5.83301 41.5 -17.5s17.5 -25.5 17.5 -41.5z" />
    <glyph glyph-name="ordmasculine" unicode="&#xba;" horiz-adv-x="883" 
d="M712 443v203.001c-9.33301 8 -17.5 14.5 -24.5 19.5s-13.833 9.5 -20.5 13.5s-14 7.66699 -22 11s-17.333 7 -28 11c-24.667 -2.66699 -45.334 -7.83398 -62.001 -15.501s-30.167 -19 -40.5 -34s-17.666 -34 -21.999 -57s-6.5 -50.833 -6.5 -83.5v-68h226zM422 616.001
l-31.498 22.499c-9 6.33301 -18 11.833 -27 16.5s-18.667 9.16699 -29 13.5l-37.5 15.5c-21.333 -6 -39.333 -13.5 -54 -22.5s-26.334 -20.333 -35.001 -34s-14.834 -30.167 -18.501 -49.5s-5.5 -42.333 -5.5 -69v-66h226v85c0 8.66699 0.166992 16.334 0.5 23.001
s1 13.167 2 19.5s2.16699 13 3.5 20s3.33301 15.5 6 25.5zM614.002 739c16.667 0 31.833 -1.33398 45.5 -4.00098s31.167 -7.66699 52.5 -15l56 17h19v-700h76v-37h-227v37h76v360h-226v-360h75v-37h-226v37h75v360h-226v-360h76v-37h-227v37h76v360h-87v27l87 22v82
c0 28 5 54 15 78s24 44.5 42 61.5s39.333 30.333 64 40s51.667 14.5 81 14.5c26 0 49.833 -3.16699 71.5 -9.5s46.167 -17.166 73.5 -32.499c26.667 22 51.667 37.333 75 46s51 13 83 13z" />
    <glyph glyph-name="guillemotright" unicode="&#xbb;" horiz-adv-x="500" 
d="M157 224l-119 151v41l232 -192l-232 -193v42zM357 224l-119 151v41l233 -192l-233 -193v42z" />
    <glyph glyph-name="questiondown" unicode="&#xbf;" horiz-adv-x="409" 
d="M211 433c-0.666992 16 4.66699 29.832 16 41.499s25.333 17.5 42 17.5c15.333 0 28.666 -5.66699 39.999 -17s17 -25 17 -41c0 -15.333 -5.66699 -28.666 -17 -39.999s-24.666 -17 -39.999 -17c-16 0 -29.5 5.5 -40.5 16.5s-16.833 24.167 -17.5 39.5zM263.001 287.999
l25.001 -0.000976562v-176h-165c-6.66699 -12 -10.834 -21.667 -12.501 -29s-2.5 -18.666 -2.5 -33.999c0 -32 7 -61.333 21 -88s33.333 -47.667 58 -63c10 -6.66699 19.167 -12.334 27.5 -17.001s17.333 -8.83398 27 -12.501s20.834 -7.16699 33.501 -10.5
s28.667 -7.33301 48 -12l-35 -102c-35.333 10 -67.333 24.333 -96 43s-53 40.834 -73 66.501s-35.5 54.334 -46.5 86.001s-16.5 65.167 -16.5 100.5c0 44 10.667 78.667 32 104s50.666 38 87.999 38h61z" />
    <glyph glyph-name="Agrave" unicode="&#xc0;" horiz-adv-x="672" 
d="M428 265l-107 281l-113 -281h220zM366 713l-166 115h107l114 -115h-55zM663 0h-228v37h80l-70 180l-256 1l-73 -180h83v-38h-191v38h52l260 643h36l250 -643h57v-38z" />
    <glyph glyph-name="Aacute" unicode="&#xc1;" horiz-adv-x="672" 
d="M428 265l-107 281l-113 -281h220zM303 718h-56l115 115h107zM663 0h-228v37h80l-70 180l-256 1l-73 -180h83v-38h-191v38h52l260 643h36l250 -643h57v-38z" />
    <glyph glyph-name="Acircumflex" unicode="&#xc2;" horiz-adv-x="672" 
d="M428 265l-107 281l-113 -281h220zM425 701l-85 59l-86 -59h-48l112 112h44l107 -112h-44zM663 0h-228v37h80l-70 180l-256 1l-73 -180h83v-38h-191v38h52l260 643h36l250 -643h57v-38z" />
    <glyph glyph-name="Atilde" unicode="&#xc3;" horiz-adv-x="672" 
d="M428 265l-107 281l-113 -281h220zM246 757c-16 0 -30.6699 -2.49902 -44.0029 -7.49902s-28.333 -13.5 -45 -25.5l-21 21c19.333 19.333 40.5 34 63.5 44s46.833 15 71.5 15c10 0 20.333 -0.833008 31 -2.5s18.667 -3.5 24 -5.5l45 -20c22 -10 46 -15 72 -15
c9.33301 0 17.333 0.333008 24 1s13 2.16699 19 4.5s12.333 5.5 19 9.5s15 9.66699 25 17l23 -18c-22 -21.333 -44.167 -36.5 -66.5 -45.5s-49.166 -13.5 -80.499 -13.5c-18.667 0 -34.667 1.5 -48 4.5s-27.666 8.16699 -42.999 15.5
c-10.667 4.66699 -19.167 8.5 -25.5 11.5s-11.666 5.16699 -15.999 6.5s-8.5 2.16602 -12.5 2.49902s-9 0.5 -15 0.5zM662.997 0.000976562h-228v37h80l-70 180l-256 1l-73 -180h83v-38h-191v38h52l260 643h36l250 -643h57v-38z" />
    <glyph glyph-name="Adieresis" unicode="&#xc4;" horiz-adv-x="672" 
d="M428 265l-107 281l-113 -281h220zM307 753c0 -13.333 -5 -25 -15 -35s-21.667 -15 -35 -15c-14 0 -26 5 -36 15s-15 21.667 -15 35c0 14 5 26 15 36s22 15 36 15c13.333 0 25 -5 35 -15s15 -22 15 -36zM473 753c0 -13.333 -5 -25 -15 -35s-21.667 -15 -35 -15
c-14 0 -26 5 -36 15s-15 21.667 -15 35c0 14 5 26 15 36s22 15 36 15c13.333 0 25 -5 35 -15s15 -22 15 -36zM663 0h-228v37h80l-70 180l-256 1l-73 -180h83v-38h-191v38h52l260 643h36l250 -643h57v-38z" />
    <glyph glyph-name="Aring" unicode="&#xc5;" horiz-adv-x="672" 
d="M291 790c0 -12.667 4.5 -23.5 13.5 -32.5s19.833 -13.5 32.5 -13.5c13.333 0 24.333 4.5 33 13.5s13 19.833 13 32.5c0 13.333 -4.33301 24.5 -13 33.5s-19.667 13.5 -33 13.5c-12.667 0 -23.5 -4.5 -32.5 -13.5s-13.5 -20.167 -13.5 -33.5zM428 265l-107 281l-113 -281
h220zM417 790c0 -22 -7.83301 -40.667 -23.5 -56s-34.5 -23 -56.5 -23s-40.833 7.66699 -56.5 23s-23.5 34 -23.5 56s7.83301 40.833 23.5 56.5s34.5 23.5 56.5 23.5s40.833 -7.83301 56.5 -23.5s23.5 -34.5 23.5 -56.5zM663 0h-228v37h80l-70 180l-256 1l-73 -180h83v-38
h-191v38h52l260 643h36l250 -643h57v-38z" />
    <glyph glyph-name="AE" unicode="&#xc6;" horiz-adv-x="867" 
d="M426 263v356l-189 -356h189zM808 0h-457v37h75v180h-212l-96 -180h80v-37h-190v37h45l316 586h-64v37h447v23h47v-157h-47v84h-239v-255h192v76h46v-195h-46v74h-192v-264h248v86h47v-132z" />
    <glyph glyph-name="Ccedilla" unicode="&#xc7;" horiz-adv-x="642" 
d="M616 28c-42.667 -14.667 -79.4951 -25.1689 -110.495 -31.502s-62.833 -9.5 -95.5 -9.5l-39 -47c30 -12 50.167 -23.667 60.5 -35s15.5 -27 15.5 -47c0 -12.667 -3 -24.667 -9 -36s-14.333 -21.166 -25 -29.499s-23.334 -14.833 -38.001 -19.5s-30.334 -7 -47.001 -7
c-14.667 0 -27 1.33301 -37 4l-12 3l-21 5c-2 0.666992 -4.5 1.16699 -7.5 1.5s-6.5 1.16602 -10.5 2.49902l27 53c23.333 -21.333 47.666 -32 72.999 -32c12 0 21.833 4.16699 29.5 12.5s11.5 18.833 11.5 31.5c0 18 -6 31.833 -18 41.5s-33 17.5 -63 23.5l71 77
c-49.333 5.33301 -93.833 17.166 -133.5 35.499s-73.5 42.333 -101.5 72s-49.667 64 -65 103s-23 82.167 -23 129.5c0 49.333 8.66699 95 26 137s41.5 78.167 72.5 108.5s67.833 54.166 110.5 71.499s89 26 139 26c18 0 34.5 -0.666992 49.5 -2
s29.167 -3.66602 42.5 -6.99902s26.666 -7.83301 39.999 -13.5s27 -12.5 41 -20.5v44h46v-168h-47v48c-16 13.333 -30.667 24.333 -44 33s-26.333 15.667 -39 21s-25.667 9 -39 11s-28.333 3 -45 3c-38 0 -72.667 -7 -104 -21s-58 -33.5 -80 -58.5s-39.167 -55 -51.5 -90
s-18.5 -73.833 -18.5 -116.5c0 -45.333 7.16699 -86.666 21.5 -123.999s34.833 -68.666 61.5 -93.999c25.333 -23.333 55 -42.166 89 -56.499s67 -21.5 99 -21.5c12 0 23.667 0.833008 35 2.5s22.666 4.5 33.999 8.5s23.5 9.16699 36.5 15.5s27.5 14.5 43.5 24.5v70h49v-132
z" />
    <glyph glyph-name="Egrave" unicode="&#xc8;" horiz-adv-x="581" 
d="M325 717l-166 115h107l114 -115h-55zM522 0h-455v37h75v586h-75v37h399v28h46v-159h-45v85h-237v-256h189v75l46 1v-197l-46 -1v77h-189v-268h246v88h46v-133z" />
    <glyph glyph-name="Eacute" unicode="&#xc9;" horiz-adv-x="581" 
d="M292 709h-56l115 115h107zM522 0h-455v37h75v586h-75v37h399v28h46v-159h-45v85h-237v-256h189v75l46 1v-197l-46 -1v77h-189v-268h246v88h46v-133z" />
    <glyph glyph-name="Ecircumflex" unicode="&#xca;" horiz-adv-x="581" 
d="M381 723l-86 59l-85 -59h-49l112 112h44l107 -112h-43zM522 0h-455v37h75v586h-75v37h399v28h46v-159h-45v85h-237v-256h189v75l46 1v-197l-46 -1v77h-189v-268h246v88h46v-133z" />
    <glyph glyph-name="Edieresis" unicode="&#xcb;" horiz-adv-x="581" 
d="M232 766c0 -13.333 -5 -25 -15 -35s-21.667 -15 -35 -15c-14 0 -26 5 -36 15s-15 21.667 -15 35c0 14 5 26 15 36s22 15 36 15c13.333 0 25 -5 35 -15s15 -22 15 -36zM427 766c0 -13.333 -5 -25 -15 -35s-21.667 -15 -35 -15c-14 0 -26 5 -36 15s-15 21.667 -15 35
c0 14 5 26 15 36s22 15 36 15c13.333 0 25 -5 35 -15s15 -22 15 -36zM522 0h-455v37h75v586h-75v37h399v28h46v-159h-45v85h-237v-256h189v75l46 1v-197l-46 -1v77h-189v-268h246v88h46v-133z" />
    <glyph glyph-name="Igrave" unicode="&#xcc;" horiz-adv-x="372" 
d="M201 714l-137 115h96l85 -115h-44zM305 0h-238v37h75v586h-75v37h238v-37h-75v-586h75v-37z" />
    <glyph glyph-name="Iacute" unicode="&#xcd;" horiz-adv-x="372" 
d="M182 710h-44l86 115h95zM305 0h-238v37h75v586h-75v37h238v-37h-75v-586h75v-37z" />
    <glyph glyph-name="Icircumflex" unicode="&#xce;" horiz-adv-x="372" 
d="M275 701l-86 59l-85 -59h-49l113 112h43l107 -112h-43zM305 0h-238v37h75v586h-75v37h238v-37h-75v-586h75v-37z" />
    <glyph glyph-name="Idieresis" unicode="&#xcf;" horiz-adv-x="372" 
d="M161 758c0 -13.333 -4.83301 -25 -14.5 -35s-21.5 -15 -35.5 -15s-25.833 5 -35.5 15s-14.5 21.667 -14.5 35c0 14 4.83301 26 14.5 36s21.5 15 35.5 15s25.833 -5 35.5 -15s14.5 -22 14.5 -36zM313 758c0 -13.333 -4.83301 -25 -14.5 -35s-21.5 -15 -35.5 -15
s-25.833 5 -35.5 15s-14.5 21.667 -14.5 35c0 14 4.83301 26 14.5 36s21.5 15 35.5 15s25.833 -5 35.5 -15s14.5 -22 14.5 -36zM305 0h-238v37h75v586h-75v37h238v-37h-75v-586h75v-37z" />
    <glyph glyph-name="Ntilde" unicode="&#xd1;" horiz-adv-x="737" 
d="M263 745c-16 0 -30.6689 -2.49902 -44.002 -7.49902s-28.666 -13.5 -45.999 -25.5l-20 21c39.333 39.333 84 59 134 59c10.667 0 21.334 -0.833008 32.001 -2.5s18.667 -3.5 24 -5.5l44 -20c22.667 -10 47 -15 73 -15c9.33301 0 17.333 0.333008 24 1s13 2.16699 19 4.5
s12.333 5.5 19 9.5s15 9.66699 25 17l23 -18c-22 -21.333 -44.167 -36.5 -66.5 -45.5s-49.166 -13.5 -80.499 -13.5c-19.333 0 -35.5 1.5 -48.5 4.5s-27.5 8.16699 -43.5 15.5c-10.667 4.66699 -19 8.5 -25 11.5s-11.333 5.16699 -16 6.5s-8.83398 2.16602 -12.501 2.49902
s-8.5 0.5 -14.5 0.5zM610.998 -10.999h-31l-384 528v-480h76v-37h-202v37h76v548l-27 38h-69v37h145l366 -502v465h-76v37h201v-37h-75v-634z" />
    <glyph glyph-name="Ograve" unicode="&#xd2;" horiz-adv-x="743" 
d="M374 620c-32.667 0 -62.832 -7.16895 -90.499 -21.502s-51.5 -34.333 -71.5 -60s-35.5 -56.167 -46.5 -91.5s-16.5 -74.333 -16.5 -117c0 -42 5.5 -80.833 16.5 -116.5s26.5 -66.5 46.5 -92.5s43.667 -46.167 71 -60.5s57.333 -21.5 90 -21.5c32 0 61.5 7.33301 88.5 22
s50.333 34.834 70 60.501s35 56.334 46 92.001s16.5 74.5 16.5 116.5s-5.5 80.667 -16.5 116s-26.333 66 -46 92s-42.834 46.167 -69.501 60.5s-56 21.5 -88 21.5zM381.002 719.998l-192 102h115l140 -102h-63zM373.002 -13.002c-44 0 -85.499 9.16406 -124.499 27.4971
s-73.333 43 -103 74s-53 67.167 -70 108.5s-25.5 85.333 -25.5 132s8.5 90.834 25.5 132.501s40.167 78.167 69.5 109.5s63.666 56 102.999 74s81 27 125 27c43.333 0 84.5 -9.16699 123.5 -27.5s73 -43 102 -74s52 -67.167 69 -108.5s25.5 -85.333 25.5 -132
s-8.5 -90.667 -25.5 -132s-40 -77.666 -69 -108.999s-63 -56.166 -102 -74.499s-80.167 -27.5 -123.5 -27.5z" />
    <glyph glyph-name="Oacute" unicode="&#xd3;" horiz-adv-x="743" 
d="M374 620c-32.667 0 -62.832 -7.16895 -90.499 -21.502s-51.5 -34.333 -71.5 -60s-35.5 -56.167 -46.5 -91.5s-16.5 -74.333 -16.5 -117c0 -42 5.5 -80.833 16.5 -116.5s26.5 -66.5 46.5 -92.5s43.667 -46.167 71 -60.5s57.333 -21.5 90 -21.5c32 0 61.5 7.33301 88.5 22
s50.333 34.834 70 60.501s35 56.334 46 92.001s16.5 74.5 16.5 116.5s-5.5 80.667 -16.5 116s-26.333 66 -46 92s-42.834 46.167 -69.501 60.5s-56 21.5 -88 21.5zM345.002 719.998h-63l140 102h115zM373.002 -13.002c-44 0 -85.499 9.16406 -124.499 27.4971
s-73.333 43 -103 74s-53 67.167 -70 108.5s-25.5 85.333 -25.5 132s8.5 90.834 25.5 132.501s40.167 78.167 69.5 109.5s63.666 56 102.999 74s81 27 125 27c43.333 0 84.5 -9.16699 123.5 -27.5s73 -43 102 -74s52 -67.167 69 -108.5s25.5 -85.333 25.5 -132
s-8.5 -90.667 -25.5 -132s-40 -77.666 -69 -108.999s-63 -56.166 -102 -74.499s-80.167 -27.5 -123.5 -27.5z" />
    <glyph glyph-name="Ocircumflex" unicode="&#xd4;" horiz-adv-x="743" 
d="M374 620c-32.667 0 -62.832 -7.16895 -90.499 -21.502s-51.5 -34.333 -71.5 -60s-35.5 -56.167 -46.5 -91.5s-16.5 -74.333 -16.5 -117c0 -42 5.5 -80.833 16.5 -116.5s26.5 -66.5 46.5 -92.5s43.667 -46.167 71 -60.5s57.333 -21.5 90 -21.5c32 0 61.5 7.33301 88.5 22
s50.333 34.834 70 60.501s35 56.334 46 92.001s16.5 74.5 16.5 116.5s-5.5 80.667 -16.5 116s-26.333 66 -46 92s-42.834 46.167 -69.501 60.5s-56 21.5 -88 21.5zM458.002 708.998l-85 59l-86 -59h-48l112 112h44l107 -112h-44zM373.002 -13.002
c-44 0 -85.499 9.16406 -124.499 27.4971s-73.333 43 -103 74s-53 67.167 -70 108.5s-25.5 85.333 -25.5 132s8.5 90.834 25.5 132.501s40.167 78.167 69.5 109.5s63.666 56 102.999 74s81 27 125 27c43.333 0 84.5 -9.16699 123.5 -27.5s73 -43 102 -74
s52 -67.167 69 -108.5s25.5 -85.333 25.5 -132s-8.5 -90.667 -25.5 -132s-40 -77.666 -69 -108.999s-63 -56.166 -102 -74.499s-80.167 -27.5 -123.5 -27.5z" />
    <glyph glyph-name="Otilde" unicode="&#xd5;" horiz-adv-x="743" 
d="M374 620c-32.667 0 -62.832 -7.16895 -90.499 -21.502s-51.5 -34.333 -71.5 -60s-35.5 -56.167 -46.5 -91.5s-16.5 -74.333 -16.5 -117c0 -42 5.5 -80.833 16.5 -116.5s26.5 -66.5 46.5 -92.5s43.667 -46.167 71 -60.5s57.333 -21.5 90 -21.5c32 0 61.5 7.33301 88.5 22
s50.333 34.834 70 60.501s35 56.334 46 92.001s16.5 74.5 16.5 116.5s-5.5 80.667 -16.5 116s-26.333 66 -46 92s-42.834 46.167 -69.501 60.5s-56 21.5 -88 21.5zM267.002 757.998c-16 0 -30.668 -2.49902 -44.001 -7.49902s-28.333 -13.5 -45 -25.5l-21 21
c39.333 39.333 84 59 134 59c10.667 0 21.334 -0.833008 32.001 -2.5s18.667 -3.5 24 -5.5l44 -20c22.667 -10 47 -15 73 -15c9.33301 0 17.333 0.333008 24 1s13 2.16699 19 4.5s12.333 5.5 19 9.5s15 9.66699 25 17l23 -18c-22 -21.333 -44.167 -36.5 -66.5 -45.5
s-49.166 -13.5 -80.499 -13.5c-18.667 0 -34.667 1.5 -48 4.5s-28 8.16699 -44 15.5c-10.667 4.66699 -19 8.5 -25 11.5s-11.333 5.16699 -16 6.5s-8.83398 2.16602 -12.501 2.49902s-8.5 0.5 -14.5 0.5zM373.001 -13.001c-44 0 -85.499 9.16406 -124.499 27.4971
s-73.333 43 -103 74s-53 67.167 -70 108.5s-25.5 85.333 -25.5 132s8.5 90.834 25.5 132.501s40.167 78.167 69.5 109.5s63.666 56 102.999 74s81 27 125 27c43.333 0 84.5 -9.16699 123.5 -27.5s73 -43 102 -74s52 -67.167 69 -108.5s25.5 -85.333 25.5 -132
s-8.5 -90.667 -25.5 -132s-40 -77.666 -69 -108.999s-63 -56.166 -102 -74.499s-80.167 -27.5 -123.5 -27.5z" />
    <glyph glyph-name="Odieresis" unicode="&#xd6;" horiz-adv-x="743" 
d="M374 620c-32.667 0 -62.832 -7.16895 -90.499 -21.502s-51.5 -34.333 -71.5 -60s-35.5 -56.167 -46.5 -91.5s-16.5 -74.333 -16.5 -117c0 -42 5.5 -80.833 16.5 -116.5s26.5 -66.5 46.5 -92.5s43.667 -46.167 71 -60.5s57.333 -21.5 90 -21.5c32 0 61.5 7.33301 88.5 22
s50.333 34.834 70 60.501s35 56.334 46 92.001s16.5 74.5 16.5 116.5s-5.5 80.667 -16.5 116s-26.333 66 -46 92s-42.834 46.167 -69.501 60.5s-56 21.5 -88 21.5zM305.002 754.998c0 -13.333 -5 -25 -15 -35s-22 -15 -36 -15c-13.333 0 -25 5 -35 15s-15 21.667 -15 35
c0 14 5 26 15 36s21.667 15 35 15c14 0 26 -5 36 -15s15 -22 15 -36zM542.002 754.998c0 -13.333 -5 -25 -15 -35s-21.667 -15 -35 -15c-14 0 -26 5 -36 15s-15 21.667 -15 35c0 14 5 26 15 36s22 15 36 15c13.333 0 25 -5 35 -15s15 -22 15 -36zM373.002 -13.002
c-44 0 -85.499 9.16406 -124.499 27.4971s-73.333 43 -103 74s-53 67.167 -70 108.5s-25.5 85.333 -25.5 132s8.5 90.834 25.5 132.501s40.167 78.167 69.5 109.5s63.666 56 102.999 74s81 27 125 27c43.333 0 84.5 -9.16699 123.5 -27.5s73 -43 102 -74
s52 -67.167 69 -108.5s25.5 -85.333 25.5 -132s-8.5 -90.667 -25.5 -132s-40 -77.666 -69 -108.999s-63 -56.166 -102 -74.499s-80.167 -27.5 -123.5 -27.5z" />
    <glyph glyph-name="Oslash" unicode="&#xd8;" horiz-adv-x="749" 
d="M216 119c22.667 -28 46.667 -48.167 72 -60.5s54 -18.5 86 -18.5s61.833 7.33301 89.5 22s51.5 34.834 71.5 60.501s35.667 56.167 47 91.5s17 73.666 17 114.999c0 34 -3.33301 64.5 -10 91.5s-18 56.5 -34 88.5zM148 333c0 -34 3.5 -65.334 10.5 -94.001
s18.167 -58 33.5 -88l340 392c-42 52 -95.333 78 -160 78c-32 0 -61.667 -7.16699 -89 -21.5s-51 -34.333 -71 -60s-35.667 -56.167 -47 -91.5s-17 -73.666 -17 -114.999zM40 -24.001l102.002 116.999c-32 35.333 -55.5 72 -70.5 110s-22.5 80.333 -22.5 127
c0 47.333 8.5 91.666 25.5 132.999s40.167 77.5 69.5 108.5s63.666 55.5 102.999 73.5s81.333 27 126 27c77.333 0 145.666 -25.667 204.999 -77l102 117l29 -26l-103 -118c32 -38 55.333 -76 70 -114s22 -79.667 22 -125c0 -46 -8.66699 -89.667 -26 -131
s-40.833 -77.666 -70.5 -108.999s-64 -56.166 -103 -74.499s-80.167 -27.5 -123.5 -27.5c-40 0 -76.5 6.33301 -109.5 19s-64.833 33 -95.5 61l-101 -116z" />
    <glyph glyph-name="Ugrave" unicode="&#xd9;" horiz-adv-x="780" 
d="M403 706l-166 115h107l115 -115h-56zM729 623l-75.002 -0.000976562v-381c0 -54 -9.66699 -98.667 -29 -134s-50 -64.333 -92 -87c-43.333 -22.667 -89.666 -34 -138.999 -34c-36 0 -69.5 5.66699 -100.5 17s-57.667 27.166 -80 47.499s-39.833 44.333 -52.5 72
s-19 57.834 -19 90.501v409h-75v37h238v-37h-75v-378c0 -30 4.33301 -57.333 13 -82s20.834 -45.834 36.501 -63.501s34.667 -31.167 57 -40.5s47.5 -14 75.5 -14c28.667 0 54.667 4.83301 78 14.5s43.333 23.334 60 41.001s29.667 38.834 39 63.501s14 52 14 82v377h-75v37
h201v-37z" />
    <glyph glyph-name="Uacute" unicode="&#xda;" horiz-adv-x="780" 
d="M405 697h-55l115 115h107zM729 623l-75.002 -0.000976562v-381c0 -54 -9.66699 -98.667 -29 -134s-50 -64.333 -92 -87c-43.333 -22.667 -89.666 -34 -138.999 -34c-36 0 -69.5 5.66699 -100.5 17s-57.667 27.166 -80 47.499s-39.833 44.333 -52.5 72
s-19 57.834 -19 90.501v409h-75v37h238v-37h-75v-378c0 -30 4.33301 -57.333 13 -82s20.834 -45.834 36.501 -63.501s34.667 -31.167 57 -40.5s47.5 -14 75.5 -14c28.667 0 54.667 4.83301 78 14.5s43.333 23.334 60 41.001s29.667 38.834 39 63.501s14 52 14 82v377h-75v37
h201v-37z" />
    <glyph glyph-name="Ucircumflex" unicode="&#xdb;" horiz-adv-x="780" 
d="M502 708l-85 59l-86 -59h-48l112 112h44l107 -112h-44zM729 623l-75.002 -0.000976562v-381c0 -54 -9.66699 -98.667 -29 -134s-50 -64.333 -92 -87c-43.333 -22.667 -89.666 -34 -138.999 -34c-36 0 -69.5 5.66699 -100.5 17s-57.667 27.166 -80 47.499
s-39.833 44.333 -52.5 72s-19 57.834 -19 90.501v409h-75v37h238v-37h-75v-378c0 -30 4.33301 -57.333 13 -82s20.834 -45.834 36.501 -63.501s34.667 -31.167 57 -40.5s47.5 -14 75.5 -14c28.667 0 54.667 4.83301 78 14.5s43.333 23.334 60 41.001
s29.667 38.834 39 63.501s14 52 14 82v377h-75v37h201v-37z" />
    <glyph glyph-name="Udieresis" unicode="&#xdc;" horiz-adv-x="780" 
d="M336 757c0 -13.333 -4.83301 -25 -14.5 -35s-21.5 -15 -35.5 -15s-25.833 5 -35.5 15s-14.5 21.667 -14.5 35c0 14 4.83301 26 14.5 36s21.5 15 35.5 15s25.833 -5 35.5 -15s14.5 -22 14.5 -36zM564 757c0 -13.333 -5 -25 -15 -35s-22 -15 -36 -15
c-13.333 0 -25 5 -35 15s-15 21.667 -15 35c0 14 5 26 15 36s21.667 15 35 15c14 0 26 -5 36 -15s15 -22 15 -36zM729 623l-75.002 -0.000976562v-381c0 -54 -9.66699 -98.667 -29 -134s-50 -64.333 -92 -87c-43.333 -22.667 -89.666 -34 -138.999 -34
c-36 0 -69.5 5.66699 -100.5 17s-57.667 27.166 -80 47.499s-39.833 44.333 -52.5 72s-19 57.834 -19 90.501v409h-75v37h238v-37h-75v-378c0 -30 4.33301 -57.333 13 -82s20.834 -45.834 36.501 -63.501s34.667 -31.167 57 -40.5s47.5 -14 75.5 -14
c28.667 0 54.667 4.83301 78 14.5s43.333 23.334 60 41.001s29.667 38.834 39 63.501s14 52 14 82v377h-75v37h201v-37z" />
    <glyph glyph-name="germandbls" unicode="&#xdf;" horiz-adv-x="605" 
d="M184 0l-151 -0.000976562v37h76v360h-87v27l87 22v81c0 30.667 4.66699 59 14 85s22.5 48.333 39.5 67s37.167 33.334 60.5 44.001s48.666 16 75.999 16c25.333 0 49.666 -4.5 72.999 -13.5s44 -20.833 62 -35.5s32.5 -31.667 43.5 -51s16.5 -39.333 16.5 -60
c0 -19.333 -5.33301 -38.166 -16 -56.499s-25 -33.5 -43 -45.5l-62 -42c-16.667 -11.333 -29.667 -24.666 -39 -39.999s-14 -31 -14 -47c0 -10.667 1.33301 -19.667 4 -27s8 -14.333 16 -21s19.333 -13.334 34 -20.001s34 -14.334 58 -23.001c44 -16 75.5 -34.5 94.5 -55.5
s28.5 -47.833 28.5 -80.5c0 -42 -15.333 -74.833 -46 -98.5s-73 -35.5 -127 -35.5c-32 0 -59.667 3.66699 -83 11s-47 19.666 -71 36.999l48 61c18.667 -26.667 36.5 -45.167 53.5 -55.5s37.5 -15.5 61.5 -15.5c28 0 51.667 7.5 71 22.5s29 33.167 29 54.5
c0 10 -1.33301 18.5 -4 25.5s-8.16699 13.667 -16.5 20s-20.166 13.333 -35.499 21s-36 16.834 -62 27.501c-44 18 -74.833 36.667 -92.5 56s-26.5 44 -26.5 74c0 14.667 1.33301 27.5 4 38.5s7.66699 22 15 33s17.5 22.5 30.5 34.5s30.167 26.333 51.5 43
c23.333 18.667 39.5 35.167 48.5 49.5s13.5 31.5 13.5 51.5c0 30 -9.66699 55.167 -29 75.5s-50.666 37.5 -93.999 51.5c-22.667 -6 -41.167 -13 -55.5 -21s-25.5 -19.333 -33.5 -34s-13.5 -33 -16.5 -55s-4.5 -50 -4.5 -84v-509z" />
    <glyph glyph-name="agrave" unicode="&#xe0;" horiz-adv-x="457" 
d="M285 205l-170.999 -40.001v-50c0 -21.333 6.16699 -38.166 18.5 -50.499s29.166 -18.5 50.499 -18.5c16 0 31.5 4 46.5 12s33.5 21.667 55.5 41v106zM229.001 528.999l-159 161h93l119 -161h-53zM437.001 18.999l-67 -20.998c-6.66699 -2 -13.167 -3.66699 -19.5 -5
s-11.5 -2 -15.5 -2c-15.333 0 -27.333 5.16699 -36 15.5s-13 24.833 -13 43.5v10c-21.333 -26 -42.166 -44.667 -62.499 -56s-43.833 -17 -70.5 -17c-34.667 0 -63.334 10.667 -86.001 32s-34 49 -34 83c0 25.333 7.5 47.666 22.5 66.999s34.5 31.666 58.5 36.999l171 39
v113c0 20 -6.66699 36.5 -20 49.5s-30 19.5 -50 19.5c-10 0 -19.167 -1 -27.5 -3s-19.833 -6.66699 -34.5 -14v-48l-89 -26c-3.33301 6 -5.5 10.833 -6.5 14.5s-1.5 8.16699 -1.5 13.5c0 14.667 4 28.167 12 40.5s19 23 33 32s30.667 16 50 21s40.333 7.5 63 7.5
c44 0 79.333 -10 106 -30s40 -46.667 40 -80v-308h77v-28z" />
    <glyph glyph-name="aacute" unicode="&#xe1;" horiz-adv-x="457" 
d="M285 205l-170.999 -40.001v-50c0 -21.333 6.16699 -38.166 18.5 -50.499s29.166 -18.5 50.499 -18.5c16 0 31.5 4 46.5 12s33.5 21.667 55.5 41v106zM186.001 528.999h-53l119 161h93zM437.001 18.999l-67 -20.998c-6.66699 -2 -13.167 -3.66699 -19.5 -5
s-11.5 -2 -15.5 -2c-15.333 0 -27.333 5.16699 -36 15.5s-13 24.833 -13 43.5v10c-21.333 -26 -42.166 -44.667 -62.499 -56s-43.833 -17 -70.5 -17c-34.667 0 -63.334 10.667 -86.001 32s-34 49 -34 83c0 25.333 7.5 47.666 22.5 66.999s34.5 31.666 58.5 36.999l171 39
v113c0 20 -6.66699 36.5 -20 49.5s-30 19.5 -50 19.5c-10 0 -19.167 -1 -27.5 -3s-19.833 -6.66699 -34.5 -14v-48l-89 -26c-3.33301 6 -5.5 10.833 -6.5 14.5s-1.5 8.16699 -1.5 13.5c0 14.667 4 28.167 12 40.5s19 23 33 32s30.667 16 50 21s40.333 7.5 63 7.5
c44 0 79.333 -10 106 -30s40 -46.667 40 -80v-308h77v-28z" />
    <glyph glyph-name="acircumflex" unicode="&#xe2;" horiz-adv-x="457" 
d="M285 205l-170.999 -40.001v-50c0 -21.333 6.16699 -38.166 18.5 -50.499s29.166 -18.5 50.499 -18.5c16 0 31.5 4 46.5 12s33.5 21.667 55.5 41v106zM304.001 528.999l-86 88l-85 -88h-49l112 165h44l107 -165h-43zM437.001 18.999l-67 -20.998
c-6.66699 -2 -13.167 -3.66699 -19.5 -5s-11.5 -2 -15.5 -2c-15.333 0 -27.333 5.16699 -36 15.5s-13 24.833 -13 43.5v10c-21.333 -26 -42.166 -44.667 -62.499 -56s-43.833 -17 -70.5 -17c-34.667 0 -63.334 10.667 -86.001 32s-34 49 -34 83
c0 25.333 7.5 47.666 22.5 66.999s34.5 31.666 58.5 36.999l171 39v113c0 20 -6.66699 36.5 -20 49.5s-30 19.5 -50 19.5c-10 0 -19.167 -1 -27.5 -3s-19.833 -6.66699 -34.5 -14v-48l-89 -26c-3.33301 6 -5.5 10.833 -6.5 14.5s-1.5 8.16699 -1.5 13.5
c0 14.667 4 28.167 12 40.5s19 23 33 32s30.667 16 50 21s40.333 7.5 63 7.5c44 0 79.333 -10 106 -30s40 -46.667 40 -80v-308h77v-28z" />
    <glyph glyph-name="atilde" unicode="&#xe3;" horiz-adv-x="457" 
d="M285 205l-170.999 -40.001v-50c0 -21.333 6.16699 -38.166 18.5 -50.499s29.166 -18.5 50.499 -18.5c16 0 31.5 4 46.5 12s33.5 21.667 55.5 41v106zM136.001 571.999c-13.333 0 -25.667 -2.83105 -37 -8.49805s-24.333 -15.5 -39 -29.5l-24 17
c21.333 28 41.5 47.833 60.5 59.5s39.5 17.5 61.5 17.5c8.66699 0 17.5 -0.833008 26.5 -2.5s15.5 -4.16699 19.5 -7.5l38 -23c18.667 -12 39.334 -18 62.001 -18c8 0 14.833 0.333008 20.5 1s11 2.33398 16 5.00098s10.333 6.5 16 11.5s12.834 11.833 21.501 20.5l25 -16
c-12 -14.667 -23.167 -26.834 -33.5 -36.501s-20.333 -17.334 -30 -23.001s-19.834 -9.66699 -30.501 -12s-22.667 -3.5 -36 -3.5c-16 0 -29.833 1.66699 -41.5 5s-24.167 9.66602 -37.5 18.999c-8.66699 6 -15.5 10.5 -20.5 13.5s-9.5 5.33301 -13.5 7
s-7.83301 2.66699 -11.5 3s-7.83398 0.5 -12.501 0.5zM437 19.001l-67 -20.998c-6.66699 -2 -13.167 -3.66699 -19.5 -5s-11.5 -2 -15.5 -2c-15.333 0 -27.333 5.16699 -36 15.5s-13 24.833 -13 43.5v10c-21.333 -26 -42.166 -44.667 -62.499 -56s-43.833 -17 -70.5 -17
c-34.667 0 -63.334 10.667 -86.001 32s-34 49 -34 83c0 25.333 7.5 47.666 22.5 66.999s34.5 31.666 58.5 36.999l171 39v113c0 20 -6.66699 36.5 -20 49.5s-30 19.5 -50 19.5c-10 0 -19.167 -1 -27.5 -3s-19.833 -6.66699 -34.5 -14v-48l-89 -26
c-3.33301 6 -5.5 10.833 -6.5 14.5s-1.5 8.16699 -1.5 13.5c0 14.667 4 28.167 12 40.5s19 23 33 32s30.667 16 50 21s40.333 7.5 63 7.5c44 0 79.333 -10 106 -30s40 -46.667 40 -80v-308h77v-28z" />
    <glyph glyph-name="adieresis" unicode="&#xe4;" horiz-adv-x="457" 
d="M285 205l-170.999 -40.001v-50c0 -21.333 6.16699 -38.166 18.5 -50.499s29.166 -18.5 50.499 -18.5c16 0 31.5 4 46.5 12s33.5 21.667 55.5 41v106zM175.001 587.999c0 -13.333 -4.83301 -25 -14.5 -35s-21.5 -15 -35.5 -15s-25.833 5 -35.5 15s-14.5 21.667 -14.5 35
c0 14 4.83301 26 14.5 36s21.5 15 35.5 15s25.833 -5 35.5 -15s14.5 -22 14.5 -36zM352.001 587.999c0 -13.333 -4.83301 -25 -14.5 -35s-21.5 -15 -35.5 -15s-25.833 5 -35.5 15s-14.5 21.667 -14.5 35c0 14 4.83301 26 14.5 36s21.5 15 35.5 15s25.833 -5 35.5 -15
s14.5 -22 14.5 -36zM437.001 18.999l-67 -20.998c-6.66699 -2 -13.167 -3.66699 -19.5 -5s-11.5 -2 -15.5 -2c-15.333 0 -27.333 5.16699 -36 15.5s-13 24.833 -13 43.5v10c-21.333 -26 -42.166 -44.667 -62.499 -56s-43.833 -17 -70.5 -17
c-34.667 0 -63.334 10.667 -86.001 32s-34 49 -34 83c0 25.333 7.5 47.666 22.5 66.999s34.5 31.666 58.5 36.999l171 39v113c0 20 -6.66699 36.5 -20 49.5s-30 19.5 -50 19.5c-10 0 -19.167 -1 -27.5 -3s-19.833 -6.66699 -34.5 -14v-48l-89 -26
c-3.33301 6 -5.5 10.833 -6.5 14.5s-1.5 8.16699 -1.5 13.5c0 14.667 4 28.167 12 40.5s19 23 33 32s30.667 16 50 21s40.333 7.5 63 7.5c44 0 79.333 -10 106 -30s40 -46.667 40 -80v-308h77v-28z" />
    <glyph glyph-name="aring" unicode="&#xe5;" horiz-adv-x="457" 
d="M173 584c0 -12.667 4.5 -23.5 13.5 -32.5s19.833 -13.5 32.5 -13.5c13.333 0 24.5 4.5 33.5 13.5s13.5 19.833 13.5 32.5c0 13.333 -4.5 24.333 -13.5 33s-20.167 13 -33.5 13c-12.667 0 -23.5 -4.33301 -32.5 -13s-13.5 -19.667 -13.5 -33zM285 205l-170.999 -40.001
v-50c0 -21.333 6.16699 -38.166 18.5 -50.499s29.166 -18.5 50.499 -18.5c16 0 31.5 4 46.5 12s33.5 21.667 55.5 41v106zM299.001 583.999c0 -22 -7.83301 -40.667 -23.5 -56s-34.5 -23 -56.5 -23s-40.667 7.66699 -56 23s-23 34 -23 56s7.66699 40.833 23 56.5
s34 23.5 56 23.5s40.833 -7.83301 56.5 -23.5s23.5 -34.5 23.5 -56.5zM437.001 18.999l-67 -20.998c-6.66699 -2 -13.167 -3.66699 -19.5 -5s-11.5 -2 -15.5 -2c-15.333 0 -27.333 5.16699 -36 15.5s-13 24.833 -13 43.5v10c-21.333 -26 -42.166 -44.667 -62.499 -56
s-43.833 -17 -70.5 -17c-34.667 0 -63.334 10.667 -86.001 32s-34 49 -34 83c0 25.333 7.5 47.666 22.5 66.999s34.5 31.666 58.5 36.999l171 39v113c0 20 -6.66699 36.5 -20 49.5s-30 19.5 -50 19.5c-10 0 -19.167 -1 -27.5 -3s-19.833 -6.66699 -34.5 -14v-48l-89 -26
c-3.33301 6 -5.5 10.833 -6.5 14.5s-1.5 8.16699 -1.5 13.5c0 14.667 4 28.167 12 40.5s19 23 33 32s30.667 16 50 21s40.333 7.5 63 7.5c44 0 79.333 -10 106 -30s40 -46.667 40 -80v-308h77v-28z" />
    <glyph glyph-name="ae" unicode="&#xe6;" horiz-adv-x="702" 
d="M184 46c8.66699 0 17.166 1 25.499 3s16.833 5.5 25.5 10.5s18.167 11.667 28.5 20s22.5 18.833 36.5 31.5c-5.33301 14.667 -9.16602 27.5 -11.499 38.5s-3.5 22.167 -3.5 33.5v21l-170 -40v-50c0 -19.333 6.5 -35.5 19.5 -48.5s29.5 -19.5 49.5 -19.5zM589.999 319
c-2 72.667 -34.667 109 -98 109c-85.333 0 -129.333 -54.667 -132 -164zM662.999 44c-30 -20.667 -57.667 -35.3359 -83 -44.0029s-53 -13 -83 -13c-39.333 0 -74.333 7.66699 -105 23s-55.334 37.666 -74.001 66.999c-17.333 -17.333 -32.666 -31.666 -45.999 -42.999
s-26.333 -20.5 -39 -27.5s-25 -12 -37 -15s-25 -4.5 -39 -4.5c-38 0 -68.167 9.83301 -90.5 29.5s-33.5 46.5 -33.5 80.5c0 30.667 8.16699 55 24.5 73s42.5 31.333 78.5 40l149 35v95c0 30 -6 52 -18 66s-31 21 -57 21c-10.667 0 -19.834 -1.16699 -27.501 -3.5
s-17.5 -7.16602 -29.5 -14.499v-48l-88 -26c-4 6 -6.66699 10.833 -8 14.5s-2 7.5 -2 11.5c0 14.667 4.33301 28.334 13 41.001s20.5 23.667 35.5 33s32.5 16.666 52.5 21.999s41.333 8 64 8c34.667 0 61.834 -6 81.501 -18s33.5 -31 41.5 -57
c15.333 24.667 35.5 43.334 60.5 56.001s54.167 19 87.5 19c50 0 90.333 -14.667 121 -44s49.667 -71 57 -125l-310 -74c0 -15.333 0.5 -28.5 1.5 -39.5s3 -21.167 6 -30.5s7 -18.166 12 -26.499s11.5 -17.166 19.5 -26.499c16 -19.333 34.833 -34.5 56.5 -45.5
s44.167 -16.5 67.5 -16.5c8.66699 0 17.167 0.666992 25.5 2s17 3.66602 26 6.99902s19 7.5 30 12.5s23.5 11.5 37.5 19.5z" />
    <glyph glyph-name="ccedilla" unicode="&#xe7;" horiz-adv-x="417" 
d="M401 34c-15.333 -8.66699 -28.4971 -15.834 -39.4971 -21.501s-21 -10.167 -30 -13.5s-17.667 -5.83301 -26 -7.5s-17.5 -2.5 -27.5 -2.5l-40 -51c22.667 -5.33301 40.667 -15 54 -29s20 -30.667 20 -50c0 -12.667 -2.83301 -24.5 -8.5 -35.5s-13.5 -20.5 -23.5 -28.5
s-21.833 -14.167 -35.5 -18.5s-28.5 -6.5 -44.5 -6.5c-5.33301 0 -10.333 0.166992 -15 0.5s-9.5 1 -14.5 2l-17.5 3.5c-6.66699 1.33301 -15 3.33301 -25 6c-2 0.666992 -4.33301 1.33398 -7 2.00098s-5.66699 1.66699 -9 3l27 51
c11.333 -9.33301 23.666 -17.166 36.999 -23.499s24.666 -9.5 33.999 -9.5c11.333 0 20.666 3.66699 27.999 11s11 16.666 11 27.999c0 18.667 -7.16699 34.334 -21.5 47.001s-31.833 19 -52.5 19h-4l69 79c-66 1.33301 -117.5 21.166 -154.5 59.499
s-55.5 90.833 -55.5 157.5c0 34.667 6 66.667 18 96s28.667 54.333 50 75s47 36.834 77 48.501s63 17.5 99 17.5c10.667 0 20.334 -0.5 29.001 -1.5s17.334 -3.16699 26.001 -6.5s18 -7.83301 28 -13.5s22 -12.834 36 -21.501l-51 -58c-8 8.66699 -15 15.667 -21 21
l-17.5 15c-5.66699 4.66699 -11.667 9.16699 -18 13.5s-14.5 9.5 -24.5 15.5c-22.667 -2 -43.334 -7.66699 -62.001 -17s-34.5 -21.833 -47.5 -37.5s-23 -34 -30 -55s-10.5 -43.833 -10.5 -68.5c0 -26.667 4.33301 -51.667 13 -75s20.167 -43.833 34.5 -61.5
s31.166 -31.667 50.499 -42s40 -15.5 62 -15.5c15.333 0 30.5 2.33301 45.5 7s36.5 14 64.5 28z" />
    <glyph glyph-name="egrave" unicode="&#xe8;" horiz-adv-x="461" 
d="M348 296l0.000976562 24c0 30 -9.16699 54.667 -27.5 74s-42.166 29 -71.499 29c-36.667 0 -66.834 -11.333 -90.501 -34s-37.834 -53.667 -42.501 -93h232zM256.001 529l-159 161h93l119 -161h-53zM418.001 42c-18.667 -10.667 -35.168 -19.5029 -49.501 -26.5029
s-27.833 -12.667 -40.5 -17s-25.167 -7.33301 -37.5 -9s-25.833 -2.5 -40.5 -2.5c-32 0 -61.167 5.83301 -87.5 17.5s-49.166 28 -68.499 49s-34.333 45.833 -45 74.5s-16 60.334 -16 95.001s5.33301 66.834 16 96.501s25.667 55.334 45 77.001s42 38.5 68 50.5
s54.667 18 86 18c26.667 0 51.167 -4.5 73.5 -13.5s41.5 -21.5 57.5 -37.5s28.5 -35.167 37.5 -57.5s13.5 -46.833 13.5 -73.5v-27h-315v-11c0 -31.333 4 -60 12 -86s19 -48.333 33 -67s30.833 -33.167 50.5 -43.5s41.5 -15.5 65.5 -15.5c20 0 38.5 3.16699 55.5 9.5
s39.5 18.5 67.5 36.5z" />
    <glyph glyph-name="eacute" unicode="&#xe9;" horiz-adv-x="461" 
d="M348 296l0.000976562 24c0 30 -9.16699 54.667 -27.5 74s-42.166 29 -71.499 29c-36.667 0 -66.834 -11.333 -90.501 -34s-37.834 -53.667 -42.501 -93h232zM202.001 529h-53l119 161h93zM418.001 42c-18.667 -10.667 -35.168 -19.5029 -49.501 -26.5029
s-27.833 -12.667 -40.5 -17s-25.167 -7.33301 -37.5 -9s-25.833 -2.5 -40.5 -2.5c-32 0 -61.167 5.83301 -87.5 17.5s-49.166 28 -68.499 49s-34.333 45.833 -45 74.5s-16 60.334 -16 95.001s5.33301 66.834 16 96.501s25.667 55.334 45 77.001s42 38.5 68 50.5
s54.667 18 86 18c26.667 0 51.167 -4.5 73.5 -13.5s41.5 -21.5 57.5 -37.5s28.5 -35.167 37.5 -57.5s13.5 -46.833 13.5 -73.5v-27h-315v-11c0 -31.333 4 -60 12 -86s19 -48.333 33 -67s30.833 -33.167 50.5 -43.5s41.5 -15.5 65.5 -15.5c20 0 38.5 3.16699 55.5 9.5
s39.5 18.5 67.5 36.5z" />
    <glyph glyph-name="ecircumflex" unicode="&#xea;" horiz-adv-x="461" 
d="M348 296l0.000976562 24c0 30 -9.16699 54.667 -27.5 74s-42.166 29 -71.499 29c-36.667 0 -66.834 -11.333 -90.501 -34s-37.834 -53.667 -42.501 -93h232zM328.001 529l-86 88l-85 -88h-49l113 165h43l107 -165h-43zM418.001 42
c-18.667 -10.667 -35.168 -19.5029 -49.501 -26.5029s-27.833 -12.667 -40.5 -17s-25.167 -7.33301 -37.5 -9s-25.833 -2.5 -40.5 -2.5c-32 0 -61.167 5.83301 -87.5 17.5s-49.166 28 -68.499 49s-34.333 45.833 -45 74.5s-16 60.334 -16 95.001s5.33301 66.834 16 96.501
s25.667 55.334 45 77.001s42 38.5 68 50.5s54.667 18 86 18c26.667 0 51.167 -4.5 73.5 -13.5s41.5 -21.5 57.5 -37.5s28.5 -35.167 37.5 -57.5s13.5 -46.833 13.5 -73.5v-27h-315v-11c0 -31.333 4 -60 12 -86s19 -48.333 33 -67s30.833 -33.167 50.5 -43.5
s41.5 -15.5 65.5 -15.5c20 0 38.5 3.16699 55.5 9.5s39.5 18.5 67.5 36.5z" />
    <glyph glyph-name="edieresis" unicode="&#xeb;" horiz-adv-x="461" 
d="M348 296l0.000976562 24c0 30 -9.16699 54.667 -27.5 74s-42.166 29 -71.499 29c-36.667 0 -66.834 -11.333 -90.501 -34s-37.834 -53.667 -42.501 -93h232zM201.001 588c0 -13.333 -4.83301 -25 -14.5 -35s-21.5 -15 -35.5 -15s-25.833 5 -35.5 15
s-14.5 21.667 -14.5 35c0 14 4.83301 26 14.5 36s21.5 15 35.5 15s25.833 -5 35.5 -15s14.5 -22 14.5 -36zM398.001 588c0 -13.333 -4.83301 -25 -14.5 -35s-21.5 -15 -35.5 -15s-25.833 5 -35.5 15s-14.5 21.667 -14.5 35c0 14 4.83301 26 14.5 36s21.5 15 35.5 15
s25.833 -5 35.5 -15s14.5 -22 14.5 -36zM418.001 42c-18.667 -10.667 -35.168 -19.5029 -49.501 -26.5029s-27.833 -12.667 -40.5 -17s-25.167 -7.33301 -37.5 -9s-25.833 -2.5 -40.5 -2.5c-32 0 -61.167 5.83301 -87.5 17.5s-49.166 28 -68.499 49s-34.333 45.833 -45 74.5
s-16 60.334 -16 95.001s5.33301 66.834 16 96.501s25.667 55.334 45 77.001s42 38.5 68 50.5s54.667 18 86 18c26.667 0 51.167 -4.5 73.5 -13.5s41.5 -21.5 57.5 -37.5s28.5 -35.167 37.5 -57.5s13.5 -46.833 13.5 -73.5v-27h-315v-11c0 -31.333 4 -60 12 -86
s19 -48.333 33 -67s30.833 -33.167 50.5 -43.5s41.5 -15.5 65.5 -15.5c20 0 38.5 3.16699 55.5 9.5s39.5 18.5 67.5 36.5z" />
    <glyph glyph-name="igrave" unicode="&#xec;" horiz-adv-x="282" 
d="M174 529l-158 161h93l119 -161h-54zM260 0h-227v37h76v360h-87v27l144 39h18v-426h76v-37z" />
    <glyph glyph-name="iacute" unicode="&#xed;" horiz-adv-x="282" 
d="M107 529h-54l119 161h93zM260 0h-227v37h76v360h-87v27l144 39h18v-426h76v-37z" />
    <glyph glyph-name="icircumflex" unicode="&#xee;" horiz-adv-x="282" 
d="M211 529l-69 88l-69 -88h-48l95 165h44l90 -165h-43zM260 0h-227v37h76v360h-87v27l144 39h18v-426h76v-37z" />
    <glyph glyph-name="idieresis" unicode="&#xef;" horiz-adv-x="282" 
d="M118 588c0 -13.333 -4.83301 -25 -14.5 -35s-21.5 -15 -35.5 -15s-25.833 5 -35.5 15s-14.5 21.667 -14.5 35c0 14 4.83301 26 14.5 36s21.5 15 35.5 15s25.833 -5 35.5 -15s14.5 -22 14.5 -36zM254 588c0 -13.333 -5 -25 -15 -35s-21.667 -15 -35 -15
c-14 0 -26 5 -36 15s-15 21.667 -15 35c0 14 5 26 15 36s22 15 36 15c13.333 0 25 -5 35 -15s15 -22 15 -36zM260 0h-227v37h76v360h-87v27l144 39h18v-426h76v-37z" />
    <glyph glyph-name="ntilde" unicode="&#xf1;" horiz-adv-x="581" 
d="M197 571c-13.333 0 -25.834 -2.83105 -37.501 -8.49805s-24.5 -15.5 -38.5 -29.5l-25 17c21.333 28 41.5 47.833 60.5 59.5s39.5 17.5 61.5 17.5c9.33301 0 18.333 -0.833008 27 -2.5s15.334 -4.16699 20.001 -7.5l38 -23c18.667 -12 39 -18 61 -18
c8 0 14.833 0.333008 20.5 1s11.167 2.33398 16.5 5.00098s10.833 6.5 16.5 11.5s12.834 11.833 21.501 20.5l24 -16c-12 -14.667 -23 -26.834 -33 -36.501s-19.833 -17.334 -29.5 -23.001s-19.834 -9.66699 -30.501 -12s-22.667 -3.5 -36 -3.5
c-16 0 -29.833 1.66699 -41.5 5s-24.167 9.66602 -37.5 18.999c-8.66699 6 -15.667 10.5 -21 13.5s-10 5.33301 -14 7s-7.66699 2.66699 -11 3s-7.33301 0.5 -12 0.5zM560.999 0.00195312l-226 0.000976562v37h75v293c0 26.667 -6.33301 47.667 -19 63s-30 23 -52 23
c-10.667 0 -20.667 -1.5 -30 -4.5s-19.666 -8.83301 -30.999 -17.5s-24.333 -20.834 -39 -36.501l-55 -60.5v-260h76v-37h-227v37h76v360h-87v27l144 39h18v-112c18.667 22 35.667 40.167 51 54.5s30 26 44 35s28 15.333 42 19s29 5.5 45 5.5
c37.333 0 66.666 -11.167 87.999 -33.5s32 -52.833 32 -91.5v-303h75v-37z" />
    <glyph glyph-name="ograve" unicode="&#xf2;" horiz-adv-x="505" 
d="M252 423c-18.667 0 -36.167 -5 -52.5 -15s-30.5 -23.833 -42.5 -41.5s-21.333 -38.5 -28 -62.5s-10 -50 -10 -78c0 -27.333 3.33301 -53 10 -77s16 -44.833 28 -62.5s26.167 -31.667 42.5 -42s33.833 -15.5 52.5 -15.5s36.167 5 52.5 15s30.5 23.833 42.5 41.5
s21.5 38.5 28.5 62.5s10.5 50 10.5 78s-3.5 54 -10.5 78s-16.5 44.833 -28.5 62.5s-26.167 31.5 -42.5 41.5s-33.833 15 -52.5 15zM262 529l-158 161h93l119 -161h-54zM252 -13c-30 0 -58.333 6.33301 -85 19s-50 29.667 -70 51s-35.667 46.5 -47 75.5s-17 60.167 -17 93.5
c0 32.667 5.66699 63.667 17 93s27 54.666 47 75.999s43.333 38.333 70 51s55 19 85 19s58.333 -6.33301 85 -19s50 -29.667 70 -51s35.667 -46.666 47 -75.999s17 -60.333 17 -93c0 -33.333 -5.66699 -64.5 -17 -93.5s-27 -54.167 -47 -75.5s-43.333 -38.333 -70 -51
s-55 -19 -85 -19z" />
    <glyph glyph-name="oacute" unicode="&#xf3;" horiz-adv-x="505" 
d="M252 423c-18.667 0 -36.167 -5 -52.5 -15s-30.5 -23.833 -42.5 -41.5s-21.333 -38.5 -28 -62.5s-10 -50 -10 -78c0 -27.333 3.33301 -53 10 -77s16 -44.833 28 -62.5s26.167 -31.667 42.5 -42s33.833 -15.5 52.5 -15.5s36.167 5 52.5 15s30.5 23.833 42.5 41.5
s21.5 38.5 28.5 62.5s10.5 50 10.5 78s-3.5 54 -10.5 78s-16.5 44.833 -28.5 62.5s-26.167 31.5 -42.5 41.5s-33.833 15 -52.5 15zM215 529h-53l119 161h92zM252 -13c-30 0 -58.333 6.33301 -85 19s-50 29.667 -70 51s-35.667 46.5 -47 75.5s-17 60.167 -17 93.5
c0 32.667 5.66699 63.667 17 93s27 54.666 47 75.999s43.333 38.333 70 51s55 19 85 19s58.333 -6.33301 85 -19s50 -29.667 70 -51s35.667 -46.666 47 -75.999s17 -60.333 17 -93c0 -33.333 -5.66699 -64.5 -17 -93.5s-27 -54.167 -47 -75.5s-43.333 -38.333 -70 -51
s-55 -19 -85 -19z" />
    <glyph glyph-name="ocircumflex" unicode="&#xf4;" horiz-adv-x="505" 
d="M252 423c-18.667 0 -36.167 -5 -52.5 -15s-30.5 -23.833 -42.5 -41.5s-21.333 -38.5 -28 -62.5s-10 -50 -10 -78c0 -27.333 3.33301 -53 10 -77s16 -44.833 28 -62.5s26.167 -31.667 42.5 -42s33.833 -15.5 52.5 -15.5s36.167 5 52.5 15s30.5 23.833 42.5 41.5
s21.5 38.5 28.5 62.5s10.5 50 10.5 78s-3.5 54 -10.5 78s-16.5 44.833 -28.5 62.5s-26.167 31.5 -42.5 41.5s-33.833 15 -52.5 15zM345 529l-86 88l-85 -88h-49l113 165h43l108 -165h-44zM252 -13c-30 0 -58.333 6.33301 -85 19s-50 29.667 -70 51s-35.667 46.5 -47 75.5
s-17 60.167 -17 93.5c0 32.667 5.66699 63.667 17 93s27 54.666 47 75.999s43.333 38.333 70 51s55 19 85 19s58.333 -6.33301 85 -19s50 -29.667 70 -51s35.667 -46.666 47 -75.999s17 -60.333 17 -93c0 -33.333 -5.66699 -64.5 -17 -93.5s-27 -54.167 -47 -75.5
s-43.333 -38.333 -70 -51s-55 -19 -85 -19z" />
    <glyph glyph-name="otilde" unicode="&#xf5;" horiz-adv-x="505" 
d="M252 423c-18.667 0 -36.167 -5 -52.5 -15s-30.5 -23.833 -42.5 -41.5s-21.333 -38.5 -28 -62.5s-10 -50 -10 -78c0 -27.333 3.33301 -53 10 -77s16 -44.833 28 -62.5s26.167 -31.667 42.5 -42s33.833 -15.5 52.5 -15.5s36.167 5 52.5 15s30.5 23.833 42.5 41.5
s21.5 38.5 28.5 62.5s10.5 50 10.5 78s-3.5 54 -10.5 78s-16.5 44.833 -28.5 62.5s-26.167 31.5 -42.5 41.5s-33.833 15 -52.5 15zM174 572c-13.333 0 -25.668 -2.83105 -37.001 -8.49805s-24.333 -15.5 -39 -29.5l-24 17c21.333 28 41.5 47.833 60.5 59.5
s39.5 17.5 61.5 17.5c9.33301 0 18.333 -0.833008 27 -2.5s15.334 -4.16699 20.001 -7.5l37 -23c18.667 -12 39.334 -18 62.001 -18c8 0 14.833 0.333008 20.5 1s11 2.33398 16 5.00098s10.333 6.5 16 11.5s12.834 11.833 21.501 20.5l25 -16
c-12 -14.667 -23.167 -26.834 -33.5 -36.501s-20.333 -17.334 -30 -23.001s-19.834 -9.66699 -30.501 -12s-22.334 -3.5 -35.001 -3.5c-16.667 0 -30.667 1.66699 -42 5s-23.666 9.66602 -36.999 18.999c-8.66699 6 -15.667 10.5 -21 13.5s-10 5.33301 -14 7
s-7.83301 2.66699 -11.5 3s-7.83398 0.5 -12.501 0.5zM251.998 -12.998c-30 0 -58.333 6.33301 -85 19s-50 29.667 -70 51s-35.667 46.5 -47 75.5s-17 60.167 -17 93.5c0 32.667 5.66699 63.667 17 93s27 54.666 47 75.999s43.333 38.333 70 51s55 19 85 19
s58.333 -6.33301 85 -19s50 -29.667 70 -51s35.667 -46.666 47 -75.999s17 -60.333 17 -93c0 -33.333 -5.66699 -64.5 -17 -93.5s-27 -54.167 -47 -75.5s-43.333 -38.333 -70 -51s-55 -19 -85 -19z" />
    <glyph glyph-name="odieresis" unicode="&#xf6;" horiz-adv-x="505" 
d="M252 423c-18.667 0 -36.167 -5 -52.5 -15s-30.5 -23.833 -42.5 -41.5s-21.333 -38.5 -28 -62.5s-10 -50 -10 -78c0 -27.333 3.33301 -53 10 -77s16 -44.833 28 -62.5s26.167 -31.667 42.5 -42s33.833 -15.5 52.5 -15.5s36.167 5 52.5 15s30.5 23.833 42.5 41.5
s21.5 38.5 28.5 62.5s10.5 50 10.5 78s-3.5 54 -10.5 78s-16.5 44.833 -28.5 62.5s-26.167 31.5 -42.5 41.5s-33.833 15 -52.5 15zM205 588c0 -13.333 -4.83301 -25 -14.5 -35s-21.5 -15 -35.5 -15s-25.833 5 -35.5 15s-14.5 21.667 -14.5 35c0 14 4.83301 26 14.5 36
s21.5 15 35.5 15s25.833 -5 35.5 -15s14.5 -22 14.5 -36zM402 588c0 -13.333 -4.83301 -25 -14.5 -35s-21.5 -15 -35.5 -15s-25.833 5 -35.5 15s-14.5 21.667 -14.5 35c0 14 4.83301 26 14.5 36s21.5 15 35.5 15s25.833 -5 35.5 -15s14.5 -22 14.5 -36zM252 -13
c-30 0 -58.333 6.33301 -85 19s-50 29.667 -70 51s-35.667 46.5 -47 75.5s-17 60.167 -17 93.5c0 32.667 5.66699 63.667 17 93s27 54.666 47 75.999s43.333 38.333 70 51s55 19 85 19s58.333 -6.33301 85 -19s50 -29.667 70 -51s35.667 -46.666 47 -75.999
s17 -60.333 17 -93c0 -33.333 -5.66699 -64.5 -17 -93.5s-27 -54.167 -47 -75.5s-43.333 -38.333 -70 -51s-55 -19 -85 -19z" />
    <glyph glyph-name="divide" unicode="&#xf7;" 
d="M525 208h-500v57h500v-57zM335 427c0 -16 -5.66699 -29.667 -17 -41s-25 -17 -41 -17c-16.667 0 -30.667 5.66699 -42 17s-17 25 -17 41c0 16.667 5.66699 30.667 17 42s25.333 17 42 17c16 0 29.667 -5.66699 41 -17s17 -25.333 17 -42zM335 48
c0 -16.667 -5.66699 -30.667 -17 -42s-25 -17 -41 -17c-16.667 0 -30.667 5.66699 -42 17s-17 25.333 -17 42c0 16 5.66699 29.667 17 41s25.333 17 42 17c16 0 29.667 -5.66699 41 -17s17 -25 17 -41z" />
    <glyph glyph-name="oslash" unicode="&#xf8;" horiz-adv-x="486" 
d="M121 230c0 -21.333 1.33203 -40.335 3.99902 -57.002s7.66699 -33.667 15 -51l211 245c-14 19.333 -28.5 33.333 -43.5 42s-32.5 13 -52.5 13c-19.333 0 -37.166 -4.83301 -53.499 -14.5s-30.5 -23.167 -42.5 -40.5s-21.333 -37.666 -28 -60.999s-10 -48.666 -10 -75.999
zM159.999 85.998c11.333 -17.333 25.5 -30.999 42.5 -40.999s35.5 -15 55.5 -15c18 0 35 5.33301 51 16s30 25 42 43s21.5 39 28.5 63s10.5 49.667 10.5 77c0 16 -1.5 32.667 -4.5 50s-7.5 34.666 -13.5 51.999zM253.999 -13.001c-50.667 0 -95.666 17.334 -134.999 52.001
l-74 -86l-28 26l75 87c-20 26 -34.5 51.667 -43.5 77s-13.5 53.333 -13.5 84c0 32.667 5.83301 63.5 17.5 92.5s27.5 54.167 47.5 75.5s43.333 38.333 70 51s55.334 19 86.001 19c49.333 0 94.666 -17 135.999 -51l75 87l29 -25l-76 -89
c19.333 -28 33.666 -54.667 42.999 -80s14 -52.333 14 -81c0 -32.667 -6 -63.5 -18 -92.5s-28.167 -54.333 -48.5 -76s-44 -38.834 -71 -51.501s-55.5 -19 -85.5 -19z" />
    <glyph glyph-name="ugrave" unicode="&#xf9;" horiz-adv-x="570" 
d="M288 529l-159 161h93l119 -161h-53zM560 28l-144 -36.001h-18v113c-18 -22 -34.667 -40.5 -50 -55.5s-30.166 -27.167 -44.499 -36.5s-28.5 -16 -42.5 -20s-28.667 -6 -44 -6c-38 0 -67.667 11.5 -89 34.5s-32 54.5 -32 94.5v281h-87v27l144 39h19v-335
c0 -60.667 24.333 -91 73 -91c18.667 0 35.5 4.83301 50.5 14.5s33.833 27.834 56.5 54.501c5.33301 5.33301 11.666 12.333 18.999 21s16.333 18.667 27 30v240h-76v31l132 35h19v-407h87v-28z" />
    <glyph glyph-name="uacute" unicode="&#xfa;" horiz-adv-x="570" 
d="M229 529h-53l119 161h93zM560 28l-144 -36.001h-18v113c-18 -22 -34.667 -40.5 -50 -55.5s-30.166 -27.167 -44.499 -36.5s-28.5 -16 -42.5 -20s-28.667 -6 -44 -6c-38 0 -67.667 11.5 -89 34.5s-32 54.5 -32 94.5v281h-87v27l144 39h19v-335
c0 -60.667 24.333 -91 73 -91c18.667 0 35.5 4.83301 50.5 14.5s33.833 27.834 56.5 54.501c5.33301 5.33301 11.666 12.333 18.999 21s16.333 18.667 27 30v240h-76v31l132 35h19v-407h87v-28z" />
    <glyph glyph-name="ucircumflex" unicode="&#xfb;" horiz-adv-x="570" 
d="M366 529l-86 88l-85 -88h-49l113 165h43l108 -165h-44zM560 28l-144 -36.001h-18v113c-18 -22 -34.667 -40.5 -50 -55.5s-30.166 -27.167 -44.499 -36.5s-28.5 -16 -42.5 -20s-28.667 -6 -44 -6c-38 0 -67.667 11.5 -89 34.5s-32 54.5 -32 94.5v281h-87v27l144 39h19
v-335c0 -60.667 24.333 -91 73 -91c18.667 0 35.5 4.83301 50.5 14.5s33.833 27.834 56.5 54.501c5.33301 5.33301 11.666 12.333 18.999 21s16.333 18.667 27 30v240h-76v31l132 35h19v-407h87v-28z" />
    <glyph glyph-name="udieresis" unicode="&#xfc;" horiz-adv-x="570" 
d="M225 588c0 -13.333 -4.83301 -25 -14.5 -35s-21.5 -15 -35.5 -15s-25.833 5 -35.5 15s-14.5 21.667 -14.5 35c0 14 4.83301 26 14.5 36s21.5 15 35.5 15s25.833 -5 35.5 -15s14.5 -22 14.5 -36zM422 588c0 -13.333 -4.83301 -25 -14.5 -35s-21.5 -15 -35.5 -15
s-25.833 5 -35.5 15s-14.5 21.667 -14.5 35c0 14 4.83301 26 14.5 36s21.5 15 35.5 15s25.833 -5 35.5 -15s14.5 -22 14.5 -36zM560 28l-144 -36.001h-18v113c-18 -22 -34.667 -40.5 -50 -55.5s-30.166 -27.167 -44.499 -36.5s-28.5 -16 -42.5 -20s-28.667 -6 -44 -6
c-38 0 -67.667 11.5 -89 34.5s-32 54.5 -32 94.5v281h-87v27l144 39h19v-335c0 -60.667 24.333 -91 73 -91c18.667 0 35.5 4.83301 50.5 14.5s33.833 27.834 56.5 54.501c5.33301 5.33301 11.666 12.333 18.999 21s16.333 18.667 27 30v240h-76v31l132 35h19v-407h87v-28z
" />
    <glyph glyph-name="ydieresis" unicode="&#xff;" horiz-adv-x="443" 
d="M186 572c0 -13.333 -5 -25 -15 -35s-21.667 -15 -35 -15c-14 0 -26 5 -36 15s-15 21.667 -15 35c0 14 5 26 15 36s22 15 36 15c13.333 0 25 -5 35 -15s15 -22 15 -36zM370 571c0 -13.333 -5 -25 -15 -35s-21.667 -15 -35 -15c-14 0 -26 5 -36 15s-15 21.667 -15 35
c0 14 5 26 15 36s22 15 36 15c13.333 0 25 -5 35 -15s15 -22 15 -36zM443 416l-42.0039 0.000976562l-169 -439c-11.333 -30 -25.5 -61.333 -42.5 -94s-33.833 -61 -50.5 -85c-4.66699 -6 -10.167 -13.5 -16.5 -22.5s-14.166 -19.5 -23.499 -31.5l-65 67l35.5 21
c9.66699 6 18.334 12.167 26.001 18.5s14.834 13.166 21.501 20.499s14 16 22 26l18.5 26c5.66699 8 10.834 16.667 15.501 26l14.5 30.5c5 11 10.5 24.167 16.5 39.5l-162 397h-42v37h194v-37h-71l121 -295l112 295h-67v37h154v-37z" />
    <glyph glyph-name="dotlessi" unicode="&#x131;" horiz-adv-x="282" 
d="M260 0h-227v37h76v360h-87v27l144 39h18v-426h76v-37z" />
    <glyph glyph-name="OE" unicode="&#x152;" horiz-adv-x="926" 
d="M369 38c43.333 0 73.833 6.66699 91.5 20s26.5 36.333 26.5 69v397c0 32.667 -8.83301 56.5 -26.5 71.5s-45.834 22.5 -84.501 22.5c-33.333 0 -63.833 -7 -91.5 -21s-51.5 -33.667 -71.5 -59s-35.667 -55.5 -47 -90.5s-17 -73.5 -17 -115.5s5.66699 -80.833 17 -116.5
s26.833 -66.667 46.5 -93s42.834 -47 69.501 -62s55.667 -22.5 87 -22.5zM866 0l-329.999 -0.000976562h-56l-38 -4l-33 -6c-5.33301 -1.33301 -10.666 -2 -15.999 -2h-17c-44.667 0 -86.834 9 -126.501 27s-74.334 42.5 -104.001 73.5s-53.167 67 -70.5 108
s-26 84.5 -26 130.5c0 46.667 8.66699 90.834 26 132.501s40.666 78 69.999 109s63.833 55.5 103.5 73.5s81.834 27 126.501 27c12.667 0 25 -1 37 -3l37 -5l40 -1h47h275v25l46 -1v-157h-46v87h-237v-256h190v74h45v-196h-44v76h-191v-266h246l1 87h45v-133z" />
    <glyph glyph-name="oe" unicode="&#x153;" horiz-adv-x="856" 
d="M112 224c0 -26.667 3.99805 -51.4971 11.998 -74.4971s19.167 -42.833 33.5 -59.5s31.333 -29.834 51 -39.501s40.834 -14.5 63.501 -14.5s43.667 4.83301 63 14.5s36 23.167 50 40.5s25 37.666 33 60.999s12 48.666 12 75.999c0 26.667 -4.16699 51.5 -12.5 74.5
s-19.666 43 -33.999 60s-31.333 30.5 -51 40.5s-40.5 15 -62.5 15c-22.667 0 -43.667 -5 -63 -15s-36 -23.667 -50 -41s-25 -37.833 -33 -61.5s-12 -49.167 -12 -76.5zM738.998 288.003v33c0 34 -8.33301 60.333 -25 79s-40.667 28 -72 28
c-78.667 0 -123.667 -46.667 -135 -140h232zM809.998 42.0029c-17.333 -11.333 -32.835 -20.4961 -46.502 -27.4961s-26.5 -12.5 -38.5 -16.5s-24.167 -6.83301 -36.5 -8.5s-25.833 -2.5 -40.5 -2.5c-91.333 0 -154.333 37 -189 111
c-21.333 -38.667 -47.166 -66.834 -77.499 -84.501s-67.5 -26.5 -111.5 -26.5c-33.333 0 -64.333 6.16699 -93 18.5s-53.667 29.166 -75 50.499s-38.166 46.5 -50.499 75.5s-18.5 60.167 -18.5 93.5s6.33301 64.5 19 93.5s29.667 54.333 51 76s46.5 38.834 75.5 51.501
s59.833 19 92.5 19c40 0 77 -9 111 -27s60.667 -43 80 -75c25.333 36 52.333 62 81 78s62 24 100 24c26 0 49.833 -5 71.5 -15s40.5 -23.667 56.5 -41s28.5 -38 37.5 -62s13.5 -50 13.5 -78v-21h-315c0 -30.667 4 -59 12 -85s19.333 -48.333 34 -67
s32.167 -33.334 52.5 -44.001s42.5 -16 66.5 -16c10 0 19.167 0.666992 27.5 2s17 3.66602 26 6.99902s18.5 7.66602 28.5 12.999s21.667 12.333 35 21z" />
    <glyph glyph-name="Ydieresis" unicode="&#x178;" horiz-adv-x="612" 
d="M268 754c0 -14 -4.83301 -25.833 -14.5 -35.5s-21.5 -14.5 -35.5 -14.5s-25.833 4.83301 -35.5 14.5s-14.5 21.5 -14.5 35.5s4.83301 25.833 14.5 35.5s21.5 14.5 35.5 14.5s25.833 -4.83301 35.5 -14.5s14.5 -21.5 14.5 -35.5zM495 754
c0 -14 -4.83301 -25.833 -14.5 -35.5s-21.5 -14.5 -35.5 -14.5s-25.833 4.83301 -35.5 14.5s-14.5 21.5 -14.5 35.5s4.83301 25.833 14.5 35.5s21.5 14.5 35.5 14.5s25.833 -4.83301 35.5 -14.5s14.5 -21.5 14.5 -35.5zM436 0h-238v37h75v267l-207 319h-58v37h247v-37h-91
l172 -262l159 262h-91v37h200v-37h-52l-192 -313v-273h76v-37z" />
    <glyph glyph-name="florin" unicode="&#x192;" horiz-adv-x="576" 
d="M451 397l-101.999 -0.000976562l-119 -451c-8 -29.333 -19 -56.333 -33 -81s-30 -46 -48 -64s-37.333 -32 -58 -42s-42 -15 -64 -15c-24.667 0 -46 6.16699 -64 18.5s-27 27.166 -27 44.499c0 12.667 4.5 23.334 13.5 32.001s19.833 13 32.5 13
c7.33301 0 13.833 -2.16699 19.5 -6.5s9.5 -10.166 11.5 -17.499l8 -29c2.66699 -7.33301 10.334 -11 23.001 -11c23.333 0 45.5 16.667 66.5 50s39.833 81.333 56.5 144l110 415h-84l13 46h83l36 132c6.66699 24.667 16.167 47.167 28.5 67.5s26.833 37.666 43.5 51.999
s34.834 25.333 54.501 33s40.167 11.5 61.5 11.5c18 0 35.333 -3.66699 52 -11c14.667 -7.33301 27.5 -16.666 38.5 -27.999s16.5 -21.333 16.5 -30c0 -13.333 -4.33301 -24.333 -13 -33s-19.334 -13 -32.001 -13c-8 0 -15.333 2.33301 -22 7s-11.334 11 -14.001 19l-10 31
c-4.66699 14.667 -14.334 22 -29.001 22c-8.66699 0 -18.167 -4.16699 -28.5 -12.5s-20.5 -19.333 -30.5 -33s-19.333 -29.5 -28 -47.5s-15.667 -37 -21 -57l-31 -110h102z" />
    <glyph glyph-name="Delta" unicode="&#x394;" horiz-adv-x="572" 
d="M479 -73c-8.66699 -20.667 -16.499 -38.168 -23.499 -52.501s-14.833 -28 -23.5 -41s-18.667 -26.333 -30 -40l-42 -48.5l-24 19c14 22.667 25.333 42.334 34 59.001s15.5 32.334 20.5 47.001s8.5 29.667 10.5 45s3 32.666 3 51.999v430h-220v-360h96v-37h-247v37h76v360
h-85v24l87 23l1 79c1.33301 64.667 21 115.334 59 152.001s90.333 55 157 55c12.667 0 25 -0.666992 37 -2s24.667 -3.5 38 -6.5s27.833 -6.83301 43.5 -11.5s33.167 -10.667 52.5 -18l-57 -82l-29 26l-22 18.5c-6 5 -11.833 9.5 -17.5 13.5s-11.834 7.66699 -18.501 11
s-14.667 7.66602 -24 12.999c-48 -1.33301 -84.5 -15.333 -109.5 -42s-37.5 -65.667 -37.5 -117v-36v-54h201l77 15h17v-531z" />
    <glyph glyph-name="Delta" unicode="&#x2206;" horiz-adv-x="572" 
d="M479 -73c-8.66699 -20.667 -16.499 -38.168 -23.499 -52.501s-14.833 -28 -23.5 -41s-18.667 -26.333 -30 -40l-42 -48.5l-24 19c14 22.667 25.333 42.334 34 59.001s15.5 32.334 20.5 47.001s8.5 29.667 10.5 45s3 32.666 3 51.999v430h-220v-360h96v-37h-247v37h76v360
h-85v24l87 23l1 79c1.33301 64.667 21 115.334 59 152.001s90.333 55 157 55c12.667 0 25 -0.666992 37 -2s24.667 -3.5 38 -6.5s27.833 -6.83301 43.5 -11.5s33.167 -10.667 52.5 -18l-57 -82l-29 26l-22 18.5c-6 5 -11.833 9.5 -17.5 13.5s-11.834 7.66699 -18.501 11
s-14.667 7.66602 -24 12.999c-48 -1.33301 -84.5 -15.333 -109.5 -42s-37.5 -65.667 -37.5 -117v-36v-54h201l77 15h17v-531z" />
    <glyph glyph-name="Omega" unicode="&#x3a9;" horiz-adv-x="620" 
d="M84 -25v503l480 -252z" />
    <glyph glyph-name="Omega" unicode="&#x2126;" horiz-adv-x="620" 
d="M84 -25v503l480 -252z" />
    <glyph glyph-name="pi" unicode="&#x3c0;" horiz-adv-x="620" 
d="M84 0v453h452v-453h-452z" />
    <glyph glyph-name="endash" unicode="&#x2013;" 
d="M525 208h-500v57h500v-57z" />
    <glyph glyph-name="emdash" unicode="&#x2014;" horiz-adv-x="1000" 
d="M1000 208h-1000v57h1000v-57z" />
    <glyph glyph-name="quoteleft" unicode="&#x2018;" horiz-adv-x="250" 
d="M62 492c0 28 9.5 57.498 28.5 88.498s46.167 61.5 81.5 91.5l25 -31c-24 -19.333 -40.667 -35.5 -50 -48.5s-14 -27.167 -14 -42.5s3.66699 -27.166 11 -35.499s20.666 -15.5 39.999 -21.5c-8 -21.333 -16.5 -36.166 -25.5 -44.499s-22.167 -12.5 -39.5 -12.5
c-15.333 0 -28.666 5.5 -39.999 16.5s-17 24.167 -17 39.5z" />
    <glyph glyph-name="quoteright" unicode="&#x2019;" horiz-adv-x="250" 
d="M188 617c0 -28 -9.49805 -57.667 -28.498 -89s-46.167 -62 -81.5 -92l-25 31c24 19.333 40.667 35.5 50 48.5s14 27.167 14 42.5s-3.83301 27.333 -11.5 36s-20.834 15.667 -39.501 21c8 22 16.5 37 25.5 45s22.167 12 39.5 12c15.333 0 28.666 -5.33301 39.999 -16
s17 -23.667 17 -39z" />
    <glyph glyph-name="quotesinglbase" unicode="&#x201a;" horiz-adv-x="250" 
d="M190 49c0 -28 -9.5 -57.666 -28.5 -88.999s-46.167 -62 -81.5 -92l-24 31c24 19.333 40.667 35.5 50 48.5s14 27.167 14 42.5s-3.83301 27.166 -11.5 35.499s-21.167 15.5 -40.5 21.5c8 22 16.667 37 26 45s22.333 12 39 12c16 0 29.5 -5.33301 40.5 -16
s16.5 -23.667 16.5 -39z" />
    <glyph glyph-name="quotedblleft" unicode="&#x201c;" horiz-adv-x="409" 
d="M62 492c0 28 9.5 57.498 28.5 88.498s46.167 61.5 81.5 91.5l25 -31c-24 -19.333 -40.667 -35.5 -50 -48.5s-14 -27.167 -14 -42.5s3.66699 -27.166 11 -35.499s20.666 -15.5 39.999 -21.5c-8 -21.333 -16.5 -36.166 -25.5 -44.499s-22.167 -12.5 -39.5 -12.5
c-15.333 0 -28.666 5.5 -39.999 16.5s-17 24.167 -17 39.5zM222 491.998c0 28 9.33203 57.498 27.999 88.498s46 61.5 82 91.5l24 -31c-24 -19.333 -40.667 -35.5 -50 -48.5s-14 -27.167 -14 -42.5s3.83301 -27.166 11.5 -35.499s20.834 -15.5 39.501 -21.5
c-8 -21.333 -16.5 -36.166 -25.5 -44.499s-22.167 -12.5 -39.5 -12.5c-15.333 0 -28.5 5.5 -39.5 16.5s-16.5 24.167 -16.5 39.5z" />
    <glyph glyph-name="quotedblright" unicode="&#x201d;" horiz-adv-x="409" 
d="M347 617c0 -28 -9.5 -57.667 -28.5 -89s-46.167 -62 -81.5 -92l-25 31c24.667 19.333 41.5 35.5 50.5 48.5s13.5 27.167 13.5 42.5s-3.66699 27.333 -11 36s-20.666 15.667 -39.999 21c8 22 16.5 37 25.5 45s22.167 12 39.5 12c15.333 0 28.666 -5.33301 39.999 -16
s17 -23.667 17 -39zM188 617c0 -28 -9.49805 -57.667 -28.498 -89s-46.167 -62 -81.5 -92l-25 31c24 19.333 40.667 35.5 50 48.5s14 27.167 14 42.5s-3.83301 27.333 -11.5 36s-20.834 15.667 -39.501 21c8 22 16.5 37 25.5 45s22.167 12 39.5 12
c15.333 0 28.666 -5.33301 39.999 -16s17 -23.667 17 -39z" />
    <glyph glyph-name="quotedblbase" unicode="&#x201e;" horiz-adv-x="409" 
d="M347 49c0 -28 -9.5 -57.666 -28.5 -88.999s-46.167 -62 -81.5 -92l-25 31c24.667 19.333 41.5 35.5 50.5 48.5s13.5 27.167 13.5 42.5s-3.66699 27.166 -11 35.499s-20.666 15.5 -39.999 21.5c8 22 16.5 37 25.5 45s22.167 12 39.5 12
c15.333 0 28.666 -5.33301 39.999 -16s17 -23.667 17 -39zM188 49.001c0 -28 -9.49805 -57.666 -28.498 -88.999s-46.167 -62 -81.5 -92l-25 31c24 19.333 40.667 35.5 50 48.5s14 27.167 14 42.5s-3.83301 27.166 -11.5 35.499s-20.834 15.5 -39.501 21.5
c8 22 16.5 37 25.5 45s22.167 12 39.5 12c15.333 0 28.666 -5.33301 39.999 -16s17 -23.667 17 -39z" />
    <glyph glyph-name="dagger" unicode="&#x2020;" horiz-adv-x="573" 
d="M514 478v-89l-190 30v30zM59 478l190 -29v-30l-190 -30v89zM242 660h88l-28 -190h-31zM271 397h31l23 -190l-25 -455h-27l-25 455z" />
    <glyph glyph-name="daggerdbl" unicode="&#x2021;" horiz-adv-x="573" 
d="M514 -66l-190 29v29l190 31v-89zM59 -66v89l190 -31v-29zM242 -248l29 190h31l28 -190h-88zM514 478v-89l-190 30v30zM59 478l190 -29v-30l-190 -30v89zM242 660h88l-28 -190h-31zM325 206l-23 -192h-31l-23 192l23 191h31z" />
    <glyph glyph-name="bullet" unicode="&#x2022;" horiz-adv-x="352" 
d="M293 231c0 -16 -3 -31.167 -9 -45.5s-14.333 -26.833 -25 -37.5s-23.167 -19 -37.5 -25s-29.5 -9 -45.5 -9s-31.167 3 -45.5 9s-26.833 14.333 -37.5 25s-19 23.167 -25 37.5s-9 29.5 -9 45.5s3 31.167 9 45.5s14.333 26.833 25 37.5s23.167 19 37.5 25s29.5 9 45.5 9
s31.167 -3 45.5 -9s26.833 -14.333 37.5 -25s19 -23.167 25 -37.5s9 -29.5 9 -45.5z" />
    <glyph glyph-name="ellipsis" unicode="&#x2026;" horiz-adv-x="750" 
d="M692 48c0 -16.667 -5.66699 -30.667 -17 -42s-25.333 -17 -42 -17c-16 0 -29.667 5.66699 -41 17s-17 25.333 -17 42c0 16 5.66699 29.667 17 41s25 17 41 17c16.667 0 30.667 -5.66699 42 -17s17 -25 17 -41zM442 48c0 -16.667 -5.66699 -30.667 -17 -42
s-25 -17 -41 -17c-16.667 0 -30.667 5.66699 -42 17s-17 25.333 -17 42c0 16 5.66699 29.667 17 41s25.333 17 42 17c16 0 29.667 -5.66699 41 -17s17 -25 17 -41zM184 48c0 -16.667 -5.83301 -30.667 -17.5 -42s-25.5 -17 -41.5 -17s-29.833 5.66699 -41.5 17
s-17.5 25.333 -17.5 42c0 16 5.83301 29.667 17.5 41s25.5 17 41.5 17s29.833 -5.66699 41.5 -17s17.5 -25 17.5 -41z" />
    <glyph glyph-name="perthousand" unicode="&#x2030;" horiz-adv-x="1234" 
d="M910 162c0 -16 3 -30.833 9 -44.5s14.167 -25.667 24.5 -36s22.5 -18.5 36.5 -24.5s29 -9 45 -9s30.833 3 44.5 9s25.834 14.167 36.501 24.5s19 22.333 25 36s9 28.5 9 44.5s-3 31 -9 45s-14.333 26.167 -25 36.5s-22.834 18.5 -36.501 24.5s-28.5 9 -44.5 9
s-31 -3 -45 -9s-26.167 -14.167 -36.5 -24.5s-18.5 -22.5 -24.5 -36.5s-9 -29 -9 -45zM526 162c0 -16 3 -30.833 9 -44.5s14.167 -25.667 24.5 -36s22.5 -18.5 36.5 -24.5s29 -9 45 -9s30.833 3 44.5 9s25.667 14.167 36 24.5s18.5 22.333 24.5 36s9 28.5 9 44.5
s-3 31 -9 45s-14.167 26.167 -24.5 36.5s-22.333 18.5 -36 24.5s-28.5 9 -44.5 9s-31 -3 -45 -9s-26.167 -14.167 -36.5 -24.5s-18.5 -22.5 -24.5 -36.5s-9 -29 -9 -45zM95 495c0 -16 3 -31 9 -45s14.167 -26.167 24.5 -36.5s22.333 -18.5 36 -24.5s28.5 -9 44.5 -9
s31 3 45 9s26.167 14.167 36.5 24.5s18.5 22.5 24.5 36.5s9 29 9 45s-3 30.833 -9 44.5s-14.167 25.834 -24.5 36.501s-22.5 19 -36.5 25s-29 9 -45 9s-30.833 -3 -44.5 -9s-25.667 -14.333 -36 -25s-18.5 -22.834 -24.5 -36.501s-9 -28.5 -9 -44.5zM1200 162
c0 -24 -4.66699 -46.667 -14 -68s-21.833 -39.833 -37.5 -55.5s-34.167 -28.167 -55.5 -37.5s-44 -14 -68 -14s-46.667 4.66699 -68 14s-40 21.833 -56 37.5s-28.5 34.167 -37.5 55.5s-13.5 44 -13.5 68s4.5 46.667 13.5 68s21.5 40 37.5 56s34.667 28.5 56 37.5
s44 13.5 68 13.5s46.667 -4.5 68 -13.5s39.833 -21.5 55.5 -37.5s28.167 -34.667 37.5 -56s14 -44 14 -68zM816 162c0 -24 -4.66699 -46.667 -14 -68s-21.833 -39.833 -37.5 -55.5s-34.167 -28.167 -55.5 -37.5s-44 -14 -68 -14s-46.667 4.66699 -68 14s-40 21.833 -56 37.5
s-28.5 34.167 -37.5 55.5s-13.5 44 -13.5 68s4.5 46.667 13.5 68s21.5 40 37.5 56s34.667 28.5 56 37.5s44 13.5 68 13.5s46.667 -4.5 68 -13.5s39.833 -21.5 55.5 -37.5s28.167 -34.667 37.5 -56s14 -44 14 -68zM384 495c0 -24 -4.5 -46.667 -13.5 -68s-21.5 -40 -37.5 -56
s-34.667 -28.5 -56 -37.5s-44 -13.5 -68 -13.5s-46.667 4.5 -68 13.5s-39.833 21.5 -55.5 37.5s-28.167 34.667 -37.5 56s-14 44 -14 68s4.66699 46.667 14 68s21.833 40 37.5 56s34.167 28.667 55.5 38s44 14 68 14s46.667 -4.66699 68 -14s40 -22 56 -38
s28.5 -34.667 37.5 -56s13.5 -44 13.5 -68zM115 -46l559 733h69l-575 -733h-53z" />
    <glyph glyph-name="guilsinglleft" unicode="&#x2039;" horiz-adv-x="343" 
d="M171 224l119 -151v-42l-232 193l232 192v-41z" />
    <glyph glyph-name="guilsinglright" unicode="&#x203a;" horiz-adv-x="333" 
d="M174 224l-118 151v41l232 -192l-232 -193v42z" />
    <glyph glyph-name="fraction" unicode="&#x2044;" horiz-adv-x="333" 
d="M123 74h-64l113 224h103z" />
    <glyph glyph-name="fraction" unicode="&#x2215;" horiz-adv-x="333" 
d="M123 74h-64l113 224h103z" />
    <glyph glyph-name="trademark" unicode="&#x2122;" horiz-adv-x="1000" 
d="M906 337h-193v28h63v241l-123 -269l-122 264v-236h59v-28h-151v28h58v266h-58v29h127l98 -204l95 204h147v-29h-63v-266h63v-28zM341 337h-192v28h62v261h-92v-62h-33v110h33v-14h252v14h33v-110h-33v62h-93v-261h63v-28z" />
    <glyph glyph-name="partialdiff" unicode="&#x2202;" horiz-adv-x="646" 
d="M155 232c0 -19.333 2.33301 -36.499 7 -51.499s12.667 -31.5 24 -49.5l245 247c-17.333 11.333 -33.333 19.333 -48 24s-31.667 7 -51 7c-24.667 0 -47.667 -4.5 -69 -13.5s-40 -21.5 -56 -37.5s-28.667 -34.833 -38 -56.5s-14 -44.834 -14 -69.501zM228 88.001
c19.333 -12.667 36.5 -21.3311 51.5 -25.998s32.167 -7 51.5 -7c24.667 0 47.667 4.5 69 13.5s40 21.5 56 37.5s28.5 34.667 37.5 56s13.5 44.333 13.5 69c0 19.333 -2.5 36.666 -7.5 51.999s-13.5 32.666 -25.5 51.999zM330 -11.9961c-28 0 -53.6689 4 -77.002 12
s-47.666 21.667 -72.999 41l-102 -102l-40 42l101 103c-17.333 23.333 -29.833 46.333 -37.5 69s-11.5 48.667 -11.5 78c0 34 6.16699 66 18.5 96s29.333 56 51 78s47.167 39.333 76.5 52s61 19 95 19c28 0 53.333 -3.83301 76 -11.5s46.667 -20.834 72 -39.501l90 92
l42 -42l-90 -92c18.667 -25.333 32 -49.666 40 -72.999s12 -49.333 12 -78c0 -33.333 -6.5 -64.833 -19.5 -94.5s-30.5 -55.5 -52.5 -77.5s-47.667 -39.5 -77 -52.5s-60.666 -19.5 -93.999 -19.5z" />
    <glyph glyph-name="product" unicode="&#x220f;" horiz-adv-x="620" 
d="M115 27h398v398h-398v-398zM84 0v453h452v-453h-452z" />
    <glyph glyph-name="summation" unicode="&#x2211;" 
d="M514 29l-42 -41l-197 196l-197 -197l-42 42l197 197l-197 197l42 42l197 -197l197 197l42 -42l-197 -197z" />
    <glyph glyph-name="approxequal" unicode="&#x2248;" horiz-adv-x="544" 
d="M165 160c-20 0 -40.8311 -4.16602 -62.498 -12.499s-42.5 -20.166 -62.5 -35.499l-29 42c26 21.333 52.833 37.833 80.5 49.5s53.167 17.5 76.5 17.5s50.666 -7 81.999 -21l50 -22c15.333 -6.66699 28.166 -11.334 38.499 -14.001s21.166 -4 32.499 -4
c23.333 0 44.5 3.66699 63.5 11s40.833 19.666 65.5 36.999l33 -44c-29.333 -21.333 -57.166 -36.833 -83.499 -46.5s-54.166 -14.5 -83.499 -14.5c-10 0 -19.5 0.5 -28.5 1.5s-18.333 3 -28 6s-20.334 6.83301 -32.001 11.5s-25.5 10.667 -41.5 18s-29 12.5 -39 15.5
s-20.667 4.5 -32 4.5zM165.002 298.001c-20 0 -40.832 -4.16504 -62.499 -12.498s-42.5 -20.166 -62.5 -35.499l-29 41c26.667 21.333 53.5 37.833 80.5 49.5s52.833 17.5 77.5 17.5c11.333 0 23.833 -1.83301 37.5 -5.5s28.167 -8.83398 43.5 -15.501l50 -21
c15.333 -6.66699 28.166 -11.334 38.499 -14.001s21.166 -4 32.499 -4c23.333 0 44.5 3.66699 63.5 11s40.833 19.666 65.5 36.999l33 -44c-29.333 -21.333 -57.166 -36.833 -83.499 -46.5s-54.166 -14.5 -83.499 -14.5c-10 0 -19.5 0.5 -28.5 1.5s-18.333 2.83301 -28 5.5
s-20.334 6.5 -32.001 11.5l-41.5 18.5c-16 7.33301 -29 12.5 -39 15.5s-20.667 4.5 -32 4.5z" />
    <glyph glyph-name="notequal" unicode="&#x2260;" 
d="M525 135h-278l-92 -145l-50 30l74 115h-154v57h189l51 83h-240v57h276l84 135l50 -34l-63 -101h152l1 -57h-189l-53 -83h242v-57z" />
    <glyph glyph-name="lessequal" unicode="&#x2264;" 
d="M511 0h-472v57h472v-57zM511 101l-472 159v54l472 160v-63l-396 -124l396 -124v-62z" />
    <glyph glyph-name="greaterequal" unicode="&#x2265;" 
d="M39 0v57h472v-57h-472zM39 101v62l396 124l-396 124v63l472 -160v-54z" />
    <glyph glyph-name="lozenge" unicode="&#x25ca;" horiz-adv-x="377" 
d="M191 412l-127 -184l127 -184l128 184zM191 465l172 -237l-172 -240l-171 240z" />
    <glyph glyph-name=".null" horiz-adv-x="0" 
 />
    <glyph glyph-name="nonmarkingreturn" horiz-adv-x="250" 
 />
  </font>
</defs>
</svg>
