<svg xmlns="http://www.w3.org/2000/svg" viewBox="0 0 67 67" width="500" height="500">
    <rect width="57.681" height="62.899" x="2.802" y="-11.841" ry="0" fill="none"/>
    <rect width="65.83" height="65.83" x=".585" y=".585" ry="2.398" fill="none" stroke="maroon" stroke-width="1.17"/>
    <g transform="translate(2.518 1.626)">
        <path d="M39 25H24v-5h11A11.013 11.013 0 0046 9V3a1 1 0 00-1-1H19a5.006 5.006 0 00-5 5v31a11.013 11.013 0 0011 11h4v7h-2a3 3 0 000 6h10a3 3 0 000-6h-2v-7h15V36a11.013 11.013 0 00-11-11zm0 2a8.953 8.953 0 015.644 2H35v2h11.478a8.962 8.962 0 011 2H39v2h8.941A8.935 8.935 0 0148 36v1h-4v2h4v2H29a3 3 0 01-3-3V27zm-4-9H24v-8h19.941A9.01 9.01 0 0135 18zM24 4h20v4H24zm-8 3a3 3 0 013-3h3v21h-6zm21 51a1 1 0 010 2H27a1 1 0 010-2zm-4-2h-2v-7h2zm15-9H25a9.01 9.01 0 01-9-9V27h2v7h2v-7h4v11a5.006 5.006 0 005 5h19z" fill="#8b0000"/>
        <path d="M18 36h2v2h-2z"/>
        <circle cx="20.5" cy="7.5" r="1.5"/>
    </g>
    <path d="M26.437 7.605V5.578H46.54v4.055H26.437z" fill="#f60"/>
    <path d="M26.437 15.625v-4.066h20.08l-.142.768c-.295 1.594-1.123 3.188-2.318 4.465a9.294 9.294 0 01-4.3 2.613c-.763.216-.916.221-7.05.253l-6.27.033z" fill="#fc0"/>
    <path d="M31.034 42.573c-1.137-.164-2.058-.933-2.45-2.043l-.124-.353-.012-5.77-.012-5.768h6.68c4.323 0 6.854.016 7.173.045 1.68.152 3.39.8 4.668 1.766l.19.144h-9.66v2.04h11.572l.194.308c.195.31.661 1.251.747 1.508l.047.138h-8.53v2.04h4.499c4.244 0 4.5.004 4.527.074.016.041.04.49.054 1l.025.923h-4.044v2.04H50.609v1.955l-9.66-.005c-5.312-.003-9.774-.022-9.915-.042z" stroke="maroon" stroke-width=".043"/>
    <path d="M33.553 54.137v-3.485h1.955V57.621h-1.955zM29.243 61.563c-.228-.06-.596-.423-.658-.648a.893.893 0 01.054-.682c.107-.229.303-.421.525-.514.112-.047 1.071-.058 5.355-.057 4.97.001 5.226.005 5.387.08.647.296.778 1.177.241 1.62-.32.265-.08.255-5.656.25-3.352-.003-5.138-.02-5.248-.049z" fill="#f60" stroke="maroon" stroke-width=".042"/>
</svg>
