<?xml version="1.0" encoding="UTF-8" standalone="no"?>
<svg
   xmlns:dc="http://purl.org/dc/elements/1.1/"
   xmlns:cc="http://creativecommons.org/ns#"
   xmlns:rdf="http://www.w3.org/1999/02/22-rdf-syntax-ns#"
   xmlns:svg="http://www.w3.org/2000/svg"
   xmlns="http://www.w3.org/2000/svg"
   xmlns:sodipodi="http://sodipodi.sourceforge.net/DTD/sodipodi-0.dtd"
   xmlns:inkscape="http://www.inkscape.org/namespaces/inkscape"
   viewBox="0 0 67 67"
   width="500"
   height="500"
   version="1.1"
   id="svg4590"
   sodipodi:docname="elegant_logo.svg"
   inkscape:version="0.92.2 5c3e80d, 2017-08-06"
   inkscape:export-filename="/Users/talha/Repos/elegant/elegant-logo/elegant_logo2.png"
   inkscape:export-xdpi="96"
   inkscape:export-ydpi="96">
  <metadata
     id="metadata4596">
    <rdf:RDF>
      <cc:Work
         rdf:about="">
        <dc:format>image/svg+xml</dc:format>
        <dc:type
           rdf:resource="http://purl.org/dc/dcmitype/StillImage" />
        <dc:title></dc:title>
      </cc:Work>
    </rdf:RDF>
  </metadata>
  <defs
     id="defs4594" />
  <sodipodi:namedview
     pagecolor="#ffffff"
     bordercolor="#666666"
     borderopacity="1"
     objecttolerance="10"
     gridtolerance="10"
     guidetolerance="10"
     inkscape:pageopacity="0"
     inkscape:pageshadow="2"
     inkscape:window-width="1682"
     inkscape:window-height="1011"
     id="namedview4592"
     showgrid="false"
     inkscape:zoom="1.656"
     inkscape:cx="244.86715"
     inkscape:cy="250"
     inkscape:window-x="0"
     inkscape:window-y="0"
     inkscape:window-maximized="0"
     inkscape:current-layer="svg4590"
     inkscape:pagecheckerboard="true" />
  <rect
     width="57.681"
     height="62.899"
     x="2.802"
     y="-11.841"
     ry="0"
     fill="none"
     id="rect4570" />
  <rect
     width="65.83"
     height="65.83"
     x=".585"
     y=".585"
     ry="2.398"
     fill="none"
     stroke="maroon"
     stroke-width="1.17"
     id="rect4572" />
  <g
     transform="translate(2.518,1.626)"
     id="g4580">
    <path
       d="M 39,25 H 24 V 20 H 35 A 11.013,11.013 0 0 0 46,9 V 3 A 1,1 0 0 0 45,2 H 19 a 5.006,5.006 0 0 0 -5,5 v 31 a 11.013,11.013 0 0 0 11,11 h 4 v 7 h -2 a 3,3 0 0 0 0,6 h 10 a 3,3 0 0 0 0,-6 H 35 V 49 H 50 V 36 A 11.013,11.013 0 0 0 39,25 Z m 0,2 a 8.953,8.953 0 0 1 5.644,2 H 35 v 2 h 11.478 a 8.962,8.962 0 0 1 1,2 H 39 v 2 h 8.941 A 8.935,8.935 0 0 1 48,36 v 1 h -4 v 2 h 4 v 2 H 29 A 3,3 0 0 1 26,38 V 27 Z M 35,18 H 24 V 10 H 43.941 A 9.01,9.01 0 0 1 35,18 Z M 24,4 H 44 V 8 H 24 Z m -8,3 a 3,3 0 0 1 3,-3 h 3 v 21 h -6 z m 21,51 a 1,1 0 0 1 0,2 H 27 a 1,1 0 0 1 0,-2 z m -4,-2 h -2 v -7 h 2 z M 48,47 H 25 A 9.01,9.01 0 0 1 16,38 V 27 h 2 v 7 h 2 v -7 h 4 v 11 a 5.006,5.006 0 0 0 5,5 h 19 z"
       id="path4574"
       inkscape:connector-curvature="0"
       style="fill:#8b0000" />
    <path
       d="m 18,36 h 2 v 2 h -2 z"
       id="path4576"
       inkscape:connector-curvature="0" />
    <circle
       cx="20.5"
       cy="7.5"
       r="1.5"
       id="circle4578" />
  </g>
  <path
     d="M26.437 7.605V5.578H46.54v4.055H26.437z"
     fill="#f60"
     id="path4582" />
  <path
     d="M26.437 15.625v-4.066h20.08l-.142.768c-.295 1.594-1.123 3.188-2.318 4.465a9.294 9.294 0 01-4.3 2.613c-.763.216-.916.221-7.05.253l-6.27.033z"
     fill="#fc0"
     id="path4584" />
  <path
     d="M31.034 42.573c-1.137-.164-2.058-.933-2.45-2.043l-.124-.353-.012-5.77-.012-5.768h6.68c4.323 0 6.854.016 7.173.045 1.68.152 3.39.8 4.668 1.766l.19.144h-9.66v2.04h11.572l.194.308c.195.31.661 1.251.747 1.508l.047.138h-8.53v2.04h4.499c4.244 0 4.5.004 4.527.074.016.041.04.49.054 1l.025.923h-4.044v2.04H50.609v1.955l-9.66-.005c-5.312-.003-9.774-.022-9.915-.042z"
     stroke="maroon"
     stroke-width=".043"
     id="path4586" />
  <path
     d="M33.553 54.137v-3.485h1.955V57.621h-1.955zM29.243 61.563c-.228-.06-.596-.423-.658-.648a.893.893 0 01.054-.682c.107-.229.303-.421.525-.514.112-.047 1.071-.058 5.355-.057 4.97.001 5.226.005 5.387.08.647.296.778 1.177.241 1.62-.32.265-.08.255-5.656.25-3.352-.003-5.138-.02-5.248-.049z"
     fill="#f60"
     stroke="maroon"
     stroke-width=".042"
     id="path4588" />
  <path
     style="opacity:1;fill:#ffffff;fill-opacity:1;stroke:#ffffff;stroke-width:0.60386473"
     d="m 17.210145,489.85851 c -2.745378,-1.18916 -5.221775,-3.57038 -6.848782,-6.58556 L 9.057971,480.85749 V 250.18116 19.504831 l 1.420512,-2.884776 c 1.563646,-3.175452 4.308551,-5.579885 7.787199,-6.8212912 3.374526,-1.2042494 460.094108,-1.2042494 463.468638,0 3.47864,1.2414062 6.22355,3.6458392 7.7872,6.8212912 l 1.42051,2.884776 V 250.18116 480.85749 l -1.30339,2.41546 c -1.66337,3.08256 -4.1325,5.42085 -6.98035,6.61047 -2.01676,0.84246 -25.69284,0.93543 -232.78986,0.9142 -204.644783,-0.021 -230.782198,-0.12648 -232.658285,-0.93911 z M 304.71417,472.86674 c 4.53546,-2.21922 8.10761,-5.76015 10.61641,-10.52362 1.5643,-2.97013 1.69819,-3.74927 1.69569,-9.86727 -0.002,-5.77008 -0.19065,-7.02163 -1.43372,-9.52901 -2.26368,-4.56607 -6.2987,-8.60769 -10.81528,-10.83297 -3.9881,-1.9649 -4.10325,-1.98266 -14.15146,-2.18289 l -10.13064,-0.20186 v -25.91529 -25.91528 h 55.88454 55.88455 l -0.21157,-54.19686 c -0.20404,-52.26879 -0.25608,-54.3902 -1.46293,-59.63164 -3.76889,-16.36861 -10.75722,-29.38155 -22.1604,-41.26481 -8.16479,-8.50852 -23.37913,-17.5874 -35.07802,-20.93215 -11.62567,-3.32383 -11.4772,-3.31731 -75.65206,-3.31994 l -59.32971,-0.002 V 180.1639 161.77707 l 46.34661,-0.22002 c 44.26488,-0.21014 46.59073,-0.27611 51.7814,-1.46867 29.41077,-6.75715 52.26148,-26.87759 61.35699,-54.02585 3.95086,-11.792572 4.23963,-14.512264 4.5889,-43.219767 0.17469,-14.358581 0.1258,-27.38568 -0.10865,-28.949108 -0.31019,-2.06847 -0.97065,-3.386976 -2.42523,-4.841556 L 357.91063,27.05314 H 256.33716 c -112.54445,0 -104.56847,-0.280281 -113.01095,3.971282 -5.27533,2.656612 -11.96669,8.948265 -14.99815,14.102222 -1.28351,2.182157 -2.96499,6.005602 -3.73665,8.496544 l -1.403,4.528986 V 181.94444 305.73671 l 1.36254,6.15243 c 3.64814,16.47269 10.71008,29.83025 21.74404,41.12852 11.26332,11.53314 25.06842,19.30665 41.20501,23.20211 4.53298,1.09429 7.62053,1.27097 26.41908,1.51177 l 21.28623,0.27267 v 25.86347 25.86347 l -10.41666,0.20085 c -9.79869,0.18894 -10.61998,0.29616 -13.84369,1.80738 -12.68952,5.94862 -17.19488,22.07446 -9.35861,33.49688 2.66934,3.89093 7.11942,7.22109 11.5779,8.66417 3.4616,1.12043 5.49496,1.16706 45.59179,1.04557 l 41.9686,-0.12716 z"
     id="path4598"
     inkscape:connector-curvature="0"
     transform="scale(0.134)" />
  <path
     style="opacity:1;fill:#ffffff;fill-opacity:1;stroke:#ffffff;stroke-width:0.60386473"
     d="m 197.7657,362.12707 c -9.58258,-1.09638 -21.83598,-5.72713 -30.21998,-11.4206 -11.31628,-7.68473 -20.8974,-20.34857 -25.39123,-33.56081 -3.50315,-10.29957 -3.56753,-11.37335 -3.56753,-59.49529 v -44.00303 h 7.24637 7.24638 v 26.26812 26.26811 h 7.54831 7.54831 v -26.26811 -26.26812 h 14.79468 14.79469 l 0.009,43.62923 c 0.01,48.22531 -0.0335,47.60568 3.86656,55.25578 4.51086,8.84821 11.435,14.93379 21.41463,18.82119 l 3.99731,1.55709 74.72826,0.1647 74.72826,0.16471 v 14.78094 14.78095 l -87.10749,-0.0783 c -47.90911,-0.0431 -89.14553,-0.31152 -91.63647,-0.59652 z m -29.58937,-73.90243 v -7.54831 h -7.54831 -7.54831 v 7.54831 7.54831 h 7.54831 7.54831 z"
     id="path4600"
     inkscape:connector-curvature="0"
     transform="scale(0.134)" />
  <path
     style="opacity:1;fill:#ffffff;fill-opacity:1;stroke:#ffffff;stroke-width:0.60386473"
     d="m 138.58696,129.80612 c 0,-75.935713 -0.21973,-71.569479 3.91503,-77.796873 2.35493,-3.54679 6.00102,-6.444245 10.4716,-8.321519 2.45105,-1.029235 4.59593,-1.215504 16.2595,-1.412027 l 13.43599,-0.226388 v 10.013991 c 0,5.507695 -0.24048,10.013991 -0.53441,10.013991 -0.29393,0 -0.95919,-0.648288 -1.47836,-1.440639 -1.59414,-2.432961 -6.00354,-4.180003 -9.76312,-3.868229 -13.73625,1.139117 -14.05457,21.36298 -0.35696,22.679147 3.83078,0.368089 6.71292,-0.633909 9.20688,-3.200846 1.1111,-1.143603 2.22398,-2.082172 2.47307,-2.085709 0.2491,-0.0035 0.4529,27.982701 0.4529,62.191641 v 62.19806 h -22.04106 -22.04106 z"
     id="path4602"
     inkscape:connector-curvature="0"
     transform="scale(0.134)" />
</svg>
