<?xml version="1.0" encoding="UTF-8" standalone="no"?>
<svg
   xmlns:dc="http://purl.org/dc/elements/1.1/"
   xmlns:cc="http://creativecommons.org/ns#"
   xmlns:rdf="http://www.w3.org/1999/02/22-rdf-syntax-ns#"
   xmlns:svg="http://www.w3.org/2000/svg"
   xmlns="http://www.w3.org/2000/svg"
   xmlns:sodipodi="http://sodipodi.sourceforge.net/DTD/sodipodi-0.dtd"
   xmlns:inkscape="http://www.inkscape.org/namespaces/inkscape"
   viewBox="0 0 67 67"
   x="0px"
   y="0px"
   version="1.1"
   id="svg3777"
   sodipodi:docname="logo1.svg"
   inkscape:version="0.92.2 5c3e80d, 2017-08-06"
   inkscape:export-filename="/Users/talha/Repos/elegant/elegant-logo/logo2.png"
   inkscape:export-xdpi="1997.5249"
   inkscape:export-ydpi="1997.5249"
   width="500"
   height="500">
  <metadata
     id="metadata3783">
    <rdf:RDF>
      <cc:Work
         rdf:about="">
        <dc:format>image/svg+xml</dc:format>
        <dc:type
           rdf:resource="http://purl.org/dc/dcmitype/StillImage" />
        <dc:title></dc:title>
        <cc:license
           rdf:resource="http://creativecommons.org/licenses/by/4.0/" />
      </cc:Work>
      <cc:License
         rdf:about="http://creativecommons.org/licenses/by/4.0/">
        <cc:permits
           rdf:resource="http://creativecommons.org/ns#Reproduction" />
        <cc:permits
           rdf:resource="http://creativecommons.org/ns#Distribution" />
        <cc:requires
           rdf:resource="http://creativecommons.org/ns#Notice" />
        <cc:requires
           rdf:resource="http://creativecommons.org/ns#Attribution" />
        <cc:permits
           rdf:resource="http://creativecommons.org/ns#DerivativeWorks" />
      </cc:License>
    </rdf:RDF>
  </metadata>
  <defs
     id="defs3781" />
  <sodipodi:namedview
     pagecolor="#ffffff"
     bordercolor="#666666"
     borderopacity="1"
     objecttolerance="10"
     gridtolerance="10"
     guidetolerance="10"
     inkscape:pageopacity="0"
     inkscape:pageshadow="2"
     inkscape:window-width="1686"
     inkscape:window-height="1006"
     id="namedview3779"
     showgrid="false"
     inkscape:zoom="8.3195532"
     inkscape:cx="30.264085"
     inkscape:cy="44.524468"
     inkscape:window-x="0"
     inkscape:window-y="0"
     inkscape:window-maximized="0"
     inkscape:current-layer="svg3777"
     inkscape:pagecheckerboard="true"
     showborder="true"
     borderlayer="false">
    <inkscape:grid
       type="xygrid"
       id="grid3799" />
  </sodipodi:namedview>
  <rect
     style="fill:none"
     id="rect3797"
     width="57.681164"
     height="62.898552"
     x="2.8019323"
     y="-11.84058"
     ry="0" />
  <rect
     style="fill:none;stroke:#800000;stroke-width:1.16959083"
     id="rect3801"
     width="65.830406"
     height="65.830406"
     x="0.58479542"
     y="0.58479881"
     ry="2.3977981" />
  <g
     id="g3775"
     transform="translate(2.518443,1.626)">
    <path
       d="M 39,25 H 24 V 20 H 35 A 11.013,11.013 0 0 0 46,9 V 3 A 1,1 0 0 0 45,2 H 19 a 5.006,5.006 0 0 0 -5,5 v 31 a 11.013,11.013 0 0 0 11,11 h 4 v 7 h -2 a 3,3 0 0 0 0,6 h 10 a 3,3 0 0 0 0,-6 H 35 V 49 H 50 V 36 A 11.013,11.013 0 0 0 39,25 Z m 0,2 a 8.953,8.953 0 0 1 5.644,2 H 35 v 2 h 11.478 a 8.962,8.962 0 0 1 1,2 H 39 v 2 h 8.941 A 8.935,8.935 0 0 1 48,36 v 1 h -4 v 2 h 4 v 2 H 29 A 3,3 0 0 1 26,38 V 27 Z M 35,18 H 24 V 10 H 43.941 A 9.01,9.01 0 0 1 35,18 Z M 24,4 H 44 V 8 H 24 Z m -8,3 a 3,3 0 0 1 3,-3 h 3 v 21 h -6 z m 21,51 a 1,1 0 0 1 0,2 H 27 a 1,1 0 0 1 0,-2 z m -4,-2 h -2 v -7 h 2 z M 48,47 H 25 A 9.01,9.01 0 0 1 16,38 V 27 h 2 v 7 h 2 v -7 h 4 v 11 a 5.006,5.006 0 0 0 5,5 h 19 z"
       id="path3769"
       inkscape:connector-curvature="0"
       style="fill:#8b0000" />
    <rect
       x="18"
       y="36"
       width="2"
       height="2"
       id="rect3771"
       style="fill:#000" />
    <circle
       cx="20.5"
       cy="7.5"
       r="1.5"
       id="circle3773"
       style="fill:#000" />
  </g>
  <path
     style="fill:#ff6600;stroke-width:0.09946314"
     d="m 26.436771,7.605389 v -2.0275 h 10.0515 10.0515 v 2.0275 2.0274999 h -10.0515 -10.0515 z"
     id="path3787"
     inkscape:connector-curvature="0" />
  <path
     style="fill:#ffcc00;stroke-width:0.09831979"
     d="m 26.436771,15.624893 v -4.066004 h 10.04 10.04 l -0.142034,0.76768 c -0.294932,1.594063 -1.122435,3.188397 -2.317856,4.465769 -1.17419,1.254685 -2.634113,2.141852 -4.299135,2.612498 -0.763833,0.215911 -0.91631,0.22139 -7.050846,0.253371 l -6.270129,0.03268 z"
     id="path3789"
     inkscape:connector-curvature="0" />
  <path
     style="opacity:1;fill:#000000;fill-opacity:1;stroke:#800000;stroke-width:0.0426889"
     d="M 31.034151,42.57276 C 29.896946,42.408587 28.975516,41.640247 28.58418,40.529832 l -0.124515,-0.353309 -0.01175,-5.768846 -0.01175,-5.768845 6.679999,1.45e-4 c 4.322674,9.4e-5 6.854027,0.01589 7.173147,0.04477 1.678958,0.15192 3.390534,0.799463 4.667899,1.766014 l 0.190165,0.143894 h -4.830457 -4.830455 v 1.019906 1.019906 h 5.786102 5.7861 l 0.194027,0.308497 c 0.195153,0.310289 0.661501,1.25105 0.74764,1.50821 l 0.04627,0.138112 h -4.264585 -4.264586 v 1.019907 1.019906 h 4.498081 c 4.244242,0 4.499721,0.0042 4.52711,0.07437 0.01596,0.0409 0.04032,0.490298 0.05412,0.998658 l 0.0251,0.924289 H 48.599701 46.57756 v 1.019906 1.019907 h 2.015481 2.015481 v 0.977411 0.97741 l -9.659299,-0.0052 c -5.312615,-0.0028 -9.774392,-0.0218 -9.915063,-0.04211 z"
     id="path4715"
     inkscape:connector-curvature="0" />
  <path
     style="opacity:1;fill:#ff6600;fill-opacity:1;stroke:#800000;stroke-width:0.04249668"
     d="m 33.55318,54.136744 v -3.484728 h 0.977424 0.977424 v 3.484728 3.484728 H 34.530604 33.55318 Z"
     id="path4719"
     inkscape:connector-curvature="0" />
  <path
     style="opacity:1;fill:#ff6600;fill-opacity:1;stroke:#800000;stroke-width:0.04249668"
     d="m 29.243431,61.563403 c -0.228314,-0.06036 -0.596648,-0.423325 -0.658033,-0.648438 -0.07062,-0.259002 -0.05586,-0.446291 0.05376,-0.681684 0.106669,-0.22907 0.303186,-0.421763 0.524877,-0.514663 0.112253,-0.04704 1.071454,-0.05714 5.354582,-0.05637 4.970148,8.89e-4 5.225902,0.0046 5.387819,0.07891 0.646419,0.296531 0.777117,1.177469 0.24054,1.621295 -0.320072,0.264746 -0.07939,0.254136 -5.655956,0.249316 -3.351674,-0.0029 -5.137878,-0.01936 -5.247587,-0.04836 z"
     id="path4721"
     inkscape:connector-curvature="0" />
</svg>
