<svg xmlns="http://www.w3.org/2000/svg" viewBox="0 0 64 80" x="0px" y="0px">
    <g>
        <path  fill="#8b0000" d="M39,25H24V20H35A11.013,11.013,0,0,0,46,9V3a1,1,0,0,0-1-1H19a5.006,5.006,0,0,0-5,5V38A11.013,11.013,0,0,0,25,49h4v7H27a3,3,0,0,0,0,6H37a3,3,0,0,0,0-6H35V49H50V36A11.013,11.013,0,0,0,39,25Zm0,2a8.953,8.953,0,0,1,5.644,2H35v2H46.478a8.962,8.962,0,0,1,1,2H39v2h8.941A8.935,8.935,0,0,1,48,36v1H44v2h4v2H29a3,3,0,0,1-3-3V27Zm-4-9H24V10H43.941A9.01,9.01,0,0,1,35,18ZM24,4H44V8H24ZM16,7a3,3,0,0,1,3-3h3V25H16ZM37,58a1,1,0,0,1,0,2H27a1,1,0,0,1,0-2Zm-4-2H31V49h2Zm15-9H25a9.01,9.01,0,0,1-9-9V27h2v7h2V27h4V38a5.006,5.006,0,0,0,5,5H48Z"/>
        <rect  fill="#8b0000" x="18" y="36" width="2" height="2"/>
        <circle  fill="#8b0000" cx="20.5" cy="7.5" r="1.5"/>
    </g>
</svg>
